<svg width="71" height="70" viewBox="0 0 71 70" fill="none" xmlns="http://www.w3.org/2000/svg">
<path d="M60.62 26.5535C58.7733 27.3311 57.4449 29.2427 56.1489 30.6682C54.3994 32.5798 52.6822 34.5237 50.4791 35.9493C49.9931 36.2409 49.5071 36.5325 49.0211 36.824C51.5483 34.6533 53.233 31.5106 53.8162 27.9791C53.9458 27.2015 54.0106 26.3915 54.0106 25.5815C53.9782 22.5684 53.0386 19.5553 51.2567 17.1254C46.2024 10.3216 35.6079 9.51158 29.1605 14.7602C25.8882 17.417 24.171 21.3697 24.171 25.5815C24.171 30.733 26.9897 34.6857 31.0396 37.1156C30.7804 37.148 30.5212 37.1804 30.262 37.2128C29.5169 36.824 28.7717 36.4353 28.0913 35.9817C25.8882 34.5885 24.171 32.6122 22.4215 30.7006C21.1255 29.2426 19.7971 27.3635 17.9504 26.5859C15.2612 25.452 12.8637 27.5579 12.9933 30.3118C13.1229 33.0657 14.8401 35.4957 16.6868 37.5692C19.0195 40.226 21.8707 42.4291 24.8838 44.2759C26.4713 45.2478 26.1798 46.9326 26.3417 48.5201C26.3741 48.8117 26.6657 51.5981 26.9249 51.5981H51.5483C52.1315 49.2653 52.2611 47.1918 52.0991 45.4098C52.3582 45.4422 52.5202 45.5718 52.9738 45.3126C55.9869 43.4659 59.5509 40.226 61.8836 37.5692C63.6979 35.4957 65.4151 33.0657 65.5771 30.3118C65.7067 27.5255 63.3092 25.4196 60.62 26.5535Z" fill="white"/>
<path d="M35.6015 24.6678C35.6363 24.0067 35.201 23.4463 34.6292 23.4162C34.0574 23.3861 33.5657 23.8976 33.5308 24.5588C33.496 25.2199 33.9313 25.7803 34.5031 25.8104C35.0749 25.8405 35.5666 25.329 35.6015 24.6678Z" fill="#0058C5"/>
<path d="M44.6308 24.6903C44.6656 24.0292 44.2303 23.4688 43.6585 23.4387C43.0867 23.4086 42.595 23.9201 42.5601 24.5812C42.5253 25.2424 42.9606 25.8027 43.5324 25.8329C44.1042 25.863 44.5959 25.3514 44.6308 24.6903Z" fill="#0058C5"/>
<path d="M35.4126 29.3314C36.1254 30.6921 37.5834 31.5993 39.1061 31.6641C40.7585 31.7289 42.1192 30.6597 42.9616 29.3314C43.5124 28.4566 42.1192 27.6142 41.5685 28.5214C41.3093 28.9426 40.9529 29.3962 40.5317 29.6554C40.0457 29.9793 39.6569 30.0765 39.1061 30.0765C39.0413 30.0765 38.9765 30.0765 38.9441 30.0765C39.0413 30.0765 38.8793 30.0765 38.8469 30.0765C38.7173 30.0441 38.5877 30.0117 38.4581 29.9793C38.199 29.9146 38.0694 29.8498 37.8102 29.6554C37.389 29.3962 37.065 29.0074 36.8058 28.5538C36.6114 28.165 36.0606 28.0354 35.7042 28.2622C35.3154 28.4566 35.2182 28.9426 35.4126 29.3314Z" fill="#0058C5"/>
<path d="M48.5985 9.0525C46.363 7.56214 43.3499 7.49734 40.9847 8.69611C39.624 7.36774 38.166 6.10418 36.3841 5.3914C34.7317 4.74341 32.6582 4.61382 31.2326 5.84498C29.4506 7.36774 30.1958 10.1541 31.6862 11.5472C32.4314 12.26 33.5977 11.126 32.8202 10.4133C31.8806 9.53849 31.1678 7.62694 32.5934 6.84936C33.8893 6.13658 35.5417 6.68736 36.7405 7.33534C38.3604 8.24252 39.624 9.63568 40.9199 10.9316C42.2483 12.2276 43.6415 13.4912 45.1966 14.4956C46.9786 15.6295 49.0521 16.4071 51.1905 16.4395C51.6441 16.4395 51.968 16.0507 52.0004 15.6295C52.0976 13.0376 50.7693 10.4781 48.5985 9.0525Z" fill="#0058C5"/>
<path d="M39.3654 13.622C39.009 15.7279 39.7866 17.9635 41.6657 19.0974C42.0221 19.3242 42.5729 19.1946 42.7673 18.8058C42.9617 18.417 42.8645 17.9311 42.4757 17.7043C42.3785 17.6395 42.3137 17.6071 42.2165 17.5423C42.1517 17.5099 42.1193 17.4775 42.1841 17.5423C42.1517 17.5099 42.1193 17.4775 42.0869 17.4451C41.9249 17.3155 41.7953 17.1535 41.6657 17.0239C41.6333 16.9915 41.5361 16.8619 41.6657 17.0239C41.6333 16.9915 41.6009 16.9591 41.6009 16.9267C41.5361 16.8619 41.5037 16.7647 41.4389 16.6675C41.3741 16.5703 41.3417 16.5055 41.3093 16.4083C41.2769 16.3435 41.2445 16.3111 41.2445 16.2463C41.2445 16.2139 41.1797 16.0519 41.2445 16.2139C41.1797 16.0195 41.1149 15.8251 41.0501 15.6307C41.0177 15.5335 40.9853 15.4363 40.9853 15.3391C40.9853 15.2743 40.9529 15.2419 40.9529 15.1771C40.9529 15.0799 40.9529 15.1123 40.9529 15.1771C40.9205 14.9503 40.9205 14.7559 40.9205 14.5291C40.9205 14.432 40.9205 14.3348 40.9529 14.2052C40.9529 14.1728 40.9529 14.108 40.9529 14.0756C40.9205 14.27 40.9529 14.0432 40.9529 14.0108C41.0177 13.5896 40.8557 13.1036 40.4022 13.0064C39.9486 12.974 39.4302 13.1684 39.3654 13.622Z" fill="#0058C5"/>
<path d="M27.5396 36.4608C30.1639 38.6964 33.339 39.9924 36.8057 39.9924C37.8425 39.9924 37.8425 38.3724 36.8057 38.3724C33.7926 38.3724 30.9739 37.2384 28.6736 35.2945C28.3496 35.0029 27.8636 34.9705 27.5396 35.2945C27.248 35.5861 27.2156 36.1693 27.5396 36.4608Z" fill="#0058C5"/>
<path d="M52.6165 42.6503C52.3573 41.6459 50.8022 42.0671 51.0614 43.0715C51.4502 44.5943 51.5797 46.1818 51.5149 47.7694C51.4825 48.7738 51.3206 49.8105 51.029 50.7825C47.1411 50.7825 43.2532 50.7825 39.3977 50.7825C35.5098 50.7825 31.6219 50.7825 27.734 50.7825C27.7016 50.7177 27.7016 50.6529 27.6692 50.6205C27.4748 50.0697 27.3452 49.5189 27.2156 48.9682C26.762 46.765 26.924 44.4323 27.6692 42.2939C27.9932 41.2896 26.438 40.8684 26.114 41.8727C24.8829 45.5338 25.1097 49.9725 27.1832 53.3096C27.9932 54.638 29.0299 55.8044 30.3259 56.7115C30.8767 57.1003 31.4923 57.4567 32.1079 57.7807C32.2375 60.0487 32.3347 62.3166 32.4319 64.6169C31.5247 64.9085 30.6499 65.3621 30.1639 66.1721C29.5807 67.1441 29.6131 68.5372 30.6823 69.1528C31.2007 69.4444 31.8163 69.5092 32.3671 69.5092C33.0474 69.5416 33.6954 69.5092 34.3758 69.4444C35.4126 69.3472 36.7409 69.3472 37.3889 68.3752C37.8425 67.7272 37.8101 66.8849 37.8101 66.1397C37.8425 65.4269 37.8425 64.7465 37.8749 64.0337C37.9397 62.4786 37.9721 60.9558 38.0045 59.4007C38.3609 59.4331 38.6849 59.4655 39.0413 59.4979C39.9161 59.5303 40.7908 59.4331 41.6656 59.3035C41.7628 61.053 41.8276 62.8026 41.8924 64.5521C40.9852 64.8437 40.1105 65.2973 39.6245 66.1073C39.0413 67.0793 39.0737 68.4724 40.1429 69.088C40.6612 69.3796 41.2768 69.4444 41.8276 69.4444C42.508 69.4768 43.156 69.4444 43.8364 69.3796C44.8731 69.2824 46.2015 69.2824 46.8495 68.3104C47.3031 67.6624 47.2707 66.8201 47.2707 66.0749C47.3031 65.3621 47.3031 64.6817 47.3355 63.969C47.4003 62.349 47.4327 60.6966 47.4975 59.0767C47.5299 58.4611 47.5299 57.8455 47.5623 57.2299C47.6595 57.1651 47.789 57.1003 47.8862 57.0355C49.6034 55.934 50.9966 54.476 51.9361 52.7265C51.9685 52.6941 52.0009 52.6293 52.0333 52.5645C52.7785 51.1065 53.1025 49.4541 53.1673 47.8018C53.2321 46.117 53.0377 44.3351 52.6165 42.6503Z" fill="#0058C5"/>
<path d="M18.0498 8.74743L15.8802 4.82269L8.53064 7.06532L8.9216 11.5326C8.92915 11.6128 8.97184 11.6853 9.03852 11.7316C9.10519 11.7779 9.18947 11.7897 9.26605 11.7664L17.8929 9.13337C17.9713 9.10982 18.033 9.05216 18.0623 8.97846C18.0949 8.90257 18.0905 8.81838 18.0498 8.74743ZM11.6235 7.17519L15.4941 5.99411C15.5742 5.97035 15.6586 6.01458 15.6842 6.0945C15.7079 6.17464 15.6637 6.25909 15.5838 6.28463L11.7132 7.46571C11.6331 7.48947 11.5486 7.44524 11.5231 7.36532C11.4974 7.28361 11.5434 7.19895 11.6235 7.17519ZM11.965 8.29604L16.0339 7.05399C16.1141 7.03023 16.1985 7.07445 16.224 7.15438C16.2478 7.23452 16.2036 7.31897 16.1237 7.34451L12.0565 8.58635C11.9764 8.61011 11.8919 8.56588 11.8664 8.48596C11.8409 8.40603 11.8849 8.3198 11.965 8.29604ZM11.5018 9.98108L9.83978 10.4884C9.75965 10.5122 9.6752 10.4679 9.64966 10.388C9.6259 10.3079 9.67012 10.2234 9.75005 10.1979L11.4121 9.69056C11.4922 9.6668 11.5767 9.71102 11.6022 9.79095C11.6277 9.87088 11.5817 9.95554 11.5018 9.98108ZM11.1603 8.86023L9.6984 9.30638C9.61827 9.33014 9.53381 9.28591 9.50827 9.20599C9.48452 9.12585 9.52874 9.0414 9.60867 9.01586L11.0706 8.56971C11.1507 8.54595 11.2351 8.59018 11.2607 8.6701C11.2844 8.75024 11.2402 8.83469 11.1603 8.86023ZM10.8168 7.73781L9.55147 8.1232C9.47134 8.14696 9.38688 8.10274 9.36135 8.02281C9.33759 7.94267 9.38181 7.85822 9.46174 7.83268L10.7253 7.4475C10.8054 7.42374 10.8899 7.46797 10.9154 7.54789C10.9429 7.62939 10.8987 7.71385 10.8168 7.73781ZM16.6655 8.40596L12.3983 9.70897C12.3181 9.73273 12.2337 9.68851 12.2081 9.60858C12.1844 9.52845 12.2286 9.44399 12.3085 9.41845L16.5758 8.11544C16.6559 8.09168 16.7404 8.1359 16.7659 8.21583C16.7897 8.29597 16.7454 8.38042 16.6655 8.40596Z" fill="url(#paint0_linear_933_82877)"/>
<path d="M14.324 0.167631C14.2434 0.124771 14.1504 0.115782 14.0616 0.142355L7.42552 2.16664C7.3367 2.19322 7.26626 2.25369 7.22162 2.33459C7.17876 2.41528 7.16977 2.50825 7.19634 2.59706L8.46997 6.76681L15.7656 4.54129L14.4938 0.371326C14.4654 0.282716 14.4065 0.210283 14.324 0.167631ZM8.27872 3.11611L9.89377 2.62327C9.97391 2.59951 10.0584 2.64373 10.0839 2.72366C10.1077 2.80379 10.0634 2.88825 9.98351 2.91378L8.36846 3.40662C8.28832 3.43038 8.20387 3.38616 8.17833 3.30623C8.15457 3.2261 8.19859 3.13986 8.27872 3.11611ZM11.617 3.32172L8.62024 4.23695C8.5401 4.26071 8.45565 4.21649 8.43011 4.13656C8.40635 4.05642 8.45058 3.97197 8.5305 3.94643L11.5257 3.03319C11.6059 3.00943 11.6903 3.05366 11.7159 3.13358C11.7414 3.21351 11.6972 3.29796 11.617 3.32172ZM14.116 2.99078C14.1066 3.14147 14.0156 3.28904 13.8746 3.37758C13.8527 3.39094 13.8306 3.40253 13.8085 3.41411L13.8585 3.57951C13.8822 3.65964 13.838 3.7441 13.7581 3.76963C13.6779 3.79339 13.5935 3.74917 13.5679 3.66924L13.5158 3.5005C13.3912 3.51323 13.2567 3.50367 13.1209 3.46723C13.0391 3.44613 12.9914 3.36157 13.0127 3.28159C13.0338 3.19983 13.1184 3.15213 13.1984 3.17345C13.3118 3.20348 13.5285 3.2377 13.7097 3.12285C13.7669 3.08735 13.8067 3.02684 13.8097 2.97602C13.8132 2.91254 13.7583 2.89011 13.7359 2.8837C13.706 2.87457 13.6732 2.87119 13.6301 2.87261C13.5797 2.87308 13.5319 2.88045 13.4821 2.88625C13.4272 2.89446 13.3703 2.90109 13.3145 2.90218C13.1404 2.90806 12.9954 2.85467 12.9025 2.75376C12.7703 2.60877 12.7572 2.37241 12.8749 2.20729C12.923 2.14041 12.9905 2.08568 13.0685 2.04414L13.0184 1.87697C12.9946 1.79684 13.0389 1.71238 13.1188 1.68685C13.1989 1.66309 13.2834 1.70731 13.3089 1.78724L13.3617 1.96132C13.5063 1.94986 13.6529 1.97062 13.7819 2.02587C13.8596 2.05827 13.8952 2.14783 13.8611 2.22571C13.8269 2.30358 13.7391 2.33905 13.6612 2.30487C13.5568 2.25937 13.4348 2.24836 13.3169 2.27292C13.2308 2.29197 13.1596 2.3309 13.1223 2.3821C13.0866 2.43132 13.088 2.50505 13.1254 2.54755C13.1564 2.58179 13.2216 2.59942 13.3024 2.59721C13.3473 2.59558 13.3933 2.58842 13.4395 2.58303C13.498 2.57441 13.5602 2.56716 13.6249 2.56503C13.6968 2.56385 13.7609 2.5726 13.8187 2.58929C14.0086 2.64105 14.1267 2.80391 14.116 2.99078Z" fill="url(#paint1_linear_933_82877)"/>
<path opacity="0.9" d="M67.216 13.1568L65.3072 11.8327L65.3428 9.52904C65.343 9.45659 65.3142 9.36957 65.2274 9.32585C65.1263 9.23863 64.9668 9.26715 64.865 9.39726L63.5121 11.2915L61.2083 11.2559C61.1359 11.2557 61.0489 11.2844 61.0052 11.3713C60.9179 11.4724 60.9465 11.6319 61.0766 11.7337L62.9708 13.0866L62.9352 15.3903C62.935 15.4628 62.9637 15.5498 63.0506 15.5935C63.1517 15.6808 63.3112 15.6522 63.413 15.5221L64.7659 13.6279L67.0696 13.6635C67.1421 13.6637 67.2291 13.6349 67.2728 13.5481C67.3457 13.4034 67.3172 13.244 67.216 13.1568Z" fill="white"/>
<path opacity="0.6" d="M3.01312 26.6439L4.24429 28.361L6.31783 28.0694C6.44743 28.037 6.57702 28.1342 6.57702 28.2638C6.57702 28.3286 6.57702 28.3934 6.54462 28.4258L5.28106 30.1106L6.22063 32.0221C6.28543 32.1517 6.22063 32.2813 6.12344 32.3461C6.05864 32.3785 5.99384 32.3785 5.92904 32.3461L3.95269 31.6981L2.42993 33.1561C2.33274 33.2533 2.17074 33.2533 2.07354 33.1561C2.04115 33.0913 2.00875 33.0265 2.00875 32.9617V30.8557L0.129597 29.8514C0 29.7866 -0.0323991 29.657 0.0323991 29.5274C0.0647983 29.4626 0.129597 29.4302 0.194395 29.3978L2.17074 28.7498L2.52713 26.6763C2.55953 26.5467 2.68913 26.4495 2.81872 26.4819C2.91592 26.5467 2.98072 26.5791 3.01312 26.6439Z" fill="white"/>
<path d="M7.51551 22.2094C8.48748 23.2138 9.52425 24.121 10.5934 24.9958C10.7554 25.1254 10.9822 25.1578 11.1766 24.9958C11.3062 24.8662 11.3386 24.5422 11.1766 24.4126C10.075 23.5702 9.03827 22.6306 8.09869 21.6263C7.7423 21.2375 7.15912 21.8207 7.51551 22.2094Z" fill="#0058C5"/>
<path d="M23.0999 14.5284C23.3915 15.1439 23.6831 15.7595 23.9747 16.3751C24.0071 16.4723 24.0719 16.5371 24.1043 16.6343C24.2015 16.8287 24.4931 16.8935 24.6551 16.7639C24.8495 16.6343 24.8819 16.4075 24.7847 16.2131C24.4931 15.5975 24.2015 14.982 23.9099 14.3664C23.8775 14.2692 23.8127 14.2044 23.7803 14.1072C23.6831 13.9128 23.3915 13.848 23.2295 13.9776C23.0352 14.1072 23.0028 14.334 23.0999 14.5284Z" fill="#0058C5"/>
<path d="M59.1295 18.3873C58.4491 19.2621 57.7688 20.1045 57.056 20.9793C56.9264 21.1413 56.894 21.4005 57.056 21.5625C57.218 21.692 57.4772 21.7244 57.6392 21.5625C58.3195 20.6877 58.9999 19.8453 59.7127 18.9705C59.8423 18.8085 59.8747 18.5493 59.7127 18.3873C59.5507 18.2577 59.2591 18.1929 59.1295 18.3873Z" fill="#0058C5"/>
<path d="M68.0391 28.201C68.8814 27.5531 69.6914 26.8727 70.5338 26.2247C70.6634 26.1275 70.7606 26.0303 70.8902 25.9331C71.0522 25.8035 71.0198 25.5119 70.8902 25.3499C70.7282 25.1879 70.5014 25.2203 70.307 25.3499C69.4646 25.9979 68.6546 26.6783 67.8123 27.3263C67.6827 27.4235 67.5855 27.5207 67.4559 27.6179C67.2939 27.7475 67.3263 28.039 67.4559 28.201C67.6179 28.363 67.8771 28.3306 68.0391 28.201Z" fill="#0058C5"/>
<defs>
<linearGradient id="paint0_linear_933_82877" x1="7.29385" y1="7.73567" x2="25.7792" y2="9.7284" gradientUnits="userSpaceOnUse">
<stop stop-color="white"/>
<stop offset="1" stop-color="white" stop-opacity="0.5"/>
</linearGradient>
<linearGradient id="paint1_linear_933_82877" x1="7.79672" y1="3.06668" x2="26.2821" y2="5.0594" gradientUnits="userSpaceOnUse">
<stop stop-color="white"/>
<stop offset="1" stop-color="white" stop-opacity="0.5"/>
</linearGradient>
</defs>
</svg>
