<svg width="83" height="68" viewBox="0 0 83 68" fill="none" xmlns="http://www.w3.org/2000/svg">
<path d="M60.0824 37.0127C59.6202 38.0816 58.9689 39.0972 58.2676 39.9619C56.7022 41.8951 54.6292 43.4022 52.2794 44.1999C51.2479 44.5442 50.2461 44.7054 49.1707 44.7218C48.9934 44.7157 47.0288 44.6393 47.005 44.7456C47.1415 44.2849 46.3518 37.9791 46.3106 35.5416C49.1416 37.3859 51.885 36.1012 53.779 33.6219C54.4596 32.7246 55.099 31.7622 55.9803 31.0661C57.6838 29.7388 60.2121 30.3151 60.6879 32.5316C61.0109 34.0329 60.7047 35.5777 60.0824 37.0127Z" fill="white"/>
<path d="M32.8147 35.5842C30.6925 36.3379 28.0959 36.0421 26.2658 34.7398C25.6223 34.2722 25.0705 33.719 24.6282 33.0507C24.1505 32.3411 23.8413 31.5518 23.3488 30.8333C21.9215 28.7279 19.4573 28.9138 18.2727 31.1164C17.3753 32.8081 17.6916 34.9889 18.3926 36.6975C19.9301 40.4575 23.782 43.278 27.663 44.2461C29.057 44.6024 31.4438 44.9127 31.4346 42.8564C31.4411 40.1058 33.1398 35.4783 32.8147 35.5842Z" fill="white"/>
<path d="M11.5282 29.9936C17.8952 33.8247 26.1623 31.7691 29.9935 25.4022C33.8247 19.0353 31.769 10.7681 25.4021 6.93693C19.0352 3.10577 10.768 5.16141 6.93684 11.5283C3.10568 17.8952 5.16132 26.1624 11.5282 29.9936Z" fill="#F9D43A"/>
<path d="M11.963 29.2697C17.9305 32.8605 25.6789 30.9338 29.2697 24.9664C32.8605 18.9989 30.9339 11.2504 24.9664 7.65964C18.999 4.06884 11.2505 5.99551 7.65967 11.963C4.06887 17.9304 5.99554 25.6789 11.963 29.2697Z" fill="#FFEA69"/>
<path d="M12.0602 13.3045L14.7607 24.8214L18.4476 15.7205L22.2119 24.8013L24.8146 13.2586" stroke="#0058C5" stroke-width="1.95717" stroke-miterlimit="10" stroke-linecap="round" stroke-linejoin="round"/>
<path d="M26.2486 18.6248L10.6815 18.6671" stroke="#0058C5" stroke-width="1.95717" stroke-miterlimit="10" stroke-linecap="round" stroke-linejoin="round"/>
<path d="M53.8018 24.9294C53.851 25.6829 53.8146 26.4451 53.725 27.1954C52.9545 33.6883 47.5863 38.2993 41.1862 38.9116C33.4623 39.6522 26.0034 34.1386 25.662 26.1523C25.4927 22.1901 26.957 18.3867 29.9296 15.7521C35.8008 10.5391 45.8219 10.8591 50.8602 17.0875C52.6449 19.2672 53.6606 22.09 53.8018 24.9294Z" fill="white"/>
<path d="M51.4505 15.6739C51.444 13.7801 50.6398 11.9089 49.2972 10.5984C47.9044 9.23756 45.9642 8.55261 44.023 8.67128C42.912 8.74668 41.8126 9.07028 40.8487 9.63631C39.5856 8.49428 38.2486 7.4083 36.6363 6.77991C35.024 6.15151 33.0298 6.05739 31.6486 7.21674C29.9776 8.62389 30.7512 11.2809 32.2151 12.5237C32.4984 12.7545 32.9178 12.8259 33.1959 12.5308C33.4326 12.2711 33.4923 11.8044 33.2031 11.5499C33.0732 11.4316 32.9286 11.3044 32.8077 11.1713C32.7929 11.1624 32.6956 11.0234 32.6867 11.0382C32.6159 10.9553 32.5687 10.8667 32.5216 10.778C32.4655 10.704 32.4331 10.6242 32.386 10.5355C32.3653 10.503 32.3536 10.4557 32.3182 10.4143C32.3182 10.4143 32.2976 10.3818 32.2917 10.3581C32.2269 10.1985 32.1798 10.0094 32.1239 9.83498C32.0564 9.51286 32.0391 9.14058 32.1489 8.82459C32.1666 8.79507 32.1696 8.75667 32.1874 8.72715C32.1963 8.71238 32.2051 8.69762 32.2051 8.69762C32.2496 8.62382 32.2851 8.56477 32.3295 8.49097C32.3384 8.47621 32.3384 8.47621 32.3473 8.46145C32.365 8.43193 32.3887 8.42605 32.4064 8.39653C32.4745 8.31684 32.5484 8.2608 32.6312 8.19C32.6401 8.17524 32.6638 8.16936 32.6638 8.16936C32.6874 8.16348 32.7052 8.13396 32.7288 8.12808C32.7939 8.0868 32.8589 8.04552 32.9387 8.01312C33.0038 7.97184 33.0599 7.94532 33.1309 7.92769C33.1309 7.92769 33.2905 7.86289 33.3141 7.85701C33.4649 7.80698 33.6304 7.76583 33.8106 7.73356C33.8106 7.73356 33.8579 7.7218 33.8816 7.71592C33.9052 7.71004 33.9436 7.71305 33.9436 7.71305C34.0293 7.70429 34.1298 7.70442 34.2154 7.69566C34.9895 7.67892 35.8372 7.90749 36.5163 8.21562C38.1433 8.95334 39.3413 10.1366 40.6545 11.329C41.9884 12.5538 43.3636 13.7432 44.9224 14.6611C46.679 15.7181 48.696 16.409 50.77 16.3703C51.1423 16.353 51.4441 16.0521 51.4505 15.6739Z" fill="#0058C5"/>
<path d="M38.7459 14.4652C38.7388 15.4461 38.8705 16.4301 39.2947 17.3288C39.6719 18.1388 40.3327 18.8783 41.1536 19.2516C41.4814 19.4086 41.9098 19.3648 42.0993 19.0164C42.2622 18.7123 42.2067 18.2366 41.8642 18.0707C41.6929 17.9877 41.5453 17.8989 41.3829 17.8012C41.2442 17.6976 41.4833 17.9018 41.3534 17.7835C41.3091 17.7568 41.2885 17.7243 41.2442 17.6976C41.1793 17.6385 41.1144 17.5793 41.0583 17.5054C40.9934 17.4462 40.9374 17.3723 40.8813 17.2983C40.8253 17.2244 40.9432 17.3959 40.8666 17.2894C40.8459 17.2569 40.8105 17.2155 40.7899 17.183C40.6867 17.0204 40.5924 16.843 40.5128 16.6745C40.5069 16.6508 40.448 16.5148 40.4804 16.5947C40.5128 16.6745 40.4569 16.5001 40.448 16.5148C40.4097 16.4114 40.3862 16.3168 40.3538 16.237C40.292 16.039 40.245 15.8498 40.2216 15.6548C40.2157 15.6312 40.1924 15.4361 40.2187 15.5928C40.2217 15.5544 40.21 15.5071 40.213 15.4687C40.1984 15.3593 40.1837 15.25 40.1927 15.1348C40.1782 14.925 40.1726 14.7005 40.1729 14.4996C40.1704 14.1362 39.8488 13.8019 39.4765 13.8191C39.054 13.7861 38.7612 14.0723 38.7459 14.4652Z" fill="#0058C5"/>
<path opacity="0.2" d="M43.8386 30.3956C45.0044 31.0971 46.5181 30.7207 47.2196 29.5549C47.921 28.3891 47.5447 26.8754 46.3789 26.174C45.2131 25.4725 43.6994 25.8489 42.9979 27.0146C42.2964 28.1804 42.6728 29.6941 43.8386 30.3956Z" fill="url(#paint0_linear_1064_76860)"/>
<path opacity="0.2" d="M30.1653 30.0284C31.331 30.7299 32.8447 30.3535 33.5462 29.1877C34.2477 28.022 33.8713 26.5082 32.7055 25.8068C31.5398 25.1053 30.0261 25.4817 29.3246 26.6474C28.6231 27.8132 28.9995 29.3269 30.1653 30.0284Z" fill="url(#paint1_linear_1064_76860)"/>
<path d="M34.3582 25.3092C34.8994 25.3437 35.3705 24.8636 35.4104 24.2369C35.4503 23.6102 35.0439 23.0742 34.5027 23.0397C33.9615 23.0053 33.4904 23.4854 33.4504 24.1121C33.4105 24.7388 33.8169 25.2747 34.3582 25.3092Z" fill="#0058C5"/>
<path d="M42.8887 25.9332C43.4299 25.9676 43.901 25.4875 43.941 24.8608C43.9809 24.2341 43.5745 23.6982 43.0332 23.6637C42.492 23.6292 42.0209 24.1093 41.981 24.736C41.941 25.3627 42.3475 25.8987 42.8887 25.9332Z" fill="#0058C5"/>
<path d="M47.0735 51.4831C46.9869 52.195 47.2164 52.9162 47.6352 53.4899L50.0283 51.15C54.7025 41.6781 48.2153 36.3873 48.1209 36.3103C47.1789 35.9044 46.2073 35.5811 45.2031 35.3789C41.696 35.4601 38.189 35.5414 34.682 35.6226C33.0481 35.6648 31.3848 35.5889 29.7597 35.7168C28.8287 38.3333 26.7871 40.7238 26.113 43.4144C26.2223 43.3998 26.3553 43.3793 26.4646 43.3646C26.2526 45.1873 26.4068 47.0694 26.9334 48.8339C26.9834 48.9847 27.0334 49.1354 27.1338 49.236C27.2842 49.3869 27.5147 49.4049 27.7214 49.4288C33.4288 49.9678 41.1215 50.5153 47.2162 50.7446C47.1804 51.0046 47.1151 51.2468 47.0735 51.4831Z" fill="white"/>
<path d="M26.8184 39.6963C26.0894 41.409 25.6764 43.2314 25.677 45.1016C25.6633 46.561 25.8771 48.0769 26.3953 49.4544C26.7104 50.2672 27.0728 51.0684 27.5741 51.7722C27.7835 52.059 28.1792 52.2368 28.5281 52.0245C28.8208 51.8387 29.0105 51.3899 28.7804 51.0705C28.5504 50.7512 28.3529 50.4111 28.179 50.0653C28.0906 49.9115 28.0258 49.7519 27.9462 49.5834C27.9138 49.5036 27.8873 49.4474 27.8549 49.3676C27.8019 49.2553 27.8549 49.3676 27.8697 49.3765C27.8579 49.3292 27.8314 49.273 27.8107 49.2405C27.637 48.7942 27.5017 48.3508 27.3988 47.8868C27.3607 47.6829 27.3078 47.4701 27.2696 47.2662C27.2461 47.1717 27.2462 47.0712 27.2227 46.9766C27.2022 46.8437 27.1993 46.7816 27.1817 46.7107C27.129 46.297 27.1 45.8774 27.0858 45.4667C27.0804 45.0413 27.0839 44.6011 27.117 44.1786C27.1409 43.9719 27.15 43.7562 27.1739 43.5494C27.1828 43.5346 27.1918 43.4194 27.1769 43.511C27.1888 43.4578 27.1918 43.4194 27.2037 43.3663C27.2216 43.2363 27.2453 43.13 27.2632 43C27.3377 42.5421 27.4505 42.0873 27.5781 41.6413C27.6434 41.3992 27.7235 41.1659 27.8036 40.9326C27.8421 40.8351 27.8895 40.7229 27.9133 40.6166C27.9341 40.5487 27.9607 40.5044 27.9815 40.4364C28.0378 40.3095 27.9548 40.4807 28.02 40.339C28.1622 40.0024 28.1332 39.5828 27.7848 39.3933C27.46 39.2983 26.9695 39.345 26.8184 39.6963Z" fill="#0058C5"/>
<path d="M54.2178 59.9257C54.2569 59.4264 54.2811 58.9183 54.2907 58.4013C54.2913 57.899 54.2919 57.3968 54.198 56.918C54.01 56.061 53.3402 55.4368 52.4539 55.4061C52.2382 55.397 52.0254 55.4499 51.8067 55.4791C51.7831 55.485 51.7594 55.4909 51.7594 55.4909C51.6974 55.4938 51.6501 55.5055 51.5881 55.5084C51.4787 55.523 51.3546 55.5288 51.2305 55.5345C51.0444 55.5432 50.8671 55.537 50.6899 55.5309C50.6131 55.5249 50.5363 55.5189 50.4595 55.5129C50.4211 55.5099 50.3679 55.498 50.3295 55.495L50.3147 55.4861C50.0253 55.4326 49.7388 55.3406 49.4523 55.2487C49.4376 55.2398 49.408 55.222 49.3933 55.2131C49.3342 55.1776 49.2811 55.1657 49.222 55.1302C49.1187 55.068 49.0006 54.997 48.8973 54.9348C48.8825 54.9259 48.853 54.9081 48.8382 54.8992C48.8087 54.8815 48.7733 54.8401 48.7438 54.8223C48.6494 54.7454 48.5638 54.6537 48.4782 54.562C48.4428 54.5206 48.4074 54.4792 48.3573 54.4289C48.3249 54.3491 48.2245 54.2485 48.1774 54.1598C48.0742 53.9972 47.9888 53.805 47.8944 53.6276C47.8944 53.6276 47.8797 53.6188 47.8886 53.604C47.8768 53.5567 47.8562 53.5242 47.8444 53.4769C47.8268 53.406 47.7944 53.3262 47.7767 53.2552C47.7473 53.137 47.7179 53.0188 47.6885 52.9006C47.6827 52.8769 47.6857 52.8385 47.665 52.806C47.6533 52.7587 47.6709 52.8296 47.6738 52.8917C47.6151 52.5548 47.3614 52.2413 46.9892 52.2586C46.6553 52.2788 46.262 52.5649 46.3087 52.955C46.3293 53.0879 46.3498 53.2209 46.385 53.3628L43.4843 55.2765C43.3222 54.9779 42.8437 54.8709 42.5657 55.0656C42.2168 55.2779 42.1484 55.6589 42.3134 56.0196C42.5756 56.6196 42.9885 57.1697 43.4222 57.6518C44.3721 58.7462 45.6297 59.5632 47.0207 59.9579C47.8831 60.1954 48.796 60.2822 49.6883 60.2361C49.8557 60.9601 50.1 61.6902 50.6459 62.2197C51.2922 62.8498 52.3169 63.185 53.1477 62.7399C54.0879 62.1798 54.128 60.8769 54.2178 59.9257Z" fill="#0058C5"/>
<path d="M50.0336 50.4719C47.4458 50.2618 44.858 50.0517 42.2554 49.8327C41.0117 49.7277 39.7828 49.6316 38.5391 49.5267C34.9675 49.2473 31.39 48.9444 27.8184 48.6651C27.5644 48.653 27.3044 48.6172 27.0504 48.605C26.6132 48.5631 26.2639 49.0767 26.3875 49.4728C26.9907 51.3437 28.1054 52.9996 29.5988 54.2601C31.0921 55.5206 32.8401 56.3915 34.7036 56.97C35.6014 57.2488 36.5141 57.4361 37.4475 57.5555C38.4341 57.6867 39.4475 57.6732 40.4522 57.5741C42.3905 57.3933 44.3145 56.9024 46.0529 56.0183C47.9863 55.0103 49.6221 53.4613 50.6173 51.5067C50.8868 51.0255 50.5713 50.514 50.0336 50.4719Z" fill="#0058C5"/>
<path d="M39.6294 28.7675C39.5916 28.2622 39.3883 27.7981 39.0756 27.4491C38.7629 27.1001 38.3436 26.9282 37.9388 26.9661C37.0907 27.0388 36.4928 27.9658 36.58 29.0236C36.6587 29.8953 37.1896 30.6168 37.8335 30.7831C37.9693 30.8246 38.1229 30.8366 38.2559 30.8161C39.1187 30.7522 39.7314 29.8342 39.6294 28.7675Z" fill="#0058C5"/>
<path d="M36.2394 21.7394C35.7199 21.3665 35.1768 20.9995 34.6572 20.6266C34.5834 20.5822 34.5038 20.5141 34.4299 20.4697C34.2027 20.3128 33.8391 20.4158 33.7207 20.6461C33.5844 20.9059 33.6697 21.1985 33.897 21.3553C34.4165 21.7283 34.9597 22.0953 35.4792 22.4682C35.553 22.5126 35.6327 22.5807 35.7065 22.6251C35.9338 22.782 36.2973 22.679 36.4158 22.4487C36.552 22.1889 36.4815 21.9052 36.2394 21.7394Z" fill="#0058C5"/>
<path d="M33.8934 53.5051C33.6131 53.2359 33.2113 53.2353 32.9215 53.4832L30.9564 51.4362C31.202 51.1617 31.2439 50.7245 30.9635 50.4553C30.6891 50.2097 30.2519 50.1678 29.9827 50.4481C28.4827 52.0387 26.9976 53.6381 25.4829 55.2198C25.1545 55.565 24.8261 55.9103 24.4977 56.2555C23.5323 55.755 22.4927 55.411 21.4197 55.8912C20.923 56.1151 20.5118 56.5312 20.3251 57.042C20.1264 57.6061 20.3029 58.2149 20.645 58.6822C20.9782 59.1642 21.4091 59.5842 21.8251 59.9954C22.2264 60.3978 22.6602 60.7794 23.1029 61.1463C23.5102 61.4719 23.9145 61.8358 24.4551 61.9399C24.9424 62.0321 25.4064 61.9292 25.8292 61.6609C26.3733 61.3248 26.82 60.8497 27.2933 60.4308C27.8079 59.9765 28.3078 59.5132 28.8225 59.0589C29.8873 58.0912 30.9432 57.1382 32.0081 56.1705C32.6322 55.6011 33.2474 55.0465 33.8715 54.4771C34.1614 54.2292 34.1531 53.7418 33.8934 53.5051Z" fill="#0058C5"/>
<path d="M51.029 44.8746C51.0348 44.9987 51.0169 45.1287 51.0079 45.2439C51.0048 45.3827 50.9928 45.5363 50.9749 45.6663C50.96 45.7579 50.9598 45.8583 50.9538 45.9351C50.9508 45.9735 50.9389 46.0267 50.9359 46.0651C50.9299 46.1419 50.915 46.2335 50.9329 46.1035C50.769 47.2112 50.5224 48.2893 50.1311 49.3406C49.9948 49.7008 49.9088 49.9105 49.734 50.2678C49.5504 50.6398 49.3431 51.0177 49.1299 51.372C48.9434 51.682 49.0462 52.1459 49.3651 52.3177C49.6987 52.4983 50.1154 52.4073 50.3108 52.0825C51.5572 50.078 52.2279 47.7272 52.3963 45.3756C52.4172 45.2072 52.4233 45.03 52.4206 44.8675C52.4181 44.5041 52.1054 44.1551 51.7242 44.1871C51.3519 44.2043 51.0443 44.4817 51.029 44.8746Z" fill="#0058C5"/>
<path d="M56.9631 36.4823C63.33 40.3135 71.5972 38.2578 75.4283 31.8909C79.2595 25.524 77.2038 17.2568 70.8369 13.4256C64.47 9.59448 56.2028 11.6501 52.3717 18.017C48.5405 24.384 50.5961 32.6511 56.9631 36.4823Z" fill="#F9D43A"/>
<path d="M57.3993 35.7584C63.3667 39.3492 71.1152 37.4226 74.706 31.4551C78.2968 25.4876 76.3702 17.7391 70.4027 14.1483C64.4352 10.5576 56.6867 12.4842 53.0959 18.4517C49.5052 24.4191 51.4318 32.1676 57.3993 35.7584Z" fill="#FFEA69"/>
<path d="M61.4561 17.0876L57.2821 28.1674L65.4257 22.6529L63.5049 32.2938L72.0861 24.1475" stroke="#0058C5" stroke-width="1.95717" stroke-miterlimit="10" stroke-linecap="round" stroke-linejoin="round"/>
<path d="M70.293 29.4014L57.3191 20.7904" stroke="#0058C5" stroke-width="1.95717" stroke-miterlimit="10" stroke-linecap="round" stroke-linejoin="round"/>
<path d="M29.0522 35.647C31.3256 37.5836 34.0761 38.7063 37.0792 38.7063C37.9773 38.7063 37.9773 37.3029 37.0792 37.3029C34.469 37.3029 32.0272 36.3206 30.0345 34.6366C29.7538 34.384 29.3328 34.3559 29.0522 34.6366C28.7996 34.8892 28.7715 35.3944 29.0522 35.647Z" fill="#0058C5"/>
<defs>
<linearGradient id="paint0_linear_1064_76860" x1="42.5892" y1="28.4234" x2="47.5246" y2="28.2117" gradientUnits="userSpaceOnUse">
<stop stop-color="#25A3FF"/>
<stop offset="1" stop-color="#0059DF"/>
</linearGradient>
<linearGradient id="paint1_linear_1064_76860" x1="28.9212" y1="28.0496" x2="33.8566" y2="27.8379" gradientUnits="userSpaceOnUse">
<stop stop-color="#25A3FF"/>
<stop offset="1" stop-color="#0059DF"/>
</linearGradient>
</defs>
</svg>
