<svg width="20" height="20" viewBox="0 0 20 20" fill="none" xmlns="http://www.w3.org/2000/svg">
<path d="M15.8985 5.46937L15.5264 5.71801V5.71801L15.8985 5.46937ZM15.8985 13.6497L15.5264 13.4011L15.8985 13.6497ZM15.0341 14.5141L15.2828 14.8862V14.8862L15.0341 14.5141ZM11.7272 15.041L11.7252 14.5934C11.4788 14.5945 11.2796 14.7946 11.2796 15.041H11.7272ZM11.7272 15.0421L12.1275 15.2422C12.1586 15.1801 12.1747 15.1115 12.1747 15.0421H11.7272ZM8.59432 15.0421H8.14677C8.14677 15.1115 8.16294 15.1801 8.19402 15.2422L8.59432 15.0421ZM8.59432 15.041H9.04187C9.04187 14.7946 8.84268 14.5945 8.59627 14.5934L8.59432 15.041ZM5.28736 14.5141L5.03871 14.8862L5.03871 14.8862L5.28736 14.5141ZM4.423 13.6497L4.05088 13.8984H4.05088L4.423 13.6497ZM4.423 5.46937L4.79513 5.71801L4.423 5.46937ZM5.28736 4.60501L5.53601 4.97714L5.28736 4.60501ZM15.0341 4.60501L15.2828 4.23288V4.23288L15.0341 4.60501ZM16.874 9.55954C16.874 8.46886 16.8746 7.61716 16.8057 6.94048C16.7361 6.25632 16.5919 5.7016 16.2706 5.22072L15.5264 5.71801C15.733 6.02731 15.8528 6.41768 15.9152 7.03107C15.9784 7.65193 15.9789 8.45023 15.9789 9.55954H16.874ZM16.2706 13.8984C16.5919 13.4175 16.7361 12.8628 16.8057 12.1786C16.8746 11.5019 16.874 10.6502 16.874 9.55954H15.9789C15.9789 10.6689 15.9784 11.4672 15.9152 12.088C15.8528 12.7014 15.733 13.0918 15.5264 13.4011L16.2706 13.8984ZM15.2828 14.8862C15.6737 14.625 16.0094 14.2893 16.2706 13.8984L15.5264 13.4011C15.3305 13.6943 15.0787 13.946 14.7855 14.142L15.2828 14.8862ZM11.7291 15.4885C12.572 15.4849 13.2542 15.4688 13.8168 15.3911C14.3867 15.3123 14.8628 15.1669 15.2828 14.8862L14.7855 14.142C14.5152 14.3225 14.1828 14.4369 13.6943 14.5044C13.1985 14.5729 12.5723 14.5898 11.7252 14.5934L11.7291 15.4885ZM12.1747 15.0421V15.041H11.2796V15.0421H12.1747ZM11.3617 16.7739L12.1275 15.2422L11.3269 14.8419L10.5611 16.3736L11.3617 16.7739ZM8.95984 16.7739C9.45465 17.7635 10.8669 17.7635 11.3617 16.7739L10.5611 16.3736C10.3961 16.7034 9.92538 16.7034 9.76045 16.3736L8.95984 16.7739ZM8.19402 15.2422L8.95984 16.7739L9.76045 16.3736L8.99462 14.8419L8.19402 15.2422ZM8.14677 15.041V15.0421H9.04187V15.041H8.14677ZM5.03871 14.8862C5.45874 15.1669 5.93485 15.3123 6.50468 15.3911C7.06732 15.4688 7.74952 15.4849 8.59237 15.4885L8.59627 14.5934C7.74917 14.5898 7.12303 14.5729 6.62725 14.5044C6.13866 14.4369 5.80627 14.3225 5.53601 14.142L5.03871 14.8862ZM4.05088 13.8984C4.3121 14.2893 4.64777 14.625 5.03871 14.8862L5.53601 14.142C5.2428 13.946 4.99105 13.6943 4.79513 13.4011L4.05088 13.8984ZM3.44747 9.55954C3.44747 10.6502 3.44693 11.5019 3.51576 12.1786C3.58536 12.8628 3.72956 13.4175 4.05088 13.8984L4.79513 13.4011C4.58846 13.0918 4.46867 12.7014 4.40627 12.088C4.34311 11.4672 4.34257 10.6689 4.34257 9.55954H3.44747ZM4.05088 5.22072C3.72956 5.7016 3.58536 6.25632 3.51576 6.94048C3.44693 7.61716 3.44747 8.46886 3.44747 9.55954H4.34257C4.34257 8.45023 4.34311 7.65193 4.40627 7.03107C4.46867 6.41768 4.58846 6.02731 4.79513 5.71801L4.05088 5.22072ZM5.03871 4.23288C4.64777 4.49411 4.3121 4.82977 4.05088 5.22072L4.79513 5.71801C4.99105 5.4248 5.2428 5.17305 5.53601 4.97714L5.03871 4.23288ZM9.37754 3.62947C8.28685 3.62947 7.43515 3.62893 6.75847 3.69777C6.07431 3.76737 5.5196 3.91157 5.03871 4.23288L5.53601 4.97714C5.8453 4.77047 6.23568 4.65068 6.84906 4.58828C7.46993 4.52512 8.26822 4.52458 9.37754 4.52458V3.62947ZM10.944 3.62947H9.37754V4.52458H10.944V3.62947ZM15.2828 4.23288C14.8019 3.91157 14.2472 3.76737 13.563 3.69777C12.8864 3.62893 12.0347 3.62947 10.944 3.62947V4.52458C12.0533 4.52458 12.8516 4.52512 13.4724 4.58828C14.0858 4.65068 14.4762 4.77047 14.7855 4.97714L15.2828 4.23288ZM16.2706 5.22072C16.0094 4.82977 15.6737 4.49411 15.2828 4.23288L14.7855 4.97714C15.0787 5.17305 15.3305 5.4248 15.5264 5.71801L16.2706 5.22072Z" fill="#2D2D2D"/>
<circle cx="13.2935" cy="9.55958" r="0.783217" fill="#2D2D2D"/>
<circle cx="10.1607" cy="9.55958" r="0.783217" fill="#2D2D2D"/>
<circle cx="7.02785" cy="9.55958" r="0.783217" fill="#2D2D2D"/>
</svg>
