<svg width="20" height="20" viewBox="0 0 20 20" fill="none" xmlns="http://www.w3.org/2000/svg">
<rect width="20" height="20" fill="white"/>
<path d="M3.70881 11.5902L9.50266 17.0329L9.50268 17.0329C9.64781 17.1692 9.72038 17.2374 9.7993 17.272C9.92718 17.328 10.0727 17.328 10.2005 17.272C10.2795 17.2374 10.352 17.1692 10.4972 17.0329L10.4972 17.0329L16.291 11.5902C17.9212 10.0588 18.1191 7.53881 16.7481 5.7717L16.4903 5.43943C14.8502 3.32546 11.5579 3.67999 10.4055 6.09469C10.2427 6.43578 9.75716 6.43578 9.59436 6.09469C8.44189 3.67999 5.14969 3.32547 3.50954 5.43943L3.25174 5.7717C1.88071 7.53881 2.07867 10.0588 3.70881 11.5902Z" stroke="#FF2222" stroke-width="1.30357"/>
</svg>
