<svg width="71" height="70" viewBox="0 0 71 70" fill="none" xmlns="http://www.w3.org/2000/svg">
<path d="M60.6199 26.5532C58.7732 27.3307 57.4448 29.2423 56.1488 30.6678C54.3993 32.5794 52.6821 34.5233 50.479 35.9489C49.993 36.2405 49.507 36.5321 49.021 36.8237C51.5481 34.6529 53.2329 31.5102 53.8161 27.9787C53.9457 27.2011 54.0105 26.3912 54.0105 25.5812C53.9781 22.5681 53.0385 19.5549 51.2566 17.125C46.2023 10.3212 35.6078 9.51121 29.1603 14.7599C25.888 17.4166 24.1709 21.3693 24.1709 25.5812C24.1709 30.7326 26.9896 34.6853 31.0395 37.1153C30.7803 37.1477 30.5211 37.1801 30.2619 37.2125C29.5167 36.8237 28.7716 36.4349 28.0912 35.9813C25.888 34.5881 24.1709 32.6118 22.4213 30.7002C21.1254 29.2423 19.797 27.3631 17.9502 26.5856C15.2611 25.4516 12.8636 27.5575 12.9932 30.3115C13.1228 33.0654 14.8399 35.4953 16.6867 37.5689C19.0194 40.2256 21.8705 42.4287 24.8837 44.2755C26.4712 45.2475 26.1796 46.9322 26.3416 48.5198C26.374 48.8114 26.6656 51.5977 26.9248 51.5977H51.5481C52.1313 49.265 52.2609 47.1914 52.0989 45.4095C52.3581 45.4419 52.5201 45.5714 52.9737 45.3123C55.9868 43.4655 59.5507 40.2256 61.8835 37.5689C63.6978 35.4953 65.415 33.0654 65.577 30.3115C65.7066 27.5251 63.309 25.4192 60.6199 26.5532Z" fill="white"/>
<path d="M35.601 24.6675C35.6358 24.0063 35.2005 23.446 34.6287 23.4158C34.0569 23.3857 33.5652 23.8973 33.5303 24.5584C33.4955 25.2195 33.9308 25.7799 34.5026 25.81C35.0744 25.8401 35.5662 25.3286 35.601 24.6675Z" fill="#0058C5"/>
<path d="M44.6309 24.6905C44.6657 24.0294 44.2304 23.469 43.6586 23.4389C43.0868 23.4088 42.5951 23.9203 42.5602 24.5815C42.5254 25.2426 42.9607 25.803 43.5325 25.8331C44.1043 25.8632 44.5961 25.3517 44.6309 24.6905Z" fill="#0058C5"/>
<path d="M35.4131 29.3311C36.1259 30.6919 37.5839 31.5991 39.1066 31.6639C40.759 31.7287 42.1197 30.6595 42.9621 29.3311C43.5129 28.4563 42.1197 27.614 41.569 28.5211C41.3098 28.9423 40.9534 29.3959 40.5322 29.6551C40.0462 29.9791 39.6574 30.0763 39.1066 30.0763C39.0418 30.0763 38.977 30.0763 38.9446 30.0763C39.0418 30.0763 38.8798 30.0763 38.8474 30.0763C38.7178 30.0439 38.5882 30.0115 38.4586 29.9791C38.1994 29.9143 38.0698 29.8495 37.8107 29.6551C37.3895 29.3959 37.0655 29.0071 36.8063 28.5535C36.6119 28.1648 36.0611 28.0352 35.7047 28.262C35.3159 28.4563 35.2187 28.9423 35.4131 29.3311Z" fill="#0058C5"/>
<path d="M48.5989 9.05238C46.3634 7.56202 43.3502 7.49722 40.9851 8.69599C39.6243 7.36762 38.1664 6.10406 36.3844 5.39127C34.7321 4.74329 32.6585 4.6137 31.233 5.84486C29.451 7.36762 30.1962 10.1539 31.6866 11.5471C32.4317 12.2599 33.5981 11.1259 32.8205 10.4131C31.8809 9.53836 31.1682 7.62681 32.5937 6.84924C33.8897 6.13645 35.5421 6.68724 36.7408 7.33522C38.3608 8.2424 39.6243 9.63556 40.9203 10.9315C42.2487 12.2275 43.6418 13.4911 45.197 14.4954C46.9789 15.6294 49.0525 16.407 51.1908 16.4394C51.6444 16.4394 51.9684 16.0506 52.0008 15.6294C52.098 13.0375 50.7696 10.4779 48.5989 9.05238Z" fill="#0058C5"/>
<path d="M39.365 13.6222C39.0086 15.7282 39.7861 17.9637 41.6653 19.0977C42.0217 19.3245 42.5725 19.1949 42.7669 18.8061C42.9613 18.4173 42.8641 17.9313 42.4753 17.7045C42.3781 17.6397 42.3133 17.6073 42.2161 17.5425C42.1513 17.5101 42.1189 17.4777 42.1837 17.5425C42.1513 17.5101 42.1189 17.4777 42.0865 17.4453C41.9245 17.3157 41.7949 17.1537 41.6653 17.0241C41.6329 16.9917 41.5357 16.8621 41.6653 17.0241C41.6329 16.9917 41.6005 16.9593 41.6005 16.9269C41.5357 16.8621 41.5033 16.7649 41.4385 16.6677C41.3737 16.5705 41.3413 16.5057 41.3089 16.4085C41.2765 16.3437 41.2441 16.3113 41.2441 16.2465C41.2441 16.2141 41.1793 16.0522 41.2441 16.2141C41.1793 16.0198 41.1145 15.8254 41.0497 15.631C41.0173 15.5338 40.9849 15.4366 40.9849 15.3394C40.9849 15.2746 40.9525 15.2422 40.9525 15.1774C40.9525 15.0802 40.9525 15.1126 40.9525 15.1774C40.9201 14.9506 40.9201 14.7562 40.9201 14.5294C40.9201 14.4322 40.9201 14.335 40.9525 14.2054C40.9525 14.173 40.9525 14.1082 40.9525 14.0758C40.9201 14.2702 40.9525 14.0434 40.9525 14.011C41.0173 13.5898 40.8553 13.1038 40.4017 13.0066C39.9481 12.9742 39.4298 13.1686 39.365 13.6222Z" fill="#0058C5"/>
<path d="M27.5399 36.4606C30.1642 38.6961 33.3393 39.9921 36.8061 39.9921C37.8428 39.9921 37.8428 38.3722 36.8061 38.3722C33.7929 38.3722 30.9742 37.2382 28.6739 35.2942C28.3499 35.0026 27.8639 34.9702 27.5399 35.2942C27.2483 35.5858 27.2159 36.169 27.5399 36.4606Z" fill="#0058C5"/>
<path d="M52.6169 42.6507C52.3578 41.6463 50.8026 42.0675 51.0618 43.0719C51.4506 44.5946 51.5802 46.1822 51.5154 47.7698C51.483 48.7741 51.321 49.8109 51.0294 50.7829C47.1415 50.7829 43.2536 50.7829 39.3981 50.7829C35.5102 50.7829 31.6223 50.7829 27.7344 50.7829C27.702 50.7181 27.702 50.6533 27.6696 50.6209C27.4752 50.0701 27.3456 49.5193 27.216 48.9685C26.7624 46.7654 26.9244 44.4326 27.6696 42.2943C27.9936 41.2899 26.4384 40.8687 26.1145 41.8731C24.8833 45.5342 25.1101 49.9729 27.1836 53.31C27.9936 54.6384 29.0304 55.8047 30.3263 56.7119C30.8771 57.1007 31.4927 57.4571 32.1083 57.7811C32.2379 60.049 32.3351 62.317 32.4323 64.6173C31.5251 64.9089 30.6503 65.3625 30.1643 66.1725C29.5812 67.1444 29.6136 68.5376 30.6827 69.1532C31.2011 69.4448 31.8167 69.5096 32.3675 69.5096C33.0479 69.542 33.6959 69.5096 34.3762 69.4448C35.413 69.3476 36.7414 69.3476 37.3894 68.3756C37.8429 67.7276 37.8105 66.8852 37.8105 66.1401C37.8429 65.4273 37.8429 64.7469 37.8753 64.0341C37.9401 62.479 37.9725 60.9562 38.0049 59.401C38.3613 59.4334 38.6853 59.4658 39.0417 59.4982C39.9165 59.5306 40.7913 59.4334 41.666 59.3038C41.7632 61.0534 41.828 62.8029 41.8928 64.5525C40.9857 64.8441 40.1109 65.2977 39.6249 66.1077C39.0417 67.0796 39.0741 68.4728 40.1433 69.0884C40.6617 69.38 41.2773 69.4448 41.828 69.4448C42.5084 69.4772 43.1564 69.4448 43.8368 69.38C44.8736 69.2828 46.2019 69.2828 46.8499 68.3108C47.3035 67.6628 47.2711 66.8204 47.2711 66.0753C47.3035 65.3625 47.3035 64.6821 47.3359 63.9693C47.4007 62.3494 47.4331 60.697 47.4979 59.077C47.5303 58.4615 47.5303 57.8459 47.5627 57.2303C47.6599 57.1655 47.7895 57.1007 47.8867 57.0359C49.6038 55.9343 50.997 54.4764 51.9366 52.7268C51.969 52.6944 52.0014 52.6296 52.0338 52.5648C52.7789 51.1069 53.1029 49.4545 53.1677 47.8021C53.2325 46.1174 53.0381 44.3354 52.6169 42.6507Z" fill="#0058C5"/>
<path d="M18.0495 8.74792L15.8799 4.82318L8.53033 7.06581L8.92129 11.5331C8.92884 11.6133 8.97154 11.6858 9.03821 11.7321C9.10488 11.7784 9.18916 11.7902 9.26574 11.7669L17.8926 9.13386C17.971 9.11031 18.0327 9.05265 18.062 8.97895C18.0946 8.90306 18.0902 8.81887 18.0495 8.74792ZM11.6232 7.17568L15.4937 5.9946C15.5739 5.97084 15.6583 6.01507 15.6839 6.09499C15.7076 6.17513 15.6634 6.25958 15.5835 6.28512L11.7129 7.4662C11.6328 7.48996 11.5483 7.44573 11.5228 7.36581C11.4971 7.2841 11.5431 7.19944 11.6232 7.17568ZM11.9647 8.29653L16.0336 7.05448C16.1137 7.03072 16.1982 7.07494 16.2237 7.15487C16.2475 7.235 16.2033 7.31946 16.1233 7.345L12.0562 8.58684C11.9761 8.61059 11.8916 8.56637 11.8661 8.48644C11.8406 8.40652 11.8846 8.32028 11.9647 8.29653ZM11.5015 9.98156L9.83948 10.4889C9.75935 10.5126 9.67489 10.4684 9.64935 10.3885C9.6256 10.3084 9.66982 10.2239 9.74975 10.1984L11.4118 9.69105C11.4919 9.66729 11.5764 9.71151 11.6019 9.79144C11.6274 9.87136 11.5814 9.95603 11.5015 9.98156ZM11.16 8.86072L9.69809 9.30687C9.61796 9.33062 9.53351 9.2864 9.50797 9.20647C9.48421 9.12634 9.52843 9.04189 9.60836 9.01635L11.0703 8.5702C11.1504 8.54644 11.2348 8.59066 11.2604 8.67059C11.2841 8.75073 11.2399 8.83518 11.16 8.86072ZM10.8165 7.7383L9.55117 8.12369C9.47103 8.14745 9.38658 8.10322 9.36104 8.0233C9.33728 7.94316 9.38151 7.85871 9.46143 7.83317L10.725 7.44799C10.8051 7.42423 10.8896 7.46845 10.9151 7.54838C10.9426 7.62988 10.8984 7.71433 10.8165 7.7383ZM16.6652 8.40645L12.3979 9.70946C12.3178 9.73322 12.2334 9.689 12.2078 9.60907C12.1841 9.52893 12.2283 9.44448 12.3082 9.41894L16.5755 8.11593C16.6556 8.09217 16.7401 8.13639 16.7656 8.21632C16.7893 8.29645 16.7451 8.38091 16.6652 8.40645Z" fill="url(#paint0_linear_1400_74500)"/>
<path d="M14.324 0.167754C14.2434 0.124894 14.1504 0.115905 14.0616 0.142478L7.42552 2.16677C7.3367 2.19334 7.26626 2.25382 7.22162 2.33471C7.17876 2.4154 7.16977 2.50837 7.19634 2.59719L8.46997 6.76694L15.7656 4.54141L14.4938 0.37145C14.4654 0.282839 14.4065 0.210407 14.324 0.167754ZM8.27872 3.11623L9.89377 2.62339C9.97391 2.59963 10.0584 2.64386 10.0839 2.72378C10.1077 2.80392 10.0634 2.88837 9.98351 2.91391L8.36846 3.40675C8.28832 3.4305 8.20387 3.38628 8.17833 3.30635C8.15457 3.22622 8.19859 3.13999 8.27872 3.11623ZM11.617 3.32185L8.62024 4.23707C8.5401 4.26083 8.45565 4.21661 8.43011 4.13668C8.40635 4.05655 8.45058 3.97209 8.5305 3.94656L11.5257 3.03332C11.6059 3.00956 11.6903 3.05378 11.7159 3.13371C11.7414 3.21363 11.6972 3.29809 11.617 3.32185ZM14.116 2.9909C14.1066 3.1416 14.0156 3.28917 13.8746 3.3777C13.8527 3.39106 13.8306 3.40265 13.8085 3.41423L13.8585 3.57963C13.8822 3.65977 13.838 3.74422 13.7581 3.76976C13.6779 3.79351 13.5935 3.74929 13.5679 3.66936L13.5158 3.50062C13.3912 3.51335 13.2567 3.50379 13.1209 3.46736C13.0391 3.44625 12.9914 3.3617 13.0127 3.28172C13.0338 3.19996 13.1184 3.15225 13.1984 3.17357C13.3118 3.2036 13.5285 3.23782 13.7097 3.12297C13.7669 3.08748 13.8067 3.02697 13.8097 2.97615C13.8132 2.91267 13.7583 2.89023 13.7359 2.88383C13.706 2.8747 13.6732 2.87131 13.6301 2.87273C13.5797 2.8732 13.5319 2.88057 13.4821 2.88638C13.4272 2.89458 13.3703 2.90121 13.3145 2.90231C13.1404 2.90818 12.9954 2.8548 12.9025 2.75388C12.7703 2.6089 12.7572 2.37253 12.8749 2.20742C12.923 2.14054 12.9905 2.08581 13.0685 2.04427L13.0184 1.87709C12.9946 1.79696 13.0389 1.71251 13.1188 1.68697C13.1989 1.66321 13.2834 1.70743 13.3089 1.78736L13.3617 1.96144C13.5063 1.94999 13.6529 1.97074 13.7819 2.026C13.8596 2.0584 13.8952 2.14796 13.8611 2.22583C13.8269 2.30371 13.7391 2.33917 13.6612 2.30499C13.5568 2.25949 13.4348 2.24849 13.3169 2.27304C13.2308 2.29209 13.1596 2.33102 13.1223 2.38223C13.0866 2.43145 13.088 2.50518 13.1254 2.54768C13.1564 2.58191 13.2216 2.59955 13.3024 2.59733C13.3473 2.59571 13.3933 2.58854 13.4395 2.58315C13.498 2.57453 13.5602 2.56728 13.6249 2.56515C13.6968 2.56397 13.7609 2.57272 13.8187 2.58941C14.0086 2.64118 14.1267 2.80403 14.116 2.9909Z" fill="url(#paint1_linear_1400_74500)"/>
<path opacity="0.9" d="M67.216 13.1566L65.3072 11.8326L65.3428 9.52891C65.343 9.45646 65.3142 9.36945 65.2274 9.32573C65.1263 9.2385 64.9668 9.26703 64.865 9.39714L63.5121 11.2914L61.2083 11.2558C61.1359 11.2556 61.0489 11.2843 61.0052 11.3711C60.9179 11.4723 60.9465 11.6318 61.0766 11.7336L62.9708 13.0865L62.9352 15.3902C62.935 15.4627 62.9637 15.5497 63.0506 15.5934C63.1517 15.6806 63.3112 15.6521 63.413 15.522L64.7659 13.6278L67.0696 13.6633C67.1421 13.6635 67.2291 13.6348 67.2728 13.548C67.3457 13.4033 67.3172 13.2438 67.216 13.1566Z" fill="white"/>
<path opacity="0.6" d="M3.01312 26.6439L4.24429 28.361L6.31783 28.0694C6.44743 28.037 6.57702 28.1342 6.57702 28.2638C6.57702 28.3286 6.57702 28.3934 6.54462 28.4258L5.28106 30.1106L6.22063 32.0221C6.28543 32.1517 6.22063 32.2813 6.12344 32.3461C6.05864 32.3785 5.99384 32.3785 5.92904 32.3461L3.95269 31.6981L2.42993 33.1561C2.33274 33.2533 2.17074 33.2533 2.07354 33.1561C2.04115 33.0913 2.00875 33.0265 2.00875 32.9617V30.8557L0.129597 29.8514C0 29.7866 -0.0323991 29.657 0.0323991 29.5274C0.0647983 29.4626 0.129597 29.4302 0.194395 29.3978L2.17074 28.7498L2.52713 26.6763C2.55953 26.5467 2.68913 26.4495 2.81872 26.4819C2.91592 26.5467 2.98072 26.5791 3.01312 26.6439Z" fill="white"/>
<path d="M7.5152 22.2092C8.48718 23.2136 9.52395 24.1208 10.5931 24.9955C10.7551 25.1251 10.9819 25.1575 11.1763 24.9955C11.3059 24.8659 11.3383 24.5419 11.1763 24.4123C10.0747 23.57 9.03796 22.6304 8.09839 21.626C7.742 21.2372 7.15881 21.8204 7.5152 22.2092Z" fill="#0058C5"/>
<path d="M23.1004 14.5285C23.392 15.1441 23.6836 15.7597 23.9752 16.3752C24.0076 16.4724 24.0724 16.5372 24.1048 16.6344C24.2019 16.8288 24.4935 16.8936 24.6555 16.764C24.8499 16.6344 24.8823 16.4076 24.7851 16.2132C24.4935 15.5977 24.2019 14.9821 23.9104 14.3665C23.878 14.2693 23.8132 14.2045 23.7808 14.1073C23.6836 13.9129 23.392 13.8481 23.23 13.9777C23.0356 14.1073 23.0032 14.3341 23.1004 14.5285Z" fill="#0058C5"/>
<path d="M59.1294 18.3877C58.449 19.2625 57.7686 20.1049 57.0558 20.9796C56.9263 21.1416 56.8939 21.4008 57.0558 21.5628C57.2178 21.6924 57.477 21.7248 57.639 21.5628C58.3194 20.688 58.9998 19.8457 59.7126 18.9709C59.8422 18.8089 59.8746 18.5497 59.7126 18.3877C59.5506 18.2581 59.259 18.1933 59.1294 18.3877Z" fill="#0058C5"/>
<path d="M68.0389 28.2013C68.8812 27.5533 69.6912 26.8729 70.5336 26.2249C70.6632 26.1277 70.7604 26.0305 70.89 25.9333C71.052 25.8037 71.0196 25.5122 70.89 25.3502C70.728 25.1882 70.5012 25.2206 70.3068 25.3502C69.4644 25.9981 68.6545 26.6785 67.8121 27.3265C67.6825 27.4237 67.5853 27.5209 67.4557 27.6181C67.2937 27.7477 67.3261 28.0393 67.4557 28.2013C67.6177 28.3633 67.8769 28.3309 68.0389 28.2013Z" fill="#0058C5"/>
<defs>
<linearGradient id="paint0_linear_1400_74500" x1="7.29354" y1="7.73616" x2="25.7789" y2="9.72888" gradientUnits="userSpaceOnUse">
<stop stop-color="white"/>
<stop offset="1" stop-color="white" stop-opacity="0.5"/>
</linearGradient>
<linearGradient id="paint1_linear_1400_74500" x1="7.79672" y1="3.0668" x2="26.2821" y2="5.05952" gradientUnits="userSpaceOnUse">
<stop stop-color="white"/>
<stop offset="1" stop-color="white" stop-opacity="0.5"/>
</linearGradient>
</defs>
</svg>
