<svg width="197" height="80" viewBox="0 0 197 80" fill="none" xmlns="http://www.w3.org/2000/svg">
<path d="M141.899 38.0756C139.568 35.8752 135.865 35.1876 133.122 36.7691C129.556 38.7632 128.253 42.8202 126.47 46.2582C124.344 50.3152 121.875 54.716 118.378 57.8103C114.949 60.8358 110.423 62.4861 106.035 63.5863C104.526 63.9301 103.154 65.5116 102.469 66.9556C101.097 69.9124 104.937 74.3131 106.309 76.7198C108.092 79.9516 109.738 83.3209 110.698 86.9653C111.041 88.203 116.458 84.9712 117.418 84.4899C124.001 81.2581 132.573 73.6255 136.482 68.4683C141.351 62.0735 145.191 53.9596 144.848 45.7769C144.78 43.439 144.299 41.1011 142.928 39.1758C142.585 38.7632 142.242 38.4194 141.899 38.0756Z" fill="white"/>
<path d="M37.6652 72.7993C42.3283 79.6755 51.3116 83.87 59.4035 84.4201C62.3523 84.6264 65.301 84.4888 68.1812 84.0075C70.307 83.6637 72.6385 83.5949 72.1585 80.982C71.7471 78.8504 71.4728 76.7187 71.1299 74.5871C70.7184 71.9742 70.307 69.2925 69.8955 66.6795C69.7584 65.9231 69.0041 61.8662 69.4155 61.3848C68.7983 62.0037 67.9754 62.4163 67.2211 62.8288C66.3982 63.2414 65.6439 63.7915 64.821 64.2041C60.9808 66.1982 56.3862 66.1982 52.7517 63.7227C48.1572 60.4909 47.8829 52.1707 40.6825 53.2022C36.4308 53.821 34.5793 57.6717 34.4421 61.5911C34.2364 65.7856 35.4708 69.5675 37.6652 72.7993Z" fill="white"/>
<path d="M107.133 63.4484C105.556 62.9671 103.978 62.6233 102.332 62.417C94.5149 63.2421 86.6973 64.136 78.8797 64.9612C75.1081 65.3738 71.2679 65.5113 67.5648 66.1989C66.8105 66.3364 66.0562 66.4739 65.3018 66.6115C63.5189 71.6999 61.8045 76.7882 60.7759 82.0829C60.913 82.2204 60.9816 82.4267 60.9816 82.7018V82.7705C61.2559 82.8393 61.5302 83.1143 61.6674 83.4581C61.8045 83.9395 61.8045 84.4208 61.8045 84.9021H61.8731C61.7359 88.7528 62.2845 92.6722 63.4503 96.3166H115.567C121.191 74.1753 107.338 63.5859 107.133 63.4484Z" fill="white"/>
<path d="M120.849 41.1016C120.849 42.8207 120.712 44.471 120.437 46.19C118.106 60.6988 107.065 72.1133 91.2242 71.2881C73.8747 70.3942 57.6909 59.1173 57.6909 41.1016C57.6909 32.2313 61.3254 23.7736 68.2515 18.1352C81.898 6.99572 104.322 8.64601 115.02 23.1548C118.791 28.3119 120.78 34.7068 120.849 41.1016Z" fill="white"/>
<path d="M81.875 39.2651C81.9487 37.8619 81.0273 36.6726 79.8169 36.6087C78.6065 36.5448 77.5656 37.6304 77.4919 39.0336C77.4182 40.4367 78.3396 41.626 79.55 41.69C80.7603 41.7539 81.8013 40.6682 81.875 39.2651Z" fill="#0058C5"/>
<path d="M100.988 39.2465C101.062 37.8434 100.14 36.6541 98.9297 36.5902C97.7193 36.5262 96.6784 37.6119 96.6047 39.015C96.5309 40.4182 97.4524 41.6075 98.6628 41.6714C99.8731 41.7353 100.914 40.6497 100.988 39.2465Z" fill="#0058C5"/>
<path d="M75.9976 8.92033C74.009 7.06376 72.5003 3.0068 75.5176 1.35652C78.2606 -0.156244 81.758 1.01271 84.2952 2.38795C87.724 4.31328 90.3984 7.27004 93.1414 10.0205C95.953 12.771 98.9018 15.4527 102.193 17.5843C105.965 19.991 110.354 21.6413 114.88 21.71C115.84 21.71 116.526 20.8849 116.594 19.991C116.8 14.49 113.988 9.05785 109.394 5.96356C104.594 2.73175 98.0789 2.66299 93.0043 5.34471C91.0842 6.37614 92.7986 9.3329 94.7187 8.30147C98.7646 6.10109 103.839 6.37614 107.611 8.92033C111.177 11.327 113.234 15.659 113.097 19.9222C113.645 19.3721 114.263 18.7533 114.811 18.2032C106.102 17.9969 99.5189 11.5333 93.7586 5.75728C90.7413 2.73175 87.5183 -0.225008 83.4723 -1.80653C79.975 -3.18177 75.5862 -3.45682 72.5689 -0.843864C68.7973 2.38795 70.3745 8.30147 73.5289 11.2582C75.1747 12.9085 77.6435 10.4331 75.9976 8.92033Z" fill="#0058C5"/>
<path d="M94.4468 7.27019C98.8356 5.34486 104.047 5.75743 108.093 8.43915C111.659 10.8458 113.922 14.9028 114.334 19.0972C106.379 18.2033 100.07 12.7711 94.4468 7.27019Z" fill="#0058C5"/>
<path d="M89.8524 15.7953C89.0981 20.2648 90.7439 25.0094 94.7212 27.416C95.4755 27.8974 96.6413 27.6223 97.0528 26.7972C97.4642 25.972 97.2585 24.9406 96.4356 24.4593C96.2299 24.3217 96.0927 24.253 95.887 24.1155C95.7498 24.0467 95.6813 23.9779 95.8184 24.1155C95.7499 24.0467 95.6813 23.9779 95.6127 23.9092C95.2698 23.6341 94.9955 23.2903 94.7212 23.0153C94.6526 22.9465 94.4469 22.6715 94.7212 23.0153C94.6526 22.9465 94.5841 22.8777 94.5841 22.809C94.4469 22.6715 94.3783 22.4652 94.2412 22.2589C94.104 22.0526 94.0355 21.9151 93.9669 21.7088C93.8983 21.5713 93.8297 21.5025 93.8297 21.365C93.8297 21.2962 93.6926 20.9524 93.8297 21.2962C93.6926 20.8836 93.5554 20.4711 93.4183 20.0585C93.3497 19.8522 93.2811 19.6459 93.2811 19.4396C93.2811 19.3021 93.2126 19.2334 93.2126 19.0958C93.2126 18.8895 93.2126 18.9583 93.2126 19.0958C93.144 18.6145 93.144 18.2019 93.144 17.7206C93.144 17.5143 93.144 17.308 93.2126 17.033C93.2126 16.9642 93.2126 16.8267 93.2126 16.7579C93.144 17.1705 93.2126 16.6892 93.2126 16.6204C93.3497 15.7265 93.0068 14.6951 92.0468 14.4888C91.1553 14.42 90.0581 14.8326 89.8524 15.7953Z" fill="#0058C5"/>
<path d="M64.8872 64.205C70.4418 68.9495 77.1621 71.7 84.4997 71.7C86.6941 71.7 86.6941 68.2619 84.4997 68.2619C78.1222 68.2619 72.1561 65.8552 67.2873 61.7295C66.6016 61.1107 65.5729 61.0419 64.8872 61.7295C64.27 62.4171 64.1328 63.6549 64.8872 64.205Z" fill="#0058C5"/>
<path d="M61.736 75.6196C58.7873 84.4211 59.8159 95.3542 65.9191 102.643C66.5363 103.331 67.7021 103.262 68.3193 102.643C69.005 101.955 68.9364 100.924 68.3193 100.236C67.1535 98.8611 66.3306 97.2108 65.5763 95.6293C65.5077 95.423 65.0962 94.8729 65.5077 95.423C65.302 95.0792 65.1648 94.5979 65.0962 94.2541C64.6848 93.0851 64.4105 91.9161 64.1362 90.7472C63.1761 86.0714 63.519 81.1205 65.0962 76.5822C65.782 74.4506 62.4218 73.5567 61.736 75.6196Z" fill="#0058C5"/>
<path d="M114.609 78.3005C115.432 81.5323 115.706 84.9017 115.569 88.271C115.432 91.2277 114.951 94.2533 113.58 96.8662C112.551 98.8603 115.5 100.579 116.529 98.5853C118.106 95.491 118.792 91.9841 118.929 88.4773C119.135 84.7641 118.792 80.9822 117.832 77.3378C117.42 75.2062 114.06 76.1001 114.609 78.3005Z" fill="#0058C5"/>
<path d="M95.0636 36.1491C96.4351 35.324 97.8066 34.4988 99.1781 33.7424C99.3838 33.6049 99.5895 33.5362 99.7953 33.3986C100.344 33.0548 100.618 32.2297 100.275 31.6108C99.9324 30.992 99.1095 30.7857 98.4923 31.1295C97.1208 31.9546 95.7493 32.7798 94.3778 33.5362C94.1721 33.6737 93.9664 33.7424 93.7606 33.88C93.212 34.2238 92.9377 35.0489 93.2806 35.6678C93.6921 36.2866 94.4464 36.5617 95.0636 36.1491Z" fill="#0058C5"/>
<path d="M90.5249 53.884C92.4232 53.5266 93.5996 51.3006 93.1524 48.9119C92.7051 46.5232 90.8037 44.8765 88.9054 45.2338C87.0071 45.5912 85.8308 47.8173 86.278 50.2059C86.7252 52.5946 88.6266 54.2413 90.5249 53.884Z" fill="#0058C5" stroke="#0058C5" stroke-width="0.43047" stroke-miterlimit="10" stroke-linecap="round" stroke-linejoin="round"/>
<path opacity="0.5" d="M109.466 47.7029H96.2306C94.7219 47.7029 93.5562 46.4651 93.5562 45.0212V37.2511C93.5562 35.7383 94.7905 34.5693 96.2306 34.5693H109.466C110.974 34.5693 112.14 35.8071 112.14 37.2511V45.0212C112.14 46.4651 110.906 47.7029 109.466 47.7029Z" fill="url(#paint0_linear_751_97985)"/>
<path opacity="0.5" d="M109.466 34.5693H96.2306C94.7219 34.5693 93.5562 35.8071 93.5562 37.251V37.9387C93.5562 36.4259 94.7905 35.257 96.2306 35.257H109.466C110.974 35.257 112.14 36.4947 112.14 37.9387V37.251C112.14 35.7383 110.906 34.5693 109.466 34.5693Z" fill="white"/>
<path opacity="0.5" d="M96.1627 47.7033H109.398C110.906 47.7033 112.072 46.4656 112.072 45.0216V44.334C112.072 45.8467 110.838 47.0157 109.398 47.0157H96.1627C94.6541 47.0157 93.4883 45.778 93.4883 44.334V45.0216C93.4883 46.4656 94.7226 47.7033 96.1627 47.7033Z" fill="url(#paint1_linear_751_97985)"/>
<path opacity="0.5" d="M102.609 47.0151H97.9458L105.215 35.2568H109.946L102.609 47.0151Z" fill="url(#paint2_linear_751_97985)"/>
<path d="M112.824 38.626H111.384C110.972 38.626 110.629 38.9698 110.629 39.3824V42.8892C110.629 43.3018 110.972 43.6456 111.384 43.6456H112.824C113.236 43.6456 113.578 43.3018 113.578 42.8892V39.3824C113.578 38.9698 113.236 38.626 112.824 38.626Z" fill="#0058C5"/>
<path opacity="0.9" d="M163.67 8.12014C167.116 8.12014 169.91 5.31863 169.91 1.8628C169.91 -1.59303 167.116 -4.39453 163.67 -4.39453C160.223 -4.39453 157.429 -1.59303 157.429 1.8628C157.429 5.31863 160.223 8.12014 163.67 8.12014Z" stroke="white" stroke-width="2.15235" stroke-miterlimit="10"/>
<path opacity="0.8" d="M170.137 80.8047L163.691 91.9441H176.515L170.137 80.8047Z" stroke="white" stroke-width="2.15235" stroke-miterlimit="10" stroke-linecap="round" stroke-linejoin="round"/>
<path opacity="0.85" d="M38.0374 31.6563C40.9447 31.6563 43.3014 29.2931 43.3014 26.3779C43.3014 23.4628 40.9447 21.0996 38.0374 21.0996C35.1302 21.0996 32.7734 23.4628 32.7734 26.3779C32.7734 29.2931 35.1302 31.6563 38.0374 31.6563Z" fill="white" stroke="white" stroke-width="2.15235" stroke-miterlimit="10"/>
<g opacity="0.7">
<path d="M2 53.9785L12.6977 64.7741" stroke="white" stroke-width="2.15235" stroke-miterlimit="10" stroke-linecap="round" stroke-linejoin="round"/>
<path d="M2 64.7741L12.6977 53.9785" stroke="white" stroke-width="2.15235" stroke-miterlimit="10" stroke-linecap="round" stroke-linejoin="round"/>
</g>
<path d="M8.24194 46.7583C8.24194 43.1827 8.24194 39.5383 8.24194 35.9627C8.24194 33.7623 8.58482 31.6994 9.95632 29.8429C11.6707 27.5737 14.2766 26.5423 17.0196 26.5423C19.0082 26.5423 21.0655 26.5423 23.0542 26.5423C24.1514 26.5423 24.1514 24.8232 23.0542 24.8232C21.1341 24.8232 19.214 24.8232 17.2939 24.8232C14.4823 24.8232 11.8079 25.5796 9.68202 27.5737C7.55619 29.5678 6.45898 32.3183 6.45898 35.2063C6.45898 37.2004 6.45898 39.1945 6.45898 41.1198C6.45898 42.9764 6.45898 44.9017 6.45898 46.7583C6.52756 47.8585 8.24194 47.8585 8.24194 46.7583Z" fill="#0058C5"/>
<path d="M20.0354 30.5993C21.7497 29.1553 23.4641 27.7113 25.1785 26.2673C25.5214 25.9923 25.5214 25.3047 25.1785 25.0296C23.4641 23.5856 21.7497 22.1416 20.0354 20.6976C19.6925 20.4226 19.1439 20.3538 18.801 20.6976C18.5267 20.9727 18.4581 21.5915 18.801 21.9353C20.5154 23.3793 22.2298 24.8233 23.9441 26.2673C23.9441 25.8548 23.9441 25.4422 23.9441 25.0296C22.2298 26.4736 20.5154 27.9176 18.801 29.3616C18.4581 29.6367 18.5267 30.2555 18.801 30.5993C19.2125 30.9432 19.6925 30.8744 20.0354 30.5993Z" fill="#0058C5"/>
<path d="M125.753 9.84312C125.921 8.036 126.124 6.16936 126.293 4.36224C126.311 4.05532 126.354 3.84234 126.372 3.53541C126.434 3.01551 126.861 2.54865 127.405 2.70494C129.156 3.24267 130.941 3.72088 132.691 4.25861C132.963 4.33676 133.176 4.38049 133.448 4.45864C134.536 4.77124 134.07 6.40627 133.042 6.12809C131.291 5.59036 129.506 5.11215 127.755 4.57442C127.483 4.49627 127.271 4.45254 126.999 4.37439C127.323 4.0861 127.707 3.83222 128.031 3.54393C127.863 5.35105 127.66 7.21768 127.492 9.0248C127.474 9.33172 127.43 9.54471 127.412 9.85163C127.385 10.312 127.086 10.6943 126.592 10.7258C126.226 10.6728 125.726 10.3035 125.753 9.84312Z" fill="#0058C5"/>
<path d="M174.978 73.7409C178.334 67.9096 179.058 60.8715 177.007 54.5267C175.175 48.6264 171.094 43.8826 165.807 40.8207C161.589 38.378 157.243 36.0199 153.171 33.1858C145.85 28.1527 139.495 21.8542 134.172 14.7256C131.955 11.6963 129.679 8.63266 127.462 5.60341C126.777 4.73034 128.302 3.86854 128.988 4.74161C131.18 7.67695 133.278 10.6374 135.47 13.5727C140.445 20.3416 146.418 26.3397 153.289 31.1915C157.505 34.1883 162.089 36.684 166.544 39.2643C171.891 42.3607 176.016 46.8916 178.222 52.6915C180.933 59.8154 180.264 67.9962 176.463 74.601C175.915 75.553 174.43 74.6929 174.978 73.7409Z" fill="#0058C5"/>
<defs>
<linearGradient id="paint0_linear_751_97985" x1="95.3425" y1="36.871" x2="116.771" y2="49.0285" gradientUnits="userSpaceOnUse">
<stop stop-color="#25A3FF"/>
<stop offset="1" stop-color="#0059DF"/>
</linearGradient>
<linearGradient id="paint1_linear_751_97985" x1="93.4888" y1="45.9961" x2="112.121" y2="45.9961" gradientUnits="userSpaceOnUse">
<stop stop-color="#25A3FF"/>
<stop offset="1" stop-color="#0059DF"/>
</linearGradient>
<linearGradient id="paint2_linear_751_97985" x1="101.981" y1="45.7522" x2="106.224" y2="35.7379" gradientUnits="userSpaceOnUse">
<stop stop-color="white"/>
<stop offset="1" stop-color="white" stop-opacity="0"/>
</linearGradient>
</defs>
</svg>
