<svg width="29" height="38" viewBox="0 0 29 38" fill="none" xmlns="http://www.w3.org/2000/svg">
<path d="M19.5444 18.9864C19.2758 18.5749 19.2934 18.0558 19.5795 17.6619C22.0825 14.117 22.1875 9.40983 19.8421 5.75982C16.6552 0.803677 10.0709 -0.624969 5.13465 2.56321C1.48613 4.90957 -0.372389 9.22383 0.416843 13.4831C1.49305 19.2636 7.05881 23.0731 12.8369 21.9786C13.3199 21.8888 13.803 22.1034 14.0537 22.497L15.7367 25.1272L18.4742 25.7165C19.2972 25.895 19.8164 26.7181 19.6379 27.5415L19.0846 30.0653L21.6074 30.6189C22.4304 30.7975 22.9496 31.6206 22.7711 32.4439L22.1821 35.1826L23.0772 36.5603L27.5861 37.5425L28.5679 33.0318L19.5444 18.9864ZM8.32334 11.26C6.8025 10.9385 5.85358 9.43559 6.17487 7.91413C6.49617 6.39266 7.99851 5.44336 9.50146 5.7648C11.0223 6.08623 11.9712 7.58918 11.6499 9.11064C11.3286 10.6321 9.8263 11.5993 8.32334 11.26Z" fill="#A2BDFF"/>
<path d="M28.7826 33.0497C28.7826 33.1212 28.7469 33.1929 28.6753 33.2466C28.568 33.3182 28.4249 33.2825 28.3712 33.1751L19.3476 19.1119C19.0254 18.6288 19.043 18.0024 19.3827 17.5368C21.8499 14.0456 21.955 9.46373 19.6454 5.88529C16.5301 1.05441 10.0889 -0.35641 5.2421 2.74223C5.17056 2.79596 5.06322 2.79601 4.97374 2.74236C4.88425 2.67082 4.8484 2.52765 4.91992 2.43813C4.9378 2.42022 4.95568 2.38442 4.99146 2.38441C10.035 -0.857517 16.7625 0.606857 20.021 5.65245C22.4201 9.39192 22.3151 14.1707 19.7585 17.8051C19.544 18.1274 19.5263 18.557 19.7411 18.879L28.7647 32.9423C28.7826 32.9781 28.7826 33.0139 28.7826 33.0497ZM9.73405 5.78269C9.73406 5.80059 9.73408 5.83638 9.7162 5.85429C9.68048 5.97959 9.55527 6.03333 9.43002 5.9976C9.43002 5.9976 9.41214 5.99762 9.41213 5.97972C8.73223 5.85477 8.07034 5.98036 7.51591 6.33858C6.9436 6.71471 6.5324 7.28765 6.3896 7.96783C6.24681 8.64801 6.37237 9.32806 6.74835 9.9185C7.12433 10.5089 7.69702 10.9024 8.37692 11.0453C8.50216 11.0631 8.57378 11.1884 8.55595 11.3137C8.53812 11.4389 8.41293 11.5106 8.28769 11.4928C7.50042 11.3142 6.82036 10.8491 6.39066 10.1692C5.96097 9.48933 5.79956 8.68402 5.97809 7.89643C6.15661 7.10885 6.62144 6.42851 7.30106 5.98074C7.98068 5.53297 8.78567 5.38939 9.57294 5.56799C9.60872 5.56797 9.62662 5.58587 9.66241 5.60375C9.69821 5.63953 9.73402 5.7111 9.73405 5.78269Z" fill="#0F2032"/>
<path d="M26.8508 33.6054C26.8508 33.677 26.815 33.7486 26.7435 33.7845C26.6362 33.8561 26.5109 33.8204 26.4393 33.713L18.0246 20.8665C17.953 20.7591 17.9887 20.6159 18.0961 20.5622C18.2034 20.4906 18.3465 20.5263 18.4002 20.6336L26.8149 33.4802C26.8507 33.5159 26.8507 33.5517 26.8508 33.6054Z" fill="#0F2032"/>
</svg>
