<svg width="69" height="119" viewBox="0 0 69 119" fill="none" xmlns="http://www.w3.org/2000/svg">
<path d="M37.3122 85.9404C34.8511 106.649 34.6666 132.518 33.6206 155.131H65.7992C67.2759 134.177 69.7985 111.257 69.9215 93.9902C69.9831 86.0633 68.7525 80.4101 67.8911 75.0026L53.3092 70.4554L37.3737 78.5666C37.7429 83.4211 37.866 81.086 37.3122 85.9404Z" fill="#1266E1"/>
<path d="M41.8645 25.4136L44.3871 37.3961C44.5717 38.2564 44.7563 39.0552 45.31 39.6697C46.5406 41.083 48.694 40.8372 50.2322 39.854C51.7704 38.8708 53.0624 37.1503 53.5546 35.1839C53.8007 34.1393 53.7392 32.726 53.6162 31.6814L51.5858 21.1123L50.7859 17.6711L43.7103 21.8496L41.8645 25.4136Z" fill="#FFD7E7"/>
<path d="M51.2792 2.92308C49.618 1.14108 46.9108 0.219355 44.5113 0.956736C42.5424 0.465149 40.5736 0.157907 38.5432 0.342252C37.005 0.465149 35.5283 0.956735 34.1747 1.69412C31.7752 3.10743 29.9909 5.44247 29.191 8.08475C28.3297 11.0957 29.3141 14.1681 31.0984 16.6875L41.4349 8.69923C44.1421 10.174 46.7878 11.6488 49.495 13.185C50.4179 13.6766 51.3408 14.3525 52.2637 14.7212C52.6944 13.9223 52.7559 12.509 52.8789 11.5259C53.1251 9.43662 53.2481 7.28592 52.6328 5.25812C52.3252 4.39785 51.8945 3.59902 51.2792 2.92308Z" fill="#3882FF"/>
<path d="M35.2211 18.6537C36.0825 20.6815 35.3442 22.5864 33.7445 23.2623C32.1448 23.9382 30.299 23.078 29.4376 21.0502C28.5762 19.0224 29.376 17.1175 30.9142 16.503C32.5139 15.827 34.3597 16.6259 35.2211 18.6537Z" fill="#FFD7E7"/>
<path d="M50.7868 11.7105C50.7253 11.7105 50.7253 11.7105 50.6638 11.7105C50.11 11.7105 50.0485 10.9731 50.4177 10.7888C50.1716 10.0514 49.7409 8.82242 49.7409 8.82242L40.0812 4.0909C39.8966 4.02945 39.4659 4.27524 39.3428 4.33669C38.7276 4.58248 38.0508 4.82828 37.497 5.13552C35.7127 6.05724 34.0515 7.28621 32.821 8.88387C31.4674 10.7273 30.8521 11.4647 30.9136 13.4925L32.5748 20.4976C33.0055 22.0338 33.6208 23.4471 34.6668 24.6761C35.5897 25.8436 36.7587 26.7654 38.1738 27.3798C42.4192 29.2233 47.4644 26.581 49.3102 22.5254C49.7409 21.5422 50.11 20.4976 50.3561 19.453C50.4177 19.2686 50.7253 18.224 50.6023 18.0397L50.3561 17.7324L50.6023 17.3023C50.6023 17.4252 52.5096 16.5035 50.7868 11.7105Z" fill="#FFD7E7"/>
<path d="M39.0355 16.8717L39.1586 17.3633C39.2817 17.732 39.2201 18.1621 39.0355 18.4694L38.6664 19.1453C38.6049 19.3296 38.6664 19.514 38.851 19.5754L40.143 20.1285" stroke="#2E2E2E" stroke-width="0.214373" stroke-miterlimit="10" stroke-linecap="round" stroke-linejoin="round"/>
<path d="M35.3442 16.9328C35.8365 17.6702 36.9439 17.4858 37.19 16.6255" stroke="#2E2E2E" stroke-width="0.214373" stroke-miterlimit="10" stroke-linecap="round" stroke-linejoin="round"/>
<path d="M42.4819 15.3968C43.0972 16.0727 44.1432 15.6426 44.2047 14.7823" stroke="#2E2E2E" stroke-width="0.214373" stroke-miterlimit="10" stroke-linecap="round" stroke-linejoin="round"/>
<path d="M39.3433 21.7875C39.3433 21.7875 40.3892 22.279 41.4967 21.9104C42.1735 21.726 43.0349 21.2959 43.4656 20.3741" stroke="#2E2E2E" stroke-width="0.214373" stroke-miterlimit="10" stroke-linecap="round" stroke-linejoin="round"/>
<path d="M43.1585 19.1448C43.1585 19.1448 42.9124 20.4967 44.3275 20.8039" stroke="#2E2E2E" stroke-width="0.214373" stroke-miterlimit="10" stroke-linecap="round" stroke-linejoin="round"/>
<path d="M55.0333 15.2743C55.0948 17.6708 53.4951 19.2684 51.6493 19.2684C49.8035 19.2684 48.2653 17.7937 48.2038 15.3972C48.1422 13.0007 49.6189 11.4645 51.4647 11.403C52.6952 11.403 53.9258 11.9561 54.5411 13.1236C54.8487 13.7381 54.9717 14.5369 55.0333 15.2743Z" fill="#FFD7E7"/>
<path d="M51.5252 13.1233C52.6942 13.0618 53.371 14.1679 53.371 15.274C53.371 16.3801 52.8788 17.609 51.2791 17.609" stroke="#2E2E2E" stroke-width="0.214373" stroke-miterlimit="10" stroke-linecap="round" stroke-linejoin="round"/>
<path d="M48.8785 8.33066C48.6324 8.515 48.3247 8.6379 48.0171 8.69935C47.9556 8.69935 47.8325 8.7608 47.771 8.7608C48.1402 9.62107 48.0786 10.6657 48.0171 11.5874C48.6324 13.2465 49.2476 15.09 49.2476 15.09L50.7858 10.7886C50.7858 10.85 49.8014 9.55963 48.8785 8.33066Z" fill="#3882FF"/>
<path d="M31.2827 14.9055C30.9751 12.8777 31.0366 10.727 31.775 8.76064C31.898 8.39195 32.0826 8.02325 32.2672 7.71601C31.898 7.59312 31.5289 7.47022 31.1597 7.22443C30.3599 8.14615 29.6215 9.25222 29.2524 9.74381C28.6371 10.4812 29.6831 13.9837 29.9292 14.3524C30.1137 14.6597 31.2212 17.2405 31.775 18.3466C32.0211 18.8382 32.0211 18.408 32.0211 18.408C32.0211 18.408 31.775 16.6875 31.6519 15.2742C31.5289 15.2742 31.3443 15.1513 31.2827 14.9055Z" fill="#3882FF"/>
<path d="M49.3108 22.7092C47.465 26.5804 42.6044 29.4071 38.1744 27.5022C37.0054 27.0106 36.021 26.2732 35.1596 25.4129C33.8675 24.061 33.0677 22.4019 32.5755 20.6199L31.9602 18.2234" stroke="#2E2E2E" stroke-width="0.214373" stroke-miterlimit="10" stroke-linecap="round" stroke-linejoin="round"/>
<path d="M51.095 8.51441C50.7258 8.20716 50.4182 7.89992 50.1105 7.59268C49.4953 6.91675 48.8185 6.30226 48.0186 5.81067C46.665 4.88895 45.0653 4.27447 43.4656 4.09012C41.8659 3.90577 40.0201 3.10695 38.4204 3.41419C35.7748 3.90578 33.1291 5.81068 31.0372 7.59268L29.8682 10.4808L30.1758 14.352C30.2989 15.0894 31.0372 15.4581 31.7755 15.6424C33.0676 15.8882 34.5442 15.581 35.8363 14.905C34.8518 15.0279 33.8674 14.5363 33.3137 13.799C32.6984 13.0001 32.5138 11.7097 32.883 10.6037C33.1291 9.98917 33.6213 9.55903 34.2366 9.68193C35.098 8.20716 36.6361 7.96137 37.9897 8.39151C39.5279 8.94454 40.4508 10.5422 41.9275 11.2796C43.158 11.8941 44.5731 12.0784 46.0498 12.017C46.8496 12.017 47.711 11.8941 48.5724 11.7712C49.2492 11.6483 49.6799 11.6483 50.1105 11.0952C50.4182 10.6651 51.4026 9.25179 51.218 8.7602C51.218 8.69875 51.1565 8.6373 51.095 8.51441Z" fill="#3882FF"/>
<path d="M30.9137 10.4196C30.2369 12.6932 31.7135 15.2741 34.1131 15.5199" stroke="#2E2E2E" stroke-width="0.214373" stroke-miterlimit="10" stroke-linecap="round" stroke-linejoin="round"/>
<path d="M34.2976 9.55899C34.5437 7.83843 36.0819 6.48657 37.8047 6.36367C39.8966 6.24077 41.1271 8.08423 42.7883 9.00595C43.8958 9.55899 46.48 10.3578 49.0026 8.69871" stroke="#2E2E2E" stroke-width="0.214373" stroke-miterlimit="10" stroke-linecap="round" stroke-linejoin="round"/>
<path d="M46.4187 11.9564C46.4187 11.9564 47.4031 12.0178 48.5721 11.7106" stroke="#2E2E2E" stroke-width="0.214373" stroke-miterlimit="10" stroke-linecap="round" stroke-linejoin="round"/>
<path d="M55.0303 31.1896L53.8613 29.4076C53.6767 29.1004 53.3691 28.916 53.0615 28.7931L53.1845 29.5305C52.6923 30.2679 52.2001 31.0667 51.7694 31.8655C51.3387 32.6644 51.1541 33.3403 51.0311 34.3849C50.4158 33.709 49.6775 33.0945 48.8161 32.7258C47.9547 32.3571 47.0934 32.1113 46.232 31.8655C45.1245 31.4969 44.0785 31.0667 42.971 30.6366L42.848 30.145L42.7249 30.2679C42.6019 30.3908 42.4788 30.5751 42.4173 30.7595L41.4329 33.3403L42.0481 43.2949L57.3068 41.39L55.0303 31.1896Z" fill="white"/>
<path d="M89.9169 44.0324C88.994 43.1721 88.3172 43.4794 87.5788 44.524C85.3639 47.6579 82.0414 50.3616 79.1496 52.7581C77.9191 53.8027 76.8731 54.9702 75.5195 55.8919C75.2119 56.0763 74.9043 56.3835 74.6582 56.6908C74.4736 56.9366 74.1659 56.8137 74.1044 56.5679C73.9814 56.0763 73.9198 55.5847 73.7353 55.1546C73.3046 53.6798 72.8739 52.205 72.4432 50.7917C71.2742 46.6747 71.1511 42.3733 69.9821 38.2563C69.3053 35.9827 68.3209 33.6476 66.4135 32.1114C63.1526 29.4691 58.1689 29.4691 54.3542 30.5752L59.5225 55.4618C60.3224 58.0426 60.2608 60.8078 61.0607 63.3887C62.3528 67.5057 65.4291 72.1758 69.736 73.5891C74.289 75.0638 78.5959 71.3155 81.5492 68.5503C84.2564 66.0309 86.9636 63.2043 89.2401 60.3162C91.8242 56.998 93.3624 53.7413 95.7004 50.9146C96.5618 49.87 96.3772 49.1941 95.2082 48.5181C93.5469 47.4121 91.6396 45.6301 89.9169 44.0324Z" fill="white"/>
<path d="M69.0581 54.6624C69.0581 52.9419 68.9966 51.1599 68.5044 49.5008C67.52 46.0596 64.7513 43.2945 61.4288 41.8197C58.1679 40.3449 46.3547 33.77 42.7861 34.2001C38.6023 34.6302 37.2487 38.0714 33.9262 40.7136C32.2035 42.0655 30.4192 55.0926 30.4192 55.0926C32.0804 60.4386 34.9722 71.4993 36.0181 76.9682C36.2643 78.1357 36.5719 79.4876 37.6179 79.9792C39.156 80.6551 41.6786 79.3647 43.3399 79.4261C44.2012 79.4261 45.0011 79.8563 45.8009 80.0406C46.9084 80.2864 48.0774 80.0406 49.2465 79.8563C52.1382 79.3647 54.4762 79.9177 57.1834 78.8731C58.414 78.3815 59.6445 77.9514 60.9366 77.5827C62.2902 77.214 63.6438 77.0911 64.9974 76.9682C65.6126 76.9067 66.2894 76.7838 66.9047 76.538C67.4584 76.3537 68.1352 75.985 68.2583 75.3705C68.5044 74.1416 68.4429 74.203 68.5044 72.9126C68.9966 66.8292 69.1197 60.7458 69.0581 54.6624Z" fill="white"/>
<path d="M42.5419 32.4799C42.5419 32.5413 37.0045 32.4799 36.4507 32.4799C33.6205 32.6028 31.0364 33.7088 29.2521 35.9824C25.6835 40.591 24.3299 47.0431 22.238 52.3891C21.8688 53.3109 21.4381 54.294 20.6383 54.9085C20.2691 55.2158 19.7769 55.4001 19.5923 55.8303C19.4077 56.1989 19.5308 56.5676 19.4693 56.9978C19.2847 57.9809 18.3003 58.5954 17.9311 59.5172C17.6235 60.2545 17.7465 61.1148 17.5619 61.9136C17.3774 62.7125 16.8236 63.4499 16.3314 64.1258C16.1468 64.3101 16.0238 64.5559 15.8392 64.7403C15.0393 64.1872 14.178 63.7571 13.3166 63.3884C11.4708 62.7125 9.31732 62.5896 7.59456 63.6342C4.88737 65.3548 2.36477 67.8127 2.61088 69.5947C2.79546 70.8237 4.02601 71.3153 8.08679 74.6335C11.5323 77.4601 16.1468 79.7337 20.7613 79.1192C25.4374 78.5047 28.3907 73.8961 29.9289 69.779C31.2209 66.2765 32.9437 61.6064 34.3588 58.1038C34.2973 58.1038 42.5419 32.5413 42.5419 32.4799Z" fill="white"/>
<path d="M68.7529 73.0974C69.122 73.2817 69.4297 73.4046 69.7988 73.5275C74.3518 75.0023 78.6587 71.254 81.612 68.4888C84.3192 65.9694 87.0264 63.1428 89.3029 60.2547C91.887 56.9365 93.4252 53.6797 95.7632 50.8531C96.6246 49.8085 96.44 49.1325 95.271 48.4566C93.4867 47.4734 91.5794 45.6914 89.8566 44.0323C88.9337 43.172 88.2569 43.4793 87.5186 44.5239C85.3036 47.6578 81.9812 50.3615 79.0894 52.758C77.8589 53.8026 76.8129 54.9701 75.4593 55.8918C75.1517 56.0762 74.4749 56.6292 74.2288 56.9365C74.2288 56.9365 73.7981 55.5846 73.675 55.093C73.2443 53.6183 72.8137 52.1435 72.383 50.7302C71.214 46.6131 71.0909 42.3118 69.9219 38.1947C69.2451 35.9211 68.2607 33.5861 66.3533 32.0499C63.1539 29.4076 58.2318 29.4076 54.4171 30.5137C54.3556 30.5137 54.1094 30.0221 54.0479 30.0221C53.7403 29.5305 53.4326 29.0389 52.8789 28.8546" stroke="#2E2E2E" stroke-width="0.214373" stroke-miterlimit="10" stroke-linecap="round" stroke-linejoin="round"/>
<path d="M42.725 30.2067C42.602 30.3296 42.4789 30.5139 42.4174 30.6982L41.7406 32.4803C40.2024 32.4803 36.8799 32.4803 36.5108 32.4803C33.6805 32.6032 31.0964 33.7092 29.3121 35.9828C25.7436 40.5914 24.39 47.0435 22.298 52.3895C21.9289 53.3113 21.4982 54.2944 20.6984 54.9089C20.3292 55.2162 19.837 55.4005 19.6524 55.8306C19.4678 56.1993 19.5909 56.568 19.5293 56.9982C19.3447 57.9813 18.3603 58.5958 17.9912 59.5176C17.6835 60.2549 17.8066 61.1152 17.622 61.914C17.4374 62.7129 16.8837 63.4502 16.3915 64.1262C16.2069 64.3105 16.0838 64.5563 15.8992 64.7407C15.0994 64.1876 14.238 63.7575 13.3766 63.3888C11.5308 62.7129 9.37738 62.59 7.65463 63.6346C4.94744 65.3551 2.42483 67.8131 2.67094 69.5951C2.85552 70.8241 4.08606 71.3156 8.14684 74.6339C11.5923 77.4605 16.2069 79.7341 20.8214 79.1196C25.4975 78.5051 28.4507 73.8965 29.9889 69.7794C30.7888 67.5673 31.7732 64.925 32.6961 62.4671C34.1112 67.6287 35.5264 73.4663 36.2031 77.0303C36.4493 78.1979 36.7569 79.5497 37.8029 80.0413" stroke="#2E2E2E" stroke-width="0.214373" stroke-miterlimit="10" stroke-linecap="round" stroke-linejoin="round"/>
<path d="M32.5728 62.4054L35.526 55.4003" stroke="#2E2E2E" stroke-width="0.214373" stroke-miterlimit="10" stroke-linecap="round" stroke-linejoin="round"/>
<path d="M15.8389 64.741C15.8389 64.741 18.7922 66.9531 21.1302 68.7351" stroke="#2E2E2E" stroke-width="0.214373" stroke-miterlimit="10" stroke-linecap="round" stroke-linejoin="round"/>
<path d="M17.1921 64.9246C17.1921 64.9246 15.6539 63.0197 24.4523 64.9246" stroke="#2E2E2E" stroke-width="0.214373" stroke-miterlimit="10" stroke-linecap="round" stroke-linejoin="round"/>
<path d="M65.2439 41.1442C65.7361 46.1215 66.0437 50.7301 66.4744 55.7074C66.5975 56.9979 66.7205 58.2268 66.8436 59.5172C67.1512 62.6511 67.3973 63.0198 67.8895 66.0922C69.0586 73.5275 68.874 74.4492 68.0126 75.9854" stroke="#2E2E2E" stroke-width="0.214373" stroke-miterlimit="10" stroke-linecap="round" stroke-linejoin="round"/>
<path d="M50.479 155.131C51.525 135.959 54.0476 118.385 55.0935 98.4141L57.1854 96.3863" stroke="#2E2E2E" stroke-width="0.214373" stroke-miterlimit="10" stroke-linecap="round" stroke-linejoin="round"/>
<path d="M55.2171 82.7445C55.7268 82.7445 56.14 82.3318 56.14 81.8228C56.14 81.3137 55.7268 80.9011 55.2171 80.9011C54.7074 80.9011 54.2942 81.3137 54.2942 81.8228C54.2942 82.3318 54.7074 82.7445 55.2171 82.7445Z" fill="#2E2E2E"/>
<path d="M20.1458 61.9751L10.2399 65.2933C9.74773 65.4777 9.13245 65.2319 8.94787 64.7403L1.07241 46.9202C0.887832 46.5515 1.07241 46.1829 1.44157 46.06L11.3474 42.7417C11.8396 42.5574 12.4549 42.8032 12.6395 43.2948L20.5149 61.1148C20.6995 61.4221 20.5149 61.8522 20.1458 61.9751Z" fill="#1266E1"/>
<path d="M1.74829 46.7362L11.2234 43.6024C11.5926 43.4795 11.9618 43.6638 12.0848 43.9711L19.7757 61.2995" stroke="white" stroke-width="0.214373" stroke-miterlimit="10" stroke-linecap="round" stroke-linejoin="round"/>
<path d="M15.2855 53.9863C14.7933 53.802 14.2395 53.8634 13.7473 53.9863C11.7169 54.4779 9.5635 55.5225 9.5635 55.5225C9.62503 55.4611 9.68655 55.3996 9.74808 55.3382C9.93266 55.1538 10.0557 55.031 10.2403 54.8466C10.671 54.4165 11.1017 53.9249 11.5324 53.4333C11.84 53.0032 12.1476 52.573 12.1476 52.0814C12.2092 51.5284 11.963 50.9139 11.3478 50.791C10.9171 50.6681 10.4249 50.8525 9.99418 51.0368C8.456 51.7127 2.91858 54.7237 1.93415 56.4443C0.457499 58.9022 1.19583 63.2036 1.99568 66.1531C2.48789 67.9351 3.77996 69.9015 5.50272 70.7617C7.22547 71.622 9.13281 70.8232 9.87114 69.1026C10.3018 68.1809 10.3633 67.0134 10.3633 66.0302C10.3633 65.6615 9.93266 64.3711 10.1788 64.0639C10.3634 63.8181 15.224 60.6842 15.6547 59.2709C16.2699 57.5503 14.8548 57.1816 14.8548 57.1816C15.4701 56.6901 16.3315 55.9527 16.0854 55.0924C16.0854 54.6623 15.7777 54.1707 15.2855 53.9863Z" fill="#FFD7E7"/>
<path d="M10.6096 54.9696C10.6096 54.9696 7.77939 56.4443 6.24121 57.3661" stroke="#2E2E2E" stroke-width="0.214373" stroke-miterlimit="10" stroke-linecap="round" stroke-linejoin="round"/>
<path d="M8.64111 60.1923C9.87165 59.3934 11.1022 58.5946 12.3943 57.9187C13.0711 57.55 13.9324 57.1198 14.6708 57.1813C15.4091 57.1813 15.9013 57.55 16.0244 58.4103" stroke="#2E2E2E" stroke-width="0.214373" stroke-miterlimit="10" stroke-linecap="round" stroke-linejoin="round"/>
<path d="M5.1958 53.6179C2.48861 55.5228 1.31959 56.506 1.13501 58.9639C0.950433 60.8688 1.19655 62.7737 1.68876 64.6172C1.68876 64.6172 2.98082 71.3765 7.28771 71.1307" stroke="#2E2E2E" stroke-width="0.214373" stroke-miterlimit="10" stroke-linecap="round" stroke-linejoin="round"/>
<path d="M44.325 33.8327L52.1389 61.9761" stroke="#2E2E2E" stroke-width="0.214373" stroke-miterlimit="10" stroke-linecap="round" stroke-linejoin="round"/>
<path d="M53.4933 33.0336L53.3701 61.9758" stroke="#2E2E2E" stroke-width="0.214373" stroke-miterlimit="10" stroke-linecap="round" stroke-linejoin="round"/>
<path d="M56.8774 71.1932L50.4171 71.8077C50.171 71.8077 49.9864 71.6848 49.9864 71.439L49.125 61.7302C49.125 61.4844 49.2481 61.3 49.4942 61.3L55.9545 60.6855C56.2006 60.6855 56.3852 60.8084 56.3852 61.0542L57.2466 70.7631C57.2466 71.0089 57.1235 71.1932 56.8774 71.1932Z" fill="white"/>
<path d="M56.508 62.9593L56.3234 61.1159C56.3234 60.8701 56.0773 60.7472 55.8927 60.7472L49.4324 61.3617C49.1863 61.3617 49.0632 61.6075 49.0632 61.7918L49.2478 63.6353L56.508 62.9593Z" fill="#3882FF"/>
<path d="M56.8774 71.1932L50.4171 71.8077C50.171 71.8077 49.9864 71.6848 49.9864 71.439L49.125 61.7302C49.125 61.4844 49.2481 61.3 49.4942 61.3L55.9545 60.6855C56.2006 60.6855 56.3852 60.8084 56.3852 61.0542L57.2466 70.7631C57.2466 71.0089 57.1235 71.1932 56.8774 71.1932Z" stroke="#2E2E2E" stroke-width="0.214373" stroke-miterlimit="10" stroke-linecap="round" stroke-linejoin="round"/>
<path d="M4.19116 48.8276C4.47101 48.5802 4.47875 48.1324 4.20844 47.8275C3.93813 47.5226 3.49214 47.476 3.21229 47.7235C2.93243 47.971 2.92469 48.4187 3.195 48.7236C3.46531 49.0285 3.91131 49.0751 4.19116 48.8276Z" fill="white"/>
<path d="M4.9973 50.5314C5.27715 50.284 5.28489 49.8362 5.01459 49.5313C4.74428 49.2264 4.29829 49.1798 4.01843 49.4273C3.73858 49.6748 3.73084 50.1225 4.00115 50.4274C4.27146 50.7323 4.71745 50.7789 4.9973 50.5314Z" fill="white"/>
<path d="M41.6179 32.48L47.7706 39.6695L50.4778 34.4464" fill="white"/>
<path d="M41.6179 32.48L47.7706 39.6695L50.4778 34.4464" stroke="#2E2E2E" stroke-width="0.214373" stroke-miterlimit="10" stroke-linecap="round" stroke-linejoin="round"/>
<path d="M51.1545 34.3846L55.1538 36.9654L54.5385 30.4519" fill="white"/>
<path d="M51.1545 34.3846L55.1538 36.9654L54.5385 30.4519" stroke="#2E2E2E" stroke-width="0.214373" stroke-miterlimit="10" stroke-linecap="round" stroke-linejoin="round"/>
</svg>
