<svg width="current" height="current" viewBox="0 0 140 191" fill="none"
  xmlns="http://www.w3.org/2000/svg">
  <path d="M71.6494 118.313C69.0765 139.962 68.8835 167.008 67.79 190.648H101.431C102.975 168.742 105.612 144.78 105.741 126.729C105.805 118.442 104.519 112.531 103.618 106.878L88.3734 102.124L71.7137 110.604C72.0997 115.679 72.2283 113.238 71.6494 118.313Z" fill="#1266E1"/>
  <path d="M76.4087 55.0356L79.0459 67.5626C79.2389 68.4619 79.4319 69.2971 80.0108 69.9395C81.2973 71.417 83.5486 71.1601 85.1566 70.1322C86.7647 69.1044 88.1155 67.3056 88.6301 65.2499C88.8874 64.1578 88.8231 62.6803 88.6944 61.5882L86.5717 50.5387L85.7355 46.9412L78.3384 51.3096L76.4087 55.0356Z" fill="#FFD7E7"/>
  <path d="M138.731 71.4383C138.731 71.4383 137.251 75.9104 133.456 79.7863C131.398 81.8733 129.018 80.3826 127.667 78.1465C125.995 75.3887 125.93 71.96 126.574 68.755C126.831 67.4879 126.767 66.1462 126.702 64.8046C126.638 63.612 126.252 62.4939 126.059 61.3014C125.866 60.2579 125.93 59.0653 126.574 58.2454C127.346 57.2764 128.503 57.351 129.34 58.1708C130.819 59.6616 130.948 62.4939 131.527 64.581L134.421 68.5314L138.731 71.4383Z" fill="#FFD7E7"/>
  <path d="M137.83 63.3882C137.895 63.3136 138.023 63.2391 138.088 63.09C138.795 62.0466 138.538 60.705 137.638 59.9596C136.866 59.2888 135.836 59.1398 134.936 59.2888C133.521 59.4379 132.427 59.8106 131.977 60.7795C131.334 62.0466 132.106 63.09 132.492 63.3882C134.228 63.5372 136.094 63.1646 137.83 63.3882Z" fill="#FFD7E7"/>
  <path d="M139.633 64.8786C139.247 63.9097 138.153 63.4625 137.253 63.3134C136.481 63.1643 135.709 63.1643 134.873 63.1643C133.972 63.1643 133.136 63.2388 132.3 63.6115H132.236C131.85 63.8351 131.528 64.2078 131.4 64.655C130.949 66.593 132.879 67.4129 132.879 67.4129C132.879 67.4129 131.593 67.6365 131.335 69.4999C131.142 70.6924 132.364 71.6614 133.329 72.1086C136.417 73.5248 138.153 73.0031 138.732 71.4378C139.311 69.9471 138.218 68.5309 138.153 68.5309C138.475 68.4564 138.925 68.0837 138.99 68.0091C139.762 67.3383 140.019 65.8476 139.633 64.8786Z" fill="#FFD7E7"/>
  <path d="M138.153 68.6062C139.054 68.9789 139.697 70.5442 139.568 71.5877C139.439 72.4821 138.989 73.302 138.475 73.8983C137.638 74.9419 136.738 75.6872 135.966 76.7308L133.908 74.3456L138.153 68.6062Z" fill="#FFD7E7"/>
  <path d="M137.959 68.5314C136.93 67.9351 135.708 67.637 134.55 67.4879C133.585 67.4133 132.299 67.2643 131.591 68.3078C131.334 68.755 131.206 69.4258 131.334 70.0221C131.463 70.693 131.913 71.2147 132.428 71.4384C133.714 72.1092 134.615 71.7365 135.965 72.2583" stroke="#2E2E2E" stroke-width="0.242562" stroke-miterlimit="10" stroke-linecap="round" stroke-linejoin="round"/>
  <path d="M137.767 63.4624C137.767 63.4624 135.194 62.7916 132.943 63.3879C130.692 63.9842 130.885 66.742 133.007 67.4874" stroke="#2E2E2E" stroke-width="0.242562" stroke-miterlimit="10" stroke-linecap="round" stroke-linejoin="round"/>
  <path d="M86.2503 31.523C84.5136 29.66 81.6834 28.6964 79.1748 29.4673C77.1164 28.9534 75.0581 28.6322 72.9354 28.8249C71.3273 28.9534 69.7836 29.4673 68.3685 30.2382C65.8599 31.7157 63.9945 34.1569 63.1583 36.9193C62.2578 40.0671 63.287 43.2791 65.1523 45.913L75.9586 37.5617C78.7888 39.1035 81.5547 40.6452 84.3849 42.2513C85.3498 42.7652 86.3146 43.4718 87.2795 43.8573C87.7297 43.0222 87.7941 41.5446 87.9227 40.5168C88.18 38.3326 88.3086 36.0841 87.6654 33.9642C87.3438 33.0648 86.8935 32.2297 86.2503 31.523Z" fill="#3882FF"/>
  <path d="M69.4614 47.9686C70.3619 50.0885 69.5901 52.08 67.9177 52.7867C66.2453 53.4933 64.3156 52.5939 63.415 50.474C62.5145 48.354 63.3507 46.3626 64.9588 45.7202C66.6312 45.0135 68.5609 45.8486 69.4614 47.9686Z" fill="#FFD7E7"/>
  <path d="M85.7353 40.7097C85.671 40.7097 85.671 40.7097 85.6067 40.7097C85.0278 40.7097 84.9635 39.9388 85.3494 39.7461C85.0921 38.9752 84.6418 37.6904 84.6418 37.6904L74.5431 32.7438C74.3502 32.6796 73.8999 32.9365 73.7712 33.0008C73.128 33.2577 72.4205 33.5147 71.8416 33.8359C69.9762 34.7995 68.2395 36.0843 66.953 37.7546C65.5379 39.6818 64.8946 40.4527 64.959 42.5727L66.6957 49.8961C67.146 51.5022 67.7892 52.9797 68.8827 54.2645C69.8475 55.4851 71.0697 56.4487 72.5491 57.0911C76.9874 59.0184 82.2619 56.256 84.1916 52.0161C84.6419 50.9882 85.0278 49.8961 85.2851 48.804C85.3494 48.6113 85.671 47.5192 85.5424 47.3265L85.2851 47.0053L85.5424 46.5556C85.5424 46.6841 87.5364 45.7205 85.7353 40.7097Z" fill="#FFD7E7"/>
  <path d="M73.4496 46.1057L73.5783 46.6196C73.7069 47.005 73.6426 47.4547 73.4496 47.7759L73.0637 48.4826C72.9993 48.6753 73.0637 48.868 73.2567 48.9323L74.6074 49.5104" stroke="#2E2E2E" stroke-width="0.242562" stroke-miterlimit="10" stroke-linecap="round" stroke-linejoin="round"/>
  <path d="M69.5908 46.1698C70.1054 46.9407 71.2632 46.748 71.5205 45.8486" stroke="#2E2E2E" stroke-width="0.242562" stroke-miterlimit="10" stroke-linecap="round" stroke-linejoin="round"/>
  <path d="M77.0527 44.5639C77.696 45.2706 78.7895 44.8209 78.8538 43.9215" stroke="#2E2E2E" stroke-width="0.242562" stroke-miterlimit="10" stroke-linecap="round" stroke-linejoin="round"/>
  <path d="M73.772 51.245C73.772 51.245 74.8655 51.7589 76.0233 51.3735C76.7308 51.1808 77.6314 50.7311 78.0816 49.7675" stroke="#2E2E2E" stroke-width="0.242562" stroke-miterlimit="10" stroke-linecap="round" stroke-linejoin="round"/>
  <path d="M77.7603 48.4823C77.7603 48.4823 77.503 49.8956 78.9824 50.2168" stroke="#2E2E2E" stroke-width="0.242562" stroke-miterlimit="10" stroke-linecap="round" stroke-linejoin="round"/>
  <path d="M90.174 44.4355C90.2384 46.9409 88.566 48.6112 86.6363 48.6112C84.7066 48.6112 83.0985 47.0694 83.0342 44.564C82.9698 42.0586 84.5136 40.4526 86.4433 40.3884C87.7298 40.3884 89.0162 40.9665 89.6595 42.1871C89.9811 42.8295 90.1097 43.6647 90.174 44.4355Z" fill="#FFD7E7"/>
  <path d="M86.5078 42.1867C87.7299 42.1225 88.4375 43.2788 88.4375 44.4351C88.4375 45.5915 87.9229 46.8763 86.2505 46.8763" stroke="#2E2E2E" stroke-width="0.242562" stroke-miterlimit="10" stroke-linecap="round" stroke-linejoin="round"/>
  <path d="M83.7413 37.1763C83.484 37.369 83.1624 37.4975 82.8408 37.5617C82.7765 37.5617 82.6478 37.626 82.5835 37.626C82.9694 38.5253 82.9051 39.6174 82.8408 40.581C83.484 42.3155 84.1272 44.2428 84.1272 44.2428L85.7353 39.7459C85.7353 39.8101 84.7062 38.4611 83.7413 37.1763Z" fill="#3882FF"/>
  <path d="M65.3449 44.05C65.0233 41.9301 65.0876 39.6816 65.8595 37.6259C65.9881 37.2405 66.1811 36.855 66.3741 36.5338C65.9881 36.4053 65.6022 36.2769 65.2162 36.0199C64.38 36.9835 63.6082 38.1398 63.2222 38.6538C62.579 39.4247 63.6725 43.0864 63.9298 43.4718C64.1228 43.7931 65.2806 46.4912 65.8595 47.6475C66.1168 48.1614 66.1168 47.7117 66.1168 47.7117C66.1168 47.7117 65.8595 45.913 65.7308 44.4355C65.6022 44.4355 65.4092 44.307 65.3449 44.05Z" fill="#3882FF"/>
  <path d="M84.1924 52.2083C82.2627 56.2555 77.1811 59.2106 72.5499 57.2191C71.3277 56.7052 70.2986 55.9343 69.398 55.0349C68.0472 53.6216 67.211 51.8871 66.6965 50.0241L66.0532 47.5187" stroke="#2E2E2E" stroke-width="0.242562" stroke-miterlimit="10" stroke-linecap="round" stroke-linejoin="round"/>
  <path d="M86.0572 37.3685C85.6713 37.0473 85.3496 36.7261 85.028 36.4049C84.3848 35.6982 83.6772 35.0558 82.841 34.5419C81.4259 33.5783 79.7535 32.9359 78.0811 32.7431C76.4087 32.5504 74.479 31.7153 72.8066 32.0365C70.0407 32.5504 67.2748 34.5419 65.0879 36.4049L63.8657 39.4242L64.1873 43.4714C64.316 44.2423 65.0879 44.6277 65.8597 44.8204C67.2105 45.0774 68.7543 44.7562 70.1051 44.0496C69.0759 44.178 68.0467 43.6641 67.4678 42.8932C66.8246 42.0581 66.6316 40.709 67.0176 39.5527C67.2748 38.9103 67.7894 38.4606 68.4327 38.5891C69.3332 37.0473 70.9413 36.7903 72.3564 37.24C73.9644 37.8182 74.9293 39.4884 76.4731 40.2593C77.7595 40.9017 79.2389 41.0945 80.7827 41.0302C81.6189 41.0302 82.5194 40.9017 83.4199 40.7733C84.1275 40.6448 84.5778 40.6448 85.028 40.0666C85.3496 39.6169 86.3788 38.1394 86.1858 37.6255C86.1858 37.5612 86.1215 37.497 86.0572 37.3685Z" fill="#3882FF"/>
  <path d="M64.9588 39.3604C64.2512 41.7373 65.795 44.4354 68.3036 44.6924" stroke="#2E2E2E" stroke-width="0.242562" stroke-miterlimit="10" stroke-linecap="round" stroke-linejoin="round"/>
  <path d="M68.4966 38.4607C68.7539 36.662 70.362 35.2487 72.163 35.1202C74.35 34.9917 75.6365 36.9189 77.3732 37.8826C78.531 38.4607 81.2326 39.2959 83.8698 37.5613" stroke="#2E2E2E" stroke-width="0.242562" stroke-miterlimit="10" stroke-linecap="round" stroke-linejoin="round"/>
  <path d="M81.1685 40.9669C81.1685 40.9669 82.1976 41.0312 83.4198 40.71" stroke="#2E2E2E" stroke-width="0.242562" stroke-miterlimit="10" stroke-linecap="round" stroke-linejoin="round"/>
  <path d="M90.1734 61.0741L88.9513 59.2111C88.7583 58.8899 88.4367 58.6972 88.1151 58.5687L88.2437 59.3396C87.7291 60.1105 87.2146 60.9456 86.7643 61.7808C86.314 62.6159 86.1211 63.3226 85.9924 64.4147C85.3492 63.708 84.5773 63.0656 83.6768 62.6801C82.7763 62.2947 81.8757 62.0377 80.9752 61.7808C79.8174 61.3953 78.7239 60.9456 77.5661 60.496L77.4375 59.982L77.3088 60.1105C77.1802 60.239 77.0515 60.4317 76.9872 60.6244L75.958 63.3226L76.6012 73.7296L92.5534 71.7381L90.1734 61.0741Z" fill="white"/>
  <path d="M126.646 74.5007C125.681 73.6014 124.973 73.9226 124.201 75.0147C121.886 78.2909 118.412 81.1175 115.389 83.6229C114.103 84.715 113.009 85.9356 111.594 86.8992C111.272 87.0919 110.951 87.4132 110.693 87.7344C110.5 87.9913 110.179 87.8628 110.115 87.6059C109.986 87.0919 109.922 86.578 109.729 86.1283C109.278 84.5866 108.828 83.0448 108.378 81.5672C107.156 77.2631 107.027 72.7662 105.805 68.4621C105.097 66.0852 104.068 63.644 102.074 62.038C98.665 59.2756 93.4548 59.2756 89.4668 60.432L94.8699 86.4495C95.7061 89.1477 95.6418 92.0385 96.478 94.7366C97.8288 99.0408 101.045 103.923 105.548 105.401C110.307 106.942 114.81 103.024 117.898 100.133C120.728 97.499 123.558 94.5439 125.938 91.5246C128.64 88.0556 130.248 84.6508 132.692 81.6957C133.592 80.6036 133.399 79.897 132.177 79.1903C130.441 78.034 128.447 76.171 126.646 74.5007Z" fill="white"/>
  <path d="M104.838 85.6136C104.838 83.8149 104.773 81.9519 104.259 80.2174C103.23 76.6199 100.335 73.7291 96.8617 72.1873C93.4526 70.6455 81.1026 63.7717 77.3718 64.2214C72.9979 64.6711 71.5827 68.2686 68.1093 71.0309C66.3082 72.4442 64.4429 86.0633 64.4429 86.0633C66.1796 91.6523 69.2028 103.216 70.2963 108.933C70.5536 110.154 70.8752 111.567 71.9687 112.081C73.5768 112.788 76.214 111.438 77.9507 111.503C78.8513 111.503 79.6875 111.952 80.5237 112.145C81.6815 112.402 82.9036 112.145 84.1257 111.952C87.1489 111.439 89.5932 112.017 92.4234 110.925C93.7099 110.411 94.9964 109.961 96.3471 109.576C97.7623 109.19 99.1774 109.062 100.592 108.933C101.236 108.869 101.943 108.74 102.586 108.483C103.165 108.291 103.873 107.905 104.002 107.263C104.259 105.978 104.195 106.042 104.259 104.693C104.773 98.3333 104.902 91.9735 104.838 85.6136Z" fill="white"/>
  <path d="M77.1171 62.4232C77.1171 62.4874 71.328 62.4232 70.7491 62.4232C67.7902 62.5516 65.0887 63.708 63.2233 66.0849C59.4926 70.903 58.0775 77.6483 55.8905 83.2372C55.5045 84.2008 55.0543 85.2287 54.2181 85.8711C53.8321 86.1923 53.3175 86.385 53.1246 86.8347C52.9316 87.2202 53.0603 87.6056 52.9959 88.0553C52.803 89.0832 51.7738 89.7256 51.3879 90.6892C51.0663 91.4601 51.1949 92.3594 51.0019 93.1946C50.809 94.0297 50.23 94.8006 49.7155 95.5072C49.5225 95.7 49.3938 95.9569 49.2009 96.1497C48.3647 95.5715 47.4642 95.1218 46.5636 94.7364C44.6339 94.0297 42.3826 93.9012 40.5816 94.9933C37.7514 96.7921 35.1141 99.3617 35.3714 101.225C35.5644 102.51 36.8508 103.023 41.0962 106.492C44.6983 109.448 49.5225 111.824 54.3467 111.182C59.2353 110.54 62.3228 105.722 63.9309 101.417C65.2817 97.7557 67.0827 92.8734 68.5621 89.2116C68.4978 89.2116 77.1171 62.4874 77.1171 62.4232Z" fill="white"/>
  <path d="M104.518 104.887C104.904 105.079 105.226 105.208 105.612 105.336C110.372 106.878 114.874 102.959 117.962 100.069C120.792 97.4347 123.622 94.4796 126.002 91.4602C128.704 87.9912 130.312 84.5865 132.756 81.6314C133.657 80.5393 133.464 79.8326 132.241 79.126C130.376 78.0981 128.382 76.2351 126.581 74.5006C125.616 73.6013 124.909 73.9225 124.137 75.0146C121.821 78.2908 118.348 81.1174 115.325 83.6228C114.038 84.7149 112.945 85.9355 111.529 86.8991C111.208 87.0919 110.5 87.67 110.243 87.9912C110.243 87.9912 109.793 86.5779 109.664 86.064C109.214 84.5222 108.764 82.9804 108.313 81.5029C107.091 77.1987 106.963 72.7019 105.74 68.3977C105.033 66.0208 104.004 63.5797 102.01 61.9736C98.6648 59.2113 93.519 59.2113 89.5309 60.3676C89.4666 60.3676 89.2093 59.8537 89.145 59.8537C88.8234 59.3398 88.5018 58.8258 87.9229 58.6331" stroke="#2E2E2E" stroke-width="0.242562" stroke-miterlimit="10" stroke-linecap="round" stroke-linejoin="round"/>
  <path d="M77.3092 60.0465C77.1806 60.175 77.0519 60.3677 76.9876 60.5604L76.28 62.4234C74.672 62.4234 71.1985 62.4234 70.8126 62.4234C67.8537 62.5519 65.1522 63.7082 63.2868 66.0852C59.5561 70.9032 58.1409 77.6485 55.9539 83.2375C55.568 84.2011 55.1178 85.229 54.2816 85.8714C53.8956 86.1926 53.381 86.3853 53.1881 86.835C52.9951 87.2204 53.1237 87.6059 53.0594 88.0556C52.8664 89.0834 51.8373 89.7258 51.4513 90.6894C51.1297 91.4603 51.2584 92.3597 51.0654 93.1948C50.8724 94.03 50.2935 94.8009 49.7789 95.5075C49.586 95.7002 49.4573 95.9572 49.2643 96.1499C48.4281 95.5718 47.5276 95.1221 46.6271 94.7366C44.6974 94.03 42.4461 93.9015 40.6451 94.9936C37.8148 96.7923 35.1776 99.362 35.4349 101.225C35.6278 102.51 36.9143 103.024 41.1596 106.493C44.7617 109.448 49.586 111.825 54.4102 111.182C59.2987 110.54 62.3863 105.722 63.9943 101.418C64.8305 99.105 65.8597 96.3426 66.8246 93.773C68.304 99.1692 69.7834 105.272 70.491 108.998C70.7483 110.219 71.0699 111.632 72.1634 112.146" stroke="#2E2E2E" stroke-width="0.242562" stroke-miterlimit="10" stroke-linecap="round" stroke-linejoin="round"/>
  <path d="M66.6948 93.7086L69.7823 86.3851" stroke="#2E2E2E" stroke-width="0.242562" stroke-miterlimit="10" stroke-linecap="round" stroke-linejoin="round"/>
  <path d="M49.2002 96.1501C49.2002 96.1501 52.2877 98.4628 54.732 100.326" stroke="#2E2E2E" stroke-width="0.242562" stroke-miterlimit="10" stroke-linecap="round" stroke-linejoin="round"/>
  <path d="M50.6153 96.3422C50.6153 96.3422 49.0072 94.3507 58.2054 96.3422" stroke="#2E2E2E" stroke-width="0.242562" stroke-miterlimit="10" stroke-linecap="round" stroke-linejoin="round"/>
  <path d="M100.851 71.4812C101.366 76.6847 101.687 81.5028 102.138 86.7063C102.266 88.0554 102.395 89.3402 102.523 90.6892C102.845 93.9655 103.102 94.351 103.617 97.563C104.839 105.336 104.646 106.3 103.746 107.906" stroke="#2E2E2E" stroke-width="0.242562" stroke-miterlimit="10" stroke-linecap="round" stroke-linejoin="round"/>
  <path d="M110.501 87.7979C108.829 89.5966 107.221 91.4596 106.899 93.965" stroke="#2E2E2E" stroke-width="0.242562" stroke-miterlimit="10" stroke-linecap="round" stroke-linejoin="round"/>
  <path d="M85.4146 190.648C86.508 170.605 89.1453 152.232 90.2388 131.354L92.4258 129.234" stroke="#2E2E2E" stroke-width="0.242562" stroke-miterlimit="10" stroke-linecap="round" stroke-linejoin="round"/>
  <path d="M90.3667 114.972C90.8996 114.972 91.3315 114.541 91.3315 114.008C91.3315 113.476 90.8996 113.045 90.3667 113.045C89.8338 113.045 89.4019 113.476 89.4019 114.008C89.4019 114.541 89.8338 114.972 90.3667 114.972Z" fill="#2E2E2E"/>
  <path d="M53.7029 93.2586L43.3469 96.7276C42.8323 96.9204 42.189 96.6634 41.9961 96.1495L33.7627 77.5196C33.5697 77.1341 33.7627 76.7487 34.1486 76.6202L44.5047 73.1512C45.0193 72.9585 45.6625 73.2154 45.8555 73.7294L54.0888 92.3593C54.2818 92.6805 54.0888 93.1301 53.7029 93.2586Z" fill="#1266E1"/>
  <path d="M34.4697 77.3273L44.3755 74.051C44.7614 73.9226 45.1474 74.1153 45.276 74.4365L53.3164 92.5524" stroke="white" stroke-width="0.242562" stroke-miterlimit="10" stroke-linecap="round" stroke-linejoin="round"/>
  <path d="M48.6224 84.907C48.1079 84.7143 47.529 84.7785 47.0144 84.907C44.8917 85.421 42.6404 86.5131 42.6404 86.5131C42.7047 86.4488 42.769 86.3846 42.8334 86.3203C43.0263 86.1276 43.155 85.9991 43.348 85.8064C43.7982 85.3567 44.2485 84.8428 44.6987 84.3289C45.0204 83.8792 45.342 83.4295 45.342 82.9156C45.4063 82.3374 45.149 81.695 44.5058 81.5665C44.0555 81.438 43.5409 81.6307 43.0907 81.8235C41.4826 82.5301 35.6935 85.6779 34.6643 87.4767C33.1206 90.0463 33.8925 94.5432 34.7287 97.6267C35.2432 99.4897 36.594 101.545 38.3951 102.445C40.1961 103.344 42.1901 102.509 42.962 100.71C43.4123 99.7467 43.4766 98.5261 43.4766 97.4983C43.4766 97.1128 43.0263 95.7638 43.2836 95.4425C43.4766 95.1856 48.5581 91.9093 49.0084 90.4318C49.6516 88.633 48.1722 88.2476 48.1722 88.2476C48.8154 87.7336 49.716 86.9627 49.4587 86.0634C49.4587 85.6137 49.137 85.0998 48.6224 84.907Z" fill="#FFD7E7"/>
  <path d="M43.7344 85.935C43.7344 85.935 40.7756 87.4768 39.1675 88.4404" stroke="#2E2E2E" stroke-width="0.242562" stroke-miterlimit="10" stroke-linecap="round" stroke-linejoin="round"/>
  <path d="M41.6763 91.3949C42.9627 90.5598 44.2492 89.7247 45.6 89.018C46.3075 88.6326 47.208 88.1829 47.9799 88.2471C48.7518 88.2471 49.2664 88.6326 49.395 89.532" stroke="#2E2E2E" stroke-width="0.242562" stroke-miterlimit="10" stroke-linecap="round" stroke-linejoin="round"/>
  <path d="M38.074 84.5219C35.2438 86.5133 34.0217 87.5412 33.8287 90.1108C33.6357 92.1023 33.893 94.0938 34.4076 96.021C34.4076 96.021 35.7584 103.087 40.261 102.831" stroke="#2E2E2E" stroke-width="0.242562" stroke-miterlimit="10" stroke-linecap="round" stroke-linejoin="round"/>
  <path d="M78.981 63.8371L87.15 93.2595" stroke="#2E2E2E" stroke-width="0.242562" stroke-miterlimit="10" stroke-linecap="round" stroke-linejoin="round"/>
  <path d="M88.5668 63.0018L88.438 93.2593" stroke="#2E2E2E" stroke-width="0.242562" stroke-miterlimit="10" stroke-linecap="round" stroke-linejoin="round"/>
  <path d="M92.1033 102.896L85.3493 103.538C85.092 103.538 84.8991 103.41 84.8991 103.153L83.9985 93.0026C83.9985 92.7457 84.1272 92.5529 84.3845 92.5529L91.1384 91.9105C91.3957 91.9105 91.5887 92.039 91.5887 92.296L92.4892 102.446C92.4892 102.703 92.3605 102.896 92.1033 102.896Z" fill="white"/>
  <path d="M91.7172 94.2876L91.5242 92.3604C91.5242 92.1034 91.2669 91.9749 91.074 91.9749L84.32 92.6173C84.0627 92.6173 83.9341 92.8743 83.9341 93.067L84.1271 94.9942L91.7172 94.2876Z" fill="#3882FF"/>
  <path d="M92.1033 102.896L85.3493 103.538C85.092 103.538 84.8991 103.41 84.8991 103.153L83.9985 93.0026C83.9985 92.7457 84.1272 92.5529 84.3845 92.5529L91.1384 91.9105C91.3957 91.9105 91.5887 92.039 91.5887 92.296L92.4892 102.446C92.4892 102.703 92.3605 102.896 92.1033 102.896Z" stroke="#2E2E2E" stroke-width="0.242562" stroke-miterlimit="10" stroke-linecap="round" stroke-linejoin="round"/>
  <path d="M37.0238 79.5138C37.3164 79.2551 37.3245 78.7869 37.0419 78.4682C36.7593 78.1494 36.293 78.1007 36.0005 78.3594C35.7079 78.6182 35.6998 79.0863 35.9824 79.405C36.265 79.7238 36.7312 79.7725 37.0238 79.5138Z" fill="white"/>
  <path d="M37.8656 81.2949C38.1582 81.0362 38.1663 80.5681 37.8837 80.2493C37.6011 79.9305 37.1348 79.8819 36.8422 80.1406C36.5497 80.3993 36.5416 80.8674 36.8242 81.1862C37.1068 81.5049 37.573 81.5536 37.8656 81.2949Z" fill="white"/>
  <path d="M76.1509 62.4232L82.5832 69.9394L85.4134 64.4789" fill="white"/>
  <path d="M76.1509 62.4232L82.5832 69.9394L85.4134 64.4789" stroke="#2E2E2E" stroke-width="0.242562" stroke-miterlimit="10" stroke-linecap="round" stroke-linejoin="round"/>
  <path d="M86.1206 64.4145L90.3016 67.1126L89.6584 60.303" fill="white"/>
  <path d="M86.1206 64.4145L90.3016 67.1126L89.6584 60.303" stroke="#2E2E2E" stroke-width="0.242562" stroke-miterlimit="10" stroke-linecap="round" stroke-linejoin="round"/>
  <path d="M0.148441 85.6357C0.0676822 85.6357 0.00999438 85.5781 0.00999438 85.4974C-0.105375 82.8358 0.782964 80.4046 2.42121 78.8376C3.87486 77.4434 5.97459 76.8673 7.79742 77.2476C8.42041 76.3488 9.28568 75.6114 10.3009 75.1505C11.7892 74.4707 13.5197 74.4246 15.0426 75.0122C15.1118 75.0353 15.158 75.1275 15.1234 75.1966C15.1003 75.2657 15.008 75.3118 14.9388 75.2773C13.4851 74.7127 11.8353 74.7703 10.4163 75.404C9.48181 75.8303 8.68577 76.4871 8.09738 77.3052C8.48964 77.4089 8.85881 77.5702 9.21646 77.766C10.2779 78.3882 10.9585 79.3561 11.0278 80.3816C11.0624 80.9347 10.8893 81.5108 10.5432 81.9716C10.174 82.4556 9.67793 82.7552 9.1357 82.7897C9.08955 82.7897 9.05495 82.7897 9.0088 82.7897C8.1666 82.7897 7.32441 82.179 6.9783 81.2803C6.59758 80.3125 6.81678 79.2985 7.0706 78.6072C7.20904 78.2154 7.39362 77.8352 7.61282 77.478C5.9169 77.1554 3.96716 77.72 2.6058 79.022C1.02524 80.5314 0.183046 82.8819 0.286878 85.4629C0.298415 85.5666 0.240736 85.6357 0.148441 85.6357C0.159978 85.6357 0.159978 85.6357 0.148441 85.6357ZM7.91279 77.5702C7.68205 77.9274 7.48592 78.3191 7.33594 78.7339C7.1052 79.3676 6.89754 80.3125 7.24364 81.1997C7.55514 82.0177 8.35119 82.5708 9.11263 82.5132C10.1163 82.4441 10.797 81.3495 10.7278 80.4162C10.6586 79.5059 10.024 78.5956 9.05494 78.0311C8.70883 77.8237 8.31658 77.6739 7.91279 77.5702Z" fill="#0F2032"/>
  <path d="M36.139 146.347C36.0225 146.152 36.0406 145.912 36.1806 145.735C37.4073 144.144 37.5457 141.968 36.5292 140.236C35.1479 137.883 32.1259 137.096 29.7792 138.477C28.0448 139.493 27.1018 141.453 27.3861 143.438C27.7742 146.132 30.279 148 32.9757 147.603C33.2011 147.571 33.4208 147.68 33.5293 147.866L34.2585 149.115L35.515 149.44C35.8928 149.538 36.1175 149.928 36.0192 150.306L35.7148 151.463L36.8725 151.767C37.2502 151.865 37.475 152.256 37.3766 152.633L37.0516 153.888L37.4399 154.543L39.5092 155.083L40.0499 153.015L36.139 146.347ZM31.09 142.56C30.3918 142.382 29.981 141.669 30.1588 140.972C30.3366 140.274 31.0505 139.864 31.7404 140.041C32.4385 140.219 32.8493 140.932 32.6715 141.629C32.4937 142.327 31.7795 142.746 31.09 142.56Z" fill="#A2BDFF"/>
  <path d="M40.1502 153.027C40.1488 153.06 40.1309 153.093 40.0968 153.116C40.0457 153.147 39.9801 153.128 39.9573 153.077L36.0467 146.401C35.9067 146.171 35.9268 145.882 36.093 145.673C37.3021 144.105 37.4382 141.988 36.4369 140.289C35.0864 137.996 32.1304 137.22 29.8267 138.561C29.7926 138.585 29.7429 138.583 29.7024 138.556C29.6624 138.521 29.6485 138.454 29.6833 138.414C29.6919 138.406 29.7009 138.39 29.7175 138.391C32.115 136.988 35.2025 137.793 36.6153 140.189C37.655 141.964 37.5152 144.172 36.2619 145.804C36.1564 145.949 36.14 146.148 36.2334 146.301L40.1439 152.977C40.1515 152.994 40.1509 153.01 40.1502 153.027ZM31.8489 140.053C31.8486 140.061 31.8479 140.078 31.8393 140.086C31.8204 140.143 31.7614 140.166 31.7041 140.147C31.7041 140.147 31.6958 140.146 31.6961 140.138C31.3836 140.067 31.0747 140.113 30.8111 140.268C30.5389 140.431 30.3376 140.688 30.2585 141C30.1794 141.312 30.2245 141.629 30.3874 141.909C30.5502 142.189 30.8079 142.382 31.1201 142.461C31.1777 142.472 31.2085 142.531 31.1979 142.589C31.1872 142.646 31.1279 142.677 31.0702 142.666C30.709 142.569 30.403 142.341 30.217 142.018C30.0309 141.695 29.9715 141.32 30.0692 140.959C30.1669 140.598 30.3952 140.292 30.7185 140.098C31.0417 139.904 31.4173 139.853 31.7784 139.951C31.795 139.951 31.803 139.96 31.8192 139.969C31.8351 139.986 31.8503 140.02 31.8489 140.053Z" fill="#0F2032"/>
  <path d="M39.2451 153.248C39.2437 153.281 39.2258 153.313 39.192 153.328C39.1409 153.359 39.0836 153.341 39.0525 153.29L35.4007 147.188C35.3696 147.137 35.3889 147.071 35.4396 147.048C35.4906 147.017 35.5563 147.036 35.5791 147.087L39.2309 153.189C39.2468 153.206 39.2461 153.223 39.2451 153.248Z" fill="#0F2032"/>
  <path d="M124.751 21.6177C129.699 21.6177 133.711 17.6115 133.711 12.6695C133.711 7.7276 129.699 3.72137 124.751 3.72137C119.803 3.72137 115.792 7.7276 115.792 12.6695C115.792 17.6115 119.803 21.6177 124.751 21.6177Z" fill="#CADCFF"/>
  <path d="M124.75 21.6966C122.436 21.6966 120.122 20.8143 118.355 19.0562C114.828 15.5336 114.828 9.80521 118.355 6.28916C118.388 6.25623 118.441 6.25623 118.474 6.28916C118.507 6.32208 118.507 6.37475 118.474 6.40767C115.013 9.86447 115.013 15.4875 118.474 18.9443C121.935 22.4011 127.565 22.4011 131.027 18.9443C131.06 18.9114 131.112 18.9114 131.145 18.9443C131.178 18.9772 131.178 19.0299 131.145 19.0628C129.378 20.8143 127.064 21.6966 124.75 21.6966Z" fill="#0F2032"/>
  <path d="M127.466 17.4566C127.434 17.4566 127.401 17.4368 127.387 17.4039L124.744 10.971L122.1 17.4039C122.087 17.4368 122.054 17.4631 122.021 17.4566C121.988 17.4566 121.955 17.4302 121.948 17.3907L120.017 8.99565C120.003 8.94956 120.036 8.91005 120.076 8.89688C120.122 8.8903 120.162 8.91664 120.175 8.95614L122.047 17.0944L124.665 10.7142C124.691 10.6549 124.79 10.6549 124.816 10.7142L127.434 17.0944L129.306 8.95614C129.319 8.91005 129.359 8.88371 129.405 8.89688C129.451 8.91005 129.477 8.94956 129.464 8.99565L127.532 17.3907C127.539 17.4302 127.513 17.4566 127.466 17.4566C127.473 17.4566 127.466 17.4566 127.466 17.4566Z" fill="#0F2032"/>
  <path d="M130.421 12.9733H119.075C119.029 12.9733 118.996 12.9337 118.996 12.8941C118.996 12.8545 119.035 12.8149 119.075 12.8149H130.421C130.467 12.8149 130.5 12.8545 130.5 12.8941C130.5 12.9337 130.467 12.9733 130.421 12.9733Z" fill="#0F2032"/>
  <path d="M132.925 5.34096C132.893 5.34096 132.866 5.32121 132.853 5.29487C132.833 5.25536 132.853 5.20269 132.893 5.18293L135.958 3.73437C135.998 3.71462 136.05 3.73437 136.07 3.77388C136.09 3.81339 136.07 3.86606 136.031 3.88581L132.965 5.33437C132.952 5.33437 132.939 5.34096 132.925 5.34096Z" fill="#0F2032"/>
  <path d="M131.811 4.35373C131.791 4.35373 131.772 4.34714 131.758 4.33398C131.725 4.30764 131.719 4.25496 131.745 4.21546L133.927 1.62122C133.954 1.5883 134.007 1.58171 134.046 1.60805C134.079 1.63439 134.086 1.68706 134.059 1.72657L131.877 4.32081C131.857 4.34056 131.831 4.35373 131.811 4.35373Z" fill="#0F2032"/>
  <path d="M130.618 3.41194C130.611 3.41194 130.605 3.41194 130.591 3.41194C130.545 3.39877 130.525 3.35268 130.539 3.31317L131.488 0.0604938C131.501 0.0144032 131.547 -0.00534979 131.594 0.00123457C131.64 0.0144033 131.659 0.0604938 131.646 0.1L130.697 3.35268C130.684 3.39218 130.651 3.41194 130.618 3.41194Z" fill="#0F2032"/>
</svg>
