 <svg  width="101" height="51" viewBox="0 0 101 51" fill="none" xmlns="http://www.w3.org/2000/svg">
      <path
        d="M85.525 30.4771C82.9241 31.5722 81.0533 34.2643 79.2281 36.272C76.7641 38.9642 74.3458 41.702 71.2429 43.7097C70.5585 44.1203 69.8741 44.531 69.1896 44.9417C72.7487 41.8845 75.1215 37.4584 75.9428 32.4848C76.1253 31.3897 76.2166 30.2489 76.2166 29.1082C76.171 24.8646 74.8477 20.6211 72.3381 17.1988C65.2198 7.61662 50.2989 6.47588 41.2186 13.8679C36.6101 17.6095 34.1917 23.1763 34.1917 29.1082C34.1917 36.3633 38.1615 41.9301 43.8652 45.3523C43.5001 45.398 43.1351 45.4436 42.7701 45.4892C41.7206 44.9417 40.6711 44.3941 39.7129 43.7553C36.6101 41.7932 34.1917 39.0098 31.7277 36.3177C29.9025 34.2643 28.0317 31.6178 25.4308 30.5227C21.6435 28.9257 18.2669 31.8916 18.4495 35.7701C18.632 39.6486 21.0503 43.0709 23.6512 45.9911C26.9366 49.7328 30.952 52.8356 35.1955 55.4365C37.4314 56.8054 37.0207 59.1781 37.2489 61.414C37.2945 61.8246 37.7052 65.7488 38.0702 65.7488H72.7487C73.5701 62.4634 73.7526 59.5431 73.5244 57.0335C73.8895 57.0791 74.1176 57.2617 74.7564 56.8966C79 54.2957 84.0192 49.7328 87.3046 45.9911C89.8598 43.0709 92.2782 39.6486 92.5064 35.7701C92.6889 31.846 89.3123 28.88 85.525 30.4771Z"
        fill="white"
      />
      <path
        d="M50.2882 27.8271C50.3373 26.8959 49.7242 26.1067 48.9189 26.0643C48.1136 26.0219 47.4211 26.7423 47.372 27.6734C47.323 28.6046 47.936 29.3938 48.7413 29.4362C49.5466 29.4786 50.2392 28.7582 50.2882 27.8271Z"
        fill="#3178FF"
      />
      <path
        d="M63.0075 27.8593C63.0565 26.9282 62.4434 26.139 61.6382 26.0965C60.8329 26.0541 60.1403 26.7746 60.0912 27.7057C60.0422 28.6368 60.6553 29.426 61.4605 29.4684C62.2658 29.5108 62.9584 28.7904 63.0075 27.8593Z"
        fill="#3178FF"
      />
      <path
        d="M50.0236 34.3997C51.0275 36.3162 53.0808 37.5938 55.2254 37.6851C57.5525 37.7763 59.4689 36.2705 60.6553 34.3997C61.431 33.1677 59.4689 31.9814 58.6932 33.259C58.3282 33.8522 57.8263 34.491 57.2331 34.856C56.5486 35.3123 56.0011 35.4492 55.2254 35.4492C55.1341 35.4492 55.0429 35.4492 54.9972 35.4492C55.1341 35.4492 54.906 35.4492 54.8604 35.4492C54.6778 35.4036 54.4953 35.358 54.3128 35.3123C53.9478 35.2211 53.7652 35.1298 53.4002 34.856C52.807 34.491 52.3507 33.9434 51.9857 33.3046C51.7119 32.7571 50.9362 32.5745 50.4343 32.894C49.8867 33.1677 49.7498 33.8522 50.0236 34.3997Z"
        fill="#3178FF"
      />
      <path
        d="M68.5958 5.83666C65.4474 3.7377 61.2038 3.64644 57.8729 5.33473C55.9564 3.46392 53.9031 1.68436 51.3935 0.68051C49.0663 -0.232082 46.146 -0.414601 44.1383 1.31933C41.6287 3.46392 42.6782 7.38807 44.7772 9.35014C45.8266 10.354 47.4693 8.75696 46.3742 7.7531C45.0509 6.5211 44.0471 3.82896 46.0548 2.73384C47.88 1.72999 50.2071 2.5057 51.8954 3.41829C54.1769 4.69592 55.9564 6.65799 57.7816 8.48318C59.6524 10.3084 61.6145 12.0879 63.8047 13.5024C66.3143 15.0995 69.2346 16.1946 72.2462 16.2402C72.885 16.2402 73.3413 15.6927 73.3869 15.0995C73.5238 11.4491 71.653 7.84436 68.5958 5.83666Z"
        fill="#3178FF"
      />
      <path
        d="M55.5921 12.2703C55.0902 15.2362 56.1853 18.3846 58.8318 19.9817C59.3338 20.3011 60.1095 20.1186 60.3832 19.571C60.657 19.0235 60.5201 18.339 59.9726 18.0196C59.8357 17.9283 59.7444 17.8827 59.6075 17.7915C59.5163 17.7458 59.4706 17.7002 59.5619 17.7915C59.5163 17.7458 59.4706 17.7002 59.425 17.6546C59.1969 17.4721 59.0143 17.2439 58.8318 17.0614C58.7862 17.0158 58.6493 16.8332 58.8318 17.0614C58.7862 17.0158 58.7406 16.9701 58.7406 16.9245C58.6493 16.8332 58.6037 16.6963 58.5124 16.5595C58.4212 16.4226 58.3755 16.3313 58.3299 16.1944C58.2843 16.1032 58.2386 16.0575 58.2386 15.9663C58.2386 15.9206 58.1474 15.6925 58.2386 15.9206C58.1474 15.6469 58.0561 15.3731 57.9649 15.0993C57.9192 14.9624 57.8736 14.8255 57.8736 14.6886C57.8736 14.5974 57.828 14.5518 57.828 14.4605C57.828 14.3236 57.828 14.3692 57.828 14.4605C57.7823 14.1411 57.7823 13.8673 57.7823 13.5479C57.7823 13.411 57.7823 13.2741 57.828 13.0916C57.828 13.046 57.828 12.9547 57.828 12.9091C57.7823 13.1829 57.828 12.8635 57.828 12.8178C57.9192 12.2246 57.6911 11.5402 57.0523 11.4033C56.4135 11.3577 55.6834 11.6315 55.5921 12.2703Z"
        fill="#3178FF"
      />
      <path
        d="M38.9357 44.4397C42.6317 47.5881 47.1034 49.4133 51.9858 49.4133C53.4459 49.4133 53.4459 47.1318 51.9858 47.1318C47.7422 47.1318 43.7724 45.5348 40.5327 42.797C40.0764 42.3863 39.392 42.3407 38.9357 42.797C38.525 43.2077 38.4794 44.029 38.9357 44.4397Z"
        fill="#3178FF"
      />
      <path
        d="M74.2547 53.1548C73.8897 51.7402 71.6995 52.3334 72.0645 53.748C72.6121 55.8925 72.7946 58.1284 72.7033 60.3642C72.6577 61.7788 72.4296 63.2389 72.0189 64.6078C66.5433 64.6078 61.0678 64.6078 55.6378 64.6078C50.1623 64.6078 44.6867 64.6078 39.2112 64.6078C39.1656 64.5165 39.1656 64.4253 39.1199 64.3797C38.8461 63.604 38.6636 62.8282 38.4811 62.0525C37.8423 58.9497 38.0704 55.6644 39.1199 52.6528C39.5762 51.2383 37.386 50.6451 36.9297 52.0597C35.1958 57.2158 35.5152 63.4671 38.4355 68.1669C39.5762 70.0377 41.0364 71.6804 42.8616 72.958C43.6373 73.5056 44.5042 74.0075 45.3712 74.4638C45.5537 77.6579 45.6906 80.852 45.8275 84.0917C44.5498 84.5023 43.3178 85.1411 42.6334 86.2819C41.8121 87.6508 41.8577 89.6128 43.3635 90.4798C44.0936 90.8905 44.9605 90.9817 45.7362 90.9817C46.6944 91.0274 47.607 90.9817 48.5653 90.8905C50.0254 90.7536 51.8962 90.7536 52.8088 89.3847C53.4476 88.4721 53.402 87.2857 53.402 86.2362C53.4476 85.2324 53.4476 84.2742 53.4933 83.2703C53.5845 81.0801 53.6301 78.9355 53.6758 76.7453C54.1777 76.7909 54.634 76.8365 55.1359 76.8822C56.3679 76.9278 57.5999 76.7909 58.8319 76.6084C58.9688 79.0724 59.0601 81.5364 59.1513 84.0004C57.8737 84.4111 56.6417 85.0499 55.9573 86.1906C55.1359 87.5595 55.1816 89.5216 56.6873 90.3885C57.4174 90.7992 58.2844 90.8905 59.0601 90.8905C60.0183 90.9361 60.9309 90.8905 61.8891 90.7992C63.3493 90.6623 65.2201 90.6623 66.1327 89.2934C66.7715 88.3808 66.7259 87.1945 66.7259 86.145C66.7715 85.1411 66.7715 84.1829 66.8171 83.1791C66.9084 80.8976 66.954 78.5705 67.0453 76.289C67.0909 75.422 67.0909 74.5551 67.1365 73.6881C67.2734 73.5968 67.4559 73.5056 67.5928 73.4143C70.0112 71.8629 71.9733 69.8096 73.2965 67.3456C73.3421 67.3 73.3878 67.2087 73.4334 67.1174C74.4829 65.0641 74.9392 62.737 75.0304 60.4099C75.1217 58.0371 74.8479 55.5275 74.2547 53.1548Z"
        fill="#3178FF"
      />
      <path
        opacity="0.9"
        d="M94.8195 11.6164L92.1312 9.75169L92.1813 6.50724C92.1816 6.40521 92.1412 6.28266 92.0189 6.22109C91.8764 6.09824 91.6518 6.13841 91.5085 6.32166L89.603 8.98942L86.3586 8.93931C86.2566 8.93902 86.134 8.97948 86.0724 9.10174C85.9496 9.24423 85.9898 9.46882 86.173 9.61219L88.8408 11.5176L88.7907 14.7621C88.7904 14.8641 88.8308 14.9867 88.9531 15.0482C89.0956 15.1711 89.3202 15.1309 89.4635 14.9477L91.369 12.2799L94.6134 12.33C94.7154 12.3303 94.838 12.2898 94.8996 12.1676C95.0022 11.9638 94.962 11.7392 94.8195 11.6164Z"
        fill="white"
      />
      <path
        opacity="0.6"
        d="M4.39785 30.6139L6.13178 33.0323L9.05207 32.6216C9.23459 32.576 9.41711 32.7129 9.41711 32.8954C9.41711 32.9867 9.41711 33.0779 9.37148 33.1236L7.59193 35.4963L8.91519 38.1885C9.00644 38.371 8.91518 38.5535 8.7783 38.6448C8.68704 38.6904 8.59578 38.6904 8.50452 38.6448L5.72111 37.7322L3.57652 39.7855C3.43963 39.9224 3.21148 39.9224 3.07459 39.7855C3.02896 39.6942 2.98333 39.603 2.98333 39.5117V36.5458L0.336815 35.1313C0.154297 35.04 0.108667 34.8575 0.199927 34.675C0.245556 34.5837 0.336815 34.5381 0.428075 34.4925L3.21148 33.5799L3.71341 30.6596C3.75904 30.4771 3.94156 30.3402 4.12407 30.3858C4.26096 30.4771 4.35222 30.5227 4.39785 30.6139Z"
        fill="white"
      />
      <path
        d="M10.7372 24.3613C12.1061 25.7758 13.5662 27.0534 15.072 28.2854C15.3002 28.4679 15.6196 28.5136 15.8933 28.2854C16.0759 28.1029 16.1215 27.6466 15.8933 27.4641C14.3419 26.2777 12.8818 24.9545 11.5585 23.5399C11.0566 22.9924 10.2353 23.8137 10.7372 24.3613Z"
        fill="#3178FF"
      />
      <path
        d="M32.689 13.5474C33.0997 14.4144 33.5103 15.2813 33.921 16.1483C33.9666 16.2852 34.0579 16.3765 34.1035 16.5133C34.2404 16.7871 34.6511 16.8784 34.8792 16.6959C35.153 16.5133 35.1986 16.1939 35.0617 15.9202C34.6511 15.0532 34.2404 14.1862 33.8297 13.3193C33.7841 13.1824 33.6929 13.0911 33.6472 12.9542C33.5103 12.6805 33.0997 12.5892 32.8715 12.7717C32.5977 12.9542 32.5521 13.2736 32.689 13.5474Z"
        fill="#3178FF"
      />
      <path
        d="M83.4278 18.9775C82.4696 20.2095 81.5114 21.3958 80.5075 22.6278C80.325 22.856 80.2794 23.221 80.5075 23.4492C80.7356 23.6317 81.1007 23.6773 81.3288 23.4492C82.2871 22.2172 83.2453 21.0308 84.2491 19.7988C84.4316 19.5707 84.4773 19.2056 84.2491 18.9775C84.021 18.795 83.6103 18.7037 83.4278 18.9775Z"
        fill="#3178FF"
      />
      <path
        d="M95.9778 32.8046C97.1641 31.8921 98.3049 30.9338 99.4912 30.0212C99.6738 29.8844 99.8106 29.7475 99.9932 29.6106C100.221 29.4281 100.176 29.0174 99.9932 28.7892C99.765 28.5611 99.4456 28.6067 99.1718 28.7892C97.9855 29.7018 96.8447 30.6601 95.6583 31.5726C95.4758 31.7095 95.3389 31.8464 95.1564 31.9833C94.9283 32.1658 94.9739 32.5765 95.1564 32.8046C95.3846 33.0328 95.7496 32.9872 95.9778 32.8046Z"
        fill="#3178FF"
      />
    </svg>