<svg width="20" height="20" viewBox="0 0 20 20" fill="none" xmlns="http://www.w3.org/2000/svg">
<path fill-rule="evenodd" clip-rule="evenodd" d="M13.748 6.66536C14.4384 6.66536 14.998 6.10572 14.998 5.41536C14.998 4.725 14.4384 4.16536 13.748 4.16536C13.0577 4.16536 12.498 4.725 12.498 5.41536C12.498 6.10572 13.0577 6.66536 13.748 6.66536ZM13.748 7.49869C14.8986 7.49869 15.8314 6.56595 15.8314 5.41536C15.8314 4.26477 14.8986 3.33203 13.748 3.33203C12.5974 3.33203 11.6647 4.26477 11.6647 5.41536C11.6647 5.67524 11.7123 5.924 11.7992 6.15342L7.25385 8.60092C6.9031 7.94479 6.21136 7.49837 5.41536 7.49837C4.26477 7.49837 3.33203 8.43111 3.33203 9.5817C3.33203 10.7323 4.26477 11.665 5.41536 11.665C6.07452 11.665 6.66218 11.3589 7.04393 10.8811L11.8108 13.8145C11.7165 14.0521 11.6647 14.3112 11.6647 14.5824C11.6647 15.7329 12.5974 16.6657 13.748 16.6657C14.8986 16.6657 15.8314 15.7329 15.8314 14.5824C15.8314 13.4318 14.8986 12.499 13.748 12.499C13.1688 12.499 12.6448 12.7354 12.2672 13.1169L7.42401 10.1365C7.47269 9.95985 7.49869 9.77381 7.49869 9.5817C7.49869 9.52692 7.49658 9.47264 7.49243 9.41892L12.2462 6.85921C12.6252 7.25339 13.158 7.49869 13.748 7.49869ZM13.748 15.8324C14.4384 15.8324 14.998 15.2727 14.998 14.5824C14.998 13.892 14.4384 13.3324 13.748 13.3324C13.0577 13.3324 12.498 13.892 12.498 14.5824C12.498 15.2727 13.0577 15.8324 13.748 15.8324ZM6.66536 9.5817C6.66536 10.2721 6.10572 10.8317 5.41536 10.8317C4.725 10.8317 4.16536 10.2721 4.16536 9.5817C4.16536 8.89134 4.725 8.3317 5.41536 8.3317C6.10572 8.3317 6.66536 8.89134 6.66536 9.5817Z" fill="black"/>
</svg>
