<svg width="70" height="106" viewBox="0 0 70 106" fill="none" xmlns="http://www.w3.org/2000/svg">
<path d="M62.8276 83.9184L51.6245 73.7676L47.23 78.6573L55.7096 85.0325L62.8276 83.9184Z" fill="#FFD7E7"/>
<path d="M62.7639 83.9179C62.8258 83.9179 62.8258 83.9179 62.8877 83.9179C64.0018 84.9701 66.2301 87.1365 67.4061 89.1171C69.0153 91.8405 69.82 93.8211 69.8819 94.7496C69.9438 95.678 69.3867 96.0494 69.3867 96.0494C69.3248 96.1113 69.3867 96.4208 69.3867 96.4826C69.3867 97.2873 68.4583 97.8443 67.7774 97.5968C67.0347 97.2873 66.5395 96.3589 66.1063 95.7399C64.9303 94.0687 63.5686 92.6451 62.0831 91.2834C62.145 91.3453 62.2069 91.4691 62.2069 91.531C62.3307 91.7786 62.5163 91.9643 62.6401 92.2119C63.0115 92.7689 63.3829 93.326 63.7542 93.883C64.0637 94.3163 64.3732 94.8115 64.1875 95.3685C63.878 96.1113 63.0734 96.1732 62.4544 95.8637C61.4641 95.3066 60.5976 94.3782 59.8549 93.5117C58.8026 92.2738 57.8123 90.8502 57.0696 89.3647C56.7601 88.6838 56.3268 87.8792 56.0173 87.0127C55.7698 86.208 55.5841 85.4653 55.7079 84.7225C55.7079 84.7225 55.646 84.2274 56.0792 82.9276L62.7639 83.9179Z" fill="#FFD7E7"/>
<path d="M69.325 96.5441C69.325 96.5441 69.7582 95.3062 66.4778 90.4784" stroke="#2E2E2E" stroke-width="0.214373" stroke-miterlimit="10" stroke-linecap="round" stroke-linejoin="round"/>
<path d="M61.2804 88.8079C61.0947 89.7982 61.528 90.8504 62.147 91.7169C62.704 92.5835 63.4468 93.3262 63.88 94.3165C64.1276 94.8117 64.1895 95.5544 63.7562 95.9258" stroke="#2E2E2E" stroke-width="0.214373" stroke-miterlimit="10" stroke-linecap="round" stroke-linejoin="round"/>
<path d="M33.5528 20.661C32.5624 21.5895 31.3245 22.2084 29.9628 22.3941C28.663 22.5798 27.3632 22.3322 26.0634 22.1465C23.4019 21.7752 20.431 21.7752 18.3884 23.5701C17.5838 24.251 17.0267 25.1175 16.2221 25.7984C14.3652 27.3457 11.7037 27.5933 9.22791 27.5933C4.64766 27.5314 2.54321 30.0072 2.54321 30.0072C2.54321 30.0072 8.73274 39.2296 8.73274 39.2915C8.60895 39.1058 9.59928 38.0536 9.66117 37.9298C11.0848 36.2587 13.0654 35.0208 15.1699 34.4637C16.841 34.0304 18.5741 33.9685 20.1834 33.4734C22.2878 32.7925 26.1253 34.278 27.6108 32.7306C28.4773 31.8641 29.4058 31.1832 30.6437 30.8738C32.7481 30.3786 32.4387 27.7171 34.1717 25.984C34.9764 25.1175 35.5334 24.0653 35.9667 22.9512C36.0905 22.6417 36.5237 21.1562 36.957 21.2181C36.8951 21.2181 33.5528 20.661 33.5528 20.661Z" fill="#3882FF"/>
<path d="M55.7108 6.36284C52.9874 1.16364 45.4362 -1.06459 39.9894 0.482791C36.8328 1.41122 34.1094 3.70134 32.9334 6.79611C31.2622 11.1907 31.8193 16.1423 33.2428 20.5369C33.2428 20.5988 33.3047 20.6607 33.3666 20.7225C33.4285 20.7844 33.4904 20.8463 33.6142 20.8463C34.4807 21.1558 35.2854 21.5272 36.1519 21.8367L38.5039 17.5659L54.1016 15.5852L56.0203 16.0804C56.0203 16.0804 56.7012 13.976 56.7631 11.9334C56.8869 9.82898 56.7631 8.34349 55.7108 6.36284Z" fill="#3882FF"/>
<path d="M38.0712 15.214L31.0151 31.8019L39.6186 35.0824C40.4851 33.1017 43.3323 26.6027 43.3323 26.6027L44.9416 19.361L38.0712 15.214Z" fill="#FFD7E7"/>
<path d="M55.4011 12.4286C55.4011 11.9954 55.4012 11.5002 55.3393 11.0669C55.0917 9.51956 54.5965 8.09597 53.5443 6.91996C52.2445 5.43447 50.3257 5.55826 48.4689 4.75362C47.8499 4.50604 47.231 4.25846 46.612 4.07278C46.4263 4.01088 46.055 3.8252 45.8693 3.88709L36.8945 9.14819C36.8945 9.14819 36.4612 10.9432 36.2755 11.4383C34.6043 16.6994 36.6469 17.4422 36.6469 17.4422L37.5753 21.7129L38.6894 23.1365C38.8132 23.5698 39.3703 23.8793 39.6178 24.2506C42.0318 26.7884 45.9312 28.0882 49.3354 26.3551C50.6971 25.6742 51.7493 24.6839 52.554 23.5079C53.4205 22.27 53.9776 20.7845 54.2251 19.299C54.4108 18.1849 54.5965 17.0708 54.7822 15.9567C55.0298 14.7807 55.3393 13.6047 55.4011 12.4286Z" fill="#FFD7E7"/>
<path d="M49.1475 16.6989L49.0856 17.1941C49.0238 17.5654 49.0856 17.9368 49.2713 18.2463L49.6427 18.8652C49.7665 18.989 49.7046 19.2366 49.5189 19.2985L48.281 19.9175" stroke="#2E2E2E" stroke-width="0.214373" stroke-miterlimit="10" stroke-linecap="round" stroke-linejoin="round"/>
<path d="M44.692 15.9566C45.0338 15.9566 45.3109 15.6795 45.3109 15.3376C45.3109 14.9958 45.0338 14.7187 44.692 14.7187C44.3501 14.7187 44.073 14.9958 44.073 15.3376C44.073 15.6795 44.3501 15.9566 44.692 15.9566Z" fill="#2E2E2E"/>
<path d="M51.438 17.7512C51.7799 17.7512 52.057 17.4741 52.057 17.1323C52.057 16.7905 51.7799 16.5133 51.438 16.5133C51.0962 16.5133 50.8191 16.7905 50.8191 17.1323C50.8191 17.4741 51.0962 17.7512 51.438 17.7512Z" fill="#2E2E2E"/>
<path d="M47.7248 21.5269C47.7248 21.5269 46.6104 21.5269 47.1057 22.3936" stroke="#2E2E2E" stroke-width="0.214373" stroke-miterlimit="10" stroke-linecap="round" stroke-linejoin="round"/>
<path d="M52.8635 5.37245C51.8113 4.56781 51.1924 4.07265 50.7591 3.82506V3.70127L50.4496 3.63938C50.3258 3.57748 50.2639 3.57748 50.202 3.63938L47.2311 3.26801L46.9216 3.82506L44.7553 2.58716L38.6276 5.18676L33.9855 10.1384C33.9855 10.1384 32.5619 11.9333 38.38 12.119C42.6508 12.2428 45.3742 7.72447 46.4883 5.31055C46.3645 6.91983 45.8694 10.2622 43.2698 12.119L49.2117 13.7283C49.2117 13.7283 50.9448 11.9952 51.6875 8.96237C51.7494 10.3241 51.7494 12.119 50.3258 14.0997L54.2871 15.4614C54.2871 15.5852 57.4438 9.02427 52.8635 5.37245Z" fill="#3882FF"/>
<path d="M48.9649 4.1962C48.9649 4.1962 50.5123 9.20971 46.6748 13.1091" stroke="#2E2E2E" stroke-width="0.214373" stroke-miterlimit="10" stroke-linecap="round" stroke-linejoin="round"/>
<path d="M42.4028 6.85803C42.4028 6.85803 40.7317 10.5717 36.9561 11.5621" stroke="#2E2E2E" stroke-width="0.214373" stroke-miterlimit="10" stroke-linecap="round" stroke-linejoin="round"/>
<path d="M33.7379 14.7804C33.5522 17.0705 34.852 18.7417 36.5851 18.8654C38.38 19.0511 39.9274 17.6275 40.175 15.3374C40.3607 13.0473 39.0609 11.438 37.3278 11.2523C35.5329 11.1904 33.9236 12.4902 33.7379 14.7804Z" fill="#FFD7E7"/>
<path d="M37.451 13.0471C36.275 12.49 35.3466 13.7279 35.1609 14.7801C34.9752 15.9561 35.5323 17.194 36.7702 17.3178" stroke="#2E2E2E" stroke-width="0.214373" stroke-miterlimit="10" stroke-linecap="round" stroke-linejoin="round"/>
<path d="M38.3792 22.5169C40.236 25.7355 44.1354 27.9018 47.911 26.9734C47.9729 26.9734 48.0348 26.9115 48.0967 26.9115C50.325 26.2925 52.058 24.6214 53.1721 22.5788C54.1625 20.722 54.5338 18.6175 54.8433 16.575C55.1528 14.3468 55.7098 12.1185 55.3385 9.89029" stroke="#2E2E2E" stroke-width="0.214373" stroke-miterlimit="10" stroke-linecap="round" stroke-linejoin="round"/>
<path d="M14.2995 107.128C14.5471 110.842 14.052 114.618 13.7425 118.331C13.0616 126.13 11.5761 133.805 9.90497 141.418C9.65739 142.656 9.34792 143.894 9.10034 145.132H25.9359C26.6786 141.48 27.4214 137.767 28.1022 134.115C29.7115 125.573 30.8256 116.784 30.8256 108.119C30.8875 106.509 30.9494 104.9 30.9494 103.229C30.8875 104.9 32.4349 113.875 33.3633 118.827C34.0441 122.417 33.8585 123.902 33.4252 127.492C33.0538 131.02 32.4968 135.415 32.0635 138.386C31.6921 140.614 31.3826 142.904 31.0113 145.132H45.9899C47.4754 136.219 48.9609 126.44 48.7752 119.074C48.5895 112.637 47.723 106.262 46.6089 99.9485C45.928 96.2348 45.3091 92.4592 44.4426 88.7455C43.8855 86.3316 43.2666 83.9176 42.5238 81.6275C42.2143 80.6991 41.8429 79.8325 41.4716 78.966C40.7907 77.5424 39.429 76.4283 39.5528 74.6952L39.9861 68.939L15.8469 67.4535C15.6612 68.1962 14.8566 71.1672 14.6709 71.91C14.5471 72.5908 14.4852 73.3335 14.3614 74.0144C14.052 75.3761 13.0616 76.614 12.3808 77.8519C11.5761 79.4612 10.8334 81.1942 10.3382 82.9273C9.10034 87.6314 9.78118 92.2116 11.4524 96.73C12.6903 100.072 14.052 103.477 14.2995 107.128Z" fill="#1266E1"/>
<path d="M32.9311 90.4165L31.5075 91.7782C30.8886 92.3971 30.5172 93.2637 30.5791 94.1302C30.7648 96.7298 31.1362 102.981 30.4553 112.266" stroke="#2E2E2E" stroke-width="0.214373" stroke-miterlimit="10" stroke-linecap="round" stroke-linejoin="round"/>
<path d="M32.188 74.3856C32.7007 74.3856 33.1164 73.9699 33.1164 73.4572C33.1164 72.9444 32.7007 72.5287 32.188 72.5287C31.6752 72.5287 31.2595 72.9444 31.2595 73.4572C31.2595 73.9699 31.6752 74.3856 32.188 74.3856Z" fill="#2E2E2E"/>
<path d="M57.1339 75.7482C57.0101 75.4387 56.7625 75.1911 56.5768 74.9435C55.7103 73.9532 54.72 73.0248 53.7297 72.1583C53.2964 71.7869 52.6774 71.9107 52.4299 72.4058C52.368 72.5296 52.3061 72.5915 52.2442 72.7153C50.4492 75.1911 45.9927 77.7288 44.0121 78.781C43.5169 79.0286 43.3931 79.6476 43.7645 80.0809C44.5073 81.0093 45.8071 82.4948 46.7355 83.547C47.045 83.9184 47.5401 84.0421 47.9734 83.9184C49.2113 83.6089 50.3254 83.2994 51.5014 82.6186C52.6155 81.9377 57.8148 77.4194 57.1339 75.7482Z" fill="white"/>
<path d="M51.6255 71.106C49.2116 68.4445 47.231 65.4735 45.7455 62.255C45.8074 62.1312 45.8693 62.0074 45.9312 61.8836C46.055 61.5741 46.055 61.1408 45.9312 60.8933C45.8693 60.7695 45.7455 60.6457 45.7455 60.46C45.7455 60.3362 45.8074 60.2743 45.9312 60.2743C46.1169 60.1505 46.2407 60.0267 46.3644 59.841C46.4882 59.6554 46.5501 59.4078 46.4882 59.1602C46.4263 58.9745 46.3644 58.8507 46.3025 58.7888C45.9931 58.3556 45.7455 57.9842 45.436 57.5509C45.4979 57.4271 45.4979 57.3033 45.5598 57.1795C46.5501 54.2086 47.7261 51.1757 48.1594 48.1428C48.7784 44.1196 50.2638 38.5491 47.1072 35.2686C46.1169 34.2783 44.0743 33.5355 42.6507 33.5355L42.5888 33.4736L41.5366 30.6265C41.6604 31.0597 40.3606 32.2357 40.113 32.4833C39.4322 33.0404 37.8848 33.7831 37.8848 33.7831C37.8848 33.7831 33.5521 27.4079 33.2426 26.5414L33.4283 26.0462L33.1188 26.17C33.1188 26.17 29.5289 28.522 29.0956 28.7696H29.0338C27.1769 27.7174 24.4535 26.5414 22.3491 26.4176C20.1827 26.2319 17.9545 26.7271 16.2214 28.0269C14.0551 29.6361 13.0648 32.2357 12.322 34.8353C13.5599 36.6303 14.5503 38.6728 15.1073 40.7773C16.0357 44.1815 15.4168 43.0055 15.7882 46.5954C16.1595 50.1854 17.2117 58.4174 16.469 62.1312C16.1595 63.6785 15.7263 65.8449 14.7978 67.2066C14.9216 67.7636 15.293 68.1969 15.7882 68.5683C18.7591 70.9203 23.5251 71.4774 27.1769 71.4155C30.7668 71.2917 34.6043 70.6108 38.1943 70.9822C38.2562 70.9822 38.3799 70.9822 38.5656 71.0441L39.7416 71.106L39.556 73.5199C39.9273 74.077 40.2987 74.6959 40.732 75.1911C42.1556 77.0479 43.7648 78.781 45.2503 80.5141C45.8074 80.2046 46.3644 79.8951 46.9215 79.5856C49.6449 78.1002 52.8634 76.3671 54.1014 73.3961C53.2348 72.7153 52.4302 71.9725 51.6255 71.106Z" fill="white"/>
<path d="M19.1914 38.6114C20.2436 36.6308 20.8007 34.0931 19.7485 32.0505L16.2204 27.9655C14.3017 29.6366 13.497 30.627 12.1353 32.1124C5.38874 39.5399 0.0657415 44.801 -5.19536 53.4044C-5.56673 54.0853 -6 54.7661 -6 55.5089C-6 56.0659 -5.81431 56.623 -5.62862 57.1181C-4.32882 60.3986 -3.15282 63.7409 -1.23406 66.7119C0.622796 69.621 2.97482 72.1587 5.14116 74.7583C8.66919 72.592 12.5686 69.6829 14.116 65.7835C12.2591 63.7409 10.5879 61.2032 9.16435 58.7893C8.97866 58.4798 8.79298 58.1704 8.85487 57.799C8.91677 57.4895 9.10245 57.2419 9.28814 56.9943C12.6305 52.8474 17.3345 46.1008 20.3674 41.7062C21.6672 39.9112 18.0773 40.654 19.1914 38.6114Z" fill="white"/>
<path d="M21.1105 77.4189L21.1724 77.357L20.9867 77.1714C20.9248 76.9857 20.8629 76.7381 20.801 76.5524C20.6153 76.5524 20.4296 76.4905 20.3058 76.3667C20.1202 76.181 19.9964 75.9954 19.8107 75.8097C19.5012 75.4383 19.1298 75.0669 18.8204 74.6955C17.9538 73.7052 17.1492 72.7149 16.2827 71.7246C15.2304 70.4867 14.1782 69.3107 13.1879 68.0728L7.55542 72.9625L15.0447 81.3802C15.3542 81.7516 15.5399 82.2468 15.6018 82.7419C15.8494 84.3512 16.0351 84.4131 16.0351 84.4131C21.9151 83.3609 21.5438 79.2139 21.1105 77.4189Z" fill="#FFD7E7"/>
<path d="M7.43279 76.5526C10.9608 74.2625 14.2413 71.6628 16.9028 68.5681C17.2123 68.2586 17.1504 67.7016 16.8409 67.3921C15.4173 65.9685 14.2413 64.3592 12.7558 62.9356C12.3844 62.6261 11.456 62.9975 11.1465 63.4308C9.16586 66.1542 6.75195 68.5681 4.09045 70.6725C3.78098 70.9201 3.28581 71.3534 2.85255 71.6628C2.48117 71.9723 2.41928 72.4675 2.66686 72.777C3.03823 73.2721 3.59529 73.953 3.96666 74.2625C4.7713 74.9433 5.57594 75.686 6.31869 76.4288C6.62816 76.7383 7.06142 76.8002 7.43279 76.5526Z" fill="white"/>
<path d="M39.6162 73.4576C39.9876 74.0147 40.359 74.6336 40.7922 75.1288C41.7826 76.4286 42.8348 77.6046 43.887 78.8425C43.5775 79.152 43.5156 79.6471 43.7632 80.0185C44.5059 80.9469 45.8057 82.4324 46.7342 83.4846C47.0436 83.856 47.5388 83.9798 47.9721 83.856C49.21 83.5465 50.3241 83.2371 51.5001 82.5562C52.6142 81.8754 57.8753 77.357 57.1326 75.7477C57.0088 75.4382 56.7612 75.1907 56.5755 74.9431C55.709 73.9528 54.7187 73.0243 53.7283 72.1578C53.4189 71.9102 52.9856 71.9102 52.6761 72.1578C52.3048 71.8483 51.9953 71.477 51.6858 71.1675C49.2719 68.506 47.2912 65.535 45.8057 62.3164C45.8676 62.1927 45.9295 62.0689 45.9914 61.9451C46.1152 61.6356 46.1152 61.2023 45.9914 60.9548C45.9295 60.831 45.8057 60.7072 45.8057 60.5215C45.8057 60.3977 45.8676 60.3358 45.9914 60.3358C46.1771 60.212 46.3009 60.0882 46.4247 59.9025C46.5485 59.7168 46.6104 59.4693 46.5485 59.2217C46.4866 59.036 46.4247 58.9122 46.3628 58.8503C46.0533 58.417 45.8057 58.0457 45.4963 57.6124C45.5582 57.4886 45.5582 57.3648 45.6201 57.241C46.6104 54.2701 47.7864 51.2372 48.2197 48.2043C48.8386 44.1811 50.3241 38.6105 47.1674 35.3301C46.1771 34.3398 44.1346 33.597 42.711 33.597L42.6491 33.5351L41.6588 30.8117M33.1791 26.1077C33.1791 26.1077 29.5892 28.4597 29.1559 28.7073H29.094C27.2372 27.6551 24.5138 26.4791 22.4093 26.3553C20.243 26.1696 18.0148 26.6648 16.2817 27.9646C15.9722 28.2121 15.6627 28.4597 15.4152 28.7692C14.1154 30.0071 13.3726 30.8736 12.1966 32.1734C5.45002 39.6009 0.12702 44.862 -5.13408 53.4654C-5.50545 54.1463 -5.93872 54.8271 -5.93872 55.5699C-5.93872 56.1269 -5.75304 56.684 -5.56735 57.1791C-4.26755 60.4596 -3.09154 63.8019 -1.17278 66.7729C0.00322609 68.6298 1.42681 70.3009 2.78851 71.9721C2.60282 72.2816 2.60282 72.5911 2.78851 72.8386C3.15988 73.3338 3.71694 74.0147 4.08832 74.3241C4.89295 75.005 5.6976 75.7477 6.44034 76.4905C6.74982 76.738 7.18308 76.7999 7.49256 76.6143M12.8156 62.9973C12.6299 62.8116 12.1967 62.6266 11.8254 62.7504C10.835 61.3887 9.90648 60.212 9.10184 58.7884C8.91615 58.4789 8.73047 58.1695 8.79236 57.7981C8.85426 57.4886 9.03994 57.241 9.22563 56.9934C11.2063 54.5795 13.6202 51.2372 15.9103 48.0186C16.3436 52.0418 17.0863 58.8503 16.4674 62.0689C16.2198 63.183 15.9722 64.6685 15.477 65.9064C14.6105 64.9161 13.744 63.9257 12.8156 62.9973Z" stroke="#2E2E2E" stroke-width="0.214373" stroke-miterlimit="10" stroke-linecap="round" stroke-linejoin="round"/>
<path d="M2.66577 71.9724C3.09904 71.601 3.84179 70.9202 4.15126 70.6726C6.81276 68.5682 9.47425 65.8448 11.4549 63.1833C11.7644 62.75 12.3833 62.6262 12.7547 62.9976C14.2402 64.3593 15.3543 66.0305 16.8398 67.454C17.1493 67.7635 17.2112 68.2587 16.9017 68.63L16.4684 69.1252" stroke="#2E2E2E" stroke-width="0.214373" stroke-miterlimit="10" stroke-linecap="round" stroke-linejoin="round"/>
<path d="M14.4866 85.5278C17.8908 83.4852 20.4904 79.8953 21.0475 75.934L25.2564 76.553L22.7186 87.9417L16.0958 87.5703L14.4866 85.5278Z" fill="#1266E1"/>
<path d="M21.0475 75.934C20.4904 79.8953 17.8908 83.4852 14.4866 85.5278" stroke="#2E2E2E" stroke-width="0.214373" stroke-miterlimit="10" stroke-linecap="round" stroke-linejoin="round"/>
<path d="M44.9398 46.162C45.435 48.1427 45.1255 50.4947 44.4446 52.4134C43.4543 55.2606 40.7928 56.9318 41.4118 63.8022L41.5356 68.1348C41.5356 68.9395 41.288 69.806 40.7309 70.425C40.4833 70.7344 40.112 70.982 39.6787 71.1058" stroke="#2E2E2E" stroke-width="0.214373" stroke-miterlimit="10" stroke-linecap="round" stroke-linejoin="round"/>
<path d="M8.79309 58.232C6.25539 54.6421 3.40821 53.3423 0.684814 53.6518" stroke="#2E2E2E" stroke-width="0.214373" stroke-miterlimit="10" stroke-linecap="round" stroke-linejoin="round"/>
<path d="M5.01733 51.2993C6.68851 52.1659 8.48347 54.5179 9.16432 56.3748" stroke="#2E2E2E" stroke-width="0.214373" stroke-miterlimit="10" stroke-linecap="round" stroke-linejoin="round"/>
<path d="M15.8491 48.2049L18.4491 44.4912" stroke="#2E2E2E" stroke-width="0.214373" stroke-miterlimit="10" stroke-linecap="round" stroke-linejoin="round"/>
<path d="M29.0942 28.7688C29.0942 28.7688 30.4559 35.0202 32.6223 38.9196L37.3882 33.7823" stroke="#2E2E2E" stroke-width="0.214373" stroke-miterlimit="10" stroke-linecap="round" stroke-linejoin="round"/>
<path d="M38.1313 33.8448L39.9882 38.9202C39.9882 38.9202 41.7832 37.2491 42.6497 33.5972" stroke="#2E2E2E" stroke-width="0.214373" stroke-miterlimit="10" stroke-linecap="round" stroke-linejoin="round"/>
<path d="M45.6207 59.098C44.6303 60.274 44.0114 60.5216 42.4021 60.7692" stroke="#2E2E2E" stroke-width="0.214373" stroke-miterlimit="10" stroke-linecap="round" stroke-linejoin="round"/>
<path d="M45.9915 61.2638C45.9915 61.2638 46.1772 62.8731 42.6492 65.4727" stroke="#2E2E2E" stroke-width="0.214373" stroke-miterlimit="10" stroke-linecap="round" stroke-linejoin="round"/>
<path d="M52.6143 72.1578C52.6143 72.1578 50.1385 76.738 43.8252 78.9044" stroke="#2E2E2E" stroke-width="0.214373" stroke-miterlimit="10" stroke-linecap="round" stroke-linejoin="round"/>
<path d="M34.1689 37.2488L35.7163 57.1791" stroke="#2E2E2E" stroke-width="0.214373" stroke-miterlimit="10" stroke-linecap="round" stroke-linejoin="round"/>
<path d="M39.4918 37.4966L36.9541 57.365" stroke="#2E2E2E" stroke-width="0.214373" stroke-miterlimit="10" stroke-linecap="round" stroke-linejoin="round"/>
<path d="M39.3068 67.022L32.7459 66.8363C32.4983 66.8363 32.3126 66.6506 32.3745 66.4031L32.684 56.6236C32.684 56.376 32.8697 56.1903 33.1173 56.2522L39.6782 56.4379C39.9258 56.4379 40.1115 56.6236 40.0496 56.8712L39.7401 66.6506C39.7401 66.8363 39.5544 67.022 39.3068 67.022Z" fill="white"/>
<path d="M39.9874 58.6657L40.0493 56.8088C40.0493 56.5612 39.8636 56.3755 39.6779 56.3755L33.117 56.1898C32.8694 56.1898 32.6837 56.3755 32.6837 56.5612L32.6218 58.4181L39.9874 58.6657Z" fill="#3882FF"/>
<path d="M39.3068 67.022L32.7459 66.8363C32.4983 66.8363 32.3126 66.6506 32.3745 66.4031L32.684 56.6236C32.684 56.376 32.8697 56.1903 33.1173 56.2522L39.6782 56.4379C39.9258 56.4379 40.1115 56.6236 40.0496 56.8712L39.7401 66.6506C39.7401 66.8363 39.5544 67.022 39.3068 67.022Z" stroke="#2E2E2E" stroke-width="0.214373" stroke-miterlimit="10" stroke-linecap="round" stroke-linejoin="round"/>
<path d="M18.5725 73.5195C17.3346 74.3241 14.9826 76.0572 12.5687 79.0282C12.4449 79.2139 12.4449 79.3996 12.6306 79.5234C12.8782 79.709 13.0639 79.8328 13.3114 80.0185C13.4971 80.1423 13.6828 80.0804 13.8066 79.9566C16.2824 76.8619 18.5725 75.3764 19.5629 74.7574C19.8104 74.6336 19.8104 74.3241 19.5629 74.2004C19.3153 74.0147 19.1915 73.7052 19.0058 73.5195C18.882 73.4576 18.6963 73.4576 18.5725 73.5195Z" fill="#2E2E2E"/>
</svg>
