<svg width="117" height="155" viewBox="0 0 117 155" fill="none" xmlns="http://www.w3.org/2000/svg">
<path d="M99.166 94.773L88.1969 84.8341L83.894 89.6217L92.1967 95.8639L99.166 94.773Z" fill="#FFD7E7"/>
<path d="M99.1046 94.7726C99.1652 94.7726 99.1652 94.7726 99.2258 94.7726C100.317 95.8029 102.498 97.924 103.65 99.8633C105.225 102.53 106.013 104.469 106.074 105.378C106.135 106.287 105.589 106.651 105.589 106.651C105.528 106.711 105.589 107.014 105.589 107.075C105.589 107.863 104.68 108.408 104.013 108.166C103.286 107.863 102.801 106.954 102.377 106.348C101.226 104.712 99.8924 103.318 98.4379 101.984C98.4985 102.045 98.5591 102.166 98.5591 102.227C98.6803 102.469 98.8622 102.651 98.9834 102.893C99.347 103.439 99.7106 103.984 100.074 104.53C100.377 104.954 100.68 105.439 100.498 105.984C100.195 106.711 99.4076 106.772 98.8015 106.469C97.8319 105.924 96.9835 105.015 96.2562 104.166C95.226 102.954 94.2563 101.56 93.5291 100.106C93.2261 99.4391 92.8018 98.6512 92.4988 97.8028C92.2564 97.0149 92.0746 96.2877 92.1958 95.5605C92.1958 95.5605 92.1352 95.0756 92.5594 93.803L99.1046 94.7726Z" fill="#FFD7E7"/>
<path d="M105.529 107.135C105.529 107.135 105.953 105.923 102.741 101.196" stroke="#2E2E2E" stroke-width="0.242562" stroke-miterlimit="10" stroke-linecap="round" stroke-linejoin="round"/>
<path d="M97.6504 99.5603C97.4686 100.53 97.8928 101.56 98.4988 102.409C99.0442 103.257 99.7715 103.984 100.196 104.954C100.438 105.439 100.499 106.166 100.075 106.53" stroke="#2E2E2E" stroke-width="0.242562" stroke-miterlimit="10" stroke-linecap="round" stroke-linejoin="round"/>
<path d="M70.5008 32.8365C69.5312 33.7456 68.3191 34.3516 66.9859 34.5334C65.7132 34.7152 64.4405 34.4728 63.1679 34.291C60.5619 33.9274 57.653 33.9274 55.6531 35.6849C54.8652 36.3515 54.3198 37.2 53.532 37.8666C51.7139 39.3817 49.1079 39.6241 46.6838 39.6241C42.1992 39.5635 40.1387 41.9876 40.1387 41.9876C40.1387 41.9876 46.199 51.0175 46.199 51.0781C46.0778 50.8963 47.0474 49.866 47.108 49.7448C48.5019 48.1085 50.4412 46.8965 52.5017 46.351C54.138 45.9268 55.8349 45.8662 57.4106 45.3814C59.4711 44.7148 63.2285 46.1692 64.6829 44.6542C65.5314 43.8057 66.4404 43.1391 67.6525 42.8361C69.713 42.3512 69.41 39.7453 71.1069 38.0484C71.8947 37.2 72.4401 36.1697 72.8644 35.0789C72.9856 34.7758 73.4098 33.3214 73.834 33.382C73.7734 33.382 70.5008 32.8365 70.5008 32.8365Z" fill="#3882FF"/>
<path d="M92.1963 18.8368C89.5297 13.7462 82.1362 11.5644 76.8031 13.0795C73.7123 13.9886 71.0458 16.2309 69.8943 19.261C68.258 23.5639 68.8035 28.4121 70.1973 32.7149C70.1973 32.7755 70.2579 32.8361 70.3185 32.8967C70.3792 32.9573 70.4398 33.0179 70.561 33.0179C71.4094 33.321 72.1972 33.6846 73.0457 33.9876L75.3486 29.806L90.6206 27.8667L92.4993 28.3515C92.4993 28.3515 93.1659 26.291 93.2265 24.2911C93.3477 22.2306 93.2265 20.7761 92.1963 18.8368Z" fill="#3882FF"/>
<path d="M74.9244 27.5032L68.0156 43.7448L76.4395 46.9568C77.2879 45.0175 80.0756 38.6542 80.0756 38.6542L81.6513 31.5636L74.9244 27.5032Z" fill="#FFD7E7"/>
<path d="M91.8934 24.7759C91.8934 24.3517 91.8934 23.8668 91.8328 23.4426C91.5904 21.9275 91.1056 20.5337 90.0753 19.3822C88.8027 17.9277 86.924 18.0489 85.1059 17.2611C84.4998 17.0187 83.8938 16.7763 83.2878 16.5945C83.106 16.5339 82.7423 16.352 82.5605 16.4126L73.7731 21.5639C73.7731 21.5639 73.3489 23.3214 73.1671 23.8062C71.5308 28.9575 73.5307 29.6847 73.5307 29.6847L74.4397 33.8663L75.5306 35.2602C75.6518 35.6844 76.1972 35.9875 76.4396 36.3511C78.8031 38.8358 82.6211 40.1085 85.9543 38.4116C87.2876 37.7449 88.3178 36.7753 89.1057 35.6238C89.9541 34.4118 90.4995 32.9573 90.742 31.5028C90.9238 30.412 91.1056 29.3211 91.2874 28.2303C91.5298 27.0788 91.8328 25.9273 91.8934 24.7759Z" fill="#FFD7E7"/>
<path d="M85.7723 28.9571L85.7117 29.4419C85.6511 29.8055 85.7117 30.1692 85.8935 30.4722L86.2571 31.0782C86.3783 31.1994 86.3177 31.4418 86.1359 31.5024L84.9238 32.1085" stroke="#2E2E2E" stroke-width="0.242562" stroke-miterlimit="10" stroke-linecap="round" stroke-linejoin="round"/>
<path d="M81.4088 28.2301C81.7435 28.2301 82.0148 27.9588 82.0148 27.6241C82.0148 27.2894 81.7435 27.0181 81.4088 27.0181C81.0741 27.0181 80.8027 27.2894 80.8027 27.6241C80.8027 27.9588 81.0741 28.2301 81.4088 28.2301Z" fill="#2E2E2E"/>
<path d="M88.0147 29.9874C88.3494 29.9874 88.6208 29.7161 88.6208 29.3814C88.6208 29.0467 88.3494 28.7753 88.0147 28.7753C87.68 28.7753 87.4087 29.0467 87.4087 29.3814C87.4087 29.7161 87.68 29.9874 88.0147 29.9874Z" fill="#2E2E2E"/>
<path d="M84.3784 33.6843C84.3784 33.6843 83.2872 33.6843 83.7722 34.533" stroke="#2E2E2E" stroke-width="0.242562" stroke-miterlimit="10" stroke-linecap="round" stroke-linejoin="round"/>
<path d="M89.4088 17.867C88.3786 17.0792 87.7726 16.5944 87.3483 16.352V16.2307L87.0453 16.1701C86.9241 16.1095 86.8635 16.1095 86.8029 16.1701L83.894 15.8065L83.5909 16.352L81.4698 15.1399L75.4701 17.6852L70.9249 22.5335C70.9249 22.5335 69.531 24.291 75.2277 24.4728C79.4093 24.594 82.0759 20.17 83.1667 17.8064C83.0455 19.3821 82.5607 22.6547 80.0154 24.4728L85.8333 26.0485C85.8333 26.0485 87.5301 24.3516 88.2574 21.382C88.318 22.7153 88.318 24.4728 86.9241 26.4121L90.8027 27.7453C90.8027 27.8665 93.8935 21.4426 89.4088 17.867Z" fill="#3882FF"/>
<path d="M85.5909 16.7155C85.5909 16.7155 87.106 21.6243 83.3486 25.4423" stroke="#2E2E2E" stroke-width="0.242562" stroke-miterlimit="10" stroke-linecap="round" stroke-linejoin="round"/>
<path d="M79.1671 19.322C79.1671 19.322 77.5308 22.9581 73.834 23.9278" stroke="#2E2E2E" stroke-width="0.242562" stroke-miterlimit="10" stroke-linecap="round" stroke-linejoin="round"/>
<path d="M70.6828 27.0786C70.501 29.321 71.7737 30.9572 73.4706 31.0784C75.2281 31.2603 76.7431 29.8664 76.9856 27.6241C77.1674 25.3818 75.8947 23.8061 74.1978 23.6243C72.4403 23.5637 70.8646 24.8363 70.6828 27.0786Z" fill="#FFD7E7"/>
<path d="M74.319 25.3815C73.1675 24.8361 72.2585 26.0482 72.0767 27.0784C71.8949 28.2299 72.4403 29.442 73.6524 29.5632" stroke="#2E2E2E" stroke-width="0.242562" stroke-miterlimit="10" stroke-linecap="round" stroke-linejoin="round"/>
<path d="M75.2285 34.6537C77.0466 37.8051 80.8646 39.9262 84.5614 39.0172C84.622 39.0172 84.6826 38.9566 84.7432 38.9566C86.9249 38.3505 88.6218 36.7143 89.7127 34.7143C90.6823 32.8963 91.0459 30.8358 91.3489 28.8358C91.652 26.6541 92.1974 24.4724 91.8338 22.2907" stroke="#2E2E2E" stroke-width="0.242562" stroke-miterlimit="10" stroke-linecap="round" stroke-linejoin="round"/>
<path d="M51.6502 117.499C51.8926 121.135 51.4078 124.832 51.1048 128.468C50.4382 136.104 48.9837 143.619 47.3474 151.073C47.105 152.285 46.802 153.497 46.5596 154.709H63.0436C63.7709 151.133 64.4981 147.497 65.1647 143.922C66.7404 135.558 67.8313 126.953 67.8313 118.468C67.8919 116.893 67.9525 115.317 67.9525 113.681C67.8919 115.317 69.4069 124.104 70.316 128.953C70.9826 132.468 70.8008 133.922 70.3766 137.437C70.013 140.892 69.4675 145.194 69.0433 148.103C68.6797 150.285 68.3767 152.527 68.0131 154.709H82.679C84.1335 145.982 85.588 136.407 85.4062 129.195C85.2243 122.892 84.3759 116.65 83.285 110.469C82.6184 106.833 82.0124 103.136 81.1639 99.4996C80.6185 97.1361 80.0125 94.7726 79.2853 92.5303C78.9822 91.6212 78.6186 90.7728 78.255 89.9243C77.5884 88.5305 76.2551 87.4396 76.3763 85.7427L76.8005 80.1066L53.1653 78.6522C52.9835 79.3794 52.1957 82.2883 52.0139 83.0156C51.8926 83.6822 51.832 84.4095 51.7108 85.0761C51.4078 86.4094 50.4382 87.6214 49.7715 88.8335C48.9837 90.4092 48.2565 92.1061 47.7716 93.8029C46.5596 98.4088 47.2262 102.893 48.8625 107.317C50.0745 110.59 51.4078 113.923 51.6502 117.499Z" fill="#1266E1"/>
<path d="M69.8929 101.136L68.499 102.469C67.893 103.075 67.5294 103.923 67.59 104.772C67.7718 107.317 68.1354 113.438 67.4688 122.529" stroke="#2E2E2E" stroke-width="0.242562" stroke-miterlimit="10" stroke-linecap="round" stroke-linejoin="round"/>
<path d="M69.1654 85.4396C69.6674 85.4396 70.0744 85.0326 70.0744 84.5305C70.0744 84.0285 69.6674 83.6215 69.1654 83.6215C68.6633 83.6215 68.2563 84.0285 68.2563 84.5305C68.2563 85.0326 68.6633 85.4396 69.1654 85.4396Z" fill="#2E2E2E"/>
<path d="M93.5898 86.7733C93.4686 86.4703 93.2262 86.2279 93.0443 85.9855C92.1959 85.0158 91.2263 84.1068 90.2566 83.2584C89.8324 82.8947 89.2264 83.016 88.9839 83.5008C88.9233 83.622 88.8627 83.6826 88.8021 83.8038C87.0446 86.2279 82.6812 88.7126 80.7419 89.7429C80.2571 89.9853 80.1359 90.5913 80.4995 91.0156C81.2267 91.9246 82.4994 93.3791 83.4085 94.4093C83.7115 94.773 84.1963 94.8942 84.6205 94.773C85.8326 94.4699 86.9234 94.1669 88.0749 93.5003C89.1658 92.8337 94.2564 88.4096 93.5898 86.7733Z" fill="white"/>
<path d="M88.1968 82.2281C85.8333 79.6221 83.894 76.7132 82.4396 73.5618C82.5002 73.4406 82.5608 73.3194 82.6214 73.1982C82.7426 72.8952 82.7426 72.471 82.6214 72.2286C82.5608 72.1074 82.4396 71.9862 82.4396 71.8043C82.4396 71.6831 82.5002 71.6225 82.6214 71.6225C82.8032 71.5013 82.9244 71.3801 83.0456 71.1983C83.1668 71.0165 83.2274 70.7741 83.1668 70.5317C83.1062 70.3499 83.0456 70.2287 82.985 70.1681C82.682 69.7438 82.4396 69.3802 82.1365 68.956C82.1971 68.8348 82.1971 68.7136 82.2577 68.5924C83.2274 65.6834 84.3788 62.7139 84.8031 59.7443C85.4091 55.8051 86.8636 50.3508 83.7728 47.1389C82.8032 46.1692 80.8033 45.442 79.4094 45.442L79.3488 45.3814L78.3185 42.5936C78.4397 43.0179 77.1671 44.1693 76.9247 44.4117C76.258 44.9572 74.743 45.6844 74.743 45.6844C74.743 45.6844 70.5007 39.4423 70.1977 38.5938L70.3795 38.109L70.0765 38.2302C70.0765 38.2302 66.5615 40.5331 66.1373 40.7755H66.0767C64.2586 39.7453 61.5921 38.5938 59.5316 38.4726C57.4105 38.2908 55.2288 38.7756 53.5319 40.0483C51.4108 41.624 50.4411 44.1693 49.7139 46.7147C50.9259 48.4721 51.8956 50.472 52.441 52.5326C53.3501 55.8657 52.744 54.7143 53.1076 58.2292C53.4713 61.7442 54.5015 69.8044 53.7743 73.4406C53.4713 74.9557 53.047 77.0768 52.138 78.4101C52.2592 78.9555 52.6228 79.3797 53.1076 79.7433C56.0166 82.0463 60.683 82.5917 64.2586 82.5311C67.7736 82.4099 71.531 81.7433 75.046 82.1069C75.1066 82.1069 75.2278 82.1069 75.4096 82.1675L76.5611 82.2281L76.3792 84.5916C76.7429 85.137 77.1065 85.7431 77.5307 86.2279C78.9246 88.046 80.5002 89.7429 81.9547 91.4398C82.5002 91.1367 83.0456 90.8337 83.591 90.5307C86.2575 89.0762 89.4089 87.3793 90.621 84.4704C89.7725 83.8038 88.9847 83.0765 88.1968 82.2281Z" fill="white"/>
<path d="M56.4399 50.4118C57.4701 48.4725 58.0156 45.9877 56.9853 43.9878L53.5309 39.988C51.6522 41.6243 50.8644 42.594 49.5311 44.0484C42.9254 51.3208 37.7135 56.4721 32.5623 64.8959C32.1986 65.5625 31.7744 66.2292 31.7744 66.9564C31.7744 67.5019 31.9562 68.0473 32.138 68.5321C33.4107 71.7441 34.5622 75.0166 36.4409 77.9256C38.2589 80.7739 40.5619 83.2587 42.683 85.804C46.1374 83.6829 49.9553 80.8345 51.4704 77.0165C49.6523 75.0166 48.0161 72.5319 46.6222 70.1684C46.4404 69.8654 46.2586 69.5624 46.3192 69.1987C46.3798 68.8957 46.5616 68.6533 46.7434 68.4109C50.016 64.3505 54.6218 57.7447 57.5913 53.4419C58.864 51.6844 55.349 52.4117 56.4399 50.4118Z" fill="white"/>
<path d="M58.319 88.4093L58.3796 88.3487L58.1978 88.1669C58.1371 87.9851 58.0765 87.7427 58.0159 87.5609C57.8341 87.5609 57.6523 87.5003 57.5311 87.3791C57.3493 87.1972 57.2281 87.0154 57.0463 86.8336C56.7433 86.47 56.3797 86.1064 56.0766 85.7428C55.2282 84.7731 54.4404 83.8035 53.5919 82.8338C52.5617 81.6218 51.5314 80.4703 50.5618 79.2582L45.0469 84.0459L52.3798 92.2879C52.6829 92.6515 52.8647 93.1364 52.9253 93.6212C53.1677 95.1969 53.3495 95.2575 53.3495 95.2575C59.1068 94.2272 58.7432 90.1668 58.319 88.4093Z" fill="#FFD7E7"/>
<path d="M44.9259 87.561C48.3803 85.3187 51.5922 82.7734 54.1982 79.7432C54.5012 79.4402 54.4406 78.8948 54.1376 78.5918C52.7437 77.1979 51.5922 75.6222 50.1378 74.2283C49.7742 73.9253 48.8651 74.2889 48.5621 74.7132C46.6228 77.3797 44.2593 79.7432 41.6533 81.8037C41.3503 82.0461 40.8655 82.4704 40.4413 82.7734C40.0777 83.0764 40.017 83.5612 40.2595 83.8642C40.6231 84.3491 41.1685 85.0157 41.5321 85.3187C42.32 85.9853 43.1078 86.7126 43.835 87.4398C44.1381 87.7428 44.5623 87.8034 44.9259 87.561Z" fill="white"/>
<path d="M76.4396 84.5306C76.8032 85.0761 77.1668 85.6821 77.591 86.1669C78.5607 87.4396 79.591 88.591 80.6212 89.8031C80.3182 90.1061 80.2576 90.5909 80.5 90.9546C81.2272 91.8636 82.4999 93.3181 83.4089 94.3483C83.712 94.712 84.1968 94.8332 84.621 94.712C85.8331 94.4089 86.9239 94.1059 88.0754 93.4393C89.1662 92.7727 94.3175 88.3486 93.5903 86.7729C93.4691 86.4699 93.2266 86.2275 93.0448 85.9851C92.1964 85.0155 91.2267 84.1064 90.2571 83.258C89.9541 83.0156 89.5299 83.0156 89.2268 83.258C88.8632 82.955 88.5602 82.5913 88.2572 82.2883C85.8937 79.6824 83.9544 76.7734 82.4999 73.6221C82.5605 73.5009 82.6211 73.3797 82.6817 73.2585C82.8029 72.9554 82.8029 72.5312 82.6817 72.2888C82.6211 72.1676 82.4999 72.0464 82.4999 71.8646C82.4999 71.7434 82.5605 71.6828 82.6817 71.6828C82.8635 71.5616 82.9847 71.4404 83.1059 71.2585C83.2271 71.0767 83.2877 70.8343 83.2271 70.5919C83.1665 70.4101 83.1059 70.2889 83.0453 70.2283C82.7423 69.8041 82.4999 69.4405 82.1969 69.0162C82.2575 68.895 82.2575 68.7738 82.3181 68.6526C83.2877 65.7437 84.4392 62.7741 84.8634 59.8046C85.4695 55.8654 86.9239 50.4111 83.8332 47.1991C82.8635 46.2295 80.8636 45.5022 79.4697 45.5022L79.4091 45.4416L78.4395 42.7751M70.1369 38.1693C70.1369 38.1693 66.6219 40.4722 66.1977 40.7146H66.1371C64.319 39.6843 61.6524 38.5329 59.5919 38.4117C57.4708 38.2298 55.2891 38.7147 53.5922 39.9873C53.2892 40.2298 52.9862 40.4722 52.7438 40.7752C51.4711 41.9872 50.7439 42.8357 49.5924 44.1084C42.9867 51.3807 37.7748 56.532 32.6235 64.9558C32.2599 65.6225 31.8357 66.2891 31.8357 67.0163C31.8357 67.5618 32.0175 68.1072 32.1993 68.592C33.472 71.804 34.6234 75.0765 36.5021 77.9855C37.6536 79.8036 39.0475 81.4399 40.3807 83.0762C40.1989 83.3792 40.1989 83.6822 40.3807 83.9246C40.7443 84.4094 41.2898 85.0761 41.6534 85.3791C42.4412 86.0457 43.2291 86.7729 43.9563 87.5002C44.2593 87.7426 44.6836 87.8032 44.9866 87.6214M50.1984 74.2887C50.0166 74.1069 49.5925 73.9258 49.2289 74.047C48.2593 72.7137 47.3501 71.5616 46.5623 70.1677C46.3804 69.8647 46.1986 69.5617 46.2592 69.198C46.3198 68.895 46.5016 68.6526 46.6835 68.4102C48.6228 66.0467 50.9863 62.7741 53.2286 59.6228C53.6528 63.562 54.3801 70.2283 53.774 73.3797C53.5316 74.4705 53.2892 75.925 52.8044 77.1371C51.9559 76.1674 51.1075 75.1978 50.1984 74.2887Z" stroke="#2E2E2E" stroke-width="0.242562" stroke-miterlimit="10" stroke-linecap="round" stroke-linejoin="round"/>
<path d="M40.2583 83.0764C40.6825 82.7128 41.4098 82.0462 41.7128 81.8038C44.3187 79.7433 46.9246 77.0767 48.8639 74.4708C49.167 74.0466 49.773 73.9254 50.1366 74.289C51.5911 75.6222 52.6819 77.2585 54.1364 78.6524C54.4394 78.9554 54.5 79.4402 54.197 79.8039L53.7728 80.2887" stroke="#2E2E2E" stroke-width="0.242562" stroke-miterlimit="10" stroke-linecap="round" stroke-linejoin="round"/>
<path d="M51.8335 96.3487C55.1667 94.3488 57.712 90.8339 58.2574 86.9553L62.3784 87.5613L59.8937 98.7123L53.4092 98.3486L51.8335 96.3487Z" fill="#1266E1"/>
<path d="M58.2574 86.9553C57.712 90.8339 55.1667 94.3488 51.8335 96.3487" stroke="#2E2E2E" stroke-width="0.242562" stroke-miterlimit="10" stroke-linecap="round" stroke-linejoin="round"/>
<path d="M81.6513 57.8049C82.1361 59.7442 81.8331 62.0471 81.1664 63.9258C80.1968 66.7135 77.5909 68.3498 78.1969 75.0768L78.3181 79.319C78.3181 80.1068 78.0757 80.9553 77.5303 81.5613C77.2878 81.8643 76.9242 82.1067 76.5 82.2279" stroke="#2E2E2E" stroke-width="0.242562" stroke-miterlimit="10" stroke-linecap="round" stroke-linejoin="round"/>
<path d="M46.2591 69.623C43.7743 66.108 40.9866 64.8353 38.3201 65.1383" stroke="#2E2E2E" stroke-width="0.242562" stroke-miterlimit="10" stroke-linecap="round" stroke-linejoin="round"/>
<path d="M42.5618 62.8351C44.1981 63.6836 45.9555 65.9865 46.6222 67.8046" stroke="#2E2E2E" stroke-width="0.242562" stroke-miterlimit="10" stroke-linecap="round" stroke-linejoin="round"/>
<path d="M53.167 59.8053L55.7127 56.1691" stroke="#2E2E2E" stroke-width="0.242562" stroke-miterlimit="10" stroke-linecap="round" stroke-linejoin="round"/>
<path d="M66.1362 40.7748C66.1362 40.7748 67.4695 46.8957 69.5906 50.7137L74.2571 45.6836" stroke="#2E2E2E" stroke-width="0.242562" stroke-miterlimit="10" stroke-linecap="round" stroke-linejoin="round"/>
<path d="M74.9839 45.7449L76.802 50.7143C76.802 50.7143 78.5595 49.078 79.4079 45.5024" stroke="#2E2E2E" stroke-width="0.242562" stroke-miterlimit="10" stroke-linecap="round" stroke-linejoin="round"/>
<path d="M82.3184 70.4708C81.3487 71.6222 80.7427 71.8646 79.167 72.107" stroke="#2E2E2E" stroke-width="0.242562" stroke-miterlimit="10" stroke-linecap="round" stroke-linejoin="round"/>
<path d="M82.6817 72.5914C82.6817 72.5914 82.8636 74.1671 79.4092 76.7124" stroke="#2E2E2E" stroke-width="0.242562" stroke-miterlimit="10" stroke-linecap="round" stroke-linejoin="round"/>
<path d="M89.1657 83.2581C89.1657 83.2581 86.7416 87.7427 80.5601 89.8638" stroke="#2E2E2E" stroke-width="0.242562" stroke-miterlimit="10" stroke-linecap="round" stroke-linejoin="round"/>
<path d="M71.1064 49.0779L72.6215 68.5921" stroke="#2E2E2E" stroke-width="0.242562" stroke-miterlimit="10" stroke-linecap="round" stroke-linejoin="round"/>
<path d="M76.3182 49.3204L73.8335 68.774" stroke="#2E2E2E" stroke-width="0.242562" stroke-miterlimit="10" stroke-linecap="round" stroke-linejoin="round"/>
<path d="M76.1367 78.2294L69.7128 78.0476C69.4704 78.0476 69.2885 77.8658 69.3491 77.6234L69.6522 68.0481C69.6522 67.8057 69.834 67.6239 70.0764 67.6845L76.5003 67.8663C76.7427 67.8663 76.9245 68.0481 76.8639 68.2905L76.5609 77.8658C76.5609 78.0476 76.3791 78.2294 76.1367 78.2294Z" fill="white"/>
<path d="M76.8036 70.0474L76.8642 68.2293C76.8642 67.9868 76.6824 67.805 76.5005 67.805L70.0766 67.6232C69.8342 67.6232 69.6524 67.805 69.6524 67.9869L69.5918 69.8049L76.8036 70.0474Z" fill="#3882FF"/>
<path d="M76.1367 78.2294L69.7128 78.0476C69.4704 78.0476 69.2885 77.8658 69.3491 77.6234L69.6522 68.0481C69.6522 67.8057 69.834 67.6239 70.0764 67.6845L76.5003 67.8663C76.7427 67.8663 76.9245 68.0481 76.8639 68.2905L76.5609 77.8658C76.5609 78.0476 76.3791 78.2294 76.1367 78.2294Z" stroke="#2E2E2E" stroke-width="0.242562" stroke-miterlimit="10" stroke-linecap="round" stroke-linejoin="round"/>
<path d="M55.835 84.5914C54.623 85.3793 52.3201 87.0761 49.9565 89.9851C49.8353 90.1669 49.8353 90.3487 50.0171 90.4699C50.2596 90.6517 50.4414 90.7729 50.6838 90.9547C50.8656 91.0759 51.0474 91.0153 51.1686 90.8941C53.5927 87.864 55.835 86.4095 56.8047 85.8035C57.0471 85.6823 57.0471 85.3793 56.8047 85.258C56.5623 85.0762 56.4411 84.7732 56.2593 84.5914C56.1381 84.5308 55.9562 84.5308 55.835 84.5914Z" fill="#2E2E2E"/>
<path d="M111.419 62.9934C111.372 62.9934 111.339 62.9538 111.339 62.9142V52.3855C111.339 52.3393 111.379 52.3063 111.419 52.3063C111.458 52.3063 111.498 52.3459 111.498 52.3855V62.9076C111.498 62.9538 111.465 62.9934 111.419 62.9934Z" fill="#0F2032"/>
<path d="M116.681 57.7319H106.159C106.113 57.7319 106.08 57.6922 106.08 57.6526C106.08 57.613 106.119 57.5734 106.159 57.5734H116.681C116.727 57.5734 116.76 57.613 116.76 57.6526C116.76 57.6922 116.727 57.7319 116.681 57.7319Z" fill="#0F2032"/>
<path d="M115.241 61.5544C115.221 61.5544 115.201 61.5478 115.181 61.528L107.531 53.884C107.498 53.851 107.498 53.7982 107.531 53.7652C107.564 53.7322 107.616 53.7322 107.649 53.7652L115.3 61.4158C115.333 61.4488 115.333 61.5016 115.3 61.5346C115.28 61.5478 115.26 61.5544 115.241 61.5544Z" fill="#0F2032"/>
<path d="M107.591 61.5541C107.571 61.5541 107.551 61.5475 107.531 61.5277C107.498 61.4947 107.498 61.4419 107.531 61.4089L115.182 53.7583C115.215 53.7253 115.268 53.7253 115.301 53.7583C115.334 53.7913 115.334 53.8441 115.301 53.8771L107.65 61.5277C107.637 61.5475 107.61 61.5541 107.591 61.5541Z" fill="#0F2032"/>
<path d="M31.6859 7.77609C31.6859 6.61431 30.9135 5.63736 29.8574 5.3139C30.3722 4.33695 30.227 3.10255 29.4085 2.27742C28.5834 1.45229 27.3556 1.31367 26.372 1.82855C26.042 0.772384 25.0716 6.10352e-05 23.9098 6.10352e-05C22.748 6.10352e-05 21.7711 0.772384 21.4476 1.82855C20.4707 1.31367 19.2363 1.45889 18.4111 2.27742C17.586 3.10255 17.4474 4.33035 17.9623 5.3139C16.9061 5.64396 16.1338 6.61431 16.1338 7.77609C16.1338 8.93788 16.9061 9.91484 17.9623 10.2383C17.4474 11.2152 17.5926 12.4496 18.4111 13.2748C19.2363 14.0999 20.4641 14.2385 21.4476 13.7236C21.7777 14.7798 22.748 15.5521 23.9098 15.5521C25.0716 15.5521 26.0486 14.7798 26.372 13.7236C27.349 14.2385 28.5834 14.0933 29.4085 13.2748C30.2336 12.4496 30.3722 11.2218 29.8574 10.2383C30.9135 9.90823 31.6859 8.93788 31.6859 7.77609Z" fill="#FBA2B7"/>
<path d="M23.9084 10.3706C25.3412 10.3706 26.5026 9.20908 26.5026 7.77634C26.5026 6.34359 25.3412 5.18213 23.9084 5.18213C22.4757 5.18213 21.3142 6.34359 21.3142 7.77634C21.3142 9.20908 22.4757 10.3706 23.9084 10.3706Z" fill="white"/>
<path d="M5.85066 128.433C5.79992 128.433 5.76367 128.39 5.76367 128.347V116.919C5.76367 116.869 5.80717 116.833 5.85066 116.833C5.89416 116.833 5.93765 116.876 5.93765 116.919V128.34C5.93765 128.39 5.90141 128.433 5.85066 128.433Z" fill="#202021"/>
<path d="M11.6145 122.722H0.0867839C0.0361603 122.722 0 122.679 0 122.637C0 122.594 0.0433923 122.551 0.0867839 122.551H11.6145C11.6651 122.551 11.7013 122.594 11.7013 122.637C11.7013 122.679 11.6651 122.722 11.6145 122.722Z" fill="#202021"/>
<path d="M10.0366 126.871C10.0149 126.871 9.99323 126.864 9.97153 126.842L1.59694 118.538C1.56078 118.503 1.56078 118.445 1.59694 118.409C1.6331 118.374 1.69096 118.374 1.72712 118.409L10.1089 126.713C10.1451 126.749 10.1451 126.806 10.1089 126.842C10.0872 126.864 10.0655 126.871 10.0366 126.871Z" fill="#202021"/>
<path d="M1.65471 126.871C1.63301 126.871 1.61132 126.864 1.58962 126.842C1.55346 126.806 1.55346 126.749 1.58962 126.713L9.97144 118.409C10.0076 118.374 10.0655 118.374 10.1016 118.409C10.1378 118.445 10.1378 118.503 10.1016 118.538L1.71979 126.842C1.70533 126.864 1.68364 126.871 1.65471 126.871Z" fill="#202021"/>
</svg>
