<svg viewBox="0 0 137 149" fill="none" xmlns="http://www.w3.org/2000/svg">
<path d="M44.8008 47.1291C44.6996 47.1291 44.5731 47.0781 44.5224 46.9761C44.4465 46.8231 44.4971 46.619 44.649 46.5425L95.0153 18.1555C95.0913 18.1045 95.1925 18.1045 95.2937 18.13C95.395 18.1555 95.4456 18.2321 95.4709 18.3341L99.0143 29.7603C99.0649 29.9388 98.9636 30.1174 98.8118 30.1684C98.6346 30.2194 98.4574 30.1174 98.4068 29.9643L94.99 18.8952L44.9527 47.0781C44.9021 47.1036 44.8515 47.1291 44.8008 47.1291Z" fill="#0F2032"/>
<path d="M105.162 27.8574L44.8021 46.8115L68.5205 123.513L128.88 104.559L105.162 27.8574Z" fill="#FBA2B7"/>
<path d="M86.5119 45.3951C83.1204 46.4663 80.64 49.0933 79.6023 52.2559C76.9701 50.241 73.452 49.5014 70.0605 50.5726C64.4671 52.3324 61.354 58.3006 63.1004 63.9372C63.809 66.2071 65.2264 68.171 67.2005 69.4718C69.605 71.0531 88.3848 80.6429 88.3848 80.6429C88.3848 80.6429 98.4327 61.9988 99.521 59.3208C100.407 57.1274 100.483 54.6789 99.7741 52.4345C98.0278 46.7979 92.08 43.6352 86.5119 45.3951Z" fill="white"/>
<path d="M70.314 95.1295C70.1874 95.1295 70.0609 95.053 70.0102 94.9C69.9596 94.7214 70.0609 94.5429 70.2127 94.4919L111.29 81.6119C111.468 81.5609 111.645 81.6629 111.695 81.8159C111.746 81.9945 111.645 82.173 111.493 82.224L70.3899 95.1295C70.3646 95.1295 70.3393 95.1295 70.314 95.1295Z" fill="#0F2032"/>
<path d="M72.6705 102.78C72.544 102.78 72.4174 102.703 72.3668 102.55C72.3162 102.372 72.4174 102.193 72.5693 102.142L113.647 89.2623C113.824 89.2113 114.001 89.3133 114.052 89.4663C114.103 89.6449 114.001 89.8234 113.849 89.8744L72.7718 102.78C72.7211 102.754 72.6958 102.78 72.6705 102.78Z" fill="#0F2032"/>
<path d="M80.9941 108.52C80.8676 108.52 80.741 108.443 80.6904 108.29C80.6398 108.112 80.741 107.933 80.8929 107.882L109.999 98.7516C110.176 98.7005 110.353 98.8026 110.404 98.9556C110.455 99.1341 110.353 99.3127 110.202 99.3637L81.0954 108.494C81.0701 108.52 81.0447 108.52 80.9941 108.52Z" fill="#0F2032"/>
<path d="M128.855 104.873C128.728 104.873 128.602 104.797 128.551 104.644L104.937 28.2563L44.8772 47.1044C44.7001 47.1554 44.5229 47.0534 44.4723 46.9004C44.4217 46.7219 44.5229 46.5433 44.6748 46.4923L105.038 27.5421C105.114 27.5166 105.216 27.5166 105.266 27.5676C105.342 27.6187 105.393 27.6697 105.418 27.7462L129.133 104.44C129.184 104.618 129.083 104.797 128.931 104.848C128.931 104.873 128.88 104.873 128.855 104.873Z" fill="#0F2032"/>
<ellipse cx="92.0762" cy="138.201" rx="44.748" ry="9.82273" fill="#F1F2F4"/>
<path d="M37.4716 34.4456C37.5405 34.5881 37.5022 34.7533 37.3701 34.8465C37.214 34.9514 37.0244 34.9259 36.9199 34.7711L29.8121 24.7224C29.7077 24.5677 29.7345 24.3787 29.8906 24.2739C30.0467 24.169 30.2363 24.1946 30.3407 24.3493L37.4486 34.398C37.4601 34.4218 37.4716 34.4456 37.4716 34.4456Z" fill="#0F2032"/>
<path d="M26.9279 35.681C26.9739 35.7761 26.972 35.8943 26.8993 35.9882C26.8016 36.1527 26.611 36.1863 26.4577 36.1138L21.2203 33.1062C21.0556 33.01 21.023 32.8205 21.0967 32.6675C21.1944 32.503 21.385 32.4694 21.5382 32.5419L26.7757 35.5495C26.8465 35.5738 26.905 35.6335 26.9279 35.681Z" fill="#0F2032"/>
<path d="M34.1441 39.8388C34.1901 39.9339 34.1882 40.0521 34.1154 40.146C34.0177 40.3105 33.8271 40.3441 33.6739 40.2716L28.5543 37.3243C28.3895 37.2281 28.357 37.0386 28.4307 36.8856C28.5283 36.7211 28.7189 36.6875 28.8722 36.7599L33.9918 39.7073C34.0627 39.7316 34.1096 39.7676 34.1441 39.8388Z" fill="#0F2032"/>
<path d="M31.7895 45.11C31.8125 45.1575 31.8115 45.2166 31.8106 45.2757C31.8077 45.453 31.6392 45.5932 31.461 45.5915L18.5523 44.683C18.3626 44.6575 18.2343 44.5144 18.2371 44.3371C18.24 44.1598 18.4085 44.0195 18.5867 44.0213L31.4954 44.9298C31.6381 44.9193 31.7435 45.015 31.7895 45.11Z" fill="#0F2032"/>
<path d="M44.7341 21.1154C44.7456 21.1392 44.7571 21.1629 44.7686 21.1867C44.8012 21.3762 44.6796 21.5523 44.5129 21.5743L42.0113 22.0224C41.8207 22.0559 41.6685 21.9244 41.6234 21.7703C41.5908 21.5808 41.7124 21.4046 41.8791 21.3827L44.3807 20.9346C44.5119 20.9004 44.6651 20.9729 44.7341 21.1154Z" fill="#0F2032"/>
<path d="M51.9993 19.8313C52.0108 19.855 52.0223 19.8788 52.0338 19.9025C52.0663 20.092 51.9447 20.2681 51.7781 20.2901L49.2765 20.7382C49.0859 20.7718 48.9336 20.6402 48.8886 20.4861C48.856 20.2966 48.9776 20.1205 49.1442 20.0985L51.6458 19.6504C51.7885 19.64 51.9418 19.7125 51.9993 19.8313Z" fill="#0F2032"/>
<path d="M47.5041 23.0614C47.5156 23.0852 47.5271 23.1089 47.5386 23.1327L47.9738 25.6197C48.0063 25.8092 47.8847 25.9853 47.7181 26.0073C47.5275 26.0409 47.3752 25.9093 47.3302 25.7552L46.895 23.2682C46.8624 23.0787 46.984 22.9025 47.1507 22.8805C47.3173 22.8585 47.4466 22.9426 47.5041 23.0614Z" fill="#0F2032"/>
<path d="M46.2799 15.824C46.2914 15.8478 46.3029 15.8715 46.3144 15.8953L46.7495 18.3823C46.7821 18.5718 46.6605 18.7479 46.4938 18.7699C46.3272 18.7919 46.127 18.6835 46.1059 18.5178L45.6708 16.0308C45.6382 15.8413 45.7598 15.6652 45.9265 15.6432C46.0577 15.609 46.2109 15.6814 46.2799 15.824Z" fill="#0F2032"/>
<path d="M29.5393 9.3135C29.6543 9.55109 29.7338 9.77653 29.7769 10.0489C29.8958 10.7831 29.7178 11.5143 29.3041 12.125C28.8665 12.7472 28.2306 13.1428 27.4922 13.2656C26.7537 13.3883 26.0316 13.2392 25.409 12.8075C24.7864 12.3757 24.3926 11.7451 24.2738 11.0109C24.1549 10.2768 24.2976 9.53343 24.7467 8.93494C25.1843 8.31269 25.8202 7.91697 26.5586 7.79425C27.7979 7.54646 29.0105 8.22058 29.5393 9.3135ZM25.086 11.4683C25.2355 11.7771 25.4683 12.0751 25.7738 12.2791C26.2317 12.6146 26.7881 12.7266 27.3599 12.6259C27.9317 12.5251 28.4 12.2106 28.7399 11.7529C29.0799 11.2952 29.1957 10.7406 29.0979 10.1722C28.9024 9.03526 27.7865 8.25575 26.643 8.4572C26.0712 8.55793 25.6029 8.8725 25.263 9.33021C24.923 9.78791 24.8187 10.3661 24.9049 10.9108C24.9375 11.1003 24.9941 11.2782 25.086 11.4683Z" fill="#0F2032"/>
<path d="M30.7842 58.9681C30.7957 58.9919 30.8072 59.0157 30.8187 59.0394C30.8398 59.2051 30.7546 59.3344 30.6349 59.3923C30.6109 59.4039 30.587 59.4155 30.563 59.427C29.2289 59.6621 28.0768 60.3955 27.3108 61.4992C26.5447 62.6029 26.2384 63.9239 26.455 65.2266C26.4655 65.3094 26.4521 65.4039 26.4033 65.4861C26.3545 65.5684 26.2587 65.6148 26.1639 65.602C25.9972 65.624 25.8449 65.4924 25.7999 65.3383C25.3331 62.6027 22.7134 60.7915 19.9973 61.2847C19.8067 61.3183 19.6544 61.1867 19.6094 61.0325C19.5883 60.8668 19.6735 60.7376 19.7932 60.6797C19.8172 60.6681 19.8411 60.6565 19.865 60.645C21.1992 60.4099 22.3513 59.6765 23.1173 58.5728C23.8834 57.4691 24.1897 56.148 23.9731 54.8454C23.9625 54.7625 23.9759 54.6681 24.0247 54.5858C24.0736 54.5035 24.1693 54.4572 24.2642 54.47C24.4308 54.448 24.5831 54.5796 24.6042 54.7453C25.071 57.4809 27.6907 59.2921 30.4068 58.7989C30.5859 58.7416 30.7152 58.8256 30.7842 58.9681ZM25.7834 63.4111C25.9154 62.5848 26.2486 61.8078 26.759 61.0917C27.2455 60.3872 27.8842 59.8142 28.6035 59.4076C26.9331 59.1309 25.4532 58.0877 24.6217 56.6134C24.4896 57.4397 24.1564 58.2167 23.646 58.9328C23.1596 59.6373 22.5208 60.2102 21.8016 60.6169C23.4835 60.9173 24.9518 61.9368 25.7834 63.4111Z" fill="#0F2032"/>
</svg>
