<svg viewBox="0 0 301 194" fill="none" xmlns="http://www.w3.org/2000/svg">
<g filter="url(#filter0_d_880_80880)">
<path d="M229.592 99.6568C222.775 102.55 217.872 109.664 213.088 114.969C206.631 122.082 200.292 129.317 192.16 134.622C190.366 135.707 188.573 136.792 186.779 137.877C196.107 129.799 202.325 118.104 204.478 104.962C204.956 102.068 205.195 99.0539 205.195 96.0397C205.076 84.8268 201.608 73.614 195.03 64.5714C176.374 39.252 137.269 36.2378 113.47 55.7699C101.392 65.6565 95.0534 80.3658 95.0534 96.0397C95.0534 115.21 105.458 129.919 120.406 138.962C119.45 139.083 118.493 139.203 117.536 139.324C114.786 137.877 112.035 136.43 109.524 134.742C101.392 129.558 95.0534 122.203 88.5955 115.09C83.8119 109.664 78.9087 102.671 72.0921 99.7773C62.1662 95.5574 53.3165 103.394 53.7949 113.643C54.2733 123.891 60.6115 132.934 67.4281 140.65C76.0386 150.537 86.5625 158.735 97.6843 165.608C103.544 169.225 102.468 175.494 103.066 181.402C103.185 182.487 104.262 192.856 105.218 192.856H196.107C198.259 184.175 198.738 176.459 198.14 169.828C199.096 169.948 199.694 170.43 201.369 169.466C212.49 162.593 225.645 150.537 234.256 140.65C240.953 132.934 247.291 123.891 247.889 113.643C248.367 103.274 239.518 95.4369 229.592 99.6568Z" fill="white"/>
<path d="M137.246 92.6533C137.375 90.193 135.768 88.1076 133.657 87.9955C131.547 87.8835 129.732 89.7871 129.603 92.2474C129.475 94.7077 131.081 96.793 133.192 96.9051C135.302 97.0172 137.118 95.1136 137.246 92.6533Z" fill="#3178FF"/>
<path d="M170.575 92.7411C170.703 90.2808 169.097 88.1955 166.986 88.0834C164.875 87.9713 163.06 89.8749 162.932 92.3353C162.803 94.7956 164.41 96.8809 166.52 96.993C168.631 97.1051 170.446 95.2015 170.575 92.7411Z" fill="#3178FF"/>
<path d="M136.549 110.025C139.18 115.089 144.562 118.465 150.183 118.706C156.282 118.947 161.305 114.968 164.414 110.025C166.447 106.77 161.305 103.635 159.271 107.011C158.315 108.578 156.999 110.266 155.445 111.231C153.651 112.436 152.216 112.798 150.183 112.798C149.943 112.798 149.704 112.798 149.585 112.798C149.943 112.798 149.346 112.798 149.226 112.798C148.748 112.678 148.269 112.557 147.791 112.436C146.834 112.195 146.356 111.954 145.399 111.231C143.844 110.266 142.649 108.819 141.692 107.131C140.974 105.685 138.941 105.202 137.626 106.046C136.191 106.77 135.832 108.578 136.549 110.025Z" fill="#3178FF"/>
<path d="M185.224 34.5493C176.972 29.0032 165.85 28.762 157.12 33.2231C152.097 28.2798 146.716 23.5776 140.138 20.9251C134.039 18.5137 126.386 18.0314 121.124 22.613C114.546 28.2798 117.297 38.6486 122.798 43.8331C125.548 46.4856 129.854 42.2657 126.984 39.6132C123.515 36.3578 120.884 29.2443 126.146 26.3507C130.93 23.6982 137.029 25.7478 141.454 28.1592C147.433 31.5351 152.097 36.7195 156.881 41.5423C161.784 46.365 166.926 51.0672 172.667 54.8048C179.244 59.0247 186.898 61.9183 194.791 62.0389C196.465 62.0389 197.661 60.5921 197.781 59.0247C198.139 49.3792 193.236 39.8543 185.224 34.5493Z" fill="#3178FF"/>
<path d="M151.141 51.5488C149.825 59.3857 152.695 67.705 159.631 71.9248C160.947 72.7688 162.98 72.2866 163.698 70.8397C164.415 69.3929 164.056 67.5844 162.621 66.7404C162.262 66.4993 162.023 66.3787 161.665 66.1376C161.425 66.017 161.306 65.8964 161.545 66.1376C161.425 66.017 161.306 65.8964 161.186 65.7759C160.588 65.2936 160.11 64.6907 159.631 64.2085C159.512 64.0879 159.153 63.6056 159.631 64.2085C159.512 64.0879 159.392 63.9673 159.392 63.8468C159.153 63.6056 159.034 63.2439 158.794 62.8822C158.555 62.5205 158.436 62.2794 158.316 61.9177C158.196 61.6765 158.077 61.556 158.077 61.3148C158.077 61.1943 157.838 60.5914 158.077 61.1943C157.838 60.4709 157.598 59.7474 157.359 59.024C157.24 58.6623 157.12 58.3006 157.12 57.9389C157.12 57.6978 157.001 57.5772 157.001 57.3361C157.001 56.9744 157.001 57.0949 157.001 57.3361C156.881 56.4921 156.881 55.7687 156.881 54.9247C156.881 54.563 156.881 54.2013 157.001 53.719C157.001 53.5985 157.001 53.3573 157.001 53.2367C156.881 53.9602 157.001 53.1162 157.001 52.9956C157.24 51.4282 156.642 49.6197 154.967 49.258C153.293 49.1374 151.38 49.8608 151.141 51.5488Z" fill="#3178FF"/>
<path d="M107.491 136.549C117.178 144.868 128.898 149.691 141.694 149.691C145.52 149.691 145.52 143.662 141.694 143.662C130.572 143.662 120.167 139.442 111.677 132.208C110.481 131.123 108.687 131.003 107.491 132.208C106.415 133.293 106.295 135.464 107.491 136.549Z" fill="#3178FF"/>
<path d="M200.052 159.579C199.096 155.841 193.355 157.409 194.312 161.146C195.747 166.813 196.225 172.721 195.986 178.629C195.867 182.366 195.269 186.225 194.192 189.842C179.842 189.842 165.491 189.842 151.26 189.842C136.909 189.842 122.558 189.842 108.207 189.842C108.088 189.6 108.088 189.359 107.968 189.239C107.251 187.189 106.772 185.139 106.294 183.09C104.62 174.891 105.218 166.21 107.968 158.253C109.164 154.515 103.424 152.948 102.228 156.685C97.6835 170.309 98.5206 186.827 106.174 199.246C109.164 204.189 112.991 208.53 117.775 211.906C119.808 213.352 122.08 214.679 124.352 215.884C124.83 224.324 125.189 232.764 125.548 241.324C122.199 242.409 118.97 244.097 117.177 247.112C115.024 250.729 115.144 255.913 119.09 258.204C121.003 259.289 123.276 259.53 125.309 259.53C127.82 259.651 130.212 259.53 132.723 259.289C136.55 258.927 141.453 258.927 143.845 255.31C145.519 252.899 145.4 249.764 145.4 246.991C145.519 244.338 145.519 241.807 145.639 239.154C145.878 233.367 145.998 227.7 146.117 221.913C147.433 222.033 148.629 222.154 149.944 222.274C153.173 222.395 156.402 222.033 159.631 221.551C159.99 228.062 160.229 234.572 160.468 241.083C157.12 242.168 153.891 243.856 152.097 246.87C149.944 250.487 150.064 255.672 154.01 257.963C155.924 259.048 158.196 259.289 160.229 259.289C162.74 259.409 165.132 259.289 167.643 259.048C171.47 258.686 176.374 258.686 178.765 255.069C180.44 252.658 180.32 249.523 180.32 246.75C180.44 244.097 180.44 241.565 180.559 238.913C180.798 232.884 180.918 226.735 181.157 220.707C181.277 218.416 181.277 216.125 181.396 213.835C181.755 213.594 182.233 213.352 182.592 213.111C188.93 209.012 194.073 203.586 197.541 197.076C197.66 196.955 197.78 196.714 197.9 196.473C200.65 191.047 201.846 184.898 202.085 178.749C202.325 172.48 201.607 165.848 200.052 159.579Z" fill="#3178FF"/>
<path d="M33.5866 83.4999C37.1743 87.2375 41.0012 90.6134 44.9477 93.8688C45.5456 94.3511 46.3827 94.4716 47.1003 93.8688C47.5786 93.3865 47.6982 92.1808 47.1003 91.6986C43.0342 88.5638 39.2074 85.0673 35.7393 81.3297C34.4238 79.8829 32.2712 82.0531 33.5866 83.4999Z" fill="#3178FF"/>
<path d="M91.1026 54.9265C92.179 57.2173 93.2553 59.5081 94.3316 61.7989C94.4512 62.1606 94.6903 62.4018 94.8099 62.7635C95.1687 63.4869 96.245 63.728 96.843 63.2458C97.5605 62.7635 97.6801 61.9195 97.3213 61.1961C96.245 58.9053 95.1687 56.6145 94.0924 54.3237C93.9728 53.962 93.7336 53.7209 93.614 53.3592C93.2553 52.6357 92.179 52.3946 91.581 52.8769C90.8635 53.3592 90.7439 54.2031 91.1026 54.9265Z" fill="#3178FF"/>
<path d="M224.091 69.273C221.579 72.5283 219.068 75.6631 216.437 78.9184C215.959 79.5213 215.839 80.4858 216.437 81.0887C217.035 81.5709 217.992 81.6915 218.59 81.0887C221.101 77.8333 223.612 74.6986 226.243 71.4432C226.722 70.8404 226.841 69.8758 226.243 69.273C225.645 68.7907 224.569 68.5496 224.091 69.273Z" fill="#3178FF"/>
<path d="M256.978 105.806C260.087 103.395 263.077 100.863 266.186 98.4516C266.665 98.0899 267.023 97.7282 267.502 97.3665C268.1 96.8842 267.98 95.7991 267.502 95.1963C266.904 94.5934 266.067 94.714 265.349 95.1963C262.24 97.6076 259.25 100.14 256.141 102.551C255.662 102.913 255.304 103.274 254.825 103.636C254.227 104.118 254.347 105.203 254.825 105.806C255.423 106.409 256.38 106.289 256.978 105.806Z" fill="#3178FF"/>
</g>
<defs>
<filter id="filter0_d_880_80880" x="0.107964" y="-5.12305" width="300.867" height="306.587" filterUnits="userSpaceOnUse" color-interpolation-filters="sRGB">
<feFlood flood-opacity="0" result="BackgroundImageFix"/>
<feColorMatrix in="SourceAlpha" type="matrix" values="0 0 0 0 0 0 0 0 0 0 0 0 0 0 0 0 0 0 127 0" result="hardAlpha"/>
<feOffset dy="8.81818"/>
<feGaussianBlur stdDeviation="16.5341"/>
<feComposite in2="hardAlpha" operator="out"/>
<feColorMatrix type="matrix" values="0 0 0 0 0.192157 0 0 0 0 0.458824 0 0 0 0 0.960784 0 0 0 0.25 0"/>
<feBlend mode="normal" in2="BackgroundImageFix" result="effect1_dropShadow_880_80880"/>
<feBlend mode="normal" in="SourceGraphic" in2="effect1_dropShadow_880_80880" result="shape"/>
</filter>
</defs>
</svg>
