<svg viewBox="0 0 40 40" fill="none" xmlns="http://www.w3.org/2000/svg">
<circle cx="20" cy="20" r="19.25" stroke="#B3B3B3" stroke-width="1.5"/>
<path d="M14.5211 26.1335L21.1393 19.6366C21.6726 19.1194 22.0928 18.6022 22.3999 18.085C22.7231 17.5517 22.8848 16.9456 22.8848 16.2669C22.8848 15.4588 22.6181 14.8204 22.0847 14.3517C21.5676 13.8669 20.9211 13.6244 20.1454 13.6244C19.3211 13.6244 18.6585 13.9073 18.1575 14.4729C17.6565 15.0224 17.3494 15.7174 17.2363 16.5578L14.3999 16.1214C14.4807 15.4103 14.6827 14.7558 15.006 14.1578C15.3292 13.5598 15.7413 13.0426 16.2423 12.6063C16.7433 12.1699 17.3252 11.8305 17.9878 11.5881C18.6666 11.3295 19.4019 11.2002 20.1938 11.2002C20.9373 11.2002 21.6484 11.3052 22.3272 11.5153C23.0221 11.7254 23.6363 12.0487 24.1696 12.485C24.7029 12.9052 25.1231 13.4305 25.4302 14.0608C25.7534 14.6749 25.9151 15.3941 25.9151 16.2184C25.9151 16.7679 25.8423 17.285 25.6969 17.7699C25.5514 18.2386 25.3494 18.683 25.0908 19.1032C24.8484 19.5234 24.5575 19.9275 24.2181 20.3153C23.8949 20.6871 23.5393 21.0507 23.1514 21.4063L18.206 26.1335H25.9393V28.8002H14.5211V26.1335Z" fill="#B3B3B3"/>
</svg>
