<svg viewBox="0 0 40 40" fill="none" xmlns="http://www.w3.org/2000/svg">
<circle cx="20" cy="20" r="20" fill="#3178FF"/>
<path d="M18.6817 18.5099H19.4387C19.8645 18.5099 20.2825 18.4783 20.6925 18.4152C21.1183 18.3364 21.5047 18.2023 21.8516 18.0131C22.1986 17.8239 22.4746 17.5715 22.6796 17.2561C22.9004 16.9249 23.0108 16.4991 23.0108 15.9787C23.0108 15.6002 22.9398 15.2611 22.7979 14.9615C22.6559 14.6618 22.4588 14.4095 22.2065 14.2045C21.9699 13.9995 21.686 13.8418 21.3549 13.7314C21.0395 13.621 20.7083 13.5658 20.3613 13.5658C19.6674 13.5658 19.0918 13.7629 18.6344 14.1572C18.1771 14.5514 17.8617 15.0719 17.6882 15.7185L15.0151 15.0325C15.157 14.4647 15.3936 13.9522 15.7248 13.4948C16.0717 13.0217 16.4817 12.6195 16.9549 12.2884C17.4438 11.9414 17.9878 11.6733 18.5871 11.4841C19.1864 11.2948 19.8172 11.2002 20.4796 11.2002C21.205 11.2002 21.8911 11.3027 22.5377 11.5077C23.2 11.697 23.7757 11.9887 24.2645 12.383C24.7692 12.7615 25.1635 13.2346 25.4473 13.8023C25.7312 14.3701 25.8731 15.0325 25.8731 15.7894C25.8731 16.6884 25.5972 17.4927 25.0452 18.2023C24.509 18.8963 23.7835 19.3536 22.8688 19.5744V19.6217C23.8939 19.8267 24.7219 20.292 25.3527 21.0174C25.9993 21.7271 26.3226 22.6023 26.3226 23.6432C26.3226 24.5106 26.1491 25.2676 25.8022 25.9142C25.471 26.5608 25.0215 27.097 24.4538 27.5228C23.9018 27.9486 23.2789 28.264 22.585 28.469C21.8911 28.6898 21.1893 28.8002 20.4796 28.8002C19.7699 28.8002 19.0997 28.7213 18.4688 28.5636C17.838 28.4217 17.2545 28.193 16.7183 27.8776C16.1979 27.5622 15.7326 27.1522 15.3226 26.6475C14.9283 26.1429 14.6208 25.5436 14.4 24.8497L17.0495 24.0217C17.2545 24.6841 17.633 25.2439 18.185 25.7013C18.7527 26.1586 19.486 26.3873 20.385 26.3873C20.7477 26.3873 21.1104 26.34 21.4731 26.2454C21.8516 26.135 22.1828 25.9694 22.4667 25.7486C22.7663 25.5278 23.0029 25.2439 23.1764 24.897C23.3656 24.55 23.4602 24.1242 23.4602 23.6196C23.4602 23.0834 23.3262 22.6339 23.0581 22.2712C22.8058 21.8927 22.4825 21.6009 22.0882 21.3959C21.6939 21.1751 21.2524 21.0174 20.7635 20.9228C20.2903 20.8282 19.833 20.7808 19.3914 20.7808H18.6817V18.5099Z" fill="white"/>
</svg>
