<svg viewBox="0 0 40 40" fill="none" xmlns="http://www.w3.org/2000/svg">
<circle cx="20" cy="20" r="19.25" stroke="#B3B3B3" stroke-width="1.5"/>
<path d="M18.6816 18.5099H19.4386C19.8644 18.5099 20.2823 18.4783 20.6924 18.4152C21.1182 18.3364 21.5046 18.2023 21.8515 18.0131C22.1985 17.8239 22.4745 17.5715 22.6795 17.2561C22.9003 16.9249 23.0107 16.4991 23.0107 15.9787C23.0107 15.6002 22.9397 15.2611 22.7978 14.9615C22.6558 14.6618 22.4587 14.4095 22.2064 14.2045C21.9698 13.9995 21.6859 13.8418 21.3547 13.7314C21.0393 13.621 20.7081 13.5658 20.3612 13.5658C19.6673 13.5658 19.0917 13.7629 18.6343 14.1572C18.177 14.5515 17.8616 15.0719 17.6881 15.7185L15.015 15.0325C15.1569 14.4647 15.3935 13.9522 15.7246 13.4948C16.0716 13.0217 16.4816 12.6195 16.9547 12.2884C17.4436 11.9414 17.9877 11.6733 18.587 11.4841C19.1863 11.2948 19.8171 11.2002 20.4795 11.2002C21.2049 11.2002 21.8909 11.3027 22.5375 11.5077C23.1999 11.697 23.7755 11.9887 24.2644 12.383C24.7691 12.7615 25.1633 13.2346 25.4472 13.8023C25.7311 14.3701 25.873 15.0325 25.873 15.7894C25.873 16.6884 25.597 17.4927 25.0451 18.2023C24.5089 18.8963 23.7834 19.3536 22.8687 19.5744V19.6217C23.8938 19.8267 24.7218 20.292 25.3526 21.0174C25.9992 21.7271 26.3225 22.6023 26.3225 23.6432C26.3225 24.5106 26.149 25.2676 25.8021 25.9142C25.4709 26.5608 25.0214 27.097 24.4537 27.5228C23.9017 27.9486 23.2788 28.264 22.5848 28.469C21.8909 28.6898 21.1891 28.8002 20.4795 28.8002C19.7698 28.8002 19.0995 28.7213 18.4687 28.5636C17.8379 28.4217 17.2544 28.193 16.7182 27.8776C16.1978 27.5622 15.7325 27.1522 15.3225 26.6475C14.9282 26.1429 14.6207 25.5436 14.3999 24.8497L17.0494 24.0217C17.2544 24.6841 17.6329 25.2439 18.1848 25.7013C18.7526 26.1586 19.4859 26.3873 20.3848 26.3873C20.7476 26.3873 21.1103 26.34 21.473 26.2454C21.8515 26.135 22.1827 25.9694 22.4666 25.7486C22.7662 25.5278 23.0028 25.2439 23.1762 24.897C23.3655 24.55 23.4601 24.1242 23.4601 23.6196C23.4601 23.0834 23.3261 22.6339 23.058 22.2712C22.8056 21.8927 22.4823 21.6009 22.0881 21.3959C21.6938 21.1751 21.2522 21.0174 20.7633 20.9228C20.2902 20.8282 19.8329 20.7808 19.3913 20.7808H18.6816V18.5099Z" fill="#B3B3B3"/>
</svg>
