<svg  viewBox="0 0 165 49" fill="none" xmlns="http://www.w3.org/2000/svg">
<path d="M143.905 0.892578H21.2733C9.62295 0.892578 0.178467 11.6377 0.178467 24.8926C0.178467 38.1474 9.62295 48.8926 21.2733 48.8926H143.905C155.555 48.8926 164.999 38.1474 164.999 24.8926C164.999 11.6377 155.555 0.892578 143.905 0.892578Z" fill="white"/>
<path d="M38.3001 24.2356C38.3089 23.4533 38.5189 22.6861 38.9103 22.0057C39.3017 21.3254 39.8618 20.7543 40.538 20.3459C40.108 19.7418 39.5423 19.244 38.8851 18.8913C38.2279 18.5386 37.4969 18.3407 36.7493 18.3129C35.1336 18.1523 33.5947 19.2538 32.7782 19.2538C31.9617 19.2538 30.6922 18.3399 29.3572 18.3664C28.4783 18.3901 27.6207 18.6387 26.8684 19.0879C26.1162 19.5371 25.4951 20.1714 25.0661 20.9287C23.2382 24.0597 24.5964 28.6998 26.382 31.2381C27.2522 32.4813 28.2892 33.8768 29.651 33.8257C30.9664 33.7757 31.4629 32.9882 33.0482 32.9882C34.6335 32.9882 35.0817 33.8257 36.4722 33.8045C37.8841 33.7757 38.7805 32.5325 39.6423 31.2898C40.2599 30.3919 40.7438 29.4111 41.0792 28.3776C40.2561 28.0311 39.5541 27.454 39.0601 26.7178C38.5662 25.9816 38.3019 25.1185 38.3001 24.2356Z" fill="#3178FF"/>
<path d="M35.6863 16.6323C36.0747 16.1847 36.3699 15.6659 36.5551 15.1057C36.7403 14.5455 36.8119 13.9547 36.7657 13.3672C35.5854 13.4799 34.4936 14.0339 33.7142 14.9156C33.3244 15.3437 33.0259 15.8448 32.8366 16.3891C32.6473 16.9334 32.571 17.5097 32.6122 18.0837C33.2031 18.091 33.7879 17.9639 34.321 17.7122C34.8541 17.4604 35.3213 17.0909 35.6863 16.6323Z" fill="#3178FF"/>
<path d="M66.3921 25.1227L64.4053 20.5821L62.435 25.1227H66.3921ZM63.5023 18.1983H65.3741L70.4313 29.6308H68.2968L67.131 26.8903H61.6961L60.5139 29.6308H58.4451L63.5023 18.1983Z" fill="#3178FF"/>
<path d="M76.1459 28.1065C76.4852 28.1065 76.8027 28.0416 77.0982 27.9119C77.4047 27.7822 77.6674 27.6038 77.8864 27.3768C78.1162 27.1389 78.2969 26.8524 78.4282 26.5173C78.5596 26.1713 78.6252 25.7876 78.6252 25.3659V25.3335C78.6252 24.9227 78.5596 24.5497 78.4282 24.2146C78.2969 23.8686 78.1162 23.5767 77.8864 23.3389C77.6674 23.101 77.4047 22.9172 77.0982 22.7875C76.8027 22.6578 76.4852 22.5929 76.1459 22.5929C75.8066 22.5929 75.4837 22.6578 75.1772 22.7875C74.8707 22.9172 74.6025 23.1064 74.3726 23.3551C74.1427 23.5929 73.9566 23.8794 73.8143 24.2146C73.683 24.5497 73.6173 24.9227 73.6173 25.3335V25.3659C73.6173 25.7767 73.683 26.1551 73.8143 26.5011C73.9566 26.8362 74.1427 27.1227 74.3726 27.3605C74.6025 27.5984 74.8707 27.7822 75.1772 27.9119C75.4837 28.0416 75.8066 28.1065 76.1459 28.1065ZM71.6798 21.0686H73.6666V22.4956C73.984 22.0416 74.3781 21.6632 74.8488 21.3605C75.3195 21.047 75.9051 20.8902 76.6056 20.8902C77.1201 20.8902 77.6182 20.9875 78.0998 21.1821C78.5815 21.3767 79.0084 21.6632 79.3805 22.0416C79.7637 22.4199 80.0702 22.8848 80.3 23.4362C80.5299 23.9875 80.6448 24.62 80.6448 25.3335V25.3659C80.6448 26.0794 80.5299 26.7119 80.3 27.2632C80.0811 27.8146 79.7801 28.2795 79.397 28.6579C79.0248 29.0362 78.5924 29.3227 78.0998 29.5173C77.6182 29.7119 77.1201 29.8092 76.6056 29.8092C75.8941 29.8092 75.303 29.6579 74.8323 29.3552C74.3617 29.0525 73.9731 28.7011 73.6666 28.3011V32.2255H71.6798V21.0686Z" fill="#3178FF"/>
<path d="M86.6531 28.1065C86.9924 28.1065 87.3099 28.0416 87.6054 27.9119C87.9119 27.7822 88.1746 27.6038 88.3935 27.3768C88.6234 27.1389 88.804 26.8524 88.9354 26.5173C89.0667 26.1713 89.1324 25.7876 89.1324 25.3659V25.3335C89.1324 24.9227 89.0667 24.5497 88.9354 24.2146C88.804 23.8686 88.6234 23.5767 88.3935 23.3389C88.1746 23.101 87.9119 22.9172 87.6054 22.7875C87.3099 22.6578 86.9924 22.5929 86.6531 22.5929C86.3137 22.5929 85.9908 22.6578 85.6843 22.7875C85.3778 22.9172 85.1097 23.1064 84.8798 23.3551C84.6499 23.5929 84.4638 23.8794 84.3215 24.2146C84.1902 24.5497 84.1245 24.9227 84.1245 25.3335V25.3659C84.1245 25.7767 84.1902 26.1551 84.3215 26.5011C84.4638 26.8362 84.6499 27.1227 84.8798 27.3605C85.1097 27.5984 85.3778 27.7822 85.6843 27.9119C85.9908 28.0416 86.3137 28.1065 86.6531 28.1065ZM82.187 21.0686H84.1737V22.4956C84.4912 22.0416 84.8853 21.6632 85.3559 21.3605C85.8266 21.047 86.4123 20.8902 87.1128 20.8902C87.6273 20.8902 88.1254 20.9875 88.607 21.1821C89.0886 21.3767 89.5155 21.6632 89.8877 22.0416C90.2708 22.4199 90.5773 22.8848 90.8072 23.4362C91.0371 23.9875 91.152 24.62 91.152 25.3335V25.3659C91.152 26.0794 91.0371 26.7119 90.8072 27.2632C90.5883 27.8146 90.2873 28.2795 89.9041 28.6579C89.532 29.0362 89.0996 29.3227 88.607 29.5173C88.1254 29.7119 87.6273 29.8092 87.1128 29.8092C86.4013 29.8092 85.8102 29.6579 85.3395 29.3552C84.8688 29.0525 84.4802 28.7011 84.1737 28.3011V32.2255H82.187V21.0686Z" fill="#3178FF"/>
<path d="M101.377 29.793C100.49 29.793 99.6419 29.6471 98.8318 29.3552C98.0218 29.0525 97.272 28.593 96.5824 27.9768L97.7974 26.5497C98.3557 27.0254 98.9194 27.393 99.4886 27.6524C100.058 27.9011 100.704 28.0254 101.426 28.0254C102.05 28.0254 102.543 27.8957 102.904 27.6362C103.276 27.3768 103.462 27.0308 103.462 26.5984V26.5659C103.462 26.3605 103.424 26.1822 103.347 26.0308C103.282 25.8686 103.15 25.7173 102.953 25.5767C102.767 25.4362 102.504 25.3065 102.165 25.1875C101.837 25.0686 101.404 24.9497 100.868 24.8308C100.255 24.6902 99.7076 24.5335 99.2259 24.3605C98.7552 24.1767 98.3557 23.9605 98.0273 23.7119C97.7099 23.4524 97.4636 23.1389 97.2884 22.7713C97.1242 22.4037 97.0421 21.9605 97.0421 21.4416V21.4091C97.0421 20.9226 97.1406 20.4794 97.3377 20.0794C97.5347 19.6686 97.8029 19.3226 98.1422 19.0415C98.4925 18.7496 98.9085 18.5226 99.3901 18.3604C99.8717 18.1983 100.397 18.1172 100.966 18.1172C101.809 18.1172 102.565 18.2415 103.232 18.4902C103.911 18.728 104.546 19.0794 105.137 19.5442L104.053 21.0524C103.528 20.674 103.008 20.3875 102.493 20.1929C101.979 19.9875 101.459 19.8848 100.934 19.8848C100.342 19.8848 99.8827 20.0145 99.5543 20.274C99.2259 20.5334 99.0617 20.8524 99.0617 21.2307V21.2632C99.0617 21.4794 99.1 21.674 99.1767 21.847C99.2533 22.0091 99.3901 22.1605 99.5871 22.301C99.7951 22.4308 100.074 22.5551 100.425 22.674C100.786 22.7929 101.24 22.9172 101.787 23.047C102.389 23.1983 102.92 23.3659 103.38 23.5497C103.851 23.7335 104.239 23.9605 104.546 24.2308C104.852 24.4902 105.082 24.7984 105.235 25.1551C105.4 25.5011 105.482 25.9065 105.482 26.3713V26.4038C105.482 26.9335 105.378 27.4092 105.17 27.8308C104.973 28.2524 104.694 28.6092 104.332 28.9011C103.971 29.193 103.539 29.4146 103.035 29.566C102.532 29.7173 101.979 29.793 101.377 29.793Z" fill="#3178FF"/>
<path d="M110.041 29.7768C109.679 29.7768 109.345 29.7335 109.039 29.6471C108.732 29.5606 108.464 29.42 108.234 29.2254C108.016 29.0308 107.846 28.7768 107.725 28.4633C107.605 28.1389 107.545 27.7389 107.545 27.2632V22.7551H106.445V21.0686H107.545V18.7172H109.532V21.0686H111.863V22.7551H109.532V26.9551C109.532 27.3335 109.625 27.6092 109.811 27.7822C109.997 27.9443 110.26 28.0254 110.599 28.0254C111.026 28.0254 111.436 27.9281 111.83 27.7335V29.3389C111.579 29.4795 111.31 29.5876 111.026 29.6633C110.741 29.739 110.413 29.7768 110.041 29.7768Z" fill="#3178FF"/>
<path d="M117.53 28.1227C117.935 28.1227 118.297 28.0524 118.614 27.9119C118.942 27.7605 119.222 27.5605 119.451 27.3119C119.681 27.0632 119.857 26.7768 119.977 26.4524C120.097 26.1173 120.158 25.7659 120.158 25.3984V25.3659C120.158 24.9875 120.092 24.6308 119.961 24.2956C119.829 23.9605 119.643 23.6686 119.402 23.42C119.172 23.1713 118.893 22.9767 118.565 22.8362C118.247 22.6848 117.892 22.6091 117.498 22.6091C117.104 22.6091 116.742 22.6848 116.414 22.8362C116.096 22.9767 115.823 23.1713 115.593 23.42C115.363 23.6578 115.188 23.9443 115.068 24.2794C114.947 24.6146 114.887 24.9659 114.887 25.3335V25.3659C114.887 25.7443 114.953 26.1011 115.084 26.4362C115.215 26.7605 115.396 27.0524 115.626 27.3119C115.867 27.5605 116.146 27.7605 116.463 27.9119C116.792 28.0524 117.147 28.1227 117.53 28.1227ZM117.498 29.8254C116.841 29.8254 116.228 29.7119 115.659 29.4849C115.1 29.2471 114.613 28.9281 114.197 28.5281C113.792 28.1281 113.475 27.6578 113.245 27.1173C113.015 26.5768 112.9 26.0038 112.9 25.3984V25.3659C112.9 24.7497 113.015 24.1713 113.245 23.6308C113.486 23.0902 113.809 22.6199 114.214 22.2199C114.63 21.8091 115.117 21.4848 115.675 21.247C116.244 21.0091 116.863 20.8902 117.53 20.8902C118.198 20.8902 118.811 21.0091 119.369 21.247C119.939 21.474 120.426 21.7929 120.831 22.2037C121.247 22.6037 121.57 23.074 121.799 23.6146C122.029 24.1443 122.144 24.7173 122.144 25.3335V25.3659C122.144 25.9713 122.024 26.5443 121.783 27.0849C121.553 27.6254 121.23 28.1011 120.814 28.5119C120.409 28.9119 119.922 29.2308 119.353 29.4687C118.784 29.7065 118.165 29.8254 117.498 29.8254Z" fill="#3178FF"/>
<path d="M123.675 21.0686H125.662V22.9983C125.935 22.3497 126.324 21.8307 126.828 21.4416C127.331 21.0524 127.966 20.874 128.732 20.9064V22.9821H128.617C128.179 22.9821 127.78 23.0524 127.419 23.1929C127.057 23.3335 126.745 23.5443 126.483 23.8254C126.22 24.1065 126.018 24.4632 125.875 24.8956C125.733 25.3173 125.662 25.8092 125.662 26.3713V29.6308H123.675V21.0686Z" fill="#3178FF"/>
<path d="M135.909 24.7497C135.876 24.4362 135.805 24.1443 135.695 23.874C135.586 23.5929 135.438 23.3551 135.252 23.1605C135.066 22.9551 134.842 22.7929 134.579 22.674C134.327 22.5551 134.037 22.4956 133.709 22.4956C133.096 22.4956 132.587 22.7064 132.182 23.1281C131.788 23.5389 131.547 24.0794 131.459 24.7497H135.909ZM133.939 29.8254C133.315 29.8254 132.729 29.7173 132.182 29.5011C131.645 29.2849 131.175 28.9822 130.77 28.593C130.376 28.2038 130.064 27.7389 129.834 27.1984C129.604 26.647 129.489 26.0416 129.489 25.3821V25.3497C129.489 24.7335 129.593 24.1551 129.801 23.6146C130.009 23.074 130.299 22.6037 130.671 22.2037C131.054 21.7929 131.503 21.474 132.018 21.247C132.532 21.0091 133.101 20.8902 133.725 20.8902C134.415 20.8902 135.017 21.0145 135.531 21.2632C136.057 21.5118 136.489 21.847 136.828 22.2686C137.179 22.6902 137.441 23.1821 137.617 23.7443C137.792 24.2956 137.879 24.8794 137.879 25.4957C137.879 25.5821 137.874 25.674 137.863 25.7713C137.863 25.8578 137.857 25.9497 137.846 26.047H131.476C131.585 26.7497 131.864 27.2903 132.313 27.6687C132.773 28.0362 133.326 28.22 133.971 28.22C134.464 28.22 134.891 28.1335 135.252 27.9606C135.613 27.7876 135.969 27.5335 136.319 27.1984L137.485 28.22C137.069 28.7065 136.571 29.0957 135.991 29.3876C135.422 29.6795 134.738 29.8254 133.939 29.8254Z" fill="#3178FF"/>
</svg>
