<svg viewBox="0 0 165 49" fill="none" xmlns="http://www.w3.org/2000/svg">
<path d="M143.726 0.892578H21.0946C9.44424 0.892578 -0.000244141 11.6377 -0.000244141 24.8926C-0.000244141 38.1474 9.44424 48.8926 21.0946 48.8926H143.726C155.376 48.8926 164.821 38.1474 164.821 24.8926C164.821 11.6377 155.376 0.892578 143.726 0.892578Z" fill="white"/>
<path d="M58.5225 29.8255C57.6249 29.8255 56.8094 29.6796 56.076 29.3877C55.3426 29.085 54.7132 28.6742 54.1878 28.1553C53.6733 27.6255 53.2738 27.0093 52.9892 26.3066C52.7046 25.5931 52.5623 24.8201 52.5623 23.9876V23.9552C52.5623 23.166 52.7046 22.4146 52.9892 21.7011C53.2847 20.9876 53.6952 20.366 54.2206 19.8362C54.746 19.2957 55.37 18.8687 56.0924 18.5551C56.8258 18.2416 57.6249 18.0849 58.4897 18.0849C58.9932 18.0849 59.4475 18.1227 59.8525 18.1984C60.2685 18.2632 60.6516 18.3605 61.0019 18.4903C61.3521 18.62 61.6805 18.7822 61.987 18.9768C62.3045 19.1606 62.611 19.3768 62.9065 19.6254L61.6258 21.1335C61.4069 20.9498 61.1825 20.7822 60.9526 20.6308C60.7227 20.4795 60.4819 20.3552 60.2302 20.2579C59.9784 20.1498 59.6993 20.0687 59.3928 20.0146C59.0972 19.9498 58.7688 19.9173 58.4076 19.9173C57.8822 19.9173 57.3896 20.0254 56.9298 20.2416C56.481 20.4579 56.087 20.7498 55.7476 21.1173C55.4192 21.4741 55.1565 21.8957 54.9595 22.3822C54.7734 22.8687 54.6804 23.3822 54.6804 23.9228V23.9552C54.6804 24.539 54.7734 25.0795 54.9595 25.5768C55.1456 26.0742 55.4083 26.5012 55.7476 26.8579C56.0979 27.2147 56.5084 27.4958 56.9791 27.7012C57.4607 27.9066 57.9971 28.0093 58.5882 28.0093C59.1355 28.0093 59.6445 27.9336 60.1152 27.7823C60.5969 27.6201 61.0128 27.4093 61.3631 27.1498V25.0255H58.424V23.2903H63.317V28.058C63.0324 28.2958 62.715 28.5228 62.3647 28.739C62.0253 28.9553 61.6532 29.1445 61.2482 29.3066C60.8541 29.4688 60.4272 29.5931 59.9674 29.6796C59.5077 29.7769 59.0261 29.8255 58.5225 29.8255Z" fill="#3178FF"/>
<path d="M69.3787 28.1228C69.7838 28.1228 70.145 28.0526 70.4624 27.912C70.7908 27.7607 71.07 27.5607 71.2998 27.312C71.5297 27.0634 71.7048 26.7769 71.8252 26.4525C71.9457 26.1174 72.0059 25.766 72.0059 25.3985V25.366C72.0059 24.9877 71.9402 24.6309 71.8088 24.2958C71.6775 23.9606 71.4914 23.6687 71.2506 23.4201C71.0207 23.1714 70.7416 22.9768 70.4132 22.8363C70.0957 22.6849 69.74 22.6092 69.3459 22.6092C68.9518 22.6092 68.5906 22.6849 68.2622 22.8363C67.9448 22.9768 67.6711 23.1714 67.4412 23.4201C67.2114 23.6579 67.0362 23.9444 66.9158 24.2795C66.7954 24.6147 66.7352 24.966 66.7352 25.3336V25.366C66.7352 25.7444 66.8009 26.1012 66.9322 26.4363C67.0636 26.7606 67.2442 27.0525 67.4741 27.312C67.7149 27.5607 67.994 27.7607 68.3115 27.912C68.6399 28.0526 68.9956 28.1228 69.3787 28.1228ZM69.3459 29.8255C68.6891 29.8255 68.0761 29.712 67.5069 29.485C66.9487 29.2472 66.4616 28.9282 66.0456 28.5282C65.6406 28.1282 65.3231 27.658 65.0933 27.1174C64.8634 26.5769 64.7485 26.0039 64.7485 25.3985V25.366C64.7485 24.7498 64.8634 24.1714 65.0933 23.6309C65.3341 23.0903 65.657 22.6201 66.062 22.22C66.478 21.8092 66.9651 21.4849 67.5233 21.2471C68.0926 21.0092 68.711 20.8903 69.3787 20.8903C70.0465 20.8903 70.6595 21.0092 71.2177 21.2471C71.7869 21.4741 72.274 21.793 72.6791 22.2038C73.095 22.6038 73.4179 23.0741 73.6478 23.6147C73.8777 24.1444 73.9926 24.7174 73.9926 25.3336V25.366C73.9926 25.9714 73.8722 26.5444 73.6314 27.085C73.4015 27.6255 73.0786 28.1012 72.6626 28.512C72.2576 28.912 71.7705 29.2309 71.2013 29.4688C70.6321 29.7066 70.0136 29.8255 69.3459 29.8255Z" fill="#3178FF"/>
<path d="M79.6775 28.1228C80.0825 28.1228 80.4437 28.0526 80.7612 27.912C81.0896 27.7607 81.3687 27.5607 81.5986 27.312C81.8284 27.0634 82.0036 26.7769 82.124 26.4525C82.2444 26.1174 82.3046 25.766 82.3046 25.3985V25.366C82.3046 24.9877 82.2389 24.6309 82.1076 24.2958C81.9762 23.9606 81.7901 23.6687 81.5493 23.4201C81.3194 23.1714 81.0403 22.9768 80.7119 22.8363C80.3945 22.6849 80.0387 22.6092 79.6446 22.6092C79.2506 22.6092 78.8893 22.6849 78.561 22.8363C78.2435 22.9768 77.9699 23.1714 77.74 23.4201C77.5101 23.6579 77.335 23.9444 77.2146 24.2795C77.0941 24.6147 77.0339 24.966 77.0339 25.3336V25.366C77.0339 25.7444 77.0996 26.1012 77.231 26.4363C77.3623 26.7606 77.5429 27.0525 77.7728 27.312C78.0136 27.5607 78.2928 27.7607 78.6102 27.912C78.9386 28.0526 79.2944 28.1228 79.6775 28.1228ZM79.6446 29.8255C78.9879 29.8255 78.3749 29.712 77.8057 29.485C77.2474 29.2472 76.7603 28.9282 76.3443 28.5282C75.9393 28.1282 75.6219 27.658 75.392 27.1174C75.1621 26.5769 75.0472 26.0039 75.0472 25.3985V25.366C75.0472 24.7498 75.1621 24.1714 75.392 23.6309C75.6328 23.0903 75.9557 22.6201 76.3607 22.22C76.7767 21.8092 77.2638 21.4849 77.8221 21.2471C78.3913 21.0092 79.0098 20.8903 79.6775 20.8903C80.3452 20.8903 80.9582 21.0092 81.5165 21.2471C82.0857 21.4741 82.5728 21.793 82.9778 22.2038C83.3938 22.6038 83.7167 23.0741 83.9465 23.6147C84.1764 24.1444 84.2914 24.7174 84.2914 25.3336V25.366C84.2914 25.9714 84.1709 26.5444 83.9301 27.085C83.7003 27.6255 83.3773 28.1012 82.9614 28.512C82.5564 28.912 82.0692 29.2309 81.5 29.4688C80.9308 29.7066 80.3124 29.8255 79.6446 29.8255Z" fill="#3178FF"/>
<path d="M89.8448 27.2958C90.1842 27.2958 90.5071 27.2417 90.8136 27.1336C91.131 27.0147 91.4047 26.8525 91.6346 26.6471C91.8644 26.4309 92.0451 26.1823 92.1764 25.9012C92.3187 25.6093 92.3899 25.2904 92.3899 24.9444V24.912C92.3899 24.5552 92.3187 24.2363 92.1764 23.9552C92.0451 23.6633 91.8644 23.4147 91.6346 23.2093C91.4047 22.993 91.131 22.8309 90.8136 22.7228C90.5071 22.6038 90.1842 22.5444 89.8448 22.5444C89.4946 22.5444 89.1716 22.6038 88.8761 22.7228C88.5805 22.8309 88.3178 22.9876 88.088 23.193C87.869 23.3984 87.6939 23.6471 87.5625 23.939C87.4421 24.2201 87.3819 24.539 87.3819 24.8958V24.9282C87.3819 25.285 87.4476 25.6093 87.579 25.9012C87.7103 26.1823 87.8855 26.4309 88.1044 26.6471C88.3233 26.8525 88.5805 27.0147 88.8761 27.1336C89.1826 27.2417 89.5055 27.2958 89.8448 27.2958ZM89.6807 32.258C88.2357 32.258 86.9441 31.9175 85.8057 31.2364L86.5445 29.7607C87.0043 30.0418 87.4859 30.2634 87.9894 30.4256C88.493 30.5877 89.0403 30.6688 89.6314 30.6688C90.518 30.6688 91.1967 30.4472 91.6674 30.0039C92.1381 29.5607 92.3734 28.9066 92.3734 28.0417V27.3769C92.0122 27.8417 91.5908 28.2201 91.1091 28.512C90.6275 28.8039 90.0309 28.9499 89.3194 28.9499C88.8049 28.9499 88.3124 28.858 87.8417 28.6742C87.371 28.4904 86.9495 28.2309 86.5774 27.8958C86.2161 27.5498 85.9261 27.1282 85.7071 26.6309C85.4882 26.1336 85.3788 25.5714 85.3788 24.9444V24.912C85.3788 24.2849 85.4882 23.7228 85.7071 23.2255C85.9261 22.7174 86.2161 22.2957 86.5774 21.9606C86.9495 21.6146 87.371 21.3498 87.8417 21.166C88.3233 20.9822 88.8159 20.8903 89.3194 20.8903C90.0528 20.8903 90.6549 21.0363 91.1256 21.3281C91.6072 21.6092 92.0177 21.9498 92.357 22.3498V21.0687H94.3438V27.8796C94.3438 29.3066 93.9771 30.3823 93.2437 31.1066C92.8496 31.4958 92.3516 31.7823 91.7495 31.9661C91.1584 32.1607 90.4688 32.258 89.6807 32.258Z" fill="#3178FF"/>
<path d="M96.4442 17.793H98.431V29.6309H96.4442V17.793Z" fill="#3178FF"/>
<path d="M106.479 24.7498C106.446 24.4363 106.375 24.1444 106.265 23.8741C106.156 23.593 106.008 23.3552 105.822 23.1606C105.636 22.9552 105.411 22.793 105.149 22.6741C104.897 22.5552 104.607 22.4957 104.278 22.4957C103.665 22.4957 103.156 22.7065 102.751 23.1282C102.357 23.539 102.117 24.0795 102.029 24.7498H106.479ZM104.508 29.8255C103.884 29.8255 103.299 29.7174 102.751 29.5012C102.215 29.285 101.744 28.9823 101.339 28.5931C100.945 28.2039 100.633 27.739 100.403 27.1985C100.174 26.6471 100.059 26.0417 100.059 25.3822V25.3498C100.059 24.7336 100.163 24.1552 100.371 23.6147C100.579 23.0741 100.869 22.6038 101.241 22.2038C101.624 21.793 102.073 21.4741 102.587 21.2471C103.102 21.0092 103.671 20.8903 104.295 20.8903C104.985 20.8903 105.587 21.0146 106.101 21.2633C106.626 21.5119 107.059 21.8471 107.398 22.2687C107.748 22.6903 108.011 23.1822 108.186 23.7444C108.361 24.2958 108.449 24.8795 108.449 25.4958C108.449 25.5823 108.444 25.6741 108.433 25.7714C108.433 25.8579 108.427 25.9498 108.416 26.0471H102.045C102.155 26.7498 102.434 27.2904 102.883 27.6688C103.343 28.0363 103.895 28.2201 104.541 28.2201C105.034 28.2201 105.461 28.1336 105.822 27.9607C106.183 27.7877 106.539 27.5336 106.889 27.1985L108.055 28.2201C107.639 28.7066 107.141 29.0958 106.561 29.3877C105.992 29.6796 105.307 29.8255 104.508 29.8255Z" fill="#3178FF"/>
<path d="M118.979 24.1822C119.745 24.1822 120.347 23.993 120.785 23.6147C121.234 23.2363 121.459 22.7498 121.459 22.1552V22.1228C121.459 21.4525 121.234 20.9498 120.785 20.6146C120.337 20.2687 119.734 20.0957 118.979 20.0957H116.631V24.1822H118.979ZM114.612 18.2795H119.143C119.811 18.2795 120.413 18.3714 120.949 18.5551C121.497 18.7281 121.957 18.9822 122.329 19.3173C122.712 19.6525 123.002 20.0525 123.199 20.5173C123.407 20.9822 123.511 21.5011 123.511 22.0741V22.1065C123.511 22.7444 123.391 23.3065 123.15 23.793C122.909 24.2687 122.58 24.6687 122.165 24.9931C121.749 25.3174 121.261 25.566 120.703 25.739C120.145 25.9012 119.548 25.9823 118.913 25.9823H116.631V29.6309H114.612V18.2795Z" fill="#3178FF"/>
<path d="M124.972 17.793H126.959V29.6309H124.972V17.793Z" fill="#3178FF"/>
<path d="M134.415 26.0471C134.163 25.9498 133.862 25.8687 133.512 25.8039C133.173 25.739 132.811 25.7066 132.428 25.7066C131.804 25.7066 131.317 25.8255 130.967 26.0633C130.617 26.3012 130.442 26.6255 130.442 27.0363V27.0688C130.442 27.4796 130.6 27.7931 130.918 28.0093C131.246 28.2255 131.646 28.3336 132.116 28.3336C132.445 28.3336 132.746 28.2904 133.019 28.2039C133.304 28.1174 133.55 27.9985 133.758 27.8471C133.966 27.685 134.125 27.4958 134.235 27.2796C134.355 27.0525 134.415 26.8039 134.415 26.5336V26.0471ZM134.366 29.6309V28.5769C134.07 28.9228 133.693 29.2147 133.233 29.4526C132.773 29.6904 132.215 29.8093 131.558 29.8093C131.142 29.8093 130.748 29.7499 130.376 29.6309C130.004 29.5228 129.675 29.3607 129.391 29.1445C129.117 28.9174 128.893 28.6417 128.718 28.3174C128.553 27.9823 128.471 27.5985 128.471 27.1661V27.1336C128.471 26.6579 128.559 26.2471 128.734 25.9012C128.909 25.5444 129.15 25.2525 129.456 25.0255C129.774 24.7876 130.146 24.6147 130.573 24.5066C131.011 24.3876 131.482 24.3282 131.985 24.3282C132.51 24.3282 132.954 24.3606 133.315 24.4255C133.687 24.4903 134.043 24.5768 134.382 24.6849V24.5228C134.382 23.9282 134.196 23.4741 133.824 23.1606C133.463 22.8471 132.937 22.6903 132.248 22.6903C131.755 22.6903 131.317 22.739 130.934 22.8363C130.551 22.9336 130.162 23.0633 129.768 23.2255L129.227 21.6525C129.708 21.4363 130.201 21.2633 130.704 21.1335C131.208 21.0038 131.815 20.939 132.527 20.939C133.819 20.939 134.776 21.2579 135.4 21.8957C136.024 22.5228 136.336 23.4093 136.336 24.5552V29.6309H134.366Z" fill="#3178FF"/>
<path d="M139.98 32.2742C139.564 32.2742 139.192 32.2256 138.863 32.1283C138.546 32.0418 138.234 31.9175 137.927 31.7553L138.601 30.2958C138.787 30.3931 138.973 30.4688 139.159 30.5229C139.356 30.5877 139.558 30.6202 139.766 30.6202C140.051 30.6202 140.286 30.5499 140.472 30.4093C140.659 30.2688 140.834 30.0093 140.998 29.6309L137.386 21.0687H139.504L141.967 27.4255L144.216 21.0687H146.285L142.837 29.8742C142.662 30.3174 142.481 30.6904 142.295 30.9931C142.109 31.2958 141.901 31.5391 141.671 31.7229C141.441 31.9175 141.189 32.058 140.916 32.1445C140.642 32.231 140.33 32.2742 139.98 32.2742Z" fill="#3178FF"/>
<path d="M26.3684 26.4295C26.5558 26.4295 26.7391 26.3754 26.895 26.274C27.0508 26.1727 27.1723 26.0287 27.244 25.8601C27.3158 25.6916 27.3345 25.5062 27.298 25.3273C27.2614 25.1484 27.1711 24.9841 27.0386 24.8551C26.906 24.7261 26.7371 24.6383 26.5533 24.6027C26.3694 24.5671 26.1789 24.5854 26.0057 24.6552C25.8325 24.725 25.6845 24.8432 25.5803 24.9949C25.4762 25.1465 25.4206 25.3248 25.4206 25.5072C25.4208 25.7517 25.5207 25.9862 25.6984 26.1591C25.8761 26.332 26.1171 26.4292 26.3684 26.4295ZM36.841 26.4295C37.0285 26.4296 37.2118 26.3757 37.3678 26.2744C37.5238 26.1732 37.6454 26.0292 37.7173 25.8607C37.7891 25.6922 37.808 25.5068 37.7716 25.3278C37.7351 25.1489 37.6449 24.9845 37.5124 24.8554C37.3798 24.7263 37.211 24.6384 37.0271 24.6028C36.8432 24.5671 36.6526 24.5853 36.4794 24.6551C36.3061 24.7249 36.158 24.8431 36.0538 24.9948C35.9497 25.1464 35.8941 25.3248 35.8941 25.5072C35.8943 25.7516 35.9941 25.9859 36.1716 26.1588C36.3491 26.3317 36.5898 26.429 36.841 26.4295ZM26.0285 20.8767L24.1363 17.6847C24.0896 17.597 24.0793 17.4951 24.1078 17.4003C24.1362 17.3054 24.2011 17.2249 24.289 17.1755C24.3769 17.126 24.4811 17.1114 24.5797 17.1348C24.6784 17.1581 24.764 17.2176 24.8188 17.3008L26.7378 20.5324C28.2697 19.8644 29.9294 19.519 31.6082 19.519C33.2869 19.519 34.9466 19.8644 36.4785 20.5324L38.3958 17.3008C38.4204 17.2547 38.4543 17.214 38.4955 17.1811C38.5367 17.1481 38.5843 17.1236 38.6355 17.1091C38.6867 17.0946 38.7403 17.0903 38.7933 17.0965C38.8462 17.1027 38.8973 17.1193 38.9435 17.1453C38.9896 17.1713 39.0299 17.2061 39.0618 17.2476C39.0938 17.2891 39.1168 17.3365 39.1294 17.387C39.142 17.4374 39.1439 17.4898 39.1351 17.5409C39.1264 17.5921 39.107 17.641 39.0783 17.6847L37.1809 20.8767C38.8169 21.7431 40.2045 22.9936 41.2176 24.5144C42.2307 26.0352 42.8373 27.7782 42.9822 29.5851H20.2272C20.5533 25.8008 22.7766 22.5971 26.0285 20.8767Z" fill="#3178FF"/>
</svg>
