<svg width="94" height="25" viewBox="0 0 94 25" fill="none" xmlns="http://www.w3.org/2000/svg">
<path d="M66.7933 2.61816H61.1567V22.3214H75.844V17.9628H66.7933V2.61816Z" fill="white"/>
<path d="M8.39857 9.51433C7.72218 9.2755 6.53045 8.73814 6.65929 7.9321C6.94917 5.78265 11.8771 7.12605 13.4876 8.17092L16.2898 4.88705C14.5827 3.39438 12.4247 2.55849 10.2989 2.31966V0.46875H7.30347V2.37937C3.43839 2.94658 0.926091 5.42441 0.926091 8.3799C0.926091 12.4997 5.40314 14.0222 8.72066 15.2163C9.30042 15.4253 9.97681 15.6343 10.4922 15.9627C11.3618 16.5299 11.3296 17.6046 10.2667 17.8733C8.17311 18.3808 5.17767 17.5747 3.37397 16.291L0.153076 19.8734C0.9583 20.5004 1.86015 21.0377 2.82642 21.4855C4.2114 22.1125 5.75743 22.5304 7.33567 22.6797V24.5007H10.3311V22.62C11.555 22.4408 12.7468 22.0527 13.8097 21.4557C16.3864 19.9929 17.707 16.709 16.3864 14.0819C15.0014 11.2458 11.233 10.5293 8.39857 9.51433Z" fill="#8FC9FF"/>
<path d="M25.6304 2.61816L19.2208 22.3214H24.9862L26.1135 18.8883H32.0078L33.1351 22.3214H38.9005L32.4909 2.61816H25.6304ZM27.5307 14.47L29.0446 9.87254L30.5584 14.47H27.5307Z" fill="white"/>
<path d="M48.3699 15.0969L44.3115 2.61816H38.5461L44.9557 22.3214H51.7518L58.1614 2.61816H52.396L48.3699 15.0969Z" fill="white"/>
<path d="M84.4762 17.9628V14.4401H92.0131V10.0815H84.4762V6.97676H93.3014V2.61816H78.8396V22.3214H93.4625V17.9628H84.4762Z" fill="white"/>
</svg>
