<svg width="48" height="13" viewBox="0 0 48 13" fill="none"
  xmlns="http://www.w3.org/2000/svg">
  <path d="M34.1152 1.45605H31.2625V11.4929H38.696V9.27261H34.1152V1.45605Z" fill="current"/>
  <path d="M4.56042 4.9689C4.21809 4.84724 3.61493 4.57351 3.68014 4.16291C3.82685 3.06798 6.321 3.75231 7.13608 4.28457L8.55432 2.61176C7.69033 1.8514 6.59813 1.4256 5.52222 1.30394V0.361084H4.00617V1.33435C2.04997 1.62329 0.778446 2.8855 0.778446 4.39102C0.778446 6.48963 3.04437 7.2652 4.72344 7.87349C5.01687 7.97994 5.3592 8.08639 5.62003 8.25367C6.06017 8.54261 6.04387 9.09007 5.50592 9.22694C4.44631 9.48546 2.93026 9.07487 2.01737 8.42095L0.387207 10.2458C0.794748 10.5652 1.25119 10.8389 1.74024 11.067C2.44121 11.3864 3.22369 11.5993 4.02247 11.6753V12.603H5.53852V11.6449C6.15798 11.5537 6.76114 11.356 7.2991 11.0518C8.60323 10.3067 9.27159 8.63386 8.60323 7.29561C7.90226 5.85092 5.99497 5.48594 4.56042 4.9689Z" fill="current"/>
  <path d="M13.2819 1.45605L10.0378 11.4929H12.9558L13.5264 9.74404H16.5096L17.0801 11.4929H19.9981L16.7541 1.45605H13.2819ZM14.2437 7.49335L15.0098 5.15143L15.776 7.49335H14.2437Z" fill="current"/>
  <path d="M24.7908 7.81271L22.7368 1.45605H19.8188L23.0629 11.4929H26.5025L29.7465 1.45605H26.8285L24.7908 7.81271Z" fill="current"/>
  <path d="M43.0649 9.27261V7.47815H46.8795V5.25788H43.0649V3.67632H47.5316V1.45605H40.2122V11.4929H47.6131V9.27261H43.0649Z" fill="current"/>
</svg>
