<svg width="279" height="305" viewBox="0 0 279 305" fill="none" xmlns="http://www.w3.org/2000/svg">
<rect width="279" height="304" rx="10" fill="#F7F8FA"/>
<path d="M278.882 251.371H0.123717C0.107755 251.372 0.0917968 251.369 0.0768145 251.364C0.0618322 251.358 0.0481418 251.349 0.036569 251.338C0.0249961 251.327 0.0157837 251.314 0.00949739 251.299C0.00321112 251.284 -1.98979e-05 251.268 9.21935e-08 251.252C9.21935e-08 251.219 0.0130349 251.188 0.0362364 251.164C0.0594378 251.141 0.0909049 251.128 0.123717 251.128H278.882C278.898 251.128 278.914 251.131 278.929 251.138C278.943 251.144 278.956 251.153 278.967 251.165C278.979 251.176 278.987 251.19 278.993 251.205C278.998 251.22 279.001 251.236 279 251.252C279 251.284 278.987 251.314 278.965 251.336C278.943 251.358 278.913 251.371 278.882 251.371Z" fill="#0F2032"/>
<path d="M249.89 130.654L251.299 127.649L253.591 128.243L252.258 131.265L249.89 130.654Z" fill="#FBA2B7"/>
<path d="M223.278 153L224.376 155.627L244.791 161.399L245.55 159.191L229.651 154.311L223.278 153Z" fill="white"/>
<path d="M255.246 131.464C255.145 131.406 255.04 131.354 254.932 131.309C252.072 130.06 237.531 126.468 235.305 125.89C235.121 125.842 234.926 125.861 234.753 125.943C234.581 126.024 234.442 126.164 234.362 126.338L222.874 152.557C222.855 152.603 222.846 152.652 222.847 152.701C222.849 152.75 222.86 152.799 222.881 152.843C222.902 152.887 222.932 152.927 222.97 152.959C223.007 152.991 223.05 153.014 223.097 153.029C223.477 153.135 240.344 157.686 242.459 158.356C243.523 158.695 244.049 158.91 244.507 160.019C244.762 160.633 244.429 161.14 244.195 161.094L224.331 155.62L224.147 156.115L244.407 161.712C244.641 161.778 244.891 161.755 245.109 161.647C245.327 161.54 245.498 161.355 245.589 161.128L256.4 134.34C256.913 133.13 256.27 132.041 255.246 131.464Z" fill="#81B4FC"/>
<path d="M243.463 157.984C243.439 157.992 243.414 157.991 243.391 157.982C243.379 157.976 243.367 157.968 243.358 157.958C243.349 157.948 243.342 157.936 243.338 157.923C243.334 157.91 243.332 157.896 243.333 157.883C243.334 157.869 243.338 157.856 243.345 157.844L253.865 132.122C253.878 132.097 253.9 132.078 253.926 132.069C253.953 132.06 253.982 132.062 254.007 132.074C254.031 132.088 254.049 132.11 254.058 132.136C254.066 132.162 254.065 132.191 254.055 132.216L243.535 157.938C243.528 157.951 243.517 157.962 243.505 157.97C243.492 157.978 243.478 157.983 243.463 157.984Z" fill="#0F2032"/>
<path d="M243.142 159.293L243.083 159.313L223.576 153.916C223.562 153.913 223.55 153.906 223.54 153.898C223.529 153.889 223.52 153.879 223.513 153.867C223.507 153.855 223.503 153.842 223.501 153.828C223.5 153.814 223.501 153.8 223.505 153.787C223.501 153.77 223.502 153.752 223.507 153.734C223.512 153.717 223.521 153.701 223.533 153.689C223.546 153.676 223.561 153.666 223.578 153.66C223.595 153.655 223.613 153.654 223.631 153.657L243.138 159.053C243.151 159.057 243.163 159.063 243.174 159.072C243.185 159.08 243.194 159.091 243.2 159.103C243.207 159.115 243.211 159.128 243.212 159.142C243.214 159.156 243.212 159.169 243.209 159.183C243.212 159.206 243.208 159.23 243.196 159.25C243.183 159.27 243.164 159.286 243.142 159.293Z" fill="#0F2032"/>
<path d="M243.535 160.403C243.518 160.416 243.498 160.423 243.476 160.423L223.969 155.027C223.943 155.019 223.92 155.001 223.907 154.977C223.894 154.953 223.891 154.924 223.899 154.897C223.906 154.871 223.924 154.848 223.949 154.835C223.973 154.822 224.001 154.818 224.028 154.826L243.535 160.223C243.559 160.235 243.577 160.256 243.586 160.282C243.595 160.308 243.593 160.336 243.581 160.36C243.571 160.379 243.555 160.394 243.535 160.403Z" fill="#0F2032"/>
<path d="M235.607 130.632L233.758 134.854L248.297 138.824L250.136 134.424L235.607 130.632Z" fill="white"/>
<path d="M247.054 136.236L247.015 136.249C246.398 136.217 245.797 136.048 245.254 135.754L245.161 135.704C244.746 135.452 244.29 135.278 243.814 135.188C243.486 135.132 243.156 135.093 242.824 135.071L242.498 135.045C241.806 135.001 241.124 134.866 240.468 134.642C240.143 134.518 239.827 134.374 239.52 134.21C239.135 134.003 238.731 133.83 238.315 133.695C237.675 133.471 236.988 133.411 236.318 133.522C236.305 133.527 236.291 133.528 236.277 133.527C236.263 133.526 236.25 133.522 236.238 133.515C236.226 133.508 236.215 133.499 236.207 133.488C236.199 133.477 236.193 133.464 236.19 133.451C236.186 133.438 236.184 133.424 236.185 133.411C236.186 133.398 236.19 133.385 236.196 133.373C236.203 133.361 236.211 133.351 236.222 133.342C236.232 133.334 236.244 133.327 236.257 133.324V133.324C236.965 133.2 237.692 133.259 238.369 133.496C238.795 133.636 239.209 133.812 239.605 134.022C239.907 134.184 240.219 134.326 240.539 134.448C241.178 134.676 241.844 134.817 242.521 134.868L242.846 134.894C243.179 134.923 243.516 134.951 243.858 135.009C244.354 135.104 244.83 135.287 245.262 135.549L245.36 135.598C245.877 135.871 246.448 136.028 247.033 136.057C247.058 136.056 247.083 136.065 247.103 136.082C247.122 136.099 247.135 136.122 247.138 136.148C247.141 136.173 247.134 136.199 247.12 136.22C247.105 136.241 247.083 136.256 247.057 136.262L247.054 136.236Z" fill="#0F2032"/>
<path d="M235.916 154.066C235.897 154.072 235.878 154.072 235.859 154.068C235.84 154.064 235.823 154.055 235.809 154.042C235.657 153.906 235.472 153.81 235.273 153.765C235.073 153.72 234.865 153.727 234.669 153.784C234.646 153.792 234.62 153.792 234.598 153.782C234.576 153.772 234.558 153.755 234.548 153.733C234.454 153.551 234.145 153.574 234.057 153.588L233.978 153.615C233.761 153.672 233.53 153.65 233.329 153.551C233.258 153.504 233.194 153.446 233.14 153.38L233.071 153.305C232.986 153.22 232.881 153.157 232.767 153.121C232.652 153.085 232.53 153.077 232.412 153.097C232.398 153.1 232.383 153.1 232.369 153.097C232.355 153.094 232.342 153.088 232.331 153.08C232.319 153.071 232.309 153.06 232.302 153.048C232.295 153.036 232.291 153.022 232.289 153.008C232.287 152.981 232.295 152.954 232.31 152.932C232.326 152.91 232.348 152.894 232.374 152.886C232.525 152.861 232.679 152.871 232.825 152.917C232.971 152.962 233.105 153.041 233.215 153.147L233.292 153.23C233.337 153.279 233.385 153.325 233.436 153.367C233.598 153.435 233.779 153.445 233.948 153.395L234.022 153.37C234.139 153.34 234.262 153.342 234.378 153.374C234.494 153.407 234.6 153.469 234.685 153.555C234.906 153.503 235.136 153.505 235.356 153.561C235.576 153.616 235.779 153.723 235.95 153.873C235.97 153.893 235.982 153.919 235.983 153.947C235.985 153.976 235.975 154.003 235.956 154.024C235.947 154.042 235.933 154.056 235.916 154.066V154.066Z" fill="#0F2032"/>
<path d="M234.731 217.752C233.92 218.259 232.995 218.553 232.042 218.607C232.026 218.608 232.01 218.607 231.995 218.602C231.981 218.597 231.967 218.589 231.955 218.579C231.944 218.568 231.934 218.556 231.928 218.541C231.921 218.527 231.918 218.511 231.918 218.496C231.916 218.465 231.927 218.434 231.947 218.411C231.968 218.387 231.997 218.373 232.028 218.371C233.237 218.303 234.389 217.832 235.302 217.032C236.215 216.232 236.836 215.148 237.068 213.953C236.687 214.013 236.299 214.02 235.916 213.974C235.404 213.946 234.906 213.795 234.465 213.533C234.023 213.271 233.651 212.905 233.379 212.468C233.131 211.997 233.06 211.451 233.181 210.932C233.226 210.675 233.327 210.43 233.477 210.217C233.627 210.003 233.822 209.825 234.048 209.695C234.441 209.519 234.88 209.468 235.303 209.551C235.726 209.634 236.114 209.846 236.413 210.159C236.988 210.794 237.321 211.613 237.354 212.472C237.385 212.869 237.373 213.269 237.319 213.664C238.145 213.447 238.909 213.039 239.55 212.472C240.191 211.905 240.692 211.196 241.012 210.4C241.385 209.355 241.534 208.242 241.448 207.134C241.363 206.027 241.045 204.95 240.516 203.975C240.5 203.948 240.495 203.916 240.502 203.886C240.509 203.855 240.528 203.829 240.555 203.812C240.581 203.795 240.613 203.79 240.644 203.797C240.674 203.805 240.7 203.824 240.717 203.85C241.263 204.854 241.591 205.962 241.679 207.102C241.768 208.242 241.616 209.388 241.232 210.465C240.889 211.311 240.352 212.063 239.664 212.659C238.976 213.255 238.157 213.679 237.274 213.894C237.134 214.683 236.831 215.434 236.383 216.097C235.936 216.76 235.355 217.321 234.678 217.744L234.731 217.752ZM234.105 209.924C233.928 210.041 233.777 210.192 233.659 210.369C233.542 210.547 233.462 210.746 233.424 210.955C233.308 211.419 233.364 211.91 233.582 212.335C233.831 212.742 234.175 213.082 234.584 213.326C234.993 213.57 235.454 213.711 235.929 213.736C236.317 213.784 236.71 213.774 237.096 213.706C237.159 213.3 237.175 212.888 237.142 212.478C237.117 211.678 236.808 210.914 236.272 210.323C236.006 210.043 235.661 209.852 235.284 209.778C234.907 209.704 234.515 209.749 234.165 209.908L234.105 209.924Z" fill="#0F2032"/>
<path d="M25.5714 215.1C25.5478 215.101 25.5245 215.094 25.5045 215.082C25.4846 215.069 25.4689 215.051 25.4594 215.029C25.3711 214.804 25.2709 214.573 25.1649 214.348C25.1529 214.319 25.1523 214.287 25.1633 214.258C25.1743 214.23 25.196 214.206 25.2238 214.193C25.2377 214.186 25.2529 214.182 25.2684 214.181C25.284 214.18 25.2996 214.182 25.3144 214.187C25.3292 214.192 25.3429 214.2 25.3546 214.21C25.3664 214.22 25.376 214.233 25.3829 214.247C25.4889 214.476 25.5891 214.707 25.6833 214.94C25.6889 214.955 25.6916 214.97 25.691 214.986C25.6905 215.002 25.6868 215.018 25.6803 215.032C25.6737 215.046 25.6643 215.059 25.6527 215.07C25.6411 215.081 25.6274 215.089 25.6126 215.094L25.5714 215.1ZM24.5934 213.157C24.5733 213.155 24.5538 213.149 24.5364 213.139C24.519 213.129 24.5042 213.114 24.4933 213.097C24.3283 212.831 24.1516 212.564 23.9631 212.31C23.9464 212.283 23.9401 212.252 23.9456 212.221C23.9511 212.19 23.9678 212.163 23.9925 212.144C24.0145 212.122 24.0441 212.11 24.075 212.11C24.1058 212.11 24.1354 212.122 24.1575 212.144C24.346 212.404 24.5286 212.671 24.6995 212.949C24.7147 212.976 24.7189 213.008 24.7112 213.038C24.7035 213.068 24.6845 213.093 24.6582 213.109C24.6519 213.122 24.6427 213.133 24.6315 213.141C24.6202 213.149 24.6072 213.155 24.5934 213.157ZM23.1442 211.261C23.1113 211.261 23.0797 211.248 23.0558 211.225C22.8378 211 22.6081 210.781 22.3724 210.58C22.3508 210.557 22.3387 210.528 22.3387 210.497C22.3387 210.466 22.3508 210.436 22.3724 210.414C22.3954 210.392 22.426 210.379 22.4578 210.379C22.4896 210.379 22.5202 210.392 22.5433 210.414C22.7883 210.622 23.0223 210.844 23.2443 211.077C23.2663 211.1 23.2785 211.131 23.2785 211.163C23.2785 211.195 23.2663 211.226 23.2443 211.249C23.2297 211.259 23.213 211.265 23.1956 211.267C23.1782 211.269 23.1606 211.267 23.1442 211.261ZM6.76637 211.225H6.6132C6.58142 211.224 6.55144 211.21 6.5295 211.187C6.50756 211.164 6.49534 211.133 6.49537 211.101C6.49831 211.07 6.51263 211.041 6.53553 211.021C6.55842 211 6.58822 210.988 6.61909 210.988C6.93185 210.992 7.24457 210.978 7.55581 210.947C7.57129 210.945 7.58695 210.947 7.60187 210.951C7.61679 210.956 7.63067 210.963 7.64273 210.973C7.65478 210.983 7.66476 210.995 7.67208 211.009C7.67941 211.023 7.68394 211.038 7.68541 211.054C7.68704 211.069 7.68558 211.085 7.68112 211.1C7.67666 211.115 7.66929 211.129 7.65942 211.141C7.64956 211.153 7.63741 211.163 7.62367 211.17C7.60993 211.178 7.59487 211.182 7.57937 211.184C7.30734 211.212 7.03398 211.226 6.76048 211.225H6.76637ZM5.19929 211.042H5.16983C4.91446 210.976 4.66274 210.897 4.41575 210.805L4.2449 210.74C4.21603 210.728 4.193 210.705 4.18086 210.676C4.16871 210.647 4.16844 210.615 4.1801 210.586C4.19306 210.556 4.21688 210.533 4.24655 210.521C4.27622 210.508 4.30942 210.508 4.33916 210.52L4.49822 210.586C4.73751 210.672 4.98139 210.745 5.22875 210.805C5.25968 210.813 5.28617 210.833 5.30265 210.861C5.31914 210.888 5.32432 210.921 5.31712 210.953C5.30805 210.978 5.29092 210.999 5.26849 211.013C5.24606 211.027 5.21962 211.033 5.1934 211.03L5.19929 211.042ZM8.97561 210.929C8.94885 210.93 8.9226 210.922 8.90119 210.906C8.87977 210.889 8.86446 210.866 8.85778 210.84C8.85058 210.809 8.85576 210.776 8.87224 210.748C8.88872 210.721 8.91522 210.701 8.94615 210.692C9.23483 210.621 9.53528 210.538 9.85341 210.431C9.88462 210.424 9.91759 210.428 9.94589 210.443C9.9742 210.459 9.99583 210.484 10.0066 210.514C10.0111 210.53 10.0125 210.546 10.0107 210.561C10.009 210.577 10.0041 210.592 9.99642 210.606C9.98873 210.62 9.97837 210.632 9.96595 210.642C9.95353 210.651 9.9393 210.658 9.92411 210.663C9.60008 210.763 9.29963 210.852 9.00506 210.923L8.97561 210.929ZM11.2438 210.2C11.2188 210.2 11.1944 210.192 11.1743 210.177C11.1542 210.162 11.1393 210.141 11.1318 210.117C11.122 210.088 11.1239 210.055 11.137 210.026C11.1501 209.998 11.1735 209.975 11.2025 209.963L11.8741 209.715L12.098 209.632C12.1127 209.626 12.1283 209.623 12.144 209.624C12.1598 209.624 12.1752 209.628 12.1895 209.635C12.2038 209.641 12.2166 209.651 12.2272 209.663C12.2378 209.674 12.2459 209.688 12.2512 209.703C12.2609 209.733 12.2591 209.765 12.246 209.794C12.2329 209.822 12.2094 209.845 12.1805 209.857L11.9625 209.94L11.285 210.189L11.2438 210.2ZM3.04897 210.046C3.02602 210.054 3.00122 210.054 2.97827 210.046C2.71838 209.853 2.47412 209.639 2.24775 209.407C2.22578 209.383 2.21353 209.353 2.21353 209.321C2.21353 209.289 2.22578 209.258 2.24775 209.235C2.27076 209.213 2.30136 209.2 2.33317 209.2C2.36499 209.2 2.39558 209.213 2.4186 209.235C2.63328 209.457 2.86579 209.661 3.11377 209.845C3.13449 209.869 3.14591 209.899 3.14591 209.931C3.14591 209.962 3.13449 209.993 3.11377 210.017C3.09392 210.034 3.06916 210.044 3.04308 210.046H3.04897ZM21.312 209.768C21.2928 209.774 21.2723 209.774 21.2531 209.768C20.9836 209.608 20.7064 209.462 20.4224 209.33C20.3931 209.317 20.37 209.293 20.3579 209.263C20.3458 209.233 20.3457 209.199 20.3576 209.17C20.3716 209.141 20.3959 209.119 20.4254 209.108C20.455 209.097 20.4876 209.098 20.5166 209.11C20.8097 209.244 21.0949 209.394 21.3709 209.561C21.3847 209.569 21.3967 209.579 21.4063 209.592C21.4159 209.605 21.4228 209.619 21.4267 209.635C21.4305 209.65 21.4312 209.666 21.4287 209.682C21.4262 209.698 21.4206 209.713 21.4121 209.726C21.3988 209.748 21.3785 209.763 21.3548 209.771C21.3311 209.778 21.3055 209.777 21.2825 209.768H21.312ZM13.506 209.371C13.481 209.371 13.4567 209.363 13.4366 209.348C13.4165 209.333 13.4016 209.312 13.3941 209.288C13.3843 209.258 13.3861 209.226 13.3993 209.197C13.4124 209.168 13.4358 209.146 13.4648 209.134C13.7947 209.021 14.0951 208.927 14.3838 208.844C14.3989 208.839 14.4147 208.838 14.4304 208.84C14.446 208.841 14.4611 208.846 14.4749 208.854C14.4886 208.862 14.5006 208.872 14.5103 208.885C14.52 208.897 14.527 208.911 14.5311 208.927C14.5356 208.942 14.537 208.958 14.5352 208.974C14.5335 208.989 14.5286 209.004 14.5209 209.018C14.5132 209.032 14.5029 209.044 14.4905 209.054C14.478 209.064 14.4638 209.071 14.4486 209.075C14.1658 209.158 13.8595 209.253 13.5414 209.365L13.506 209.371ZM19.1204 208.85C18.7973 208.763 18.4686 208.7 18.1366 208.66C18.1213 208.659 18.1064 208.654 18.093 208.647C18.0795 208.639 18.0677 208.629 18.0583 208.617C18.0489 208.605 18.0421 208.591 18.0383 208.576C18.0346 208.561 18.0339 208.545 18.0364 208.53C18.0408 208.499 18.0565 208.471 18.0806 208.451C18.1046 208.431 18.1351 208.421 18.166 208.423C18.488 208.459 18.807 208.518 19.1204 208.601C19.1354 208.604 19.1495 208.611 19.1619 208.62C19.1743 208.629 19.1846 208.641 19.1924 208.654C19.2001 208.667 19.205 208.682 19.2069 208.697C19.2087 208.713 19.2073 208.728 19.2029 208.743C19.2014 208.772 19.1889 208.799 19.1681 208.819C19.1473 208.839 19.1197 208.85 19.091 208.85H19.1204ZM15.8095 208.749C15.7811 208.749 15.7535 208.739 15.7319 208.721C15.7102 208.702 15.6959 208.677 15.6917 208.648C15.6865 208.618 15.6935 208.586 15.7111 208.561C15.7287 208.535 15.7556 208.518 15.7859 208.512C16.0216 208.471 16.2572 208.441 16.4811 208.423H16.7462C16.7767 208.424 16.8059 208.436 16.8285 208.457C16.8511 208.477 16.8658 208.505 16.8699 208.536C16.8707 208.552 16.8683 208.568 16.8628 208.584C16.8573 208.599 16.8489 208.613 16.8379 208.625C16.827 208.638 16.8138 208.647 16.799 208.654C16.7843 208.661 16.7684 208.665 16.7521 208.666H16.4929C16.2808 208.666 16.0511 208.713 15.8213 208.755L15.8095 208.749ZM1.45243 208.305C1.43352 208.304 1.41495 208.3 1.39847 208.29C1.38198 208.281 1.36812 208.267 1.35817 208.251C1.18143 207.985 1.01647 207.7 0.863298 207.41C0.856235 207.396 0.852004 207.381 0.85085 207.365C0.849695 207.35 0.851641 207.334 0.856574 207.319C0.861506 207.304 0.869326 207.29 0.879582 207.278C0.889838 207.267 0.902326 207.257 0.916319 207.25C0.930226 207.243 0.945395 207.239 0.96095 207.238C0.976504 207.236 0.992134 207.238 1.00693 207.243C1.02173 207.248 1.0354 207.256 1.04715 207.266C1.0589 207.277 1.0685 207.289 1.07538 207.303C1.22045 207.582 1.37973 207.853 1.55258 208.115C1.57417 208.137 1.58626 208.167 1.58626 208.198C1.58626 208.229 1.57417 208.259 1.55258 208.281C1.53624 208.298 1.51489 208.31 1.49161 208.314C1.46832 208.318 1.44429 208.315 1.42297 208.305H1.45243ZM0.397885 206.16C0.373111 206.159 0.349194 206.151 0.329235 206.136C0.309276 206.121 0.294197 206.101 0.285951 206.077C0.179908 205.781 0.0856476 205.485 0.00316951 205.153C-0.00403488 205.121 0.00114952 205.088 0.0176312 205.061C0.0341129 205.033 0.0606055 205.013 0.0915376 205.005C0.10624 205 0.121695 204.999 0.136941 205.001C0.152186 205.003 0.166898 205.008 0.18016 205.015C0.193421 205.023 0.204949 205.034 0.214027 205.046C0.223105 205.058 0.229539 205.073 0.23293 205.088C0.315408 205.402 0.409668 205.68 0.515711 206C0.524964 206.03 0.522107 206.062 0.50776 206.09C0.493414 206.118 0.468741 206.139 0.439124 206.148L0.397885 206.16Z" fill="#0F2032"/>
<path d="M244.876 230.742C245.775 230.742 246.502 230.01 246.502 229.107C246.502 228.204 245.775 227.472 244.876 227.472C243.978 227.472 243.25 228.204 243.25 229.107C243.25 230.01 243.978 230.742 244.876 230.742Z" fill="#292929"/>
<path d="M124.654 169.745C124.618 169.745 124.584 169.732 124.558 169.707C124.533 169.682 124.517 169.649 124.516 169.613V158.348C124.517 158.313 124.533 158.279 124.558 158.254C124.584 158.23 124.618 158.216 124.654 158.216C124.671 158.216 124.688 158.219 124.704 158.226C124.72 158.233 124.735 158.242 124.747 158.255C124.759 158.267 124.769 158.282 124.776 158.298C124.782 158.314 124.786 158.331 124.786 158.348V169.613C124.786 169.63 124.782 169.647 124.776 169.664C124.769 169.68 124.759 169.694 124.747 169.707C124.735 169.719 124.72 169.729 124.704 169.735C124.688 169.742 124.671 169.745 124.654 169.745Z" fill="#0F2032"/>
<path d="M130.262 164.106H119.06C119.042 164.106 119.025 164.103 119.008 164.096C118.992 164.089 118.977 164.078 118.965 164.065C118.952 164.052 118.943 164.037 118.936 164.02C118.93 164.003 118.927 163.985 118.928 163.967C118.928 163.932 118.942 163.898 118.967 163.874C118.992 163.849 119.025 163.835 119.06 163.835H130.262C130.282 163.83 130.303 163.83 130.323 163.835C130.343 163.84 130.362 163.849 130.378 163.862C130.394 163.875 130.407 163.892 130.416 163.91C130.425 163.929 130.43 163.95 130.43 163.971C130.43 163.991 130.425 164.012 130.416 164.031C130.407 164.05 130.394 164.066 130.378 164.079C130.362 164.092 130.343 164.101 130.323 164.106C130.303 164.111 130.282 164.111 130.262 164.106V164.106Z" fill="#0F2032"/>
<path d="M128.733 168.208C128.698 168.208 128.665 168.193 128.64 168.168L120.477 159.965C120.459 159.954 120.444 159.939 120.433 159.921C120.422 159.904 120.416 159.884 120.413 159.863C120.411 159.842 120.414 159.821 120.42 159.802C120.427 159.782 120.438 159.764 120.453 159.749C120.468 159.735 120.486 159.723 120.505 159.717C120.525 159.71 120.545 159.707 120.566 159.709C120.587 159.712 120.606 159.719 120.624 159.73C120.642 159.741 120.656 159.755 120.668 159.773L128.825 167.976C128.849 168.002 128.863 168.036 128.863 168.072C128.863 168.108 128.849 168.142 128.825 168.168C128.801 168.193 128.767 168.208 128.733 168.208Z" fill="#0F2032"/>
<path d="M120.575 168.208C120.549 168.207 120.523 168.199 120.501 168.184C120.48 168.169 120.462 168.148 120.452 168.124C120.442 168.1 120.438 168.073 120.443 168.046C120.447 168.02 120.459 167.996 120.476 167.976L128.64 159.773C128.652 159.76 128.666 159.75 128.682 159.743C128.698 159.736 128.715 159.732 128.732 159.732C128.75 159.732 128.767 159.736 128.783 159.743C128.799 159.75 128.813 159.76 128.825 159.773C128.849 159.799 128.863 159.833 128.863 159.869C128.863 159.905 128.849 159.939 128.825 159.965L120.667 168.168C120.643 168.193 120.61 168.208 120.575 168.208V168.208Z" fill="#0F2032"/>
<path d="M196.54 252.314C199.723 279.442 197.272 274.452 198.702 304.045H151.682L155.773 252.01L155.925 237.856L175.804 231.999L196.547 242.6C195.98 249.021 195.789 245.947 196.54 252.314Z" fill="#0F58CE"/>
<path d="M175.238 303.972C175.22 303.972 175.203 303.968 175.186 303.961C175.17 303.954 175.155 303.944 175.143 303.931C175.13 303.918 175.121 303.902 175.115 303.885C175.108 303.868 175.106 303.85 175.107 303.833L174.863 268.654L172.227 266.004C172.202 265.979 172.187 265.946 172.187 265.91C172.186 265.875 172.199 265.841 172.224 265.815C172.248 265.79 172.282 265.775 172.317 265.774C172.352 265.774 172.386 265.787 172.412 265.812L175.113 268.462C175.137 268.487 175.151 268.52 175.153 268.555L175.39 303.793C175.39 303.829 175.376 303.863 175.352 303.889C175.327 303.915 175.294 303.93 175.258 303.932L175.238 303.972Z" fill="#0F2032"/>
<path d="M174.045 254.402C174.7 254.402 175.231 253.868 175.231 253.209C175.231 252.55 174.7 252.016 174.045 252.016C173.39 252.016 172.859 252.55 172.859 253.209C172.859 253.868 173.39 254.402 174.045 254.402Z" fill="#2E2E2E"/>
<path d="M155.332 217.825C155.247 217.586 155.075 217.387 154.851 217.269C151.448 214.921 147.832 212.902 144.052 211.239C143.851 211.127 143.622 211.076 143.393 211.093C143.116 211.187 142.883 211.378 142.734 211.63C137.626 218.232 132.027 224.435 125.984 230.183L124.245 230.991C126.059 232.105 127.866 233.227 129.667 234.357C132.086 235.881 134.333 237.671 136.639 239.327C137.954 238.625 139.16 237.732 140.217 236.677C145.989 231.329 151.787 225.478 155.919 218.786C156.004 218.594 155.378 218.064 155.332 217.825Z" fill="#FFB3C9"/>
<path d="M151.28 225.187C152.954 223.161 154.494 221.027 155.892 218.799C156.017 218.594 155.391 218.064 155.345 217.825C155.26 217.586 155.088 217.387 154.864 217.269C151.461 214.921 147.846 212.902 144.065 211.239C143.864 211.127 143.635 211.076 143.406 211.093C143.13 211.187 142.896 211.378 142.747 211.63C140.671 214.32 138.49 216.931 136.25 219.475C141.107 221.764 146.132 223.673 151.28 225.187V225.187Z" fill="#FF92AC"/>
<path d="M163.127 184.688C163.127 184.688 152.848 183.409 147.201 195.131C142.451 204.984 137.891 212.962 136.659 215.056C136.619 215.124 136.594 215.199 136.585 215.277C136.576 215.356 136.583 215.435 136.606 215.51C136.629 215.586 136.667 215.655 136.718 215.715C136.769 215.775 136.832 215.823 136.903 215.857L155.629 224.942L163.127 184.688Z" fill="white"/>
<path d="M209.653 236.736C209.653 236.736 204.138 233.489 200.132 225.3L211.267 220.25L209.653 236.736Z" fill="#FFB3C9"/>
<path d="M208.5 223.908L209.376 221.085L200.151 225.28C200.978 226.97 201.943 228.588 203.037 230.117L208.5 223.908Z" fill="#FF92AC"/>
<path d="M182.795 169.15H169.465V194.72H182.795V169.15Z" fill="#FFB3C9"/>
<path d="M169.473 183.409C175.805 181.673 180.773 177.604 182.802 175.736V169.15H169.473V183.409Z" fill="#FF92AC"/>
<path d="M218.014 220.052C218.106 219.94 218.182 219.815 218.238 219.681C218.897 218.143 216.795 216.175 215.971 215.042C214.625 213.326 213.413 211.507 212.347 209.602C211.445 207.86 210.66 206.057 209.672 204.361C207.774 201.101 206.061 198.609 204.223 194.7C202.907 191.678 200.644 189.171 197.779 187.564C197.017 187.139 196.224 186.774 195.407 186.47C194.589 186.162 193.755 185.899 192.909 185.682C191.914 185.43 190.933 185.225 189.911 185.019C188.89 184.814 187.862 184.668 186.828 184.529C186.586 184.508 186.346 184.47 186.109 184.416C186.109 184.416 186.05 184.324 186.037 184.297L185.931 184.151L185.74 183.866C185.609 183.674 185.483 183.489 185.345 183.303C185.089 182.937 184.814 182.586 184.521 182.25C184.162 181.83 183.77 181.44 183.349 181.083L182.848 180.706C182.24 182.275 181.258 183.67 179.988 184.767C179.012 185.651 178.088 186.591 177.221 187.584C176.4 188.665 175.7 189.834 175.132 191.069C175.132 191.069 174.526 190.188 174.414 189.982C173.793 188.929 173.069 187.942 172.252 187.034C171.586 186.316 170.966 185.557 170.394 184.761C169.98 184.053 169.711 183.269 169.604 182.455C169.571 182.276 169.531 181.574 169.472 180.706C167.93 181.123 165.657 183.926 165.367 184.469C164.617 184.488 163.869 184.547 163.127 184.648C156.537 185.49 151.095 198.073 151.266 204.765L152.393 223.113C152.875 226.716 153.018 230.356 152.821 233.986C152.419 244.674 153.019 245.185 155.628 247.504C155.899 247.778 156.226 247.99 156.587 248.124C156.948 248.258 157.334 248.311 157.717 248.279C158.91 248.127 160.063 246.861 161.282 246.954C162.138 247.027 163.173 247.915 163.963 248.279C165.078 248.827 166.272 249.194 167.502 249.366C168.246 249.452 168.997 249.432 169.742 249.478C170.487 249.525 171.205 249.624 171.93 249.717C180.495 250.777 186.011 250.764 194.418 248.802C194.418 248.802 196.619 248.299 196.823 246.782C197.008 245.377 198.583 235.835 198.319 227.605C200.927 225.407 203.891 223.677 207.083 222.49C209.059 221.755 212.235 222.377 214.212 221.629C215.293 221.224 217.223 221.052 218.014 220.052Z" fill="white"/>
<path d="M189.53 161.019C191.619 157.256 192.765 152.988 191.388 148.761C191.049 147.634 190.44 146.609 189.615 145.774C188.791 144.938 187.775 144.319 186.657 143.97C186.058 142.961 185.302 142.055 184.417 141.287C181.485 138.954 176.227 138.709 172.662 139.226C167.055 140.048 161.704 143.202 159.774 148.781C159.072 151.076 158.847 153.492 159.115 155.877C159.148 156.381 159.774 162.106 159.879 162.099L189.53 161.019Z" fill="#0F58CE"/>
<path d="M165.704 160.993C166.613 162.928 166.732 165.379 165.401 167.162C164.781 168.003 163.857 168.565 162.828 168.725C161.799 168.885 160.749 168.63 159.905 168.016C156.993 165.896 156.209 160.502 159.583 158.435C161.704 157.143 164.314 158.018 165.704 160.993Z" fill="#FF92AC"/>
<path d="M188.357 159.243C188.144 159.251 187.933 159.203 187.744 159.104C187.544 159.042 187.364 158.928 187.223 158.773C186.927 158.468 186.76 158.06 186.756 157.633C186.756 156.971 186.683 156.262 186.716 155.573C186.72 155.286 186.797 155.006 186.94 154.758L187.19 154.433C187.447 154.172 187.789 154.012 188.152 153.982C186.657 147.422 181.926 143.838 176.463 144.341C176.226 144.341 175.646 144.374 175.422 144.394C174.536 144.47 173.655 144.605 172.787 144.798C170.197 145.355 163.489 145.912 162.363 148.277C161.704 149.715 160.439 157.706 161.131 162.398C161.882 167.526 162.389 171.508 166.883 174.921C169.158 176.599 171.997 177.312 174.79 176.909C179.923 176.372 185.596 172.052 186.525 166.678C186.548 166.509 186.559 166.338 186.558 166.168C187.382 166.168 188.377 165.2 188.64 159.721C188.64 159.542 188.64 159.376 188.64 159.197C188.548 159.224 188.453 159.239 188.357 159.243V159.243Z" fill="#FFB3C9"/>
<path d="M172.108 165.837C172.08 165.846 172.05 165.846 172.022 165.837L170.638 164.651C170.582 164.602 170.536 164.542 170.503 164.475C170.47 164.407 170.451 164.334 170.447 164.26C170.443 164.184 170.454 164.109 170.48 164.038C170.507 163.968 170.547 163.903 170.599 163.849L171.113 163.312C171.522 162.878 171.757 162.307 171.772 161.709V160.721C171.775 160.686 171.79 160.653 171.816 160.629C171.841 160.604 171.875 160.59 171.91 160.589V160.589C171.945 160.592 171.978 160.608 172.002 160.633C172.026 160.659 172.04 160.693 172.042 160.728V161.715C172.027 162.381 171.764 163.018 171.304 163.498L170.79 164.034C170.764 164.063 170.744 164.096 170.731 164.133C170.719 164.169 170.714 164.208 170.717 164.246C170.718 164.285 170.727 164.323 170.744 164.357C170.761 164.392 170.786 164.422 170.816 164.445L172.193 165.631C172.217 165.656 172.231 165.689 172.231 165.724C172.231 165.759 172.217 165.792 172.193 165.817C172.168 165.834 172.138 165.841 172.108 165.837Z" fill="#0F2032"/>
<path d="M168.201 162.351C168.677 162.351 169.064 161.962 169.064 161.483C169.064 161.004 168.677 160.615 168.201 160.615C167.724 160.615 167.337 161.004 167.337 161.483C167.337 161.962 167.724 162.351 168.201 162.351Z" fill="#292929"/>
<path d="M177.781 162.411C178.258 162.411 178.644 162.022 178.644 161.543C178.644 161.063 178.258 160.675 177.781 160.675C177.304 160.675 176.918 161.063 176.918 161.543C176.918 162.022 177.304 162.411 177.781 162.411Z" fill="#292929"/>
<path d="M172.898 168.971C171.948 168.978 171.022 168.671 170.263 168.096C170.235 168.074 170.217 168.042 170.212 168.006C170.208 167.971 170.218 167.935 170.24 167.907C170.262 167.879 170.294 167.861 170.329 167.856C170.364 167.852 170.4 167.862 170.428 167.884C170.895 168.232 171.43 168.477 171.997 168.604C172.565 168.73 173.152 168.736 173.722 168.619C174.388 168.464 175.012 168.162 175.547 167.734C176.083 167.307 176.517 166.765 176.819 166.148C176.827 166.132 176.837 166.118 176.851 166.107C176.864 166.095 176.88 166.087 176.896 166.082C176.913 166.077 176.931 166.075 176.948 166.078C176.965 166.08 176.982 166.086 176.997 166.095C177.013 166.103 177.027 166.113 177.038 166.127C177.049 166.14 177.058 166.155 177.064 166.172C177.069 166.188 177.071 166.206 177.07 166.224C177.069 166.241 177.064 166.258 177.056 166.274C176.733 166.926 176.27 167.498 175.7 167.949C175.131 168.399 174.468 168.716 173.762 168.878C173.478 168.939 173.189 168.97 172.898 168.971V168.971Z" fill="#0F2032"/>
<path d="M192.199 164.074C191.909 167.692 189.207 170.541 186.473 170.614C183.738 170.687 181.715 168.348 182.005 164.73C182.295 161.112 184.694 158.727 187.428 158.654C190.163 158.581 192.482 160.456 192.199 164.074Z" fill="#FFB3C9"/>
<path d="M186.986 167.725C186.845 167.725 186.704 167.711 186.565 167.685C186.53 167.678 186.499 167.657 186.479 167.628C186.459 167.598 186.452 167.561 186.459 167.526C186.466 167.491 186.487 167.46 186.516 167.44C186.546 167.42 186.582 167.413 186.617 167.42C188.146 167.725 189.398 166.055 189.76 164.829C189.878 164.473 189.92 164.095 189.885 163.721C189.85 163.347 189.738 162.984 189.556 162.656C189.423 162.449 189.247 162.275 189.04 162.144C188.833 162.013 188.6 161.93 188.357 161.901C188.339 161.898 188.323 161.892 188.308 161.883C188.293 161.874 188.279 161.862 188.269 161.848C188.258 161.834 188.251 161.818 188.247 161.801C188.243 161.783 188.242 161.766 188.245 161.748C188.247 161.731 188.253 161.714 188.262 161.699C188.271 161.684 188.283 161.67 188.297 161.66C188.311 161.649 188.327 161.642 188.344 161.638C188.361 161.633 188.379 161.633 188.396 161.636C188.676 161.671 188.945 161.768 189.184 161.919C189.423 162.07 189.627 162.272 189.78 162.51C189.984 162.87 190.11 163.269 190.149 163.681C190.189 164.094 190.142 164.51 190.011 164.902C189.661 166.115 188.489 167.725 186.986 167.725Z" fill="#0F2032"/>
<path d="M160.037 155.566L161.071 162.139L161.875 155.599C161.546 155.268 161.058 155.811 160.722 155.48L160.037 155.566Z" fill="#0F58CE"/>
<path d="M189.221 154.459V149.092L181.584 142.34L168.663 143.003L162.607 146.978C162.607 146.978 160.367 151.617 160.354 151.862C160.15 157.116 161.672 157.11 161.672 157.11C161.672 157.11 162.331 153.545 162.634 152.677L163.134 153.34C163.902 154.333 164.888 155.136 166.014 155.685C166.725 155.994 167.471 156.217 168.234 156.348C169.004 156.473 169.787 156.488 170.56 156.394C170.56 156.394 170.402 156.123 170.389 156.096C170.283 155.928 170.193 155.75 170.119 155.566C169.347 153.704 169.061 151.674 169.289 149.669C169.289 149.669 169.592 150.775 169.717 151.133C169.933 151.727 170.2 152.301 170.514 152.849C171.417 154.393 173.334 156.242 175.258 156.076C174.738 155.069 174.359 153.994 174.132 152.882C173.928 151.813 173.804 150.73 173.763 149.642C174.293 151.424 175.214 153.063 176.458 154.44C177.083 155.124 177.837 155.677 178.676 156.066C179.515 156.455 180.423 156.672 181.347 156.706C181.045 155.599 180.838 154.468 180.727 153.326C181.465 154.42 183.047 156.692 185.34 157.839C186.506 157.295 188.094 155.023 189.221 154.459Z" fill="#0F58CE"/>
<path d="M188.252 153.379C187.157 153.856 186.015 154.215 184.845 154.453L185.656 161.742L188.291 158.468L188.252 153.379Z" fill="#0F58CE"/>
<path d="M170.579 156.56C166.513 156.56 164.339 154.976 163.225 153.658C162.507 152.831 162.008 151.835 161.776 150.762C161.772 150.727 161.781 150.692 161.802 150.664C161.823 150.635 161.853 150.616 161.888 150.61C161.905 150.607 161.923 150.608 161.94 150.612C161.957 150.616 161.973 150.623 161.987 150.634C162.001 150.644 162.013 150.658 162.022 150.673C162.031 150.688 162.037 150.705 162.039 150.722C162.273 151.75 162.755 152.704 163.443 153.499C164.51 154.764 166.625 156.275 170.579 156.288C170.616 156.288 170.651 156.303 170.677 156.329C170.703 156.355 170.717 156.391 170.717 156.427C170.717 156.445 170.714 156.463 170.707 156.48C170.7 156.496 170.689 156.511 170.676 156.524C170.663 156.536 170.648 156.546 170.631 156.552C170.615 156.558 170.597 156.561 170.579 156.56V156.56Z" fill="#0F2032"/>
<path d="M177.103 155.182C177.075 155.19 177.045 155.19 177.017 155.182C173.907 152.67 173.063 147.893 173.063 147.847C173.058 147.812 173.065 147.777 173.085 147.749C173.105 147.72 173.135 147.701 173.169 147.694C173.204 147.688 173.239 147.696 173.269 147.716C173.298 147.735 173.319 147.766 173.327 147.8C173.327 147.847 174.164 152.525 177.195 154.976C177.219 155.001 177.232 155.034 177.232 155.069C177.232 155.104 177.219 155.137 177.195 155.162C177.167 155.179 177.135 155.186 177.103 155.182Z" fill="#0F2032"/>
<path d="M185.385 157.991H185.325C183.274 157.061 181.61 155.439 180.621 153.406C180.617 153.388 180.617 153.37 180.62 153.353C180.623 153.335 180.63 153.319 180.64 153.304C180.65 153.289 180.662 153.276 180.677 153.266C180.692 153.257 180.709 153.25 180.726 153.247C180.759 153.233 180.797 153.234 180.83 153.247C180.863 153.261 180.89 153.287 180.904 153.32C181.867 155.292 183.484 156.865 185.477 157.766C185.493 157.773 185.508 157.783 185.52 157.796C185.532 157.809 185.541 157.825 185.547 157.842C185.552 157.859 185.554 157.877 185.552 157.894C185.551 157.912 185.545 157.929 185.536 157.945C185.52 157.969 185.496 157.987 185.469 157.995C185.441 158.004 185.411 158.002 185.385 157.991V157.991Z" fill="#0F2032"/>
<path d="M198.367 229.805C198.349 229.805 198.331 229.802 198.315 229.795C198.298 229.788 198.283 229.777 198.271 229.764C198.259 229.751 198.249 229.736 198.243 229.719C198.237 229.702 198.234 229.684 198.235 229.666C198.281 228.036 198.235 225.525 198.235 222.861C198.235 218.799 198.162 214.201 198.38 212.087C198.729 208.655 201.015 202.446 201.055 202.386C201.061 202.37 201.07 202.354 201.082 202.341C201.094 202.328 201.108 202.318 201.124 202.31C201.14 202.303 201.157 202.299 201.175 202.298C201.192 202.298 201.21 202.3 201.226 202.307C201.243 202.313 201.258 202.322 201.271 202.334C201.284 202.346 201.294 202.36 201.302 202.376C201.309 202.392 201.313 202.41 201.314 202.427C201.314 202.445 201.312 202.463 201.305 202.479C201.305 202.539 198.992 208.714 198.67 212.113C198.452 214.214 198.492 218.806 198.531 222.861C198.531 225.512 198.577 228.036 198.531 229.673C198.532 229.693 198.528 229.714 198.519 229.732C198.511 229.751 198.498 229.768 198.482 229.78C198.466 229.793 198.447 229.802 198.427 229.807C198.407 229.811 198.386 229.81 198.367 229.805Z" fill="#0F2032"/>
<path d="M152.848 228.705C152.813 228.706 152.78 228.693 152.754 228.669C152.729 228.646 152.713 228.614 152.71 228.579C152.358 222.034 151.614 215.515 150.482 209.059C150.476 209.024 150.484 208.988 150.504 208.958C150.523 208.929 150.553 208.908 150.588 208.9C150.623 208.895 150.658 208.904 150.687 208.923C150.716 208.943 150.737 208.972 150.746 209.006C151.882 215.475 152.628 222.007 152.98 228.566C152.981 228.584 152.978 228.601 152.972 228.617C152.966 228.634 152.957 228.649 152.946 228.662C152.934 228.675 152.92 228.685 152.904 228.693C152.889 228.7 152.872 228.705 152.855 228.705H152.848Z" fill="#0F2032"/>
<path d="M189.635 239.122H189.602C173.755 235.186 160.874 221.695 160.742 221.562C160.717 221.537 160.704 221.502 160.704 221.466C160.704 221.431 160.717 221.396 160.742 221.37C160.754 221.357 160.768 221.347 160.784 221.34C160.8 221.333 160.817 221.329 160.834 221.329C160.851 221.329 160.869 221.333 160.885 221.34C160.9 221.347 160.915 221.357 160.926 221.37C161.058 221.503 173.894 234.934 189.661 238.857C189.694 238.866 189.722 238.888 189.74 238.917C189.757 238.947 189.762 238.982 189.754 239.016C189.749 239.044 189.735 239.071 189.713 239.09C189.692 239.109 189.664 239.12 189.635 239.122V239.122Z" fill="#0F2032"/>
<path d="M167.496 249.657C165.65 249.324 163.889 248.624 162.317 247.597C161.954 247.384 161.598 247.186 161.236 246.987L160.386 246.543C159.524 246.126 158.693 245.646 157.902 245.105C157.878 245.08 157.864 245.047 157.864 245.012C157.864 244.978 157.878 244.944 157.902 244.92C157.912 244.905 157.924 244.893 157.939 244.883C157.954 244.874 157.97 244.867 157.987 244.864C158.004 244.861 158.022 244.862 158.039 244.865C158.056 244.869 158.072 244.876 158.086 244.886C158.864 245.421 159.682 245.895 160.531 246.304L161.388 246.748L162.475 247.358C164.017 248.368 165.744 249.059 167.555 249.392C167.591 249.397 167.623 249.416 167.645 249.444C167.667 249.473 167.677 249.509 167.674 249.545C167.672 249.565 167.665 249.585 167.655 249.602C167.644 249.62 167.63 249.635 167.612 249.645C167.595 249.656 167.576 249.663 167.555 249.665C167.535 249.667 167.515 249.664 167.496 249.657Z" fill="#0F2032"/>
<path d="M173.564 177.161C172.08 177.169 170.608 176.899 169.222 176.365C163.951 174.291 161.559 168.566 161.104 163.895C161.025 163.126 160.979 162.318 160.953 161.483C160.953 161.448 160.967 161.414 160.991 161.389C161.016 161.365 161.049 161.351 161.084 161.351V161.351C161.102 161.35 161.12 161.352 161.136 161.359C161.152 161.365 161.167 161.375 161.18 161.387C161.192 161.4 161.202 161.415 161.208 161.431C161.214 161.448 161.217 161.465 161.216 161.483C161.216 162.305 161.289 163.107 161.361 163.875C161.809 168.46 164.135 174.086 169.308 176.12C172.352 177.235 175.706 177.133 178.677 175.835C178.693 175.828 178.71 175.823 178.727 175.823C178.744 175.822 178.761 175.825 178.777 175.831C178.793 175.837 178.808 175.847 178.82 175.859C178.833 175.871 178.842 175.886 178.849 175.902C178.856 175.918 178.861 175.935 178.862 175.953C178.862 175.971 178.86 175.988 178.854 176.005C178.847 176.022 178.838 176.037 178.826 176.05C178.814 176.063 178.799 176.073 178.783 176.081C177.134 176.791 175.358 177.158 173.564 177.161Z" fill="#0F2032"/>
<path d="M166.777 195.952C166.725 195.959 166.672 195.959 166.619 195.952C165.762 195.754 165.426 194.057 165.387 193.865C164.688 190.082 164.636 186.921 165.235 184.489C165.24 184.472 165.247 184.456 165.258 184.442C165.268 184.428 165.281 184.416 165.296 184.408C165.311 184.399 165.328 184.393 165.345 184.39C165.362 184.388 165.38 184.389 165.397 184.393C165.414 184.397 165.429 184.405 165.443 184.416C165.457 184.426 165.469 184.439 165.478 184.454C165.487 184.469 165.493 184.486 165.495 184.503C165.498 184.521 165.497 184.538 165.492 184.555C164.906 186.954 164.959 190.068 165.65 193.832C165.809 194.68 166.21 195.595 166.678 195.701C166.929 195.76 167.212 195.581 167.515 195.171C167.726 194.886 167.97 194.508 168.24 194.163C168.947 193.096 169.731 192.081 170.586 191.129C170.733 190.964 170.913 190.831 171.113 190.74C171.314 190.649 171.532 190.601 171.752 190.598C172.061 190.65 172.356 190.765 172.618 190.938C172.88 191.11 173.103 191.335 173.274 191.599C173.298 191.624 173.312 191.657 173.312 191.692C173.312 191.726 173.298 191.76 173.274 191.785C173.249 191.809 173.216 191.822 173.182 191.822C173.147 191.822 173.114 191.809 173.09 191.785C172.942 191.552 172.749 191.352 172.523 191.196C172.296 191.04 172.041 190.931 171.772 190.877C171.589 190.882 171.408 190.925 171.243 191.003C171.077 191.082 170.93 191.195 170.81 191.334C169.967 192.274 169.194 193.275 168.497 194.329C168.227 194.707 167.983 195.058 167.772 195.343C167.666 195.516 167.521 195.662 167.348 195.768C167.175 195.874 166.979 195.937 166.777 195.952V195.952Z" fill="#0F2032"/>
<path d="M183.87 195.933C183.705 195.916 183.544 195.865 183.399 195.783C183.254 195.701 183.127 195.589 183.027 195.455C182.585 194.978 182.177 194.468 181.782 193.971C181.249 193.27 180.67 192.606 180.049 191.983L179.772 191.692C179.439 191.252 178.979 190.928 178.454 190.764C178.019 190.718 177.591 190.996 177.136 191.639C177.127 191.654 177.115 191.667 177.1 191.677C177.086 191.687 177.07 191.694 177.052 191.698C177.035 191.701 177.017 191.702 177 191.698C176.983 191.695 176.966 191.688 176.952 191.679C176.923 191.658 176.903 191.628 176.896 191.594C176.888 191.559 176.894 191.523 176.912 191.493C177.4 190.758 177.914 190.433 178.454 190.499C179.037 190.667 179.55 191.02 179.917 191.506L180.194 191.791C180.817 192.417 181.403 193.081 181.946 193.779C182.335 194.269 182.744 194.78 183.172 195.25C183.442 195.542 183.686 195.667 183.897 195.634C184.358 195.555 184.72 194.713 184.892 194.309C185.254 193.348 185.476 192.339 185.551 191.314L185.63 190.651C185.844 188.764 185.947 186.866 185.939 184.966V184.43C185.939 184.412 185.943 184.395 185.949 184.38C185.956 184.364 185.966 184.35 185.978 184.338C185.991 184.326 186.005 184.317 186.021 184.311C186.037 184.305 186.054 184.303 186.071 184.304V184.304C186.106 184.304 186.14 184.318 186.164 184.342C186.189 184.367 186.203 184.401 186.203 184.436V184.966C186.214 186.877 186.11 188.786 185.893 190.685L185.814 191.347C185.742 192.396 185.521 193.43 185.155 194.415C184.872 195.078 184.496 195.8 183.963 195.899L183.87 195.933Z" fill="#0F2032"/>
<path d="M176.853 201.134C176.818 201.134 176.784 201.12 176.76 201.095C176.735 201.07 176.721 201.037 176.721 201.001C176.721 199.245 176.721 198.079 176.721 196.284C176.747 195.31 176.595 194.34 176.273 193.421C175.872 192.489 175.378 191.601 174.797 190.771C174.138 189.737 173.4 188.71 172.642 187.716C172.618 187.69 172.604 187.656 172.604 187.62C172.604 187.584 172.618 187.55 172.642 187.524C172.667 187.5 172.7 187.486 172.735 187.486C172.769 187.486 172.802 187.5 172.827 187.524C173.585 188.524 174.316 189.558 174.995 190.598C175.581 191.429 176.082 192.317 176.49 193.249C176.826 194.199 176.985 195.203 176.958 196.211C177.004 198.013 177.004 199.179 176.998 200.935C177.012 200.958 177.019 200.984 177.018 201.01C177.017 201.037 177.008 201.063 176.992 201.084C176.977 201.106 176.955 201.122 176.93 201.131C176.905 201.14 176.878 201.141 176.853 201.134V201.134Z" fill="#0F2032"/>
<path d="M174.796 196.058C174.614 196.058 174.436 196.004 174.284 195.902C174.132 195.8 174.014 195.655 173.944 195.486C173.874 195.316 173.856 195.13 173.892 194.95C173.927 194.77 174.015 194.605 174.144 194.475C174.273 194.345 174.438 194.257 174.617 194.221C174.795 194.185 174.981 194.203 175.15 194.274C175.318 194.344 175.462 194.463 175.564 194.615C175.665 194.768 175.719 194.947 175.719 195.131C175.717 195.376 175.62 195.611 175.447 195.785C175.274 195.958 175.041 196.057 174.796 196.058V196.058ZM174.796 194.468C174.666 194.468 174.539 194.507 174.43 194.58C174.322 194.653 174.238 194.756 174.188 194.877C174.138 194.998 174.125 195.131 174.15 195.26C174.176 195.389 174.238 195.507 174.331 195.599C174.423 195.692 174.54 195.755 174.668 195.781C174.796 195.806 174.928 195.793 175.049 195.743C175.169 195.693 175.272 195.608 175.344 195.499C175.417 195.39 175.455 195.262 175.455 195.131C175.455 194.955 175.386 194.786 175.262 194.662C175.139 194.538 174.971 194.468 174.796 194.468Z" fill="#0F2032"/>
<path d="M174.797 200.425C174.613 200.426 174.432 200.372 174.278 200.27C174.125 200.168 174.004 200.022 173.933 199.851C173.862 199.68 173.843 199.492 173.879 199.31C173.914 199.128 174.003 198.961 174.133 198.83C174.264 198.699 174.43 198.61 174.611 198.574C174.792 198.538 174.979 198.557 175.149 198.629C175.319 198.7 175.464 198.821 175.566 198.976C175.667 199.13 175.721 199.312 175.719 199.497C175.718 199.743 175.62 199.978 175.447 200.151C175.275 200.325 175.041 200.423 174.797 200.425V200.425ZM174.797 198.835C174.622 198.835 174.455 198.905 174.331 199.029C174.207 199.153 174.138 199.322 174.138 199.497C174.138 199.673 174.207 199.842 174.331 199.966C174.455 200.09 174.622 200.16 174.797 200.16C174.972 200.16 175.139 200.09 175.263 199.966C175.386 199.842 175.456 199.673 175.456 199.497C175.456 199.322 175.386 199.153 175.263 199.029C175.139 198.905 174.972 198.835 174.797 198.835Z" fill="#0F2032"/>
<path d="M194.418 249.087C194.384 249.092 194.348 249.082 194.32 249.06C194.293 249.038 194.275 249.006 194.27 248.971C194.266 248.936 194.276 248.901 194.297 248.873C194.319 248.845 194.351 248.827 194.386 248.822C195.361 248.544 196.54 247.848 196.685 246.781C196.685 246.629 196.738 246.39 196.784 246.072C197.192 243.329 198.418 234.974 198.174 227.619C198.175 227.598 198.18 227.578 198.189 227.56C198.198 227.541 198.211 227.525 198.227 227.513C200.862 225.296 203.858 223.554 207.083 222.364C208.252 222.032 209.466 221.887 210.68 221.933C211.873 221.975 213.064 221.83 214.212 221.503C214.528 221.39 214.911 221.291 215.313 221.185C216.294 220.933 217.408 220.648 217.948 219.972C218.032 219.868 218.101 219.752 218.152 219.627C218.647 218.461 217.401 216.977 216.485 215.864C216.268 215.605 216.064 215.354 215.906 215.142L215.616 214.751C214.368 213.153 213.248 211.458 212.268 209.682C211.932 209.019 211.609 208.356 211.3 207.727C210.766 206.64 210.219 205.514 209.6 204.414C209.079 203.519 208.565 202.678 208.071 201.863C206.619 199.566 205.299 197.188 204.118 194.74C202.812 191.744 200.568 189.261 197.726 187.67C196.969 187.249 196.183 186.883 195.374 186.576C194.56 186.273 193.731 186.014 192.89 185.801C192 185.569 191.051 185.364 189.898 185.138C188.884 184.953 187.849 184.787 186.821 184.648H186.709C186.5 184.629 186.293 184.593 186.09 184.542C186.024 184.542 185.991 184.469 185.951 184.396L185.642 183.939L185.253 183.383C184.963 182.978 184.7 182.64 184.436 182.336C184.081 181.92 183.693 181.534 183.276 181.183L183.125 181.07C182.703 180.759 182.703 180.759 182.736 180.659C182.742 180.642 182.751 180.627 182.763 180.614C182.775 180.601 182.789 180.59 182.805 180.583C182.821 180.576 182.838 180.572 182.856 180.571C182.873 180.57 182.891 180.573 182.907 180.58C182.929 180.587 182.947 180.601 182.96 180.619L183.283 180.858L183.441 180.977C183.871 181.338 184.272 181.732 184.64 182.157C184.904 182.468 185.174 182.819 185.47 183.223L185.866 183.793L186.156 184.224V184.264V184.297C186.334 184.336 186.514 184.365 186.696 184.383H186.815C187.843 184.522 188.884 184.688 189.898 184.873C191.058 185.085 192.013 185.291 192.91 185.536C193.761 185.753 194.599 186.018 195.42 186.331C196.243 186.638 197.043 187.006 197.812 187.431C200.7 189.052 202.982 191.58 204.309 194.627C205.48 197.064 206.787 199.434 208.223 201.724C208.723 202.539 209.237 203.387 209.758 204.281C210.384 205.355 210.931 206.488 211.464 207.594C211.774 208.257 212.123 208.92 212.433 209.536C213.399 211.298 214.501 212.982 215.728 214.572L216.018 214.963C216.176 215.168 216.38 215.413 216.591 215.672C217.546 216.825 218.857 218.395 218.297 219.714C218.238 219.859 218.158 219.995 218.06 220.118C217.467 220.867 216.314 221.165 215.286 221.443C214.891 221.549 214.515 221.642 214.212 221.754C213.037 222.095 211.816 222.244 210.595 222.198C209.41 222.156 208.225 222.297 207.083 222.616C203.917 223.791 200.975 225.503 198.385 227.678C198.616 235.04 197.39 243.369 196.988 246.112C196.942 246.43 196.909 246.669 196.889 246.815C196.731 248.007 195.446 248.802 194.399 249.081L194.418 249.087Z" fill="#0F2032"/>
<path d="M155.747 247.928C155.715 247.928 155.684 247.916 155.661 247.895C152.92 245.456 152.287 244.482 152.676 233.98C152.749 232.118 152.762 230.342 152.716 228.679C152.716 228.644 152.73 228.61 152.754 228.585C152.779 228.56 152.813 228.546 152.848 228.546C152.882 228.546 152.915 228.559 152.941 228.582C152.967 228.606 152.983 228.638 152.986 228.672C153.032 230.316 152.986 232.091 152.946 233.973C152.544 244.741 153.302 245.423 155.832 247.676C155.845 247.688 155.855 247.702 155.862 247.718C155.869 247.734 155.873 247.751 155.873 247.769C155.873 247.786 155.869 247.804 155.862 247.819C155.855 247.835 155.845 247.85 155.832 247.862C155.824 247.879 155.812 247.894 155.798 247.905C155.783 247.917 155.765 247.924 155.747 247.928Z" fill="#0F2032"/>
<path d="M152.505 223.55C152.486 223.556 152.465 223.556 152.446 223.55L136.863 215.996C136.775 215.953 136.698 215.891 136.636 215.816C136.574 215.741 136.527 215.653 136.5 215.559C136.469 215.468 136.458 215.37 136.469 215.274C136.479 215.178 136.51 215.085 136.56 215.002C137.838 212.803 142.358 204.884 147.102 195.084C150.041 188.988 154.251 186.47 157.263 185.404C159.16 184.714 161.18 184.43 163.193 184.569C163.905 184.468 164.622 184.408 165.341 184.39C165.749 183.727 167.976 181.077 169.485 180.626C169.52 180.618 169.557 180.624 169.588 180.642C169.618 180.661 169.641 180.691 169.65 180.725C169.655 180.742 169.657 180.759 169.655 180.777C169.652 180.794 169.647 180.81 169.638 180.825C169.63 180.84 169.618 180.853 169.604 180.863C169.59 180.873 169.575 180.881 169.558 180.884C168.121 181.282 165.848 183.999 165.538 184.582C165.527 184.603 165.51 184.622 165.489 184.634C165.468 184.647 165.444 184.654 165.42 184.655C164.675 184.673 163.931 184.735 163.193 184.84C163.061 184.84 152.907 183.707 147.379 195.204C142.654 205.01 138.154 212.935 136.836 215.135C136.778 215.242 136.763 215.368 136.797 215.486C136.815 215.544 136.845 215.597 136.884 215.643C136.924 215.689 136.973 215.726 137.027 215.751L152.611 223.312C152.638 223.325 152.659 223.347 152.672 223.374C152.685 223.401 152.688 223.432 152.681 223.462C152.675 223.491 152.658 223.517 152.634 223.535C152.611 223.554 152.581 223.564 152.551 223.563L152.505 223.55Z" fill="#0F2032"/>
<path d="M111.461 237.816C115.217 237.686 118.897 236.718 122.235 234.98C125.266 233.41 124.87 230.044 123.243 227.546C121.266 224.524 117.853 223.08 114.387 222.543C113.006 222.273 111.673 221.795 110.434 221.125C109.333 220.481 108.27 219.773 107.251 219.005C106.296 218.395 105.05 217.931 103.956 218.342C103.662 218.463 103.394 218.641 103.169 218.866C102.943 219.091 102.764 219.359 102.641 219.654C102.519 219.949 102.456 220.265 102.455 220.585C102.455 220.904 102.517 221.221 102.639 221.516C103.482 223.855 106.25 225.114 108.055 226.592L110.651 231.502L111.461 237.816Z" fill="#FFB3C9"/>
<path d="M134.095 242.143L149.955 231.674C150.726 231.19 150.759 229.885 150.008 229.56L132.277 221.993L134.095 242.143Z" fill="#8DB3FF"/>
<path d="M97.045 193.766L95.826 224.352C95.8111 224.607 95.8697 224.861 95.9948 225.083C96.1198 225.305 96.3061 225.486 96.531 225.604L133.226 242.13C133.431 242.204 133.651 242.225 133.866 242.193C134.081 242.16 134.285 242.074 134.46 241.943C134.634 241.812 134.773 241.639 134.865 241.44C134.956 241.242 134.998 241.023 134.985 240.805L136.494 210.53C136.56 209.819 136.405 209.104 136.051 208.485C135.698 207.866 135.162 207.372 134.517 207.071L99.7465 192.573C98.4682 192.043 97.1109 192.195 97.045 193.766Z" fill="#C2D5FF"/>
<path d="M134.162 241.646C134.126 241.643 134.094 241.626 134.07 241.599C134.047 241.571 134.035 241.536 134.037 241.5L135.071 223.411L135.559 211.696C135.625 210.849 135.433 210.002 135.008 209.268C134.583 208.534 133.945 207.948 133.18 207.588L99.5757 193.527C99.5434 193.514 99.5177 193.488 99.5041 193.456C99.4905 193.424 99.4902 193.387 99.5032 193.355C99.5097 193.338 99.5195 193.323 99.5321 193.31C99.5447 193.297 99.5598 193.287 99.5765 193.28C99.5932 193.273 99.611 193.27 99.629 193.27C99.647 193.27 99.6648 193.274 99.6811 193.282L133.286 207.343C134.103 207.722 134.784 208.344 135.239 209.124C135.694 209.905 135.9 210.807 135.829 211.709L135.341 223.424L134.313 241.52C134.312 241.539 134.307 241.556 134.298 241.573C134.29 241.589 134.278 241.603 134.264 241.615C134.25 241.627 134.233 241.635 134.216 241.641C134.198 241.646 134.18 241.648 134.162 241.646Z" fill="#2E2E2E"/>
<path d="M115.29 218.495C115.295 218.185 115.417 217.888 115.631 217.665C115.845 217.443 116.135 217.31 116.443 217.295C116.288 216.72 115.995 216.192 115.589 215.758C115.184 215.323 114.678 214.996 114.117 214.804C112.575 214.353 111.363 215.413 111.185 217.103C111.067 217.909 111.229 218.731 111.645 219.43C112.06 220.129 112.703 220.663 113.465 220.94C113.914 221.082 114.395 221.085 114.845 220.948C115.295 220.811 115.694 220.54 115.989 220.171C115.748 219.967 115.559 219.709 115.438 219.418C115.316 219.126 115.266 218.81 115.29 218.495V218.495Z" fill="white"/>
<path d="M115.732 214.207C115.52 214.317 115.288 214.38 115.05 214.392C114.813 214.403 114.575 214.363 114.354 214.274C114.444 213.761 114.704 213.293 115.092 212.948C115.304 212.838 115.536 212.776 115.774 212.764C116.012 212.753 116.249 212.793 116.47 212.882C116.383 213.396 116.122 213.865 115.732 214.207Z" fill="white"/>
<path d="M103.839 233.562C103.723 233.632 103.599 233.688 103.47 233.728C103.162 233.819 102.839 233.846 102.521 233.807C102.202 233.768 101.895 233.663 101.619 233.5C101.342 233.337 101.101 233.118 100.912 232.857C100.723 232.597 100.589 232.3 100.518 231.985C100.277 230.809 100.477 229.584 101.078 228.546C101.869 226.989 102.758 225.836 103.892 225.657C104.42 225.587 104.956 225.716 105.395 226.019C105.834 226.323 106.146 226.779 106.27 227.301C105.565 229.448 104.399 231.475 103.839 233.562Z" fill="#FFB3C9"/>
<path d="M104.497 236.259C103.686 235.411 103.719 234 104.002 232.84C104.253 231.889 104.57 230.957 104.951 230.05C105.313 229.02 105.861 228.066 106.566 227.234L106.618 227.168C107.002 226.821 107.499 226.625 108.015 226.618C110.137 226.817 110.097 229.428 110.097 229.428C110.398 228.982 110.833 228.645 111.338 228.465C111.843 228.285 112.391 228.272 112.904 228.427C114.222 228.685 114.611 230.474 114.288 231.74C113.504 234.887 113.267 237.77 111.468 237.823C109.669 237.876 108.832 236.047 108.832 236.047C108.583 236.38 108.264 236.653 107.899 236.849C107.533 237.044 107.129 237.156 106.715 237.177C106.302 237.198 105.889 237.127 105.505 236.969C105.122 236.812 104.777 236.572 104.497 236.266V236.259Z" fill="#FFB3C9"/>
<path d="M114.835 233.927L108.806 236.034C108.76 237.24 110.071 238.618 111.152 238.863C112.109 239.037 113.095 238.912 113.979 238.505C115.237 237.995 116.318 237.366 117.563 236.869C116.741 235.81 115.828 234.826 114.835 233.927V233.927Z" fill="#FFB3C9"/>
<path d="M108.86 235.908C108.826 235.907 108.795 235.893 108.77 235.87C108.746 235.847 108.731 235.816 108.728 235.782C108.631 234.282 108.824 232.776 109.295 231.349V231.256C109.657 230.044 110.105 228.533 111.502 228.162C111.829 228.085 112.169 228.079 112.499 228.145C112.829 228.211 113.14 228.348 113.413 228.546C113.704 228.775 113.942 229.065 114.11 229.396C114.279 229.726 114.373 230.09 114.388 230.461C114.407 231.28 114.276 232.096 113.999 232.867C113.773 233.507 113.64 234.176 113.604 234.854C113.605 234.873 113.602 234.891 113.595 234.908C113.589 234.925 113.578 234.94 113.565 234.953C113.552 234.966 113.536 234.975 113.519 234.981C113.502 234.987 113.484 234.989 113.465 234.987C113.448 234.987 113.43 234.983 113.413 234.976C113.397 234.969 113.382 234.959 113.37 234.946C113.358 234.933 113.348 234.917 113.342 234.901C113.336 234.884 113.333 234.866 113.334 234.848C113.367 234.136 113.505 233.432 113.742 232.761C114.013 232.021 114.14 231.236 114.118 230.448C114.104 230.127 114.022 229.813 113.877 229.526C113.733 229.239 113.53 228.987 113.281 228.785C113.042 228.61 112.768 228.488 112.478 228.429C112.188 228.369 111.889 228.373 111.601 228.44C110.342 228.778 109.92 230.203 109.578 231.356V231.442C109.12 232.84 108.929 234.313 109.018 235.782C109.02 235.799 109.018 235.817 109.013 235.834C109.008 235.851 109 235.866 108.989 235.88C108.978 235.893 108.964 235.905 108.949 235.913C108.933 235.921 108.917 235.926 108.899 235.928L108.86 235.908Z" fill="#2E2E2E"/>
<path d="M103.918 233.655C103.901 233.653 103.884 233.647 103.869 233.638C103.854 233.629 103.84 233.617 103.83 233.603C103.82 233.588 103.812 233.572 103.808 233.555C103.804 233.538 103.803 233.52 103.806 233.503C104.143 231.484 104.868 229.551 105.941 227.811C106.666 226.751 107.72 226.307 108.675 226.645C109.631 226.983 110.349 228.195 110.25 229.58C110.245 229.615 110.228 229.647 110.201 229.671C110.175 229.694 110.14 229.706 110.105 229.706C110.07 229.703 110.037 229.686 110.013 229.658C109.99 229.631 109.978 229.596 109.98 229.56C110.085 228.102 109.354 227.168 108.583 226.91C107.812 226.651 106.824 227.009 106.158 227.977C105.11 229.683 104.401 231.578 104.069 233.556C104.062 233.589 104.041 233.617 104.013 233.636C103.985 233.654 103.951 233.661 103.918 233.655Z" fill="#2E2E2E"/>
<path d="M224.353 173.377C224.353 173.377 222.521 170.031 219.668 169.401C216.815 168.772 213.896 169.753 214.397 172.715C214.898 175.676 224.353 173.377 224.353 173.377Z" fill="#FF92AC"/>
<path d="M231.229 171.289L231.293 172.115C231.306 172.29 231.25 172.463 231.136 172.597C231.023 172.73 230.861 172.813 230.687 172.827L201.499 175.101L201.333 172.947L230.514 170.673C230.688 170.66 230.861 170.716 230.994 170.831C231.126 170.945 231.209 171.108 231.222 171.283L231.229 171.289Z" fill="#0F58CE"/>
<path d="M201.324 172.946L199.347 173.768C199.252 173.805 199.172 173.871 199.118 173.958C199.064 174.045 199.04 174.147 199.049 174.249C199.058 174.35 199.099 174.447 199.167 174.522C199.235 174.598 199.326 174.65 199.426 174.669L201.482 175.1L202.859 173.662L201.324 172.946Z" fill="#0F58CE"/>
<path d="M201.726 174.987H201.68C201.663 174.981 201.648 174.971 201.635 174.958C201.622 174.945 201.612 174.93 201.605 174.914C201.599 174.897 201.595 174.879 201.596 174.861C201.596 174.843 201.6 174.825 201.608 174.808C201.745 174.57 201.804 174.294 201.778 174.02C201.752 173.745 201.642 173.486 201.463 173.278C201.438 173.252 201.424 173.217 201.424 173.182C201.424 173.146 201.438 173.111 201.463 173.086C201.488 173.061 201.523 173.047 201.558 173.047C201.594 173.047 201.628 173.061 201.654 173.086C201.875 173.331 202.015 173.64 202.053 173.969C202.091 174.298 202.025 174.631 201.865 174.921C201.851 174.944 201.83 174.963 201.805 174.975C201.781 174.987 201.753 174.991 201.726 174.987Z" fill="#0F2032"/>
<path d="M220.005 231.747L220.104 231.521C222.331 226.38 223.148 220.257 223.932 214.731C224.901 207.886 225.369 200.982 225.955 194.09C226.351 189.452 227.379 184.814 227.616 180.123C227.906 174.47 225.171 173.728 222.43 172.728C220.592 172.065 218.477 171.959 216.559 171.807C214.063 171.689 211.564 171.977 209.16 172.661C207.98 172.953 206.524 173.708 206.471 174.948C206.359 176.869 208.382 177.412 210.332 177.313C211.64 177.226 212.93 176.972 214.174 176.558C213.372 176.718 212.631 177.104 212.039 177.671C211.714 178.01 211.503 178.442 211.434 178.908C211.366 179.374 211.444 179.849 211.657 180.268C212.016 180.918 212.576 181.432 213.251 181.733C213.126 181.66 212.546 182.468 212.487 182.561C212.197 182.941 212.024 183.398 211.988 183.876C211.951 184.353 212.054 184.831 212.283 185.251C212.583 185.746 213.005 186.155 213.508 186.437C213.574 186.477 214.688 187 214.688 186.994C214.883 188.684 215.736 190.228 217.06 191.288C217.06 191.288 211.532 209.735 209.812 216.275C209.153 218.779 208.56 221.297 208.026 223.829C207.525 226.187 206.9 228.652 207.077 231.078C207.255 233.503 208.395 236.378 210.734 237.412C214.872 239.221 218.457 235.126 220.005 231.747Z" fill="#FFB3C9"/>
<path d="M212.302 177.598C212.274 177.596 212.248 177.586 212.226 177.569C212.205 177.552 212.189 177.528 212.18 177.502C212.172 177.476 212.171 177.448 212.179 177.421C212.186 177.394 212.201 177.371 212.223 177.353C215.076 175.239 221.572 177.134 221.849 177.214C221.883 177.226 221.911 177.25 221.928 177.282C221.945 177.314 221.95 177.351 221.941 177.386C221.928 177.419 221.903 177.446 221.872 177.462C221.84 177.477 221.804 177.481 221.77 177.472C221.704 177.472 215.128 175.531 212.381 177.572C212.358 177.588 212.33 177.598 212.302 177.598Z" fill="#0F2032"/>
<path d="M212.625 182.342C212.601 182.349 212.576 182.349 212.552 182.342C212.523 182.321 212.503 182.289 212.497 182.253C212.49 182.217 212.499 182.18 212.519 182.15C212.579 182.064 214.041 180.03 219.372 181.806C219.405 181.816 219.433 181.84 219.449 181.871C219.465 181.902 219.468 181.938 219.458 181.971C219.452 181.988 219.444 182.004 219.432 182.018C219.421 182.032 219.406 182.043 219.39 182.051C219.374 182.059 219.357 182.064 219.339 182.065C219.321 182.066 219.303 182.064 219.286 182.057C214.167 180.354 212.75 182.289 212.737 182.303C212.722 182.318 212.705 182.329 212.685 182.336C212.666 182.343 212.645 182.345 212.625 182.342V182.342Z" fill="#0F2032"/>
<path d="M215.78 187.63C215.094 187.451 214.431 187.193 213.804 186.861C213.788 186.854 213.774 186.843 213.762 186.829C213.751 186.816 213.742 186.801 213.737 186.784C213.731 186.768 213.729 186.75 213.73 186.733C213.732 186.715 213.736 186.698 213.744 186.682C213.761 186.65 213.79 186.626 213.824 186.615C213.859 186.603 213.896 186.606 213.929 186.623C214.525 186.939 215.155 187.188 215.807 187.365C215.842 187.365 215.875 187.379 215.9 187.404C215.925 187.429 215.938 187.462 215.938 187.497C215.938 187.533 215.925 187.566 215.9 187.591C215.875 187.616 215.842 187.63 215.807 187.63H215.78Z" fill="#0F2032"/>
<path d="M228.34 172.82C228.306 172.819 228.274 172.805 228.25 172.782C228.226 172.759 228.211 172.728 228.208 172.695L228.036 169.931L219.853 170.468C219.939 170.556 220.046 170.622 220.162 170.66C220.327 170.699 220.497 170.704 220.663 170.676C220.83 170.647 220.989 170.586 221.131 170.495C221.147 170.487 221.164 170.482 221.181 170.481C221.198 170.479 221.216 170.482 221.232 170.487C221.249 170.493 221.264 170.501 221.277 170.513C221.291 170.525 221.301 170.539 221.309 170.554C221.325 170.585 221.329 170.621 221.319 170.655C221.309 170.688 221.287 170.716 221.256 170.733C221.081 170.843 220.886 170.916 220.682 170.947C220.478 170.978 220.27 170.966 220.07 170.912C219.817 170.825 219.605 170.645 219.477 170.409C219.461 170.368 219.461 170.323 219.477 170.283C219.488 170.264 219.503 170.248 219.522 170.236C219.54 170.225 219.561 170.218 219.583 170.216L228.148 169.653C228.181 169.657 228.213 169.669 228.241 169.686C228.267 169.71 228.284 169.743 228.287 169.779L228.471 172.675C228.472 172.71 228.459 172.745 228.436 172.771C228.413 172.798 228.381 172.816 228.346 172.82H228.34Z" fill="#0F2032"/>
<path d="M198.471 174.451C198.437 174.449 198.406 174.436 198.382 174.412C198.357 174.389 198.342 174.358 198.339 174.325C198.337 174.307 198.339 174.289 198.344 174.271C198.35 174.254 198.359 174.238 198.37 174.225C198.382 174.211 198.397 174.2 198.413 174.192C198.429 174.184 198.446 174.18 198.464 174.179L199.123 174.132C199.158 174.132 199.192 174.146 199.216 174.171C199.241 174.196 199.255 174.23 199.255 174.265C199.255 174.3 199.241 174.334 199.216 174.359C199.192 174.384 199.158 174.397 199.123 174.397L198.464 174.451H198.471Z" fill="#0F2032"/>
<path d="M207.215 228.321C207.197 228.319 207.18 228.314 207.165 228.306C207.15 228.298 207.136 228.287 207.125 228.273C207.114 228.26 207.106 228.244 207.101 228.227C207.096 228.21 207.094 228.193 207.096 228.175C207.425 224.968 209 218.627 209.013 218.561C209.027 218.532 209.05 218.508 209.079 218.494C209.108 218.48 209.141 218.477 209.172 218.485C209.203 218.492 209.231 218.511 209.25 218.537C209.269 218.563 209.279 218.595 209.277 218.627C208.477 221.784 207.837 224.98 207.359 228.202C207.358 228.219 207.353 228.236 207.345 228.252C207.336 228.267 207.325 228.281 207.312 228.292C207.298 228.303 207.283 228.311 207.266 228.316C207.249 228.321 207.232 228.323 207.215 228.321V228.321Z" fill="#0F2032"/>
<path d="M59.0009 156H39V177.636H59.0009V156Z" fill="#C2D5FF"/>
<path d="M52.244 160.852H42.4762C42.445 160.852 42.415 160.84 42.3929 160.817C42.3708 160.795 42.3584 160.765 42.3584 160.734C42.3584 160.702 42.3708 160.672 42.3929 160.65C42.415 160.628 42.445 160.615 42.4762 160.615H52.244C52.2752 160.615 52.3052 160.628 52.3273 160.65C52.3494 160.672 52.3618 160.702 52.3618 160.734C52.3618 160.749 52.3588 160.764 52.3528 160.779C52.3469 160.793 52.3382 160.806 52.3273 160.817C52.3164 160.828 52.3034 160.837 52.2891 160.843C52.2748 160.849 52.2595 160.852 52.244 160.852V160.852Z" fill="#0F2032"/>
<path d="M42.4762 163.014C42.445 163.014 42.415 163.002 42.3929 162.98C42.3708 162.958 42.3584 162.927 42.3584 162.896C42.3584 162.865 42.3708 162.834 42.3929 162.812C42.415 162.79 42.445 162.778 42.4762 162.778L48.2909 162.742C48.3069 162.741 48.3228 162.744 48.3378 162.749C48.3528 162.755 48.3665 162.763 48.3781 162.774C48.3897 162.786 48.3989 162.799 48.4051 162.814C48.4114 162.828 48.4147 162.844 48.4146 162.86C48.4146 162.892 48.4022 162.922 48.3801 162.944C48.358 162.966 48.3281 162.979 48.2968 162.979L42.4821 163.014H42.4762Z" fill="#0F2032"/>
<path d="M48.2909 167.339H42.4762C42.445 167.339 42.415 167.327 42.3929 167.305C42.3708 167.282 42.3584 167.252 42.3584 167.221C42.3584 167.189 42.3708 167.159 42.3929 167.137C42.415 167.115 42.445 167.102 42.4762 167.102H48.2909C48.3069 167.102 48.3228 167.104 48.3378 167.11C48.3528 167.115 48.3665 167.124 48.3781 167.135C48.3897 167.146 48.3989 167.159 48.4051 167.174C48.4114 167.189 48.4147 167.205 48.4146 167.221C48.4147 167.237 48.4114 167.253 48.4051 167.268C48.3989 167.282 48.3897 167.296 48.3781 167.307C48.3665 167.318 48.3528 167.326 48.3378 167.332C48.3228 167.338 48.3069 167.34 48.2909 167.339Z" fill="#0F2032"/>
<path d="M42.4762 165.177C42.445 165.177 42.415 165.164 42.3929 165.142C42.3708 165.12 42.3584 165.09 42.3584 165.058C42.3584 165.027 42.3708 164.997 42.3929 164.975C42.415 164.952 42.445 164.94 42.4762 164.94L52.244 164.869C52.2752 164.869 52.3052 164.881 52.3273 164.904C52.3494 164.926 52.3618 164.956 52.3618 164.987C52.3618 165.019 52.3494 165.049 52.3273 165.071C52.3052 165.093 52.2752 165.106 52.244 165.106L42.4821 165.177H42.4762Z" fill="#0F2032"/>
<path d="M75.0254 166.818H55.0244V188.454H71.5672L75.0254 184.976V166.818Z" fill="#FFB3C9"/>
<path d="M75.0256 184.976L71.5674 188.454V184.976H75.0256Z" fill="#FF92AC"/>
<path d="M68.0142 172.061H59.6544C59.6232 172.061 59.5932 172.049 59.5711 172.026C59.549 172.004 59.5366 171.974 59.5366 171.943C59.5366 171.911 59.549 171.881 59.5711 171.859C59.5932 171.837 59.6232 171.824 59.6544 171.824H68.0142C68.0454 171.824 68.0754 171.837 68.0975 171.859C68.1196 171.881 68.132 171.911 68.132 171.943C68.132 171.974 68.1196 172.004 68.0975 172.026C68.0754 172.049 68.0454 172.061 68.0142 172.061Z" fill="#0F2032"/>
<path d="M69.9996 174.229H59.6544C59.6227 174.228 59.5927 174.214 59.5707 174.191C59.5488 174.168 59.5366 174.137 59.5366 174.105C59.5366 174.074 59.549 174.043 59.5711 174.021C59.5932 173.999 59.6232 173.986 59.6544 173.986H69.9996C70.0308 173.986 70.0608 173.999 70.0829 174.021C70.105 174.043 70.1174 174.074 70.1174 174.105C70.1174 174.137 70.1052 174.168 70.0833 174.191C70.0613 174.214 70.0313 174.228 69.9996 174.229V174.229Z" fill="#0F2032"/>
<path d="M64.827 176.398H59.6544C59.6232 176.398 59.5932 176.385 59.5711 176.363C59.549 176.341 59.5366 176.311 59.5366 176.279C59.5366 176.247 59.5488 176.216 59.5708 176.193C59.5927 176.17 59.6227 176.156 59.6544 176.155H64.827C64.8588 176.156 64.8888 176.17 64.9107 176.193C64.9326 176.216 64.9449 176.247 64.9448 176.279C64.9448 176.311 64.9324 176.341 64.9103 176.363C64.8882 176.385 64.8583 176.398 64.827 176.398Z" fill="#0F2032"/>
<path d="M58.5352 172.061H58.005C57.9738 172.061 57.9438 172.049 57.9217 172.026C57.8996 172.004 57.8872 171.974 57.8872 171.943C57.8872 171.911 57.8996 171.881 57.9217 171.859C57.9438 171.837 57.9738 171.824 58.005 171.824H58.5352C58.5665 171.824 58.5965 171.837 58.6186 171.859C58.6407 171.881 58.6531 171.911 58.6531 171.943C58.6531 171.974 58.6407 172.004 58.6186 172.026C58.5965 172.049 58.5665 172.061 58.5352 172.061Z" fill="#0F2032"/>
<path d="M58.5352 174.229H58.005C57.9733 174.228 57.9433 174.214 57.9213 174.191C57.8994 174.168 57.8872 174.137 57.8872 174.105C57.8872 174.089 57.8903 174.074 57.8962 174.06C57.9021 174.045 57.9108 174.032 57.9217 174.021C57.9327 174.01 57.9456 174.001 57.9599 173.995C57.9742 173.99 57.9896 173.986 58.005 173.986H58.5352C58.5507 173.986 58.566 173.99 58.5803 173.995C58.5946 174.001 58.6076 174.01 58.6186 174.021C58.6295 174.032 58.6382 174.045 58.6441 174.06C58.65 174.074 58.6531 174.089 58.6531 174.105C58.6531 174.137 58.6409 174.168 58.6189 174.191C58.597 174.214 58.567 174.228 58.5352 174.229V174.229Z" fill="#0F2032"/>
<path d="M58.5352 176.398H58.005C57.9896 176.398 57.9742 176.395 57.9599 176.389C57.9456 176.383 57.9327 176.374 57.9217 176.363C57.9108 176.352 57.9021 176.339 57.8962 176.325C57.8903 176.31 57.8872 176.295 57.8872 176.279C57.8872 176.247 57.8994 176.216 57.9213 176.193C57.9433 176.17 57.9733 176.156 58.005 176.155H58.5352C58.567 176.156 58.597 176.17 58.6189 176.193C58.6409 176.216 58.6531 176.247 58.6531 176.279C58.6531 176.295 58.65 176.31 58.6441 176.325C58.6382 176.339 58.6295 176.352 58.6186 176.363C58.6076 176.374 58.5946 176.383 58.5803 176.389C58.566 176.395 58.5507 176.398 58.5352 176.398Z" fill="#0F2032"/>
<path d="M52.6049 265.026C58.1719 265.026 62.6849 260.488 62.6849 254.889C62.6849 249.291 58.1719 244.753 52.6049 244.753C47.0379 244.753 42.5249 249.291 42.5249 254.889C42.5249 260.488 47.0379 265.026 52.6049 265.026Z" fill="#C2D6FF"/>
<path d="M52.6056 265.139C51.2667 265.14 49.9407 264.876 48.7033 264.362C47.466 263.847 46.3417 263.093 45.3946 262.141C43.4879 260.215 42.4175 257.607 42.4175 254.889C42.4175 252.171 43.4879 249.564 45.3946 247.638C45.4176 247.616 45.4482 247.603 45.48 247.603C45.5119 247.603 45.5425 247.616 45.5655 247.638C45.5769 247.648 45.586 247.661 45.5923 247.676C45.5985 247.69 45.6017 247.705 45.6017 247.721C45.6017 247.736 45.5985 247.752 45.5923 247.766C45.586 247.78 45.5769 247.793 45.5655 247.804C43.7009 249.684 42.6538 252.231 42.6538 254.886C42.6538 257.542 43.7009 260.089 45.5655 261.969C47.4352 263.844 49.968 264.897 52.6085 264.897C55.2491 264.897 57.7819 263.844 59.6516 261.969C59.662 261.958 59.6748 261.948 59.689 261.942C59.7032 261.936 59.7185 261.933 59.734 261.933C59.7495 261.933 59.7649 261.936 59.7791 261.942C59.7933 261.948 59.806 261.958 59.8165 261.969C59.8385 261.992 59.8507 262.023 59.8507 262.055C59.8507 262.087 59.8385 262.118 59.8165 262.141C58.8702 263.094 57.746 263.849 56.5085 264.363C55.271 264.878 53.9446 265.141 52.6056 265.139V265.139Z" fill="#0F2032"/>
<path d="M57.2594 258.954C57.2282 258.954 57.1982 258.941 57.1761 258.919C57.154 258.897 57.1416 258.866 57.1416 258.835V250.328H48.6994C48.6681 250.328 48.6381 250.315 48.6161 250.293C48.594 250.271 48.5815 250.241 48.5815 250.209C48.5815 250.178 48.594 250.148 48.6161 250.125C48.6381 250.103 48.6681 250.091 48.6994 250.091H57.2594C57.2907 250.091 57.3206 250.103 57.3427 250.125C57.3648 250.148 57.3772 250.178 57.3772 250.209V258.835C57.3772 258.866 57.3648 258.897 57.3427 258.919C57.3206 258.941 57.2907 258.954 57.2594 258.954V258.954Z" fill="#0F2032"/>
<path d="M47.9566 259.682C47.9248 259.681 47.8941 259.671 47.8682 259.653C47.8486 259.628 47.8379 259.598 47.8379 259.567C47.8379 259.535 47.8486 259.505 47.8682 259.481L57.1765 250.126C57.1869 250.115 57.1997 250.105 57.2139 250.099C57.2281 250.093 57.2434 250.09 57.2589 250.09C57.2744 250.09 57.2898 250.093 57.304 250.099C57.3182 250.105 57.3309 250.115 57.3414 250.126C57.3528 250.137 57.362 250.149 57.3682 250.164C57.3744 250.178 57.3777 250.193 57.3777 250.209C57.3777 250.225 57.3744 250.24 57.3682 250.254C57.362 250.269 57.3528 250.281 57.3414 250.292L48.0391 259.653C48.0154 259.671 47.9865 259.681 47.9566 259.682V259.682Z" fill="#0F2032"/>
<path d="M228.819 262.324C229.24 261.959 229.758 261.728 230.309 261.661C231.694 261.518 232.666 262.845 232.955 263.989C233.088 264.471 233.11 264.978 233.019 265.47C232.989 265.673 232.936 265.872 232.86 266.062C234.386 262.324 236.831 258.307 239.105 259.937C240.825 261.175 240.672 264.249 240.195 266.08C239.506 268.716 237.903 271.199 236.124 273.45C236.419 273.296 236.831 273.124 237.049 273.035C238.045 272.621 239.435 272.076 240.466 272.502C241.644 272.988 241.691 274.516 241.22 275.553C240.827 276.337 240.263 277.021 239.571 277.556C236.513 280.128 232.614 281.465 228.63 281.306C227.448 281.263 226.278 281.044 225.16 280.654C224.672 280.469 224.22 280.201 223.823 279.86C222.533 278.729 222.268 277.194 222.468 275.518C222.886 271.91 224.772 268.491 226.592 265.345C227.155 264.217 227.909 263.194 228.819 262.324V262.324Z" fill="#C2D6FF"/>
<path d="M216.86 282.787C216.836 282.786 216.813 282.779 216.793 282.765C216.773 282.752 216.757 282.732 216.748 282.71C216.737 282.681 216.737 282.648 216.749 282.619C216.761 282.591 216.784 282.568 216.813 282.556C226.875 278.64 234.552 268.112 234.628 268.006C234.65 267.984 234.68 267.972 234.711 267.972C234.742 267.972 234.771 267.984 234.793 268.006C234.806 268.014 234.817 268.026 234.826 268.039C234.834 268.052 234.84 268.067 234.842 268.082C234.845 268.098 234.845 268.114 234.841 268.129C234.838 268.144 234.832 268.159 234.823 268.171C234.746 268.278 227.029 278.835 216.901 282.805L216.86 282.787Z" fill="#2E2E2E"/>
<path d="M226.516 276.833C226.485 276.833 226.455 276.82 226.432 276.798C226.41 276.776 226.398 276.746 226.398 276.714C226.398 276.682 226.41 276.652 226.432 276.628C226.454 276.605 226.484 276.591 226.516 276.59L234.929 276.56C234.96 276.56 234.99 276.573 235.012 276.595C235.034 276.617 235.046 276.647 235.046 276.679C235.046 276.71 235.034 276.74 235.012 276.763C234.99 276.785 234.96 276.797 234.929 276.797L226.516 276.833Z" fill="#2E2E2E"/>
<path d="M225.738 277.473H225.697C225.682 277.467 225.669 277.459 225.657 277.449C225.645 277.438 225.636 277.425 225.629 277.411C225.623 277.396 225.619 277.381 225.619 277.365C225.618 277.349 225.621 277.333 225.626 277.319L229.42 266.56C229.426 266.545 229.434 266.531 229.444 266.52C229.455 266.508 229.468 266.499 229.482 266.492C229.496 266.485 229.512 266.482 229.528 266.481C229.543 266.481 229.559 266.483 229.574 266.489C229.588 266.494 229.602 266.502 229.614 266.513C229.625 266.524 229.635 266.537 229.641 266.551C229.648 266.565 229.651 266.581 229.652 266.597C229.653 266.612 229.65 266.628 229.644 266.643L225.85 277.396C225.843 277.419 225.827 277.439 225.807 277.453C225.787 277.467 225.763 277.474 225.738 277.473V277.473Z" fill="#2E2E2E"/>
</svg>
