<svg width="359" height="249" viewBox="0 0 359 249" fill="none" xmlns="http://www.w3.org/2000/svg">
<path d="M350.495 143.514H25.1336C25.0557 143.514 25 143.447 25 143.379C25 143.311 25.0668 143.243 25.1336 143.243H350.483C350.561 143.243 350.617 143.311 350.617 143.379C350.617 143.447 350.572 143.514 350.495 143.514Z" fill="#202021"/>
<path d="M180.918 66.8317C183.926 66.5584 186.677 66.2368 188.817 65.9956C188.785 65.5453 188.881 65.079 189.138 64.7092C190.779 62.3615 192.887 60.5284 195.106 58.7596C196.136 57.9396 197.182 57.1034 198.163 56.219C198.662 55.7688 199.144 55.2864 199.595 54.7879C199.82 54.5467 200.013 54.3055 200.238 54.0482C200.254 54.0161 200.27 54.0161 200.286 53.9839C200.302 53.9678 200.302 53.9678 200.302 53.9518C200.415 53.807 200.511 53.6623 200.608 53.5176C200.721 53.3407 200.865 53.196 201.01 53.0674C200.914 52.8262 200.833 52.585 200.737 52.3277L202.152 52.4403C202.587 52.3438 203.037 52.3759 203.504 52.5528L207.557 52.8744C207.557 52.8744 207.702 33.6912 197.262 27.2592C186.822 20.8273 178.312 25.796 178.312 25.796L175.69 30.2019L175.561 29.3496C167.969 27.7416 160.505 33.2409 156.515 39.8176C152.51 46.3942 150.853 54.0965 147.523 61.0269C145.914 64.3715 143.71 67.7161 140.284 69.2115C136.954 70.6587 132.788 69.9512 129.796 72.0094C121.254 77.8946 125.308 88.041 118.487 92.077C114.353 94.5212 109.285 93.9745 105.087 96.2739C96.8828 100.76 97.4941 109.379 92.829 116.309C90.1265 120.313 85.5419 122.661 81.1181 124.317C80.3942 124.59 78.866 125.009 77 125.411C119.13 160.432 162.982 163.777 195.863 158.631C194.511 149.981 191.857 142.954 191.857 142.954L180.918 66.8317Z" fill="#0F58CE"/>
<path d="M242.513 118.142C235.676 114.878 225.268 104.957 222.952 97.8012C221.182 92.3341 222.565 84.8891 219.943 79.6149C218.431 76.5919 215.664 74.5819 213.123 72.4594C210.066 69.8866 209.053 67.2334 208.104 63.5029C208.007 63.1331 206.849 57.875 206.656 57.8911L204.726 58.1323C204.259 58.4056 203.777 58.1805 203.294 57.6338C201.927 59.1935 200.35 60.5282 198.709 61.8467C197.68 62.6668 196.634 63.5029 195.653 64.3873C195.154 64.8376 194.672 65.3199 194.221 65.8184C193.996 66.0596 193.803 66.3008 193.578 66.5581C193.562 66.5903 193.546 66.5903 193.53 66.6224C193.513 66.6385 193.513 66.6385 193.513 66.6546C193.401 66.7993 193.304 66.944 193.208 67.0887C193.079 67.2656 192.934 67.4264 192.79 67.5711C191.953 78.0713 192.58 88.6839 194.656 99.0072C195.814 98.5087 196.972 97.9942 198.13 97.4957C197.535 116.936 198.082 136.409 199.787 155.801C221.649 152.987 244.346 147.166 260.031 131.842C256.846 124.976 249.349 121.39 242.513 118.142Z" fill="#0735B7"/>
<path d="M199.161 54.5628C199.563 59.1777 202.732 61.9917 206.303 61.6701C209.874 61.3646 212.512 58.0521 212.11 53.4372C211.708 48.8223 208.555 46.0887 204.968 46.4103C201.397 46.7158 198.758 49.9479 199.161 54.5628Z" fill="#FF92AC"/>
<path d="M209.535 61.5257C210.406 61.5257 211.112 60.8201 211.112 59.9498C211.112 59.0795 210.406 58.374 209.535 58.374C208.665 58.374 207.959 59.0795 207.959 59.9498C207.959 60.8201 208.665 61.5257 209.535 61.5257Z" fill="#0F2032"/>
<path d="M193.128 78.7794C193.128 78.7794 194.463 92.8332 194.463 92.8493C194.624 94.5537 194.688 96.0974 194.028 97.7054C192.516 101.355 188.189 102.915 184.714 102.674C181.208 102.433 177.733 100.68 175.658 97.6893C174.564 96.1135 173.856 93.6533 173.502 91.6594L170.462 64.5166L186.532 65.1116L193.128 78.7794Z" fill="#FFB3C9"/>
<path d="M182.077 75.8363L192.903 76.4473L194.463 92.8488C194.624 94.5532 194.688 96.0969 194.029 97.7049L178.023 74.0353C178.699 73.7138 181.868 76.5438 182.077 75.8363Z" fill="#FF92AC"/>
<path d="M201.927 39.3677C200.077 35.4925 198.227 34.6885 193.916 32.6142C190.168 30.7972 185.889 30.0897 181.691 30.1057C180.275 30.1057 178.859 30.2022 177.444 30.3791C177.09 30.4273 176.109 30.4113 175.819 30.6364L162.467 48.5975C162.467 48.5975 163.095 52.4889 163.207 53.6627C164.301 65.4492 169.047 65.2241 169.047 65.2241L174.5 72.8298L177.942 74.7594C178.538 75.5152 179.921 75.6116 180.709 76.1905C187.675 79.1814 196.49 78.4899 201.766 72.1223C203.825 69.63 205.064 66.7677 205.724 63.7126C206.399 60.4966 206.238 57.1681 205.547 53.9521L201.927 39.3677Z" fill="#FFB3C9"/>
<path d="M191.005 60.6248C190.957 60.6248 190.909 60.6087 190.877 60.5766C190.796 60.5122 190.78 60.3836 190.844 60.2871L192.694 57.9877C192.775 57.8912 192.807 57.7465 192.791 57.6179C192.775 57.4892 192.71 57.3767 192.598 57.2963L191.343 56.3958C190.635 55.8973 190.153 55.1577 189.96 54.3054L189.734 53.2602C189.718 53.1477 189.783 53.0512 189.895 53.019C190.008 53.003 190.104 53.0673 190.137 53.1798L190.362 54.225C190.523 54.9647 190.957 55.624 191.584 56.0742L192.839 56.9747C193.032 57.1194 193.161 57.3284 193.193 57.5696C193.225 57.8108 193.161 58.052 193.016 58.245L191.166 60.5444C191.118 60.6087 191.07 60.6248 191.005 60.6248Z" fill="#0F2032"/>
<path d="M179.664 56.3158C180.392 56.3158 180.983 55.7255 180.983 54.9973C180.983 54.269 180.392 53.6787 179.664 53.6787C178.935 53.6787 178.345 54.269 178.345 54.9973C178.345 55.7255 178.935 56.3158 179.664 56.3158Z" fill="#0F2032"/>
<path d="M193.515 52.2471C193.499 52.2471 193.483 52.2471 193.45 52.231C193.338 52.1988 193.29 52.0863 193.322 51.9737L193.338 51.9416C193.434 51.0572 194.014 50.3336 194.866 50.0602C195.735 49.7708 196.7 50.0441 197.36 50.7517C197.44 50.8321 197.424 50.9607 197.343 51.0411C197.263 51.1215 197.134 51.1054 197.054 51.025C196.507 50.4301 195.719 50.2049 194.979 50.4461C194.287 50.6713 193.804 51.2662 193.724 52.022C193.724 52.038 193.708 52.0702 193.708 52.0863C193.676 52.1988 193.595 52.2471 193.515 52.2471Z" fill="#0F2032"/>
<path d="M188.705 65.2716C186.79 65.2716 184.603 64.5319 182.978 61.8466C182.913 61.7501 182.946 61.6215 183.042 61.5732C183.139 61.525 183.251 61.5411 183.316 61.6375C185.278 64.8857 188.125 65.1108 190.152 64.7249C192.388 64.3068 193.917 62.4898 193.933 62.4737C194.013 62.3933 194.126 62.3772 194.222 62.4415C194.303 62.5058 194.319 62.6345 194.254 62.731C194.19 62.8114 192.63 64.6766 190.249 65.1269C189.766 65.2073 189.235 65.2716 188.705 65.2716Z" fill="#0F2032"/>
<path d="M188.881 78.1035C184.441 78.1035 179.921 76.6081 176.414 73.9549C176.317 73.8906 176.301 73.7619 176.382 73.6815C176.462 73.6011 176.575 73.5851 176.655 73.6494C185.615 80.419 196.57 78.0713 201.589 72.0092C203.182 70.0797 204.372 67.8124 205.128 65.2718C206.125 61.895 206.19 58.0198 205.337 54.0641L203.745 46.7317C203.728 46.6192 203.793 46.5227 203.905 46.4905C204.018 46.4584 204.115 46.5388 204.147 46.6513L205.739 53.9837C206.608 58.0037 206.544 61.9593 205.53 65.4004C204.774 67.9893 203.552 70.3048 201.927 72.2826C198.919 75.9166 194.495 77.9909 189.46 78.1357C189.267 78.1035 189.074 78.1035 188.881 78.1035Z" fill="#0F2032"/>
<path d="M175.497 27.742C175.481 27.742 175.465 27.742 175.465 27.742C165.234 25.6999 163.609 20.3935 163.545 20.1684C163.513 20.0559 163.577 19.9433 163.69 19.9272C163.786 19.8951 163.899 19.9594 163.931 20.0719C163.931 20.088 164.333 21.4066 165.958 22.9502C167.454 24.3813 170.333 26.3109 175.545 27.3561C175.658 27.3722 175.722 27.4847 175.706 27.5973C175.674 27.6777 175.594 27.742 175.497 27.742Z" fill="#0F58CE"/>
<path d="M278.096 117.724L275.49 78.7628L264.471 61.7021L256.042 77.9106L254.69 105.439C247.564 101.677 240.454 97.8818 233.392 93.9904C227.762 90.887 220.909 87.2369 214.297 87.0761C208.651 86.9475 202.426 88.2017 197.149 90.1474C196.216 90.485 195.492 90.8066 194.913 91.0961L194.334 84.9375C194.302 84.5998 193.98 84.3747 193.659 84.4551C184.023 86.8028 175.352 84.9536 172.794 84.2943C172.424 84.1978 172.071 84.5033 172.103 84.8893L172.28 90.4368C170.044 89.8258 167.792 89.2791 165.507 88.8931C161.116 88.1535 156.418 87.8158 152.075 89.07C144.434 91.289 141.844 98.0586 140.927 105.198C140.815 106.066 140.734 106.951 140.67 107.819C140.557 109.315 140.477 110.939 140.429 112.691C139.849 122.339 139.029 139.963 139.479 157.876C139.479 161.397 139.447 165.015 140.091 168.488C140.734 172.01 142.681 176.078 146.187 177.622C150.965 179.728 155.904 178.619 159.266 174.968C161.598 172.444 163.416 169.324 165.411 166.527C166.296 165.288 167.148 163.777 168.017 162.555C168.178 162.33 169.143 160.818 169.143 160.818C169.867 164.597 170.51 169.453 170.784 174.663C170.768 174.341 178.553 173.441 179.326 173.36C181.932 173.071 184.537 172.894 187.16 172.782C191.599 172.589 196.039 172.653 200.479 172.589C203.906 172.54 207.412 172.46 210.758 171.656C213.557 170.981 216.147 169.678 218.078 167.507C218.592 166.945 219.043 166.318 219.461 165.674C216.389 160.239 216.485 152.73 217.418 146.716C217.499 146.25 217.579 145.8 217.676 145.333C218.641 140.574 220.635 136.087 221.761 131.36C222.888 126.665 222.582 122.468 221.858 117.837C222.035 117.499 222.212 117.161 222.389 116.824C228.341 119.654 234.309 122.468 240.261 125.298C249.205 129.543 258.76 135.685 268.927 135.525C271.034 135.492 272.675 134.978 273.946 134.126C278.498 131.054 278.402 123.545 278.096 117.724Z" fill="white"/>
<path d="M170.044 131.36C170.044 131.36 172.055 124.365 172.602 121.808C173.149 119.252 177.605 118.608 178.763 123.03C179.905 127.452 176.43 131.038 176.43 131.038L170.044 131.36Z" fill="#FF92AC"/>
<g opacity="0.5">
<path opacity="0.5" d="M214.313 87.0758C208.667 86.9472 202.441 88.2014 197.165 90.1471C196.232 90.4848 195.508 90.8063 194.929 91.0958L194.334 84.9372C194.302 84.5995 193.98 84.3744 193.658 84.4548C190.94 85.1141 188.302 85.4357 185.84 85.5482L185.808 85.5643C185.808 85.5643 196.023 102.931 207.412 103.927C214.957 104.587 228.437 99.3608 233.778 94.1992C225.236 89.3431 219.461 87.2045 214.313 87.0758Z" fill="#A2BDFF"/>
</g>
<path d="M165.588 134.962C165.491 134.962 165.411 134.897 165.395 134.785C164.574 129.302 163.722 124.671 162.274 119.847C162.242 119.734 162.306 119.622 162.403 119.589C162.499 119.557 162.628 119.622 162.66 119.718C164.124 124.558 164.976 129.205 165.797 134.704C165.813 134.817 165.733 134.913 165.62 134.93C165.62 134.962 165.604 134.962 165.588 134.962Z" fill="#0F2032"/>
<g opacity="0.5">
<path opacity="0.5" d="M166.633 140.654C166.167 137.583 163.127 122.854 162.451 119.814L157.657 152.617L166.633 140.654Z" fill="#A2BDFF"/>
</g>
<path d="M169.513 163.906C169.416 163.906 169.32 163.825 169.32 163.729C169.207 162.764 169.095 161.799 168.982 160.835C168.966 160.722 169.046 160.626 169.159 160.609C169.272 160.593 169.368 160.674 169.384 160.786C169.497 161.751 169.609 162.716 169.722 163.681C169.738 163.793 169.658 163.89 169.545 163.906C169.529 163.906 169.529 163.906 169.513 163.906Z" fill="#0F2032"/>
<g opacity="0.5">
<path opacity="0.5" d="M256.058 77.9107L254.706 105.439C249.318 102.593 243.945 99.7149 238.588 96.8045L234.792 122.725C236.593 123.577 238.411 124.446 240.213 125.298C249.157 129.543 258.712 135.686 268.879 135.525C270.986 135.493 272.627 134.978 273.898 134.126C278.466 131.055 278.386 123.545 278.064 117.724L275.458 78.7629L269.023 68.7773L260.481 69.3241L256.058 77.9107Z" fill="#A2BDFF"/>
</g>
<path d="M286.509 30.4592C283.871 28.9799 280.75 33.0802 279.141 35.2028C278.015 36.6982 276.97 38.1614 275.94 39.6086L272.208 46.137L270.23 40.5413L264.004 43.3713C263.264 44.4326 262.331 45.6064 261.865 45.7994C261.575 45.928 261.237 45.6386 261.141 45.3331C260.143 42.2136 258.583 38.3866 255.35 37.1002C254.014 36.5695 251.746 36.5695 251.071 38.1454C249.977 40.7342 253.644 45.526 254.03 50.8002C254.417 55.9618 254.577 61.0752 259.066 64.468C261.688 66.4459 265.404 67.9091 268.717 68.0538C274.525 68.279 278.562 63.3264 280.171 58.1969C283.42 56.1226 286.3 53.0514 284.128 49.7389C282.552 47.327 280.107 47.938 279.64 48.0827C279.624 48.0666 279.624 48.0505 279.608 48.0345C281.973 44.8346 284.193 41.5221 286.236 38.1132C287.587 35.9585 289.533 32.1637 286.509 30.4592Z" fill="#FFB3C9"/>
<path d="M273.285 59.0817C272.674 59.0817 272.047 58.9692 271.484 58.6798C270.856 58.3582 270.406 57.8275 270.181 57.1361C269.939 56.3482 270.02 55.4638 270.438 54.708C271.082 53.5181 272.176 52.6659 273.237 51.8298L273.414 51.685C275.264 50.2539 277.259 49.0962 279.704 47.8259C279.8 47.7776 279.929 47.8098 279.977 47.9063C280.026 48.0028 279.993 48.1314 279.897 48.1796C277.484 49.4499 275.489 50.5916 273.672 52.0066L273.495 52.1513C272.465 52.9553 271.403 53.7754 270.792 54.901C270.438 55.5442 270.358 56.3482 270.567 57.0075C270.744 57.5863 271.13 58.0526 271.661 58.3099C273.157 59.0657 274.975 58.5029 276.39 57.924C277.967 57.2808 279.543 56.4607 281.087 55.4799C281.184 55.4156 281.313 55.4477 281.361 55.5442C281.425 55.6407 281.393 55.7693 281.296 55.8175C279.736 56.8145 278.144 57.6506 276.535 58.2938C275.586 58.6958 274.428 59.0817 273.285 59.0817Z" fill="#0F2032"/>
<path d="M266.964 58.309C266.948 58.309 266.932 58.309 266.9 58.2929C266.787 58.2607 266.739 58.1482 266.771 58.0356C267.205 56.5884 267.221 53.083 264.133 50.1565C261.43 47.5998 261.141 45.3969 261.141 45.3004C261.125 45.1879 261.205 45.0914 261.318 45.0753C261.414 45.0592 261.527 45.1396 261.543 45.2522C261.543 45.2682 261.832 47.4069 264.422 49.8671C267.237 52.5202 267.817 56.0257 267.173 58.1482C267.125 58.2447 267.044 58.309 266.964 58.309Z" fill="#0F2032"/>
<path d="M274.573 65.0794L257.023 58.8887L256.042 77.9111C258.583 79.1975 264.76 81.722 275.474 78.7633L274.573 65.0794Z" fill="#FFB3C9"/>
<path d="M268.604 67.9408C266.899 67.9408 264.888 67.6514 262.669 66.7831C262.572 66.7509 262.508 66.6223 262.556 66.5258C262.588 66.4293 262.717 66.3811 262.813 66.4132C270.133 69.2594 275.2 65.8183 275.248 65.77C275.345 65.7057 275.457 65.7218 275.522 65.8183C275.586 65.9148 275.57 66.0273 275.473 66.0916C275.425 66.1238 274.138 67.0082 271.918 67.5388C271.017 67.7639 269.907 67.9408 268.604 67.9408Z" fill="#0F2032"/>
<path d="M277.21 37.8398C276.792 38.4348 276.374 39.0137 275.956 39.5925L274.556 42.0528L281.795 44.931C282.728 43.6286 282.712 43.6768 283.581 42.3261L277.21 37.8398Z" fill="#FF92AC"/>
<path d="M299.016 37.6706L288.412 33.8818L285.672 41.5439L296.276 45.3326L299.016 37.6706Z" fill="white"/>
<path d="M303.676 29.7812L268.289 17.1377L267.043 20.6204L302.43 33.264L303.676 29.7812Z" fill="white"/>
<path d="M267.028 20.6016L262.62 32.9348C262.283 33.8674 262.765 34.8965 263.698 35.2181L295.71 46.6509C296.643 46.9886 297.673 46.5062 297.995 45.5735L302.402 33.2403L267.028 20.6016ZM293.04 43.0008C292.445 42.7917 291.994 42.3897 291.689 41.9073C291.142 42.0842 290.53 42.1003 289.935 41.8913C288.536 41.3928 287.812 39.8491 288.31 38.4502C288.809 37.0512 290.353 36.3276 291.753 36.8261C292.348 37.0352 292.799 37.4371 293.104 37.9195C293.651 37.7427 294.262 37.7266 294.858 37.9356C296.257 38.4341 296.981 39.9778 296.482 41.3767C295.984 42.7596 294.439 43.4992 293.04 43.0008Z" fill="#0F58CE"/>
<path d="M293.378 40.2671C293.668 39.4631 293.539 38.6109 293.105 37.9355C292.349 38.1928 291.705 38.7556 291.416 39.5757C291.126 40.3797 291.255 41.2319 291.689 41.9073C292.445 41.65 293.089 41.0711 293.378 40.2671Z" fill="#A2BDFF"/>
<path d="M303.657 29.7512L304.558 27.2428C304.896 26.3102 304.413 25.2811 303.48 24.9595L271.468 13.5267C270.535 13.189 269.506 13.6714 269.184 14.6041L268.283 17.1125L303.657 29.7512Z" fill="#0F58CE"/>
<path d="M267.028 20.7952C267.011 20.7952 266.979 20.7952 266.963 20.7791C266.851 20.747 266.802 20.6344 266.834 20.5218L268.073 17.0325C268.105 16.936 268.234 16.8717 268.331 16.9039C268.443 16.936 268.491 17.0486 268.459 17.1612L267.221 20.6505C267.188 20.747 267.108 20.7952 267.028 20.7952Z" fill="#0F2032"/>
<path d="M302.419 33.4339C302.403 33.4339 302.37 33.4339 302.354 33.4178C302.242 33.3856 302.193 33.2731 302.226 33.1605L303.464 29.6712C303.496 29.5747 303.625 29.5104 303.722 29.5425C303.834 29.5747 303.882 29.6873 303.85 29.7998L302.612 33.2891C302.579 33.3856 302.499 33.4339 302.419 33.4339Z" fill="#0F2032"/>
<path d="M278.225 35.0411C278.208 35.0411 278.176 35.0411 278.16 35.025L267.463 31.198C267.35 31.1658 267.302 31.0533 267.334 30.9407C267.366 30.8442 267.495 30.7799 267.591 30.8121L278.289 34.6391C278.401 34.6712 278.45 34.7838 278.418 34.8963C278.369 34.9928 278.305 35.0411 278.225 35.0411Z" fill="white"/>
<path d="M278.836 33.3047C278.82 33.3047 278.788 33.3047 278.771 33.2887L268.074 29.4617C267.961 29.4295 267.913 29.3169 267.945 29.2044C267.978 29.1079 268.106 29.0436 268.203 29.0757L278.9 32.9027C279.013 32.9349 279.061 33.0475 279.029 33.16C278.997 33.2565 278.916 33.3047 278.836 33.3047Z" fill="white"/>
<path d="M274.251 35.588C274.235 35.588 274.203 35.588 274.187 35.5719L266.851 32.9509C266.739 32.9188 266.691 32.8062 266.723 32.6936C266.755 32.5972 266.867 32.5328 266.98 32.565L274.315 35.186C274.428 35.2182 274.476 35.3307 274.444 35.4433C274.412 35.5398 274.332 35.588 274.251 35.588Z" fill="white"/>
<g opacity="0.78">
<path opacity="0.78" d="M274.284 14.54L278.997 40.6858L285.271 42.9209C284.386 37.7432 282.118 25.2331 280.557 16.7751L274.284 14.54Z" fill="#81B4FC"/>
</g>
<path d="M280.526 30.1537C280.59 29.0603 280.172 27.8704 279.239 27.2754C278.338 26.7126 277.131 26.8091 276.182 27.2754C275.41 27.6613 274.767 28.2563 274.188 28.8995C272.273 30.9899 270.6 33.3054 269.056 35.6852C267.673 37.8238 266.241 39.9303 264.89 42.101C264.681 42.4226 264.375 42.8889 264.021 43.3874L270.616 48.9671L275.941 39.6087C277.244 37.5665 278.467 35.4601 279.528 33.2732C280.011 32.2923 280.477 31.2472 280.526 30.1537Z" fill="#FFB3C9"/>
<path d="M273.271 44.3196C273.238 44.3196 273.206 44.3035 273.174 44.2875C273.077 44.2231 273.045 44.1106 273.11 44.0141C273.85 42.776 274.445 41.779 274.992 40.8785C276.005 39.2062 276.89 37.743 278.129 35.524L278.354 35.138C279.174 33.6748 280.027 32.1794 280.236 30.5392C280.397 29.4136 280.349 27.9504 279.303 27.3554C279.206 27.3072 279.174 27.1785 279.222 27.0821C279.271 26.9856 279.399 26.9534 279.496 27.0017C280.735 27.7092 280.799 29.3332 280.622 30.5875C280.381 32.2919 279.528 33.8356 278.692 35.331L278.483 35.7169C277.244 37.9359 276.359 39.3992 275.33 41.0715C274.783 41.972 274.171 42.9689 273.447 44.2071C273.399 44.2875 273.335 44.3196 273.271 44.3196Z" fill="#0F2032"/>
<path d="M254.128 114.942C254.128 114.942 254.112 114.942 254.128 114.942C253.999 114.942 253.919 114.846 253.935 114.733L255.865 77.8941C255.865 77.7816 255.962 77.7012 256.058 77.7012C256.058 77.7012 256.058 77.7012 256.074 77.7012C256.187 77.7012 256.267 77.7977 256.267 77.9102L254.337 114.749C254.321 114.862 254.224 114.942 254.128 114.942Z" fill="#0F2032"/>
<path d="M315.89 15.3723C315.777 15.3723 315.696 15.2758 315.696 15.1794V0.192958C315.696 0.0803991 315.793 0 315.89 0C315.986 0 316.083 0.096479 316.083 0.192958V15.1633C316.083 15.2758 316.003 15.3723 315.89 15.3723Z" fill="#0F2032"/>
<path d="M321.68 7.89568H310.098C309.985 7.89568 309.905 7.7992 309.905 7.70272C309.905 7.60624 310.001 7.50977 310.098 7.50977H321.68C321.793 7.50977 321.873 7.60624 321.873 7.70272C321.873 7.7992 321.793 7.89568 321.68 7.89568Z" fill="#0F2032"/>
<path d="M312.414 11.3688C312.366 11.3688 312.318 11.3527 312.269 11.3045C312.189 11.2241 312.189 11.0955 312.269 11.0151L319.235 4.05249C319.315 3.97209 319.444 3.97209 319.524 4.05249C319.605 4.13289 319.605 4.26152 319.524 4.34192L312.559 11.3045C312.511 11.3527 312.462 11.3688 312.414 11.3688Z" fill="#0F2032"/>
<path d="M319.364 11.3688C319.316 11.3688 319.267 11.3527 319.219 11.3045L312.254 4.34192C312.173 4.26152 312.173 4.13289 312.254 4.05249C312.334 3.97209 312.463 3.97209 312.543 4.05249L319.509 11.0151C319.589 11.0955 319.589 11.2241 319.509 11.3045C319.476 11.3527 319.412 11.3688 319.364 11.3688Z" fill="#0F2032"/>
<path d="M237.559 235.991C245.023 190.309 218.545 163.793 218.545 163.793L208.555 163.97L169.658 163.793C169.658 163.793 146.526 196.419 157.384 235.991H237.559Z" fill="#0F58CE"/>
<g opacity="0.5">
<path opacity="0.5" d="M190.265 163.873L208.555 163.954L218.545 163.777C217.161 160.416 216.743 156.493 216.856 152.682L177.106 160.545L190.265 163.873Z" fill="#A2BDFF"/>
</g>
<path d="M218.528 163.776L208.539 163.953L190.249 163.873L224.786 171.865C221.295 166.574 218.528 163.776 218.528 163.776Z" fill="#0735B7"/>
<path d="M196.667 171.351C197.644 171.351 198.436 170.559 198.436 169.582C198.436 168.605 197.644 167.813 196.667 167.813C195.69 167.813 194.897 168.605 194.897 169.582C194.897 170.559 195.69 171.351 196.667 171.351Z" fill="#0F2032"/>
<path d="M248.948 93.3643H190.265V152.023H248.948V93.3643Z" fill="#CADCFF"/>
<path d="M177.09 160.546L190.265 152.007V93.3643L177.09 101.903V160.546Z" fill="#81B4FC"/>
<path d="M235.757 160.545H177.09L190.265 152.007H248.932L235.757 160.545Z" fill="#81B4FC"/>
<path d="M177.089 160.754C177.025 160.754 176.961 160.722 176.928 160.658C176.864 160.561 176.896 160.433 176.993 160.384L190.168 151.846C190.264 151.782 190.393 151.814 190.441 151.91C190.505 152.007 190.473 152.135 190.377 152.184L177.202 160.722C177.154 160.738 177.122 160.754 177.089 160.754Z" fill="#0F2032"/>
<path d="M241.355 122.677V101.065H209.52V122.677H241.355Z" fill="white"/>
<path d="M241.355 101.066H209.52V105.215H241.355V101.066Z" fill="#81B4FC"/>
<path d="M219.638 117.628H213.428C213.316 117.628 213.235 117.532 213.235 117.435C213.235 117.339 213.332 117.242 213.428 117.242H219.638C219.75 117.242 219.831 117.339 219.831 117.435C219.831 117.532 219.75 117.628 219.638 117.628Z" fill="#0F2032"/>
<path d="M222.34 119.992H213.428C213.316 119.992 213.235 119.896 213.235 119.799C213.235 119.703 213.332 119.606 213.428 119.606H222.34C222.453 119.606 222.533 119.703 222.533 119.799C222.533 119.896 222.453 119.992 222.34 119.992Z" fill="#0F2032"/>
<path d="M220.474 115.248H213.428C213.316 115.248 213.235 115.152 213.235 115.055C213.235 114.959 213.332 114.862 213.428 114.862H220.474C220.587 114.862 220.667 114.959 220.667 115.055C220.667 115.152 220.587 115.248 220.474 115.248Z" fill="#0F2032"/>
<path d="M241.355 122.886H209.52C209.407 122.886 209.327 122.79 209.327 122.693V101.066C209.327 100.953 209.423 100.873 209.52 100.873C209.616 100.873 209.713 100.97 209.713 101.066V122.484H241.339C241.451 122.484 241.532 122.581 241.532 122.677C241.532 122.774 241.467 122.886 241.355 122.886Z" fill="#0F2032"/>
<path d="M232.684 120.539C232.571 120.539 232.491 120.442 232.491 120.346V103.414C232.491 103.301 232.587 103.221 232.684 103.221C232.781 103.221 232.878 103.317 232.878 103.414V120.33C232.894 120.442 232.797 120.539 232.684 120.539Z" fill="#0F2032"/>
<path d="M235.21 120.539C235.097 120.539 235.017 120.443 235.017 120.346V117.42C235.017 117.307 235.113 117.227 235.21 117.227C235.307 117.227 235.404 117.323 235.404 117.42V120.33C235.404 120.443 235.323 120.539 235.21 120.539Z" fill="#0F2032"/>
<path d="M235.983 120.539C235.87 120.539 235.789 120.443 235.789 120.346V117.42C235.789 117.307 235.886 117.227 235.983 117.227C236.079 117.227 236.176 117.323 236.176 117.42V120.33C236.176 120.443 236.095 120.539 235.983 120.539Z" fill="#0F2032"/>
<path d="M236.755 120.539C236.642 120.539 236.561 120.443 236.561 120.346V117.42C236.561 117.307 236.658 117.227 236.755 117.227C236.851 117.227 236.948 117.323 236.948 117.42V120.33C236.964 120.443 236.867 120.539 236.755 120.539Z" fill="#0F2032"/>
<path d="M237.527 120.539C237.414 120.539 237.333 120.443 237.333 120.346V117.42C237.333 117.307 237.43 117.227 237.527 117.227C237.623 117.227 237.72 117.323 237.72 117.42V120.33C237.736 120.443 237.639 120.539 237.527 120.539Z" fill="#0F2032"/>
<path d="M238.315 120.539C238.202 120.539 238.122 120.443 238.122 120.346V117.42C238.122 117.307 238.218 117.227 238.315 117.227C238.412 117.227 238.509 117.323 238.509 117.42V120.33C238.509 120.443 238.412 120.539 238.315 120.539Z" fill="#0F2032"/>
<path d="M239.088 120.539C238.975 120.539 238.894 120.443 238.894 120.346V117.42C238.894 117.307 238.991 117.227 239.088 117.227C239.184 117.227 239.281 117.323 239.281 117.42V120.33C239.281 120.443 239.2 120.539 239.088 120.539Z" fill="#0F2032"/>
<g opacity="0.55">
<path opacity="0.55" d="M210.05 160.545H202.795L215.97 152.007H223.225L210.05 160.545Z" fill="#81B4FC"/>
</g>
<g opacity="0.55">
<path opacity="0.55" d="M223.21 93.3643H215.971V152.023H223.21V93.3643Z" fill="#81B4FC"/>
</g>
<path d="M248.931 152.216C248.819 152.216 248.738 152.12 248.738 152.023V93.5568H190.264C190.152 93.5568 190.071 93.4603 190.071 93.3639C190.071 93.2674 190.168 93.1709 190.264 93.1709H248.948C249.06 93.1709 249.141 93.2674 249.141 93.3639V152.023C249.141 152.12 249.044 152.216 248.931 152.216Z" fill="#0F2032"/>
<path d="M168.033 60.5601L163.98 41.3125L158.784 51.4267L160.859 56.7974L168.033 60.5601Z" fill="#0F58CE"/>
<path d="M203.825 39.415C203.825 39.415 199.144 26.1492 187.722 25.0718C184.972 24.8145 181.915 25.1522 178.891 25.9884C178.955 24.509 178.746 22.2578 177.508 19.3474C175.207 13.8963 166.44 13.5908 166.44 13.5908C166.151 21.277 169.529 24.8628 172.794 26.519C167.244 27.114 157.464 30.6837 152.751 47.8248C145.946 72.5234 149.421 73.1987 149.421 73.1987C149.421 73.1987 160.424 43.5154 160.81 43.8209C160.858 43.8691 161.276 43.644 161.92 43.2259C161.727 44.8339 161.727 46.5223 161.984 48.3072L180.242 44.4158L180.226 39.6562L182.269 43.9817L203.825 39.415Z" fill="#0F58CE"/>
<path d="M159.073 65.3842C161.228 69.8544 165.475 71.4623 168.934 69.79C172.392 68.1177 173.776 63.8083 171.604 59.3382C169.448 54.868 165.234 53.3404 161.775 55.0127C158.317 56.685 156.901 60.8979 159.073 65.3842Z" fill="#FFB3C9"/>
<path d="M166.038 66.7994C164.156 66.7994 162.66 65.8506 161.727 64.0336C161.068 62.7472 160.923 61.2679 161.325 60.0619C161.647 59.1132 162.306 58.3735 163.207 57.9554C163.304 57.9072 163.432 57.9554 163.481 58.0519C163.529 58.1484 163.481 58.277 163.384 58.3253C162.58 58.6951 162.001 59.3544 161.711 60.1905C161.325 61.3001 161.47 62.6508 162.081 63.8407C162.901 65.4165 164.574 67.0888 167.904 66.0918C168.017 66.0597 168.13 66.124 168.162 66.2205C168.194 66.333 168.13 66.4456 168.033 66.4778C167.325 66.6868 166.666 66.7994 166.038 66.7994Z" fill="#0F2032"/>
<path d="M165.217 72.0574C166.15 72.0574 166.906 71.3015 166.906 70.369C166.906 69.4366 166.15 68.6807 165.217 68.6807C164.285 68.6807 163.528 69.4366 163.528 70.369C163.528 71.3015 164.285 72.0574 165.217 72.0574Z" fill="#0F2032"/>
<path d="M171.315 26.9534C171.218 26.9534 171.138 26.8891 171.122 26.7926C171.106 26.6801 171.17 26.5836 171.266 26.5514C171.282 26.5514 173.647 26.0369 176.848 25.9565C177.106 25.7957 178.377 25.1043 180.934 24.5093C181.047 24.4932 181.143 24.5575 181.176 24.654C181.208 24.7666 181.127 24.8631 181.031 24.8952C178.28 25.5384 177.041 26.3102 177.025 26.3263C176.993 26.3424 176.961 26.3585 176.929 26.3585C173.744 26.4228 171.395 26.9374 171.363 26.9534C171.347 26.9534 171.331 26.9534 171.315 26.9534Z" fill="#0F2032"/>
<path d="M173.132 157.377C173.084 157.361 170.832 156.718 169.947 156.477L161.308 143.838L152.959 151.701C154.359 157.667 158.268 162.732 163.673 165.61L165.394 166.527L170.381 158.921C171.411 158.358 173.164 157.393 173.132 157.377Z" fill="#FFB3C9"/>
<path d="M150.129 154.563C150.081 154.563 150.016 154.547 149.984 154.499C149.904 154.419 149.92 154.29 149.984 154.21L157.529 147.102C157.609 147.022 157.738 147.022 157.818 147.102C157.899 147.183 157.883 147.311 157.818 147.392L150.274 154.499C150.225 154.547 150.177 154.563 150.129 154.563Z" fill="#0F2032"/>
<path d="M193.402 136.023C192.823 135.476 192.034 135.203 191.262 135.01C187.852 134.206 184.023 134.817 180.645 135.54C179.246 135.846 177.878 136.28 176.543 136.73C179.535 134.849 184.972 134.447 187.611 133.981C188.64 133.788 189.67 133.45 190.49 132.807C191.294 132.18 191.857 131.118 191.745 130.089C191.616 128.899 190.554 128.176 189.541 127.71C188.592 127.275 187.562 127.099 186.517 127.018C183.315 126.761 180.114 127.372 176.993 128.047C170.704 129.398 164.543 134.238 162.097 140.236C159.668 146.201 162.194 155.061 168.58 157.522C170.511 158.261 172.763 158.213 174.645 157.313C175.546 156.878 176.366 156.267 176.881 155.415C177.251 154.788 177.444 154.08 177.717 153.389C178.103 152.408 178.731 151.717 179.551 151.074C181.047 149.9 182.865 149.546 184.699 149.224C186.404 148.919 188.125 148.565 189.734 147.906C191.069 147.359 192.195 146.41 192.469 144.931C192.726 143.516 191.664 142.326 190.345 141.956C189.219 141.651 187.997 141.86 186.871 142.053C183.991 142.567 181.128 143.114 178.28 143.693C179.213 143.275 180.018 142.905 180.243 142.825C182.72 141.988 185.278 141.699 187.852 141.474C189.107 141.361 190.442 141.329 191.664 141.024C192.758 140.766 193.82 140.027 194.158 138.901C194.479 137.92 194.158 136.746 193.402 136.023Z" fill="#FFB3C9"/>
<path d="M174.098 138.29C174.034 138.29 173.969 138.258 173.921 138.193C173.857 138.097 173.889 137.984 173.986 137.92C174.018 137.888 178.071 135.363 184.007 134.704C190.265 134.013 193.691 134.785 194.496 137.084C194.528 137.18 194.48 137.309 194.367 137.341C194.254 137.373 194.142 137.325 194.11 137.213C193.386 135.154 189.992 134.447 184.04 135.106C178.2 135.749 174.227 138.226 174.195 138.258C174.179 138.29 174.13 138.29 174.098 138.29Z" fill="#0F2032"/>
<path d="M177.09 144.995C177.058 144.995 177.01 144.979 176.977 144.963C176.881 144.899 176.865 144.786 176.929 144.69C176.961 144.641 177.653 143.661 181.015 142.841C183.364 142.262 191.15 140.622 192.63 143.323C192.678 143.419 192.646 143.548 192.549 143.596C192.453 143.645 192.324 143.612 192.276 143.516C191.214 141.57 185.809 142.101 181.112 143.243C177.927 144.014 177.267 144.915 177.251 144.931C177.219 144.963 177.154 144.995 177.09 144.995Z" fill="#0F2032"/>
<path d="M169.722 131.296C169.658 131.296 169.594 131.264 169.562 131.215C169.497 131.119 169.513 131.006 169.61 130.942C169.642 130.91 173.31 128.353 178.473 127.453C178.57 127.437 178.683 127.501 178.699 127.613C178.715 127.726 178.65 127.822 178.538 127.839C173.471 128.723 169.883 131.231 169.835 131.247C169.803 131.28 169.755 131.296 169.722 131.296Z" fill="#0F2032"/>
<path d="M151.111 178.956C150.676 178.956 150.226 178.924 149.775 178.86C139.126 177.412 139.126 166.8 139.142 159.033V156.959C139.142 156.846 139.239 156.766 139.335 156.766C139.432 156.766 139.528 156.862 139.528 156.959V159.033C139.528 166.639 139.512 177.059 149.808 178.458C155.454 179.229 159.266 175.033 162.532 170.385C163.32 169.26 164.141 168.038 165.202 166.414L169.851 159.355C170.414 158.502 171.347 157.94 172.441 157.843C174.018 157.682 176.833 156.766 177.894 152.569C177.927 152.456 178.023 152.392 178.136 152.424C178.248 152.456 178.313 152.553 178.281 152.665C177.154 157.104 174.162 158.068 172.489 158.245C171.524 158.342 170.704 158.84 170.205 159.58L165.556 166.639C164.511 168.263 163.69 169.485 162.886 170.627C159.942 174.791 156.274 178.956 151.111 178.956Z" fill="#0F2032"/>
<path d="M157.368 235.991L161.181 248.999H234.808L237.559 235.991L213.429 214.492L157.368 235.991Z" fill="#0F58CE"/>
<path d="M197.745 247.729C197.632 247.729 197.536 247.633 197.552 247.52L198.228 197.705C198.228 197.625 198.276 197.56 198.34 197.528L203.263 194.971C203.359 194.923 203.488 194.955 203.536 195.052C203.584 195.148 203.552 195.277 203.456 195.325L198.646 197.834L197.97 247.52C197.938 247.649 197.858 247.729 197.745 247.729Z" fill="#0F2032"/>
<path d="M214.905 6.8085C216.51 6.8085 217.811 5.50822 217.811 3.90425C217.811 2.30028 216.51 1 214.905 1C213.301 1 212 2.30028 212 3.90425C212 5.50822 213.301 6.8085 214.905 6.8085Z" fill="#0F2032"/>
<path d="M309.703 87.8365C305.716 85.8891 302.851 82.696 301.854 79.079C300.965 75.8455 301.789 72.3234 303.763 69.972C302.93 68.3478 302.536 66.4933 302.66 64.6487C302.834 61.9507 304.122 59.3832 306.181 57.629C306.269 57.5571 306.414 57.5665 306.486 57.6549C306.558 57.7432 306.556 57.8726 306.46 57.96C304.49 59.6423 303.25 62.1014 303.088 64.6926C302.967 66.4079 303.316 68.112 304.062 69.6408C304.528 69.1433 305.059 68.7118 305.645 68.3616C307.374 67.297 309.335 67.0822 310.869 67.7739C311.689 68.1442 312.395 68.8536 312.794 69.7044C313.218 70.6226 313.241 71.5643 312.886 72.3918C312.286 73.7233 310.668 74.5401 309.025 74.3393C307.313 74.1261 306.014 72.9994 305.202 72.1118C304.733 71.5831 304.322 71.0065 303.963 70.3973C302.136 72.6289 301.402 75.9498 302.254 78.9796C303.223 82.4912 306.001 85.5889 309.871 87.4649C309.979 87.5138 310.015 87.6416 309.966 87.75C309.924 87.8429 309.796 87.8784 309.703 87.8365ZM304.275 70.0352C304.62 70.6753 305.04 71.2744 305.525 71.8101C306.281 72.6543 307.502 73.7081 309.076 73.8964C310.536 74.0892 311.982 73.3628 312.506 72.2017C312.82 71.505 312.787 70.6701 312.42 69.8713C312.062 69.0949 311.429 68.4739 310.701 68.1455C309.292 67.5097 307.483 67.7184 305.864 68.7026C305.286 69.0752 304.749 69.5223 304.275 70.0352Z" fill="#0F2032"/>
<path d="M97.143 38.0122L67.3714 30.5982C69.4808 31.1195 70.7754 33.2589 70.2408 35.3618L58.9138 80.8915L61.2447 79.4848L62.6388 81.8097L64.9697 80.403L66.3638 82.7279L68.6947 81.3212L70.0888 83.6461L72.4197 82.2394L73.8138 84.5643L76.1446 83.1576L77.5388 85.4825L79.8696 84.0758L81.2638 86.4007L83.5946 84.994L84.9888 87.3189L87.3196 85.9122L88.7138 88.2371L100.012 42.7758C100.547 40.6729 99.2524 38.5335 97.143 38.0122Z" fill="#CADCFF"/>
<path d="M66.5444 75.5568C66.4759 75.5284 66.4245 75.459 66.4255 75.3793L66.5398 69.1428C66.5327 69.0437 66.6328 68.9569 66.7263 68.9636C66.8334 68.9759 66.9122 69.0567 66.9056 69.1501L66.8038 74.8147L69.5285 71.1025C69.5706 71.0397 69.648 71.0077 69.7164 71.0361C69.7905 71.0507 69.842 71.1201 69.8604 71.1919L70.5231 75.7465L73.0798 70.6983C73.1331 70.6082 73.2219 70.5488 73.3201 70.6215C73.4102 70.6749 73.4446 70.7854 73.4106 70.8675L70.5918 76.4322C70.5634 76.5006 70.4803 76.5464 70.3926 76.526C70.3185 76.5114 70.2477 76.45 70.2349 76.3645L69.5491 71.6721L66.746 75.496C66.7096 75.5451 66.6322 75.5771 66.5444 75.5568Z" fill="#0F2032"/>
<path d="M65.2457 71.8762C65.1636 71.8422 65.1178 71.7591 65.1438 71.6577C65.1698 71.5563 65.2723 71.5025 65.3738 71.5285L73.3528 73.52C73.4543 73.5461 73.5081 73.6485 73.4878 73.7362C73.4618 73.8377 73.3593 73.8914 73.2579 73.8654L65.2788 71.8739C65.2594 71.8819 65.2594 71.8819 65.2457 71.8762Z" fill="#0F2032"/>
<path d="M58.8263 81.0634C58.7442 81.0294 58.6984 80.9463 58.7244 80.8449L69.212 38.7345L61.754 36.8787C61.6469 36.8664 61.5987 36.7503 61.6191 36.6625L62.4178 33.4187C62.9647 31.2087 65.2068 29.8614 67.4176 30.4087C69.6147 30.9503 70.9768 33.1979 70.43 35.4079L59.1029 80.9376C59.077 81.0391 58.9745 81.0928 58.873 81.0668C58.8537 81.0748 58.84 81.0691 58.8263 81.0634ZM67.8541 30.9422C67.6898 30.8742 67.5062 30.8141 67.3169 30.7677C65.3091 30.2725 63.2638 31.493 62.769 33.5001L62.0166 36.5547L69.299 38.3698L70.0514 35.3152C70.5136 33.5029 69.5376 31.6397 67.8541 30.9422Z" fill="#0F2032"/>
<path d="M58.8264 81.0639C58.7853 81.0469 58.7636 81.0219 58.7419 80.9968C58.6824 80.9081 58.7141 80.793 58.7972 80.7472L61.1281 79.3405C61.1724 79.3108 61.2192 79.3141 61.2659 79.3175C61.3126 79.3208 61.3617 79.3572 61.3777 79.3959L62.6747 81.5683L64.8394 80.253C64.8837 80.2233 64.9305 80.2267 64.9772 80.23C65.0239 80.2333 65.073 80.2697 65.0891 80.3084L66.386 82.4808L68.5507 81.1656C68.595 81.1358 68.6418 81.1392 68.6885 81.1425C68.7352 81.1458 68.7843 81.1822 68.8004 81.2209L70.0973 83.3934L72.262 82.0781C72.3064 82.0484 72.3531 82.0517 72.3998 82.055C72.4466 82.0584 72.4956 82.0947 72.5117 82.1334L73.8086 84.3059L75.9733 82.9906C76.0177 82.9609 76.0644 82.9642 76.1111 82.9676C76.1522 82.9846 76.2069 83.0073 76.223 83.046L77.5199 85.2184L79.6846 83.9031C79.729 83.8734 79.7757 83.8768 79.8224 83.8801C79.8635 83.8971 79.9182 83.9198 79.9343 83.9585L81.2312 86.1309L83.3959 84.8157C83.4403 84.786 83.487 84.7893 83.5337 84.7926C83.5748 84.8096 83.6296 84.8323 83.6456 84.871L84.9425 87.0435L87.1072 85.7282C87.1516 85.6985 87.1983 85.7018 87.245 85.7051C87.2861 85.7222 87.3409 85.7448 87.3569 85.7835L88.751 88.1085C88.8105 88.1972 88.7788 88.3123 88.6901 88.3718C88.6013 88.4312 88.4861 88.3995 88.4404 88.3164L87.1434 86.1439L84.9787 87.4592C84.9344 87.4889 84.8876 87.4856 84.8409 87.4823C84.7942 87.4789 84.7451 87.4426 84.7291 87.4039L83.4321 85.2314L81.2674 86.5467C81.223 86.5764 81.1763 86.5731 81.1296 86.5697C81.0829 86.5664 81.0338 86.53 81.0177 86.4913L79.7208 84.3189L77.5561 85.6342C77.5117 85.6639 77.465 85.6605 77.4183 85.6572C77.3716 85.6539 77.3225 85.6175 77.3064 85.5788L76.0095 83.4064L73.8448 84.7216C73.8004 84.7514 73.7537 84.748 73.707 84.7447C73.6602 84.7414 73.6112 84.705 73.5951 84.6663L72.2982 82.4938L70.1335 83.8091C70.0891 83.8388 70.0424 83.8355 69.9957 83.8322C69.9489 83.8288 69.8999 83.7925 69.8838 83.7538L68.5869 81.5813L66.4222 82.8966C66.3778 82.9263 66.3311 82.923 66.2844 82.9196C66.2376 82.9163 66.1886 82.8799 66.1725 82.8412L64.8756 80.6688L62.7109 81.9841C62.6665 82.0138 62.6198 82.0104 62.5731 82.0071C62.5263 82.0038 62.4772 81.9674 62.4612 81.9287L61.1643 79.7563L58.9996 81.0715C58.9472 81.0819 58.8811 81.0866 58.8264 81.0639Z" fill="#0F2032"/>
<path d="M73.6868 37.9596C73.6046 37.9256 73.5589 37.8425 73.5849 37.7411C73.6109 37.6396 73.7133 37.5859 73.8148 37.6119L85.5736 40.5443C85.6751 40.5703 85.7289 40.6727 85.7085 40.7605C85.6825 40.862 85.5801 40.9157 85.4786 40.8897L73.7198 37.9573C73.7141 37.971 73.7004 37.9653 73.6868 37.9596Z" fill="#0F2032"/>
<path d="M72.315 43.5146C72.2329 43.4806 72.1872 43.3975 72.2131 43.2961C72.2391 43.1946 72.3416 43.1409 72.4431 43.1669L87.0957 46.8174C87.1972 46.8434 87.251 46.9458 87.2306 47.0336C87.2047 47.135 87.1022 47.1888 87.0007 47.1627L72.3287 43.5203L72.315 43.5146Z" fill="#0F2032"/>
<path d="M70.9355 49.0512C70.8534 49.0171 70.8076 48.9341 70.8336 48.8326C70.8596 48.7312 70.9621 48.6774 71.0635 48.7035L80.1509 50.9618C80.2524 50.9878 80.3061 51.0902 80.2858 51.178C80.2598 51.2794 80.1574 51.3332 80.0559 51.3072L70.9686 49.0488C70.9492 49.0568 70.9355 49.0512 70.9355 49.0512Z" fill="#0F2032"/>
<path d="M69.5499 54.6003C69.4678 54.5663 69.422 54.4832 69.448 54.3818C69.474 54.2803 69.5765 54.2266 69.6779 54.2526L82.0787 57.3387C82.1802 57.3648 82.2339 57.4672 82.2136 57.555C82.1876 57.6564 82.0852 57.7101 81.9837 57.6841L69.583 54.598C69.5636 54.606 69.5499 54.6003 69.5499 54.6003Z" fill="#0F2032"/>
<path d="M68.1705 60.1357C68.0884 60.1017 68.0426 60.0186 68.0686 59.9172C68.0946 59.8157 68.1971 59.762 68.2985 59.788L82.9512 63.4385C83.0526 63.4645 83.1064 63.5669 83.0861 63.6547C83.0601 63.7561 82.9577 63.8098 82.8562 63.7838L68.2035 60.1334C68.1842 60.1414 68.1842 60.1414 68.1705 60.1357Z" fill="#0F2032"/>
<path d="M91.5516 42.412C91.4694 42.378 91.4237 42.2949 91.4497 42.1934C91.4757 42.092 91.5781 42.0383 91.6796 42.0643L95.7364 43.0719C95.8379 43.0979 95.8917 43.2003 95.8713 43.2881C95.8453 43.3895 95.7429 43.4433 95.6414 43.4172L91.5846 42.4097C91.5653 42.4177 91.5516 42.412 91.5516 42.412Z" fill="#0F2032"/>
<path d="M90.1663 47.9618C90.0842 47.9278 90.0384 47.8447 90.0644 47.7433C90.0904 47.6418 90.1929 47.5881 90.2943 47.6141L94.3511 48.6217C94.4526 48.6477 94.5064 48.7501 94.4861 48.8379C94.4601 48.9393 94.3576 48.9931 94.2562 48.967L90.1994 47.9595C90.18 47.9675 90.1663 47.9618 90.1663 47.9618Z" fill="#0F2032"/>
<path d="M88.7864 53.497C88.7043 53.4629 88.6586 53.3799 88.6845 53.2784C88.7105 53.177 88.813 53.1232 88.9145 53.1492L92.9713 54.1568C93.0727 54.1828 93.1265 54.2853 93.1062 54.373C93.0802 54.4745 92.9778 54.5282 92.8763 54.5022L88.8195 53.4946C88.8001 53.5026 88.8001 53.5026 88.7864 53.497Z" fill="#0F2032"/>
<path d="M87.4012 59.0468C87.3191 59.0127 87.2733 58.9297 87.2993 58.8282C87.3253 58.7268 87.4277 58.673 87.5292 58.6991L91.586 59.7066C91.6875 59.7326 91.7413 59.8351 91.7209 59.9228C91.6949 60.0243 91.5925 60.078 91.491 60.052L87.4342 59.0444C87.4149 59.0524 87.4149 59.0524 87.4012 59.0468Z" fill="#0F2032"/>
<path d="M86.0218 64.5829C85.9397 64.5489 85.8939 64.4658 85.9199 64.3643C85.9459 64.2629 86.0483 64.2092 86.1498 64.2352L90.2066 65.2428C90.3081 65.2688 90.3619 65.3712 90.3416 65.459C90.3156 65.5604 90.2131 65.6142 90.1117 65.5881L86.0548 64.5805C86.0492 64.5942 86.0355 64.5886 86.0218 64.5829Z" fill="#0F2032"/>
<path d="M76.6053 78.0581C76.5232 78.024 76.4774 77.941 76.5034 77.8395C76.5294 77.7381 76.6319 77.6843 76.7333 77.7104L86.5036 80.1394C86.6051 80.1655 86.6589 80.2679 86.6386 80.3557C86.6126 80.4571 86.5101 80.5108 86.4087 80.4848L76.6383 78.0557C76.6327 78.0694 76.619 78.0637 76.6053 78.0581Z" fill="#0F2032"/>
<path d="M317.577 101.204C317.764 101.119 317.968 101.068 318.172 101.034C318.223 101.017 318.274 101.017 318.325 101.017C318.495 101 318.648 101 318.834 101C319.038 101 319.225 101 319.429 101C319.48 101 319.548 101 319.599 101C319.888 101 320.143 101.017 320.415 101.085C320.669 101.136 320.958 101.221 321.145 101.374L356.945 128.667C358.457 129.822 358.797 131.707 357.743 133.185L323.524 181.147C323.218 181.589 322.165 181.826 322.131 181.843C321.332 182.03 319.854 181.962 319.208 181.47L283.408 154.177C281.896 153.022 281.556 151.137 282.61 149.659L316.829 101.696C316.999 101.442 317.305 101.306 317.577 101.204Z" fill="#FBA2B7"/>
<path d="M321.774 179.856C321.723 179.856 321.689 179.839 321.655 179.822C321.553 179.754 321.536 179.618 321.604 179.534L354.855 132.454C355.416 131.673 355.246 130.688 354.447 130.059L318.953 102.715C318.868 102.647 318.834 102.512 318.919 102.41C318.987 102.308 319.123 102.291 319.208 102.376L354.702 129.72C355.671 130.484 355.874 131.724 355.195 132.692L321.944 179.771C321.91 179.839 321.842 179.856 321.774 179.856Z" fill="#0F2032"/>
<path d="M312.751 136.836C309.948 140.436 310.441 145.599 313.686 148.249C316.914 150.898 321.655 150.015 324.458 146.432C327.262 142.831 325.834 139.383 322.606 136.734C319.378 134.084 315.555 133.235 312.751 136.836Z" fill="white"/>
<path d="M326.752 133.66C327.89 133.541 329.335 134.135 330.337 134.815C329.742 135.766 328.485 136.615 327.364 136.785C327.33 136.785 327.296 136.785 327.262 136.785C327.228 136.785 327.194 136.802 327.16 136.802C326.021 136.921 324.679 136.683 323.575 135.647C324.169 134.696 325.427 133.847 326.548 133.677C326.582 133.677 326.616 133.677 326.65 133.677C326.684 133.677 326.718 133.66 326.752 133.66Z" fill="white"/>
<path d="M87.652 178.97L-8.74995 179.254C-8.79268 165.045 -6.31426 151.12 7.11763 143.645C21.5608 135.601 36.4314 135.757 52.0995 139.388C54.1649 139.872 55.9738 141.367 57.0564 143.489L60.9876 151.149C60.9876 151.149 73.337 151.803 81.8975 155.918C83.7919 156.829 85.5297 158.082 87.125 159.592L88.7773 161.158L89.8598 161.813C90.7429 162.354 91.3981 163.308 91.6403 164.447L93.3353 172.377L90.6432 172.392L87.652 178.97Z" fill="#81B4FC"/>
<path d="M-8.74948 179.425C-8.84919 179.425 -8.92041 179.34 -8.92041 179.254C-8.92041 179.155 -8.83495 179.083 -8.74948 179.083L76.1435 178.827C76.2432 178.827 76.3144 178.913 76.3144 178.998C76.3144 179.098 76.229 179.169 76.1435 179.169L-8.74948 179.425Z" fill="#0F2032"/>
<path d="M9.80987 187.527C15.9458 187.527 20.92 182.554 20.92 176.421C20.92 170.288 15.9458 165.315 9.80987 165.315C3.67389 165.315 -1.30029 170.288 -1.30029 176.421C-1.30029 182.554 3.67389 187.527 9.80987 187.527Z" fill="#0F2032"/>
<path d="M9.81003 181.903C12.8387 181.903 15.2939 179.448 15.2939 176.421C15.2939 173.394 12.8387 170.939 9.81003 170.939C6.78138 170.939 4.32617 173.394 4.32617 176.421C4.32617 179.448 6.78138 181.903 9.81003 181.903Z" fill="white"/>
<path d="M79.4339 187.313C85.5698 187.313 90.544 182.341 90.544 176.207C90.544 170.074 85.5698 165.102 79.4339 165.102C73.2979 165.102 68.3237 170.074 68.3237 176.207C68.3237 182.341 73.2979 187.313 79.4339 187.313Z" fill="#0F2032"/>
<path d="M79.4341 181.689C82.4627 181.689 84.9179 179.235 84.9179 176.207C84.9179 173.18 82.4627 170.726 79.4341 170.726C76.4054 170.726 73.9502 173.18 73.9502 176.207C73.9502 179.235 76.4054 181.689 79.4341 181.689Z" fill="white"/>
<path d="M90.0023 172.391L93.3638 172.377C93.6772 172.377 93.9193 172.633 93.9193 172.946L93.9336 175.993C93.9336 176.307 93.6914 176.563 93.3781 176.563L90.0165 176.577C89.7032 176.577 89.461 176.321 89.461 176.008L89.4468 172.961C89.4468 172.647 89.6889 172.391 90.0023 172.391Z" fill="#0F2032"/>
<path d="M91.3463 167.048C92.0297 166.81 92.1556 165.389 91.6274 163.874C91.0993 162.359 90.1171 161.324 89.4337 161.562C88.7503 161.8 88.6244 163.221 89.1526 164.736C89.6807 166.251 90.6629 167.286 91.3463 167.048Z" fill="white"/>
<path d="M91.9402 166.213H91.926C91.8263 166.198 91.755 166.113 91.7693 166.013C91.8405 165.373 91.7123 164.547 91.4132 163.749C90.9004 162.397 90.1312 161.699 89.647 161.699C89.6327 161.699 89.6042 161.699 89.59 161.699C89.5045 161.699 89.419 161.628 89.419 161.543C89.4048 161.443 89.4903 161.357 89.5757 161.343C90.3164 161.301 91.1995 162.212 91.7408 163.621C92.0684 164.476 92.2108 165.358 92.1254 166.056C92.1111 166.141 92.0257 166.213 91.9402 166.213Z" fill="#0F2032"/>
<path d="M35.2211 176.521C34.7653 176.521 34.3237 176.307 34.0104 175.937C33.697 175.567 33.5118 175.083 33.5118 174.556L33.4121 141.168C33.4121 141.068 33.4976 140.997 33.583 140.997C33.6827 140.997 33.754 141.082 33.754 141.168L33.8537 174.556C33.8537 174.997 33.9961 175.396 34.2667 175.709C34.5231 176.008 34.8507 176.165 35.2068 176.165L60.2332 176.094C60.9738 176.094 61.5863 175.367 61.5863 174.47L61.5436 162.354C61.5436 162.254 61.6291 162.183 61.7145 162.183C61.8142 162.183 61.8854 162.269 61.8854 162.354L61.9282 174.47C61.9282 175.553 61.1733 176.45 60.2189 176.45L35.2211 176.521Z" fill="#0F2032"/>
<path d="M41.1037 163.152L37.1012 163.166C36.7166 163.166 36.4175 162.867 36.4175 162.482V162.369C36.4175 161.984 36.7166 161.685 37.1012 161.685L41.1037 161.671C41.4883 161.671 41.7874 161.97 41.7874 162.354V162.468C41.7874 162.838 41.474 163.152 41.1037 163.152Z" fill="#0F2032"/>
<path d="M56.4305 152.672C55.8323 150.28 54.707 147.945 53.4393 145.966C52.015 143.759 50.206 143.133 47.8843 142.677C46.7163 142.449 45.534 142.307 44.3518 142.221C42.1725 142.051 40.0217 141.908 37.8851 141.851C36.8881 141.823 36.0762 142.777 36.0762 143.944L36.1047 153.484C36.1047 154.637 36.9023 155.577 37.8994 155.577C42.6568 155.562 47.4 155.505 52.1432 155.32C53.012 155.292 54.1088 155.377 54.9777 155.164C55.932 154.922 56.8151 154.252 56.4305 152.672Z" fill="white"/>
<path d="M64.9335 176.435H64.9192C64.8195 176.421 64.7483 176.335 64.7626 176.236C65.3323 169.999 67.5116 165.671 71.2292 163.379C74.4911 161.371 78.3654 161.328 81.0432 161.656C83.9347 162.012 86.0855 162.838 86.0998 162.852C86.1852 162.895 86.2422 162.994 86.1995 163.08C86.1567 163.165 86.0713 163.208 85.9716 163.179C85.8861 163.151 77.5107 159.919 71.4144 163.678C67.7965 165.913 65.6742 170.142 65.1187 176.264C65.1044 176.364 65.0189 176.435 64.9335 176.435Z" fill="#0F2032"/>
<path d="M24.0538 176.549C23.9684 176.549 23.8971 176.492 23.8829 176.393C22.9855 170.256 20.6638 166.07 16.9746 163.935C11.3626 160.703 4.44012 163.394 4.3689 163.422C4.28343 163.465 4.16948 163.408 4.141 163.322C4.09826 163.237 4.15524 163.123 4.2407 163.095C4.31192 163.066 11.3911 160.304 17.1456 163.621C20.9487 165.814 23.3274 170.085 24.239 176.336C24.2532 176.435 24.182 176.521 24.0823 176.535C24.0681 176.549 24.0538 176.549 24.0538 176.549Z" fill="#0F2032"/>
<path d="M31.1047 153.469C31.1047 153.469 31.0762 144.272 31.0762 144.229C31.0762 142.606 29.5521 142.136 28.1847 142.051C28.1135 142.051 28.0422 142.051 27.9853 142.051C22.5726 141.766 17.046 143.147 12.2316 145.61C9.78171 146.863 7.47421 148.415 5.48008 150.323C4.53999 151.206 0.765385 155.349 4.45453 155.505C4.5115 155.505 4.56848 155.505 4.62545 155.505C10.8927 155.491 23.0284 155.548 29.3099 155.577C30.307 155.577 31.1189 154.637 31.1047 153.469Z" fill="white"/>
<path d="M28.0267 104.133C27.788 103.732 27.8251 103.24 28.1118 102.878C30.6244 99.613 30.908 95.1522 28.8259 91.5985C25.9967 86.7729 19.8071 85.1606 15.0004 87.9918C11.448 90.0748 9.51657 94.0944 10.0988 98.1653C10.8937 103.69 16.0242 107.521 21.5476 106.709C22.0092 106.642 22.4591 106.865 22.6815 107.248L24.1751 109.808L26.7487 110.474C27.5224 110.676 27.9827 111.477 27.7812 112.251L27.1577 114.623L29.529 115.247C30.3027 115.448 30.7631 116.249 30.5616 117.023L29.8958 119.598L30.6911 120.94L34.9295 122.048L36.037 117.808L28.0267 104.133ZM17.6851 96.3655C16.2551 96.0012 15.4138 94.5385 15.778 93.1079C16.1422 91.6773 17.6043 90.8356 19.0173 91.1992C20.4473 91.5635 21.2887 93.0261 20.9245 94.4567C20.5603 95.8873 19.0975 96.7461 17.6851 96.3655Z" fill="#A2BDFF"/>
<path d="M36.2402 117.833C36.2374 117.901 36.2007 117.967 36.1308 118.016C36.0262 118.079 35.8918 118.04 35.845 117.936L27.8354 104.244C27.5486 103.773 27.5898 103.18 27.9302 102.751C30.4068 99.5363 30.6855 95.1944 28.6346 91.7099C25.8685 87.006 19.8139 85.4162 15.0955 88.1659C15.0256 88.2141 14.9237 88.21 14.841 88.1556C14.7589 88.0842 14.7305 87.947 14.8018 87.8649C14.8195 87.8486 14.8378 87.8154 14.8718 87.8167C19.7823 84.9387 26.1063 86.5906 29 91.5038C31.1295 95.1445 30.8432 99.6731 28.2762 103.021C28.0601 103.318 28.0265 103.725 28.2177 104.039L36.2274 117.73C36.243 117.765 36.2416 117.799 36.2402 117.833ZM19.2375 91.2254C19.2368 91.2424 19.2354 91.2763 19.2177 91.2926C19.179 91.4101 19.0581 91.4562 18.9407 91.4174C18.9407 91.4174 18.9237 91.4167 18.9244 91.3997C18.2844 91.2546 17.6517 91.3479 17.1118 91.666C16.5542 92.0004 16.1418 92.5278 15.9798 93.1674C15.8178 93.807 15.9103 94.4569 16.2439 95.0317C16.5774 95.6064 17.1052 96.002 17.7446 96.1641C17.8627 96.1859 17.9257 96.3075 17.9039 96.4256C17.8821 96.5438 17.7605 96.6068 17.6425 96.585C16.9027 96.3849 16.2758 95.9172 15.8948 95.2555C15.5138 94.5938 15.3921 93.8237 15.5922 93.0836C15.7923 92.3435 16.2598 91.7164 16.922 91.3182C17.5841 90.92 18.3533 90.8153 19.093 91.0154C19.127 91.0168 19.1432 91.0345 19.1765 91.0529C19.2091 91.0882 19.2402 91.1575 19.2375 91.2254Z" fill="#0F2032"/>
<path d="M34.3859 118.284C34.3831 118.352 34.3464 118.419 34.2772 118.45C34.1726 118.514 34.0552 118.475 33.9914 118.37L26.5118 105.856C26.4481 105.752 26.4875 105.617 26.5914 105.57C26.696 105.507 26.8304 105.546 26.8771 105.65L34.3568 118.164C34.3893 118.199 34.388 118.233 34.3859 118.284Z" fill="#0F2032"/>
<path d="M286.412 172.827C285.97 172.368 285.189 172.589 285.07 173.217L285.002 176.614C284.985 177.412 285.087 178.228 285.325 178.992L297.456 220.195C297.779 221.299 298.951 221.944 300.056 221.622C301.16 221.299 301.806 220.127 301.483 219.023L289.351 177.82C289.131 177.056 288.774 176.309 288.332 175.646L286.412 172.827Z" fill="#FBA2B7"/>
<path d="M285.766 178.584C285.681 178.584 285.597 178.516 285.563 178.431C285.529 178.312 285.597 178.193 285.699 178.159L288.536 177.327C288.655 177.293 288.757 177.361 288.808 177.463C288.842 177.582 288.774 177.701 288.672 177.735L285.834 178.567C285.8 178.584 285.783 178.584 285.766 178.584Z" fill="#0F2032"/>
<path d="M297.065 216.968C296.98 216.968 296.895 216.9 296.861 216.815C296.827 216.696 296.895 216.577 296.997 216.543L299.835 215.711C299.954 215.694 300.073 215.745 300.107 215.847C300.141 215.949 300.073 216.085 299.971 216.119L297.133 216.951C297.099 216.968 297.082 216.968 297.065 216.968Z" fill="#0F2032"/>
</svg>
