<svg viewBox="0 0 147 114" fill="none" xmlns="http://www.w3.org/2000/svg">
<g clip-path="url(#clip0_880_80951)">
<ellipse cx="89.4955" cy="92.77" rx="56.7536" ry="9.82273" fill="#F1F2F4"/>
<path d="M125.99 41.5009C124.341 41.5009 122.665 41.082 121.539 40.0345C121.408 39.9036 121.408 39.6941 121.513 39.5632C121.643 39.4323 121.853 39.4323 121.984 39.537C123.634 41.0296 126.645 41.1081 128.74 40.3749C130.599 39.7465 132.222 37.8612 133.27 35.7925C131.777 35.9235 130.049 35.6878 128.766 34.4571C127.457 33.2002 127.142 31.1316 127.954 29.4034C128.687 27.8584 130.127 27.0467 131.777 27.2562C132.851 27.3871 133.741 27.8846 134.343 28.7487C135.103 29.7961 135.365 31.3149 135.05 32.7551C134.893 33.4883 134.658 34.2476 134.369 34.9808C134.919 34.8761 135.391 34.719 135.731 34.6142C138.271 33.7501 140.183 32.0743 141.204 29.7176C141.282 29.5605 141.466 29.4819 141.623 29.5605C141.78 29.639 141.858 29.8223 141.78 29.9794C140.68 32.5194 138.664 34.3262 135.941 35.2427C135.495 35.3998 134.815 35.5831 134.055 35.714C132.929 38.0968 131.123 40.2702 128.949 41.0034C128.059 41.3176 127.038 41.5009 125.99 41.5009ZM131.306 27.9108C130.101 27.9108 129.08 28.5654 128.53 29.7176C127.849 31.184 128.111 32.9384 129.211 34.012C130.416 35.1903 132.144 35.3212 133.584 35.1379C133.951 34.3 134.239 33.4359 134.422 32.6503C134.684 31.3673 134.474 30.058 133.82 29.1677C133.322 28.4607 132.589 28.0417 131.699 27.9632C131.568 27.9108 131.437 27.9108 131.306 27.9108Z" fill="#0F2032"/>
<path d="M52.8038 92.8243C49.3212 91.7769 47.3573 88.111 48.4047 84.6283L53.6155 67.3985C54.663 63.9159 58.3288 61.952 61.8115 62.9994C65.2941 64.0468 67.258 67.7128 66.2106 71.1954L60.9997 88.4252C59.9523 91.9079 56.2864 93.8717 52.8038 92.8243Z" fill="#FF92AC"/>
<path d="M133.405 47.8632C130.341 37.7819 120.967 32.5449 110.1 30.3977C97.8716 27.9625 85.5646 28.9052 73.2052 28.9837C63.2548 29.0623 53.0426 31 46.1035 38.7246C39.662 45.8731 37.3839 55.902 40.4999 65.0407C44.6372 77.2691 56.0801 83.4226 68.5181 83.4226C73.886 83.4226 79.2278 83.6059 84.5695 83.6059L85.3551 89.9165C85.8002 93.5301 89.0734 96.0701 92.6869 95.6249C96.3005 95.1798 98.8404 91.9066 98.3953 88.2931L97.8192 83.6845C102.166 83.3964 106.303 83.3964 110.545 82.6632C113.138 82.2181 115.835 81.5373 118.375 80.4899L119.867 85.9626C120.81 89.4714 124.423 91.54 127.932 90.5712C131.441 89.6285 133.51 86.015 132.541 82.5061L129.844 72.5296C131.179 70.8014 132.253 68.8637 132.96 66.7165C134.766 61.27 135.133 53.5716 133.405 47.8632Z" fill="#FFB3C9"/>
<path d="M47.622 37.2332C47.622 37.2332 47.4387 28.2255 51.6284 21.7315C52.5448 20.3175 54.3254 19.82 55.8442 20.5532C58.3579 21.7577 62.4167 24.5857 67.1038 31.1844C74.907 42.156 47.622 37.2332 47.622 37.2332Z" fill="#FFB3C9"/>
<path d="M73.5972 30.634C73.5972 30.634 78.4938 21.1026 83.5214 18.196C84.5688 17.5938 85.7995 17.6985 86.585 18.4055C88.0252 19.6886 90.4604 22.857 93.6812 30.634C99.1015 43.7527 73.5972 30.634 73.5972 30.634Z" fill="#FFB3C9"/>
<path d="M91.8482 96.0453C90.3295 96.0453 88.8369 95.5478 87.6324 94.579C86.166 93.453 85.2495 91.8033 85.0139 89.9966L84.0712 80.2557C84.045 80.0724 84.1759 79.9153 84.3592 79.8891C84.5425 79.8629 84.6997 79.9938 84.7258 80.1771L85.6685 89.918C85.878 91.5677 86.7159 93.034 88.0252 94.0553C89.3344 95.0765 90.9841 95.5217 92.6338 95.3384C92.8432 95.3122 92.9742 95.4431 93.0004 95.6264C93.0265 95.8097 92.8956 95.9668 92.7123 95.993C92.4243 96.0192 92.1362 96.0453 91.8482 96.0453Z" fill="#0F2032"/>
<path d="M126.2 91.2011C123.163 91.2011 120.361 89.1848 119.549 86.1212L116.878 76.3018C116.826 76.1185 116.931 75.9352 117.114 75.909C117.297 75.8566 117.455 75.9614 117.507 76.1446L120.178 85.9641C121.068 89.2896 124.525 91.2534 127.85 90.3632C128.033 90.3108 128.217 90.4156 128.243 90.5989C128.295 90.7821 128.19 90.9654 128.007 90.9916C127.405 91.1225 126.803 91.2011 126.2 91.2011Z" fill="#0F2032"/>
<path d="M58.7731 51.3992C59.8288 51.3992 60.6846 50.5434 60.6846 49.4877C60.6846 48.432 59.8288 47.5762 58.7731 47.5762C57.7174 47.5762 56.8616 48.432 56.8616 49.4877C56.8616 50.5434 57.7174 51.3992 58.7731 51.3992Z" fill="#0F2032"/>
<path d="M80.5893 51.3992C81.645 51.3992 82.5008 50.5434 82.5008 49.4877C82.5008 48.432 81.645 47.5762 80.5893 47.5762C79.5336 47.5762 78.6777 48.432 78.6777 49.4877C78.6777 50.5434 79.5336 51.3992 80.5893 51.3992Z" fill="#0F2032"/>
<g opacity="0.49">
<path opacity="0.49" d="M80.5892 58.8881C80.5892 62.7373 76.609 65.8534 69.7747 65.8534C62.9404 65.8534 58.7507 62.7373 58.7507 58.8881C58.7507 55.0389 62.9142 51.9229 69.7747 51.9229C76.6352 51.9229 80.5892 55.0389 80.5892 58.8881Z" fill="#F7738D"/>
</g>
<path d="M65.7599 62.2123C65.2101 62.2123 64.7649 61.7672 64.7649 61.2173V57.3681C64.7649 56.8182 65.2101 56.373 65.7599 56.373C66.3098 56.373 66.755 56.8182 66.755 57.3681V61.2173C66.755 61.7672 66.3098 62.2123 65.7599 62.2123Z" fill="#0F2032"/>
<path d="M73.5956 62.2123C73.0457 62.2123 72.6006 61.7672 72.6006 61.2173V57.3681C72.6006 56.8182 73.0457 56.373 73.5956 56.373C74.1455 56.373 74.5906 56.8182 74.5906 57.3681V61.2173C74.5645 61.7672 74.1455 62.2123 73.5956 62.2123Z" fill="#0F2032"/>
<path d="M68.5153 83.7892C54.9252 83.7892 44.0846 76.6668 40.183 65.1716C37.0931 56.0329 39.2665 45.8207 45.8651 38.5151C46.3103 38.0176 46.7816 37.52 47.2792 37.0749C47.3315 35.5823 47.8814 23.5895 52.5162 20.4473C52.6733 20.3426 52.8566 20.3949 52.9613 20.5259C53.0661 20.683 53.0137 20.8663 52.8828 20.971C48.3266 24.0609 47.9338 37.0749 47.9338 37.2058C47.9338 37.2844 47.8814 37.3629 47.829 37.4415C47.3315 37.9128 46.834 38.4103 46.3627 38.934C39.9211 46.0564 37.8001 56.0329 40.8114 64.9359C42.7491 70.6704 46.4674 75.3838 51.5735 78.5522C56.3654 81.5373 62.2309 83.1084 68.5153 83.1084C68.6986 83.1084 68.8295 83.2655 68.8295 83.4226C68.8295 83.5797 68.6986 83.7892 68.5153 83.7892Z" fill="#0F2032"/>
<path d="M54.2974 24.6389C52.3859 25.3459 51.4956 32.3635 51.2861 34.3798C54.4807 32.3373 58.0157 30.9757 61.734 30.164C58.9322 26.5766 55.8947 24.0628 54.2974 24.6389Z" fill="#0F2032"/>
<path d="M87.4516 24.6899C86.8494 23.5116 85.6449 21.4691 84.0214 21.9405C82.0837 22.4903 79.2033 27.0727 78.1035 28.9319C78.1035 28.9319 86.2471 29.7175 89.4679 30.5292C89.2322 29.1152 87.9492 25.6588 87.4516 24.6899Z" fill="#0F2032"/>
<path d="M96.9267 31.3675C101.823 31.5246 106.668 32.2054 111.407 33.3575L111.643 33.4099V30.7652C111.119 30.6343 110.622 30.5034 110.098 30.3986C105.62 29.5083 101.143 29.0894 96.6387 28.8799L96.9267 31.3675Z" fill="#0F2032"/>
<path d="M69.4863 66.3238C66.9202 66.3238 64.3278 65.8524 62.3378 64.805C60.1382 63.6529 58.829 61.8723 58.4886 59.6727C58.1743 57.447 59.5621 55.5092 60.4262 54.5666C60.5572 54.4357 60.7667 54.4357 60.8976 54.5404C61.0285 54.6713 61.0285 54.8808 60.9238 55.0117C60.1382 55.8759 58.8551 57.6303 59.1432 59.5942C59.4312 61.6104 60.6096 63.1815 62.6258 64.2551C66.7369 66.4023 73.3617 65.9571 76.9753 64.2027L77.1324 64.1242C77.2895 64.0456 77.499 64.1242 77.5775 64.2813C77.6561 64.4384 77.5775 64.6479 77.4204 64.7265L77.2633 64.805C75.2732 65.7477 72.3929 66.3238 69.4863 66.3238Z" fill="#0F2032"/>
<path d="M74.5119 29.3248C74.4595 29.3248 74.4071 29.3248 74.3548 29.2724C74.1977 29.1938 74.1453 28.9844 74.2238 28.8273C74.4857 28.3559 80.4821 17.4629 84.9336 17.4629C85.1168 17.4629 85.3001 17.5938 85.3001 17.8033C85.3001 17.9866 85.143 18.1175 84.9859 18.1175H84.9598C80.9272 18.1175 74.9046 29.0105 74.8261 29.1415C74.7213 29.2462 74.6166 29.3248 74.5119 29.3248Z" fill="#0F2032"/>
</g>
<path d="M32.6754 17.4626C32.5627 17.4626 32.4822 17.3653 32.4822 17.2679V0.194755C32.4822 0.0811505 32.5788 0 32.6754 0C32.7721 0 32.8687 0.0973797 32.8687 0.194755V17.2679C32.8848 17.3815 32.7882 17.4626 32.6754 17.4626Z" fill="#0F2032"/>
<path d="M41.146 8.92563H24.2035C24.0908 8.92563 24.0103 8.82826 24.0103 8.73089C24.0103 8.63351 24.1069 8.53613 24.2035 8.53613H41.146C41.2587 8.53613 41.3392 8.63351 41.3392 8.73089C41.3392 8.82826 41.2587 8.92563 41.146 8.92563Z" fill="#0F2032"/>
<path d="M38.8438 15.1418C38.7955 15.1418 38.7471 15.1256 38.6988 15.0769L26.3785 2.66158C26.298 2.58043 26.298 2.4506 26.3785 2.36945C26.459 2.28831 26.5879 2.28831 26.6684 2.36945L38.9887 14.7848C39.0692 14.8659 39.0692 14.9958 38.9887 15.0769C38.9404 15.1256 38.8921 15.1418 38.8438 15.1418Z" fill="#0F2032"/>
<path d="M26.5235 15.1418C26.4751 15.1418 26.4268 15.1256 26.3785 15.0769C26.298 14.9958 26.298 14.8659 26.3785 14.7848L38.6988 2.36945C38.7793 2.28831 38.9082 2.28831 38.9887 2.36945C39.0692 2.4506 39.0692 2.58043 38.9887 2.66158L26.6684 15.0769C26.6201 15.1256 26.5718 15.1418 26.5235 15.1418Z" fill="#0F2032"/>
<path d="M0.2508 90.6975C0.114354 90.6975 0.0168862 90.6001 0.0168862 90.4636C-0.178038 85.9609 1.32287 81.848 4.09079 79.197C6.54683 76.8384 10.0945 75.8638 13.1743 76.5071C14.2268 74.9867 15.6888 73.7391 17.4041 72.9594C19.9186 71.8094 22.8425 71.7314 25.4155 72.7255C25.5324 72.7645 25.6104 72.9205 25.5519 73.0374C25.5129 73.1544 25.357 73.2323 25.2401 73.1739C22.784 72.2187 19.9966 72.3162 17.599 73.3883C16.0201 74.1095 14.6752 75.2206 13.6811 76.6045C14.3438 76.78 14.9675 77.0529 15.5718 77.3842C17.3651 78.4368 18.5152 80.0742 18.6321 81.809C18.6906 82.7446 18.3982 83.7193 17.8134 84.4989C17.1897 85.3176 16.3515 85.8244 15.4354 85.8829C15.3574 85.8829 15.2989 85.8829 15.221 85.8829C13.798 85.8829 12.3751 84.8498 11.7903 83.3294C11.147 81.692 11.5174 79.9767 11.9462 78.8072C12.1801 78.1444 12.492 77.5012 12.8624 76.8969C9.99699 76.3511 6.70278 77.3063 4.40268 79.5089C1.73222 82.0624 0.309268 86.0388 0.4847 90.4051C0.504192 90.5806 0.406739 90.6975 0.2508 90.6975C0.270293 90.6975 0.270293 90.6975 0.2508 90.6975ZM13.3692 77.0529C12.9793 77.6571 12.648 78.3199 12.3946 79.0216C12.0047 80.0937 11.6538 81.692 12.2386 83.193C12.7649 84.5769 14.1099 85.5126 15.3964 85.4151C17.0922 85.2981 18.2423 83.4464 18.1253 81.8675C18.0084 80.3276 16.9363 78.7877 15.2989 77.8325C14.7141 77.4817 14.0514 77.2283 13.3692 77.0529Z" fill="#0F2032"/>
<defs>
<clipPath id="clip0_880_80951">
<rect width="113.507" height="113.507" fill="white" transform="translate(32.7427)"/>
</clipPath>
</defs>
</svg>
