<svg width="375" height="265" viewBox="0 0 375 265" fill="none" xmlns="http://www.w3.org/2000/svg">
<path d="M441.38 176.171H-31.79C-31.8171 176.172 -31.8442 176.168 -31.8696 176.158C-31.895 176.149 -31.9183 176.135 -31.9379 176.116C-31.9576 176.097 -31.9732 176.075 -31.9839 176.05C-31.9945 176.025 -32 175.998 -32 175.971C-32 175.915 -31.9779 175.862 -31.9385 175.822C-31.8991 175.783 -31.8457 175.761 -31.79 175.761H441.38C441.407 175.761 441.434 175.766 441.459 175.777C441.484 175.788 441.506 175.803 441.525 175.823C441.544 175.842 441.558 175.866 441.568 175.891C441.577 175.917 441.581 175.944 441.58 175.971C441.58 176.024 441.559 176.075 441.521 176.112C441.484 176.15 441.433 176.171 441.38 176.171Z" fill="#0F2032"/>
<path d="M348.103 20.9591L349.43 14.712L354.008 14.8271L352.833 21.0737L348.103 20.9591Z" fill="#FBA2B7"/>
<path d="M307.783 74.4424L311.01 78.8891L352.014 80.8231L352.467 76.3537L320.364 74.1252L307.783 74.4424Z" fill="white"/>
<path d="M358.51 20.154C358.293 20.0886 358.072 20.0368 357.849 19.999C351.911 18.9038 322.939 18.4993 318.492 18.3857C318.124 18.376 317.764 18.4957 317.476 18.724C317.187 18.9524 316.988 19.2748 316.913 19.635L306.861 73.7905C306.846 73.8841 306.85 73.9799 306.874 74.0716C306.899 74.1633 306.942 74.249 307.001 74.3231C307.06 74.3972 307.134 74.4581 307.218 74.5018C307.302 74.5456 307.395 74.5712 307.49 74.5771C308.252 74.6106 342.029 75.801 346.308 76.1365C348.461 76.3076 349.546 76.4821 350.899 78.3611C351.65 79.4015 351.247 80.4983 350.786 80.5136L310.957 78.8986L310.829 79.9072L351.459 81.5792C351.927 81.6014 352.388 81.4494 352.751 81.1524C353.114 80.8555 353.355 80.4346 353.427 79.9708L361.953 25.0435C362.385 22.552 360.692 20.7894 358.51 20.154Z" fill="#81B4FC"/>
<path d="M348.039 74.9805C347.997 75.0045 347.949 75.0137 347.902 75.0065C347.876 75.0016 347.851 74.9914 347.83 74.9765C347.808 74.9616 347.79 74.9423 347.776 74.92C347.762 74.8976 347.753 74.8725 347.749 74.8465C347.745 74.8204 347.747 74.7939 347.754 74.7685L356.202 21.9726C356.216 21.9203 356.249 21.8753 356.295 21.8468C356.341 21.8184 356.396 21.8087 356.449 21.8198C356.5 21.8354 356.543 21.869 356.571 21.9143C356.6 21.9596 356.61 22.0136 356.601 22.0663L348.154 74.8622C348.145 74.8896 348.13 74.9147 348.11 74.9353C348.09 74.9559 348.066 74.9714 348.039 74.9805Z" fill="#0F2032"/>
<path d="M347.977 77.5961L347.875 77.6593L308.746 76.0341C308.719 76.0328 308.694 76.0263 308.67 76.015C308.646 76.0036 308.624 75.9876 308.607 75.9679C308.589 75.9483 308.575 75.9253 308.567 75.9003C308.558 75.8753 308.554 75.8489 308.556 75.8225C308.541 75.7913 308.534 75.757 308.536 75.7225C308.538 75.6881 308.548 75.6546 308.566 75.625C308.583 75.5954 308.608 75.5707 308.638 75.5529C308.667 75.5351 308.701 75.5249 308.735 75.5231L347.865 77.1483C347.891 77.1496 347.917 77.1561 347.941 77.1675C347.965 77.1788 347.986 77.1948 348.004 77.2145C348.021 77.2341 348.035 77.2571 348.044 77.2821C348.052 77.3071 348.056 77.3335 348.055 77.3599C348.072 77.402 348.074 77.449 348.06 77.4924C348.046 77.5357 348.016 77.5725 347.977 77.5961Z" fill="#0F2032"/>
<path d="M349.208 79.5035C349.182 79.5351 349.146 79.5572 349.106 79.5668L309.977 77.9416C309.923 77.9387 309.873 77.9148 309.838 77.8751C309.802 77.8354 309.784 77.7832 309.787 77.7299C309.789 77.6767 309.813 77.6267 309.853 77.5911C309.893 77.5555 309.945 77.537 309.998 77.5399L349.128 79.1651C349.179 79.1776 349.222 79.2095 349.25 79.2539C349.278 79.2984 349.287 79.352 349.275 79.4031C349.264 79.443 349.241 79.4782 349.208 79.5035Z" fill="#0F2032"/>
<path d="M321.172 27.1491L319.554 35.8703L348.694 36.9824L350.214 27.9334L321.172 27.1491Z" fill="white"/>
<path d="M345.209 32.6714L345.141 32.7135C343.965 32.9214 342.758 32.8664 341.606 32.5524L341.408 32.4987C340.516 32.2074 339.579 32.0787 338.642 32.1187C338 32.1556 337.361 32.2262 336.726 32.3302L336.101 32.4233C334.779 32.6418 333.433 32.685 332.098 32.552C331.432 32.4601 330.772 32.3271 330.122 32.1537C329.304 31.9327 328.469 31.7853 327.625 31.7133C326.32 31.5714 325 31.7587 323.786 32.2581C323.763 32.2723 323.738 32.2815 323.711 32.2853C323.685 32.289 323.658 32.2871 323.632 32.2797C323.607 32.2723 323.583 32.2596 323.562 32.2424C323.542 32.2251 323.525 32.2038 323.514 32.1797C323.5 32.1578 323.491 32.1333 323.487 32.1078C323.483 32.0823 323.485 32.0562 323.491 32.0312C323.498 32.0063 323.509 31.9829 323.525 31.9625C323.541 31.9422 323.561 31.9253 323.584 31.9128C324.862 31.3725 326.258 31.1674 327.638 31.3169C328.503 31.3922 329.36 31.5421 330.199 31.765C330.839 31.9364 331.49 32.0672 332.148 32.1568C333.451 32.3057 334.769 32.2802 336.066 32.0808L336.69 31.9877C337.329 31.8978 337.976 31.8026 338.646 31.7637C339.623 31.7247 340.6 31.8603 341.53 32.1641L341.736 32.2126C342.831 32.501 343.975 32.5464 345.09 32.3455C345.138 32.333 345.189 32.3387 345.233 32.3617C345.277 32.3847 345.311 32.4233 345.328 32.4699C345.345 32.5166 345.344 32.5679 345.326 32.614C345.307 32.6601 345.272 32.6976 345.227 32.7191L345.209 32.6714Z" fill="#0F2032"/>
<path d="M332.063 70.9435C332.031 70.9623 331.995 70.9724 331.958 70.9726C331.921 70.9728 331.884 70.9633 331.852 70.9449C331.505 70.7558 331.115 70.658 330.719 70.6604C330.324 70.6629 329.935 70.7656 329.59 70.959C329.55 70.984 329.502 70.9933 329.456 70.9851C329.41 70.9769 329.368 70.9518 329.339 70.9146C329.082 70.6148 328.51 70.7929 328.35 70.857L328.214 70.9413C327.83 71.1435 327.386 71.2017 326.963 71.1053C326.808 71.0474 326.663 70.9668 326.532 70.8663L326.369 70.7555C326.171 70.6341 325.947 70.5615 325.715 70.5437C325.483 70.5259 325.25 70.5634 325.035 70.6532C325.01 70.6646 324.983 70.6707 324.955 70.6711C324.928 70.6714 324.9 70.6661 324.875 70.6553C324.849 70.6446 324.826 70.6287 324.807 70.6086C324.788 70.5886 324.774 70.5648 324.764 70.5388C324.749 70.489 324.752 70.4357 324.771 70.3875C324.79 70.3392 324.825 70.2989 324.87 70.2731C325.144 70.1606 325.44 70.1131 325.735 70.1344C326.03 70.1557 326.315 70.2452 326.57 70.3958L326.752 70.5184C326.858 70.5909 326.969 70.6557 327.084 70.7125C327.42 70.7697 327.765 70.7096 328.061 70.5422L328.188 70.4631C328.396 70.357 328.628 70.3065 328.861 70.3167C329.094 70.3268 329.321 70.3972 329.518 70.521C329.913 70.3284 330.347 70.2322 330.786 70.2404C331.225 70.2486 331.655 70.361 332.042 70.5682C332.089 70.5956 332.124 70.64 332.138 70.6922C332.153 70.7445 332.147 70.8004 332.122 70.8483C332.112 70.8852 332.092 70.9184 332.063 70.9435Z" fill="#0F2032"/>
<path d="M311.539 119.425C310.162 120.281 308.592 120.776 306.974 120.867C306.947 120.87 306.921 120.867 306.895 120.859C306.87 120.851 306.847 120.838 306.827 120.82C306.807 120.802 306.791 120.781 306.78 120.756C306.769 120.732 306.764 120.706 306.763 120.68C306.76 120.627 306.779 120.575 306.814 120.536C306.849 120.497 306.898 120.473 306.951 120.469C309.003 120.355 310.958 119.559 312.508 118.209C314.057 116.858 315.112 115.03 315.505 113.012C314.858 113.113 314.201 113.125 313.55 113.048C312.681 113.001 311.836 112.745 311.087 112.303C310.337 111.86 309.705 111.244 309.244 110.505C308.823 109.71 308.703 108.789 308.908 107.913C308.984 107.478 309.156 107.066 309.41 106.705C309.664 106.344 309.995 106.043 310.379 105.825C311.047 105.527 311.791 105.442 312.509 105.582C313.228 105.722 313.885 106.08 314.393 106.607C315.37 107.679 315.936 109.062 315.99 110.511C316.043 111.182 316.023 111.857 315.932 112.524C317.334 112.157 318.63 111.468 319.719 110.512C320.807 109.555 321.656 108.358 322.2 107.015C322.833 105.25 323.085 103.371 322.941 101.502C322.796 99.633 322.257 97.8157 321.359 96.1698C321.331 96.1247 321.322 96.0704 321.334 96.0188C321.346 95.9671 321.378 95.9224 321.424 95.8945C321.469 95.8665 321.523 95.8576 321.575 95.8697C321.626 95.8819 321.671 95.914 321.699 95.9591C322.625 97.6526 323.182 99.5233 323.333 101.448C323.484 103.372 323.225 105.307 322.573 107.124C321.992 108.552 321.079 109.821 319.911 110.827C318.744 111.834 317.353 112.549 315.855 112.913C315.618 114.245 315.103 115.511 314.343 116.631C313.584 117.75 312.597 118.698 311.448 119.411L311.539 119.425ZM310.477 106.211C310.176 106.408 309.919 106.663 309.72 106.963C309.521 107.262 309.385 107.598 309.32 107.952C309.123 108.735 309.218 109.563 309.588 110.281C310.012 110.967 310.595 111.541 311.289 111.953C311.983 112.365 312.766 112.603 313.572 112.646C314.231 112.727 314.898 112.709 315.552 112.595C315.661 111.909 315.687 111.214 315.632 110.522C315.588 109.172 315.064 107.882 314.154 106.885C313.704 106.412 313.118 106.09 312.477 105.965C311.837 105.839 311.173 105.916 310.578 106.184L310.477 106.211Z" fill="#0F2032"/>
<path d="M43.4054 137.048C43.3653 137.049 43.3258 137.039 43.2919 137.017C43.2581 136.996 43.2314 136.965 43.2154 136.928C43.0654 136.548 42.8954 136.158 42.7154 135.778C42.695 135.73 42.694 135.676 42.7127 135.628C42.7313 135.579 42.7682 135.54 42.8154 135.518C42.839 135.506 42.8647 135.499 42.8911 135.497C42.9175 135.495 42.9441 135.498 42.9692 135.507C42.9943 135.515 43.0175 135.528 43.0374 135.546C43.0574 135.563 43.0737 135.584 43.0854 135.608C43.2654 135.995 43.4354 136.385 43.5954 136.778C43.6049 136.803 43.6094 136.83 43.6085 136.856C43.6076 136.883 43.6014 136.909 43.5902 136.933C43.579 136.958 43.5631 136.979 43.5434 136.997C43.5236 137.015 43.5005 137.029 43.4754 137.038L43.4054 137.048ZM41.7454 133.768C41.7112 133.766 41.6781 133.756 41.6485 133.738C41.619 133.721 41.594 133.697 41.5754 133.668C41.2954 133.218 40.9954 132.768 40.6754 132.338C40.6471 132.294 40.6365 132.24 40.6458 132.188C40.655 132.136 40.6834 132.09 40.7254 132.058C40.7628 132.021 40.813 132.001 40.8654 132.001C40.9177 132.001 40.968 132.021 41.0054 132.058C41.3254 132.498 41.6354 132.948 41.9254 133.418C41.9512 133.463 41.9583 133.517 41.9452 133.567C41.9321 133.618 41.8999 133.661 41.8554 133.688C41.8446 133.709 41.8291 133.727 41.81 133.741C41.7909 133.755 41.7687 133.764 41.7454 133.768ZM39.2854 130.568C39.2296 130.568 39.176 130.546 39.1354 130.508C38.7654 130.128 38.3754 129.758 37.9754 129.418C37.9387 129.381 37.9182 129.33 37.9182 129.278C37.9182 129.226 37.9387 129.175 37.9754 129.138C38.0144 129.101 38.0664 129.08 38.1204 129.08C38.1744 129.08 38.2263 129.101 38.2654 129.138C38.6813 129.49 39.0785 129.864 39.4554 130.258C39.4927 130.297 39.5135 130.349 39.5135 130.403C39.5135 130.457 39.4927 130.509 39.4554 130.548C39.4306 130.564 39.4023 130.575 39.3728 130.578C39.3432 130.582 39.3133 130.578 39.2854 130.568ZM11.4854 130.508H11.2254C11.1714 130.505 11.1206 130.482 11.0833 130.443C11.0461 130.404 11.0253 130.352 11.0254 130.298C11.0304 130.246 11.0547 130.197 11.0935 130.162C11.1324 130.127 11.183 130.108 11.2354 130.108C11.7663 130.114 12.2971 130.091 12.8254 130.038C12.8517 130.035 12.8782 130.038 12.9036 130.045C12.9289 130.053 12.9525 130.065 12.9729 130.082C12.9934 130.099 13.0103 130.12 13.0228 130.143C13.0352 130.166 13.0429 130.192 13.0454 130.218C13.0481 130.244 13.0457 130.271 13.0381 130.296C13.0305 130.322 13.018 130.345 13.0013 130.366C12.9845 130.386 12.9639 130.403 12.9406 130.415C12.9173 130.428 12.8917 130.436 12.8654 130.438C12.4036 130.486 11.9396 130.51 11.4754 130.508H11.4854ZM8.82538 130.198H8.77538C8.3419 130.088 7.91462 129.954 7.49538 129.798L7.20538 129.688C7.15638 129.668 7.11729 129.629 7.09667 129.581C7.07606 129.532 7.07559 129.477 7.09538 129.428C7.11739 129.378 7.15782 129.339 7.20818 129.319C7.25854 129.298 7.31489 129.298 7.36538 129.318L7.63538 129.428C8.04154 129.574 8.45551 129.698 8.87538 129.798C8.92788 129.812 8.97286 129.846 9.00083 129.893C9.02881 129.939 9.03761 129.995 9.02538 130.048C9.00998 130.09 8.98092 130.126 8.94284 130.149C8.90477 130.173 8.85988 130.183 8.81538 130.178L8.82538 130.198ZM15.2354 130.008C15.19 130.009 15.1454 129.995 15.1091 129.968C15.0727 129.941 15.0467 129.902 15.0354 129.858C15.0231 129.805 15.0319 129.749 15.0599 129.703C15.0879 129.656 15.1329 129.622 15.1854 129.608C15.6754 129.488 16.1854 129.348 16.7254 129.168C16.7784 129.155 16.8343 129.162 16.8824 129.188C16.9304 129.214 16.9671 129.257 16.9854 129.308C16.993 129.334 16.9953 129.361 16.9924 129.387C16.9894 129.414 16.9812 129.439 16.9681 129.463C16.9551 129.486 16.9375 129.506 16.9164 129.523C16.8953 129.539 16.8712 129.551 16.8454 129.558C16.2954 129.728 15.7854 129.878 15.2854 129.998L15.2354 130.008ZM19.0854 128.778C19.043 128.778 19.0017 128.764 18.9675 128.739C18.9334 128.714 18.9081 128.679 18.8954 128.638C18.8788 128.588 18.8819 128.533 18.9042 128.484C18.9265 128.436 18.9662 128.398 19.0154 128.378L20.1554 127.958L20.5354 127.818C20.5603 127.809 20.5869 127.804 20.6136 127.805C20.6402 127.806 20.6664 127.812 20.6907 127.823C20.7149 127.834 20.7366 127.85 20.7546 127.87C20.7726 127.89 20.7865 127.913 20.7954 127.938C20.812 127.989 20.8088 128.043 20.7866 128.092C20.7643 128.14 20.7246 128.178 20.6754 128.198L20.3054 128.338L19.1554 128.758L19.0854 128.778ZM5.17538 128.518C5.13643 128.531 5.09433 128.531 5.05538 128.518C4.61424 128.191 4.19962 127.83 3.81538 127.438C3.77809 127.399 3.75728 127.347 3.75728 127.293C3.75728 127.239 3.77809 127.187 3.81538 127.148C3.85444 127.111 3.90637 127.09 3.96038 127.09C4.01438 127.09 4.06631 127.111 4.10538 127.148C4.46978 127.523 4.86445 127.868 5.28538 128.178C5.32054 128.218 5.33993 128.27 5.33993 128.323C5.33993 128.376 5.32054 128.428 5.28538 128.468C5.25167 128.497 5.20966 128.514 5.16538 128.518H5.17538ZM36.1754 128.048C36.1428 128.058 36.108 128.058 36.0754 128.048C35.618 127.778 35.1474 127.531 34.6654 127.308C34.6157 127.286 34.5764 127.246 34.5559 127.195C34.5354 127.145 34.5352 127.089 34.5554 127.038C34.5792 126.99 34.6204 126.953 34.6705 126.934C34.7207 126.916 34.7761 126.917 34.8254 126.938C35.3228 127.164 35.8069 127.417 36.2754 127.698C36.2988 127.711 36.3192 127.729 36.3355 127.751C36.3518 127.772 36.3635 127.797 36.3701 127.823C36.3766 127.849 36.3778 127.876 36.3735 127.903C36.3693 127.93 36.3597 127.955 36.3454 127.978C36.3227 128.014 36.2883 128.04 36.2481 128.053C36.2079 128.066 36.1644 128.064 36.1254 128.048H36.1754ZM22.9254 127.378C22.883 127.378 22.8417 127.364 22.8075 127.339C22.7734 127.314 22.7481 127.279 22.7354 127.238C22.7188 127.188 22.7219 127.133 22.7442 127.084C22.7665 127.036 22.8062 126.998 22.8554 126.978C23.4154 126.788 23.9254 126.628 24.4154 126.488C24.441 126.48 24.4679 126.478 24.4944 126.481C24.5209 126.484 24.5466 126.492 24.5699 126.505C24.5932 126.518 24.6137 126.536 24.6301 126.557C24.6465 126.578 24.6585 126.602 24.6654 126.628C24.673 126.654 24.6753 126.681 24.6724 126.707C24.6694 126.734 24.6612 126.759 24.6481 126.783C24.6351 126.806 24.6175 126.826 24.5964 126.843C24.5753 126.859 24.5512 126.871 24.5254 126.878C24.0454 127.018 23.5254 127.178 22.9854 127.368L22.9254 127.378ZM32.4554 126.498C31.907 126.352 31.3489 126.245 30.7854 126.178C30.7594 126.176 30.7342 126.168 30.7114 126.155C30.6885 126.143 30.6685 126.126 30.6525 126.105C30.6366 126.084 30.625 126.061 30.6187 126.035C30.6123 126.01 30.6112 125.984 30.6154 125.958C30.6228 125.906 30.6496 125.859 30.6903 125.825C30.731 125.792 30.7828 125.775 30.8354 125.778C31.382 125.838 31.9234 125.939 32.4554 126.078C32.4808 126.084 32.5048 126.095 32.5258 126.11C32.5468 126.126 32.5644 126.145 32.5775 126.168C32.5907 126.19 32.599 126.215 32.6021 126.241C32.6052 126.267 32.6029 126.293 32.5954 126.318C32.5928 126.367 32.5717 126.412 32.5363 126.446C32.501 126.479 32.4541 126.498 32.4054 126.498H32.4554ZM26.8354 126.328C26.7871 126.329 26.7403 126.312 26.7036 126.28C26.6668 126.249 26.6426 126.206 26.6354 126.158C26.6266 126.106 26.6385 126.053 26.6684 126.01C26.6983 125.967 26.7439 125.938 26.7954 125.928C27.1954 125.858 27.5954 125.808 27.9754 125.778H28.4254C28.4771 125.78 28.5266 125.8 28.565 125.835C28.6034 125.87 28.6283 125.917 28.6354 125.968C28.6367 125.996 28.6326 126.023 28.6233 126.049C28.614 126.075 28.5996 126.099 28.581 126.12C28.5624 126.14 28.54 126.157 28.515 126.168C28.49 126.18 28.463 126.187 28.4354 126.188H27.9954C27.6354 126.188 27.2454 126.268 26.8554 126.338L26.8354 126.328ZM2.46538 125.578C2.43328 125.578 2.40177 125.569 2.37379 125.554C2.34581 125.538 2.32227 125.515 2.30538 125.488C2.00538 125.038 1.72538 124.558 1.46538 124.068C1.45339 124.044 1.44621 124.019 1.44425 123.992C1.44229 123.966 1.44559 123.939 1.45397 123.914C1.46234 123.889 1.47561 123.866 1.49302 123.846C1.51043 123.826 1.53163 123.81 1.55538 123.798C1.57898 123.786 1.60473 123.779 1.63114 123.777C1.65754 123.775 1.68407 123.778 1.70918 123.787C1.7343 123.795 1.7575 123.808 1.77745 123.826C1.79739 123.843 1.81369 123.864 1.82538 123.888C2.07162 124.358 2.34197 124.816 2.63538 125.258C2.67202 125.295 2.69255 125.346 2.69255 125.398C2.69255 125.45 2.67202 125.501 2.63538 125.538C2.60765 125.567 2.57141 125.587 2.53188 125.594C2.49236 125.601 2.45157 125.595 2.41538 125.578H2.46538ZM0.675378 121.958C0.633327 121.956 0.592729 121.942 0.558851 121.917C0.524972 121.892 0.499376 121.858 0.48538 121.818C0.30538 121.318 0.14538 120.818 0.00538 120.258C-0.00684889 120.205 0.00195121 120.149 0.0299276 120.103C0.0579039 120.056 0.102873 120.022 0.155378 120.008C0.180334 120.001 0.206568 119.998 0.232446 120.001C0.258324 120.004 0.283297 120.013 0.305806 120.026C0.328316 120.039 0.347884 120.057 0.363294 120.078C0.378704 120.099 0.389625 120.123 0.395379 120.148C0.535379 120.678 0.695379 121.148 0.875379 121.688C0.891085 121.738 0.886234 121.793 0.861883 121.84C0.837531 121.887 0.795651 121.922 0.745378 121.938L0.675378 121.958Z" fill="#0F2032"/>
<path d="M328.76 141.351C330.284 141.351 331.52 140.115 331.52 138.591C331.52 137.067 330.284 135.831 328.76 135.831C327.236 135.831 326 137.067 326 138.591C326 140.115 327.236 141.351 328.76 141.351Z" fill="#292929"/>
<path d="M131.689 62.4C131.635 62.4001 131.584 62.3793 131.544 62.3421C131.505 62.3048 131.482 62.254 131.479 62.2V45.2C131.482 45.1461 131.505 45.0952 131.544 45.0579C131.584 45.0207 131.635 44.9999 131.689 45C131.716 45 131.742 45.0052 131.766 45.0152C131.79 45.0253 131.812 45.04 131.831 45.0586C131.849 45.0772 131.864 45.0992 131.874 45.1235C131.884 45.1477 131.889 45.1737 131.889 45.2V62.2C131.889 62.2263 131.884 62.2523 131.874 62.2765C131.864 62.3008 131.849 62.3229 131.831 62.3414C131.812 62.36 131.79 62.3747 131.766 62.3848C131.742 62.3948 131.716 62.4 131.689 62.4Z" fill="#0F2032"/>
<path d="M140.2 53.8896H123.2C123.173 53.8896 123.146 53.8842 123.121 53.8735C123.096 53.8628 123.074 53.8472 123.055 53.8275C123.036 53.8079 123.022 53.7847 123.013 53.7592C123.003 53.7338 122.999 53.7067 123 53.6796C123 53.6266 123.021 53.5757 123.059 53.5382C123.096 53.5007 123.147 53.4796 123.2 53.4796H140.2C140.231 53.4728 140.263 53.473 140.293 53.4801C140.324 53.4872 140.353 53.5011 140.377 53.5208C140.402 53.5405 140.422 53.5654 140.435 53.5938C140.449 53.6221 140.456 53.6532 140.456 53.6846C140.456 53.7161 140.449 53.7471 140.435 53.7755C140.422 53.8038 140.402 53.8287 140.377 53.8484C140.353 53.8681 140.324 53.882 140.293 53.8891C140.263 53.8963 140.231 53.8964 140.2 53.8896Z" fill="#0F2032"/>
<path d="M137.88 60.0799C137.827 60.0792 137.777 60.0576 137.74 60.0199L125.35 47.6399C125.323 47.623 125.301 47.6004 125.285 47.5737C125.268 47.547 125.258 47.5169 125.254 47.4857C125.251 47.4545 125.254 47.4228 125.265 47.3932C125.275 47.3636 125.292 47.3366 125.314 47.3144C125.337 47.2922 125.364 47.2753 125.393 47.2648C125.423 47.2544 125.454 47.2508 125.486 47.2542C125.517 47.2576 125.547 47.2679 125.574 47.2845C125.6 47.3011 125.623 47.3234 125.64 47.3499L138.02 59.73C138.057 59.769 138.078 59.8209 138.078 59.8749C138.078 59.9289 138.057 59.9809 138.02 60.0199C137.983 60.0576 137.933 60.0792 137.88 60.0799Z" fill="#0F2032"/>
<path d="M125.499 60.0796C125.459 60.0784 125.421 60.0658 125.388 60.0432C125.355 60.0207 125.329 59.9892 125.313 59.9525C125.297 59.9157 125.292 59.8752 125.299 59.8357C125.305 59.7962 125.323 59.7594 125.349 59.7296L137.739 47.3496C137.757 47.3302 137.779 47.3147 137.803 47.3042C137.827 47.2936 137.853 47.2881 137.879 47.2881C137.906 47.2881 137.932 47.2936 137.956 47.3042C137.98 47.3147 138.002 47.3302 138.019 47.3496C138.057 47.3887 138.078 47.4406 138.078 47.4946C138.078 47.5486 138.057 47.6006 138.019 47.6396L125.639 60.0196C125.603 60.0573 125.552 60.0789 125.499 60.0796Z" fill="#0F2032"/>
<path d="M240.79 187.012C245.62 227.952 241.9 220.422 244.07 265.082H172.71L178.92 186.552L179.15 165.192L209.32 156.352L240.8 172.352C239.94 182.042 239.65 177.402 240.79 187.012Z" fill="#0F58CE"/>
<path d="M208.46 264.971C208.433 264.971 208.406 264.965 208.381 264.955C208.356 264.944 208.333 264.928 208.315 264.909C208.296 264.889 208.281 264.866 208.272 264.84C208.263 264.815 208.258 264.788 208.26 264.761L207.89 211.671L203.89 207.671C203.851 207.634 203.829 207.583 203.828 207.529C203.827 207.476 203.848 207.424 203.885 207.386C203.922 207.347 203.973 207.325 204.026 207.324C204.08 207.323 204.131 207.344 204.17 207.381L208.27 211.381C208.306 211.419 208.327 211.468 208.33 211.521L208.69 264.701C208.69 264.755 208.669 264.807 208.632 264.846C208.595 264.885 208.544 264.908 208.49 264.911L208.46 264.971Z" fill="#0F2032"/>
<path d="M206.65 190.161C207.644 190.161 208.45 189.355 208.45 188.361C208.45 187.366 207.644 186.561 206.65 186.561C205.655 186.561 204.85 187.366 204.85 188.361C204.85 189.355 205.655 190.161 206.65 190.161Z" fill="#2E2E2E"/>
<path d="M178.25 134.961C178.121 134.599 177.86 134.299 177.52 134.121C172.356 130.577 166.868 127.531 161.13 125.021C160.826 124.852 160.478 124.775 160.13 124.801C159.711 124.943 159.357 125.23 159.13 125.611C151.379 135.575 142.881 144.935 133.71 153.611L131.07 154.831C133.824 156.511 136.567 158.204 139.3 159.911C142.97 162.211 146.38 164.911 149.88 167.411C151.877 166.351 153.706 165.003 155.31 163.411C164.07 155.341 172.87 146.511 179.14 136.411C179.27 136.121 178.32 135.321 178.25 134.961Z" fill="#FFB3C9"/>
<path d="M172.1 146.071C174.64 143.013 176.979 139.793 179.1 136.431C179.29 136.121 178.34 135.321 178.27 134.961C178.141 134.599 177.88 134.299 177.54 134.121C172.376 130.577 166.888 127.531 161.15 125.021C160.845 124.852 160.498 124.775 160.15 124.801C159.731 124.943 159.376 125.23 159.15 125.611C156 129.671 152.69 133.611 149.29 137.451C156.661 140.905 164.287 143.787 172.1 146.071Z" fill="#FF92AC"/>
<path d="M190.08 84.9506C190.08 84.9506 174.48 83.0206 165.91 100.711C158.7 115.581 151.78 127.621 149.91 130.781C149.85 130.883 149.812 130.997 149.798 131.115C149.784 131.233 149.795 131.353 149.83 131.467C149.864 131.58 149.922 131.686 150 131.776C150.077 131.866 150.173 131.939 150.28 131.991L178.7 145.701L190.08 84.9506Z" fill="white"/>
<path d="M260.69 163.501C260.69 163.501 252.32 158.601 246.24 146.241L263.14 138.621L260.69 163.501Z" fill="#FFB3C9"/>
<path d="M258.94 144.141L260.27 139.881L246.27 146.211C247.524 148.762 248.989 151.203 250.65 153.511L258.94 144.141Z" fill="#FF92AC"/>
<path d="M219.93 61.501H199.7V100.091H219.93V61.501Z" fill="#FFB3C9"/>
<path d="M199.71 83.021C209.32 80.401 216.86 74.261 219.94 71.441V61.501H199.71V83.021Z" fill="#FF92AC"/>
<path d="M273.38 138.321C273.52 138.152 273.635 137.964 273.72 137.761C274.72 135.441 271.53 132.471 270.28 130.761C268.237 128.172 266.398 125.427 264.78 122.551C263.41 119.921 262.22 117.201 260.72 114.641C257.84 109.721 255.24 105.961 252.45 100.061C250.453 95.5002 247.018 91.7177 242.67 89.2914C241.514 88.6507 240.31 88.0991 239.07 87.6414C237.83 87.1756 236.564 86.7784 235.28 86.4514C233.77 86.0714 232.28 85.7614 230.73 85.4514C229.18 85.1414 227.62 84.9214 226.05 84.7114C225.683 84.6792 225.319 84.6224 224.96 84.5414C224.96 84.5414 224.87 84.4014 224.85 84.3614L224.69 84.1414L224.4 83.7114C224.2 83.4214 224.01 83.1414 223.8 82.8614C223.412 82.3096 222.995 81.7788 222.55 81.2714C222.005 80.6379 221.41 80.0494 220.77 79.5114L220.01 78.9414C219.088 81.3098 217.598 83.4151 215.67 85.0714C214.188 86.4049 212.786 87.824 211.47 89.3214C210.225 90.9538 209.162 92.7176 208.3 94.5814C208.3 94.5814 207.38 93.2514 207.21 92.9414C206.268 91.3526 205.169 89.8618 203.93 88.4914C202.919 87.4082 201.978 86.2626 201.11 85.0614C200.481 83.9935 200.073 82.8101 199.91 81.5814C199.86 81.3114 199.8 80.2514 199.71 78.9414C197.37 79.5714 193.92 83.8014 193.48 84.6214C192.343 84.6489 191.208 84.7391 190.08 84.8914C180.08 86.1614 171.82 105.151 172.08 115.251L173.79 142.941C174.522 148.379 174.739 153.873 174.44 159.351C173.83 175.481 174.74 176.251 178.7 179.751C179.111 180.166 179.608 180.485 180.156 180.688C180.703 180.89 181.288 180.97 181.87 180.921C183.68 180.691 185.43 178.781 187.28 178.921C188.58 179.031 190.15 180.371 191.35 180.921C193.042 181.749 194.855 182.303 196.72 182.561C197.85 182.691 198.99 182.661 200.12 182.731C201.25 182.801 202.34 182.951 203.44 183.091C216.44 184.691 224.81 184.671 237.57 181.711C237.57 181.711 240.91 180.951 241.22 178.661C241.5 176.541 243.89 162.141 243.49 149.721C247.448 146.404 251.947 143.793 256.79 142.001C259.79 140.891 264.61 141.831 267.61 140.701C269.25 140.091 272.18 139.831 273.38 138.321Z" fill="white"/>
<path d="M230.15 49.231C233.32 43.551 235.06 37.111 232.97 30.731C232.455 29.031 231.531 27.483 230.28 26.2226C229.028 24.9622 227.487 24.0277 225.79 23.501C224.881 21.9776 223.733 20.6102 222.39 19.451C217.94 15.931 209.96 15.561 204.55 16.341C196.04 17.581 187.92 22.341 184.99 30.761C183.925 34.2244 183.584 37.8702 183.99 41.471C184.04 42.231 184.99 50.871 185.15 50.861L230.15 49.231Z" fill="#0F58CE"/>
<path d="M193.99 49.1909C195.37 52.1109 195.55 55.8109 193.53 58.5009C192.59 59.7707 191.186 60.6184 189.625 60.8599C188.063 61.1014 186.47 60.7173 185.19 59.7909C180.77 56.5909 179.58 48.4509 184.7 45.3309C187.92 43.3809 191.88 44.7009 193.99 49.1909Z" fill="#FF92AC"/>
<path d="M228.37 46.5508C228.047 46.5624 227.727 46.49 227.44 46.3408C227.137 46.2475 226.864 46.0749 226.65 45.8408C226.201 45.3802 225.946 44.7642 225.94 44.1208C225.94 43.1208 225.83 42.0508 225.88 41.0108C225.886 40.5785 226.003 40.1551 226.22 39.7808L226.6 39.2908C226.99 38.8971 227.508 38.6559 228.06 38.6108C225.79 28.7108 218.61 23.3008 210.32 24.0608C209.96 24.0608 209.08 24.1108 208.74 24.1408C207.395 24.2551 206.058 24.4588 204.74 24.7508C200.81 25.5908 190.63 26.4308 188.92 30.0008C187.92 32.1708 186 44.2308 187.05 51.3108C188.19 59.0508 188.96 65.0608 195.78 70.2108C199.233 72.7427 203.541 73.8198 207.78 73.2108C215.57 72.4008 224.18 65.8808 225.59 57.7708C225.626 57.5158 225.642 57.2584 225.64 57.0008C226.89 57.0008 228.4 55.5408 228.8 47.2708C228.8 47.0008 228.8 46.7508 228.8 46.4808C228.66 46.5211 228.516 46.5446 228.37 46.5508Z" fill="#FFB3C9"/>
<path d="M203.71 56.5011C203.668 56.5155 203.622 56.5155 203.58 56.5011L201.48 54.711C201.394 54.6373 201.324 54.547 201.275 54.4456C201.225 54.3442 201.196 54.2338 201.19 54.121C201.184 54.0075 201.201 53.8938 201.24 53.7872C201.28 53.6805 201.341 53.5831 201.42 53.5011L202.2 52.6911C202.821 52.0358 203.177 51.1736 203.2 50.2711V48.7811C203.205 48.7279 203.228 48.6783 203.267 48.6416C203.306 48.6048 203.356 48.5833 203.41 48.5811C203.463 48.5859 203.512 48.6098 203.549 48.6484C203.586 48.6871 203.608 48.7377 203.61 48.791V50.2811C203.588 51.2866 203.188 52.2471 202.49 52.9711L201.71 53.7811C201.67 53.8238 201.64 53.8744 201.621 53.9295C201.602 53.9846 201.595 54.043 201.6 54.1011C201.6 54.1592 201.614 54.2165 201.64 54.2685C201.666 54.3205 201.703 54.3659 201.75 54.401L203.84 56.1911C203.876 56.2284 203.897 56.2787 203.897 56.331C203.897 56.3834 203.876 56.4337 203.84 56.4711C203.802 56.4973 203.755 56.5081 203.71 56.5011Z" fill="#0F2032"/>
<path d="M197.78 51.2411C198.503 51.2411 199.09 50.6546 199.09 49.9311C199.09 49.2076 198.503 48.6211 197.78 48.6211C197.056 48.6211 196.47 49.2076 196.47 49.9311C196.47 50.6546 197.056 51.2411 197.78 51.2411Z" fill="#292929"/>
<path d="M212.32 51.3309C213.043 51.3309 213.63 50.7444 213.63 50.0209C213.63 49.2974 213.043 48.7109 212.32 48.7109C211.596 48.7109 211.01 49.2974 211.01 50.0209C211.01 50.7444 211.596 51.3309 212.32 51.3309Z" fill="#292929"/>
<path d="M204.91 61.231C203.468 61.2427 202.062 60.7787 200.91 59.911C200.868 59.8778 200.84 59.8292 200.834 59.7757C200.827 59.7223 200.842 59.6684 200.875 59.626C200.908 59.5835 200.957 59.556 201.01 59.5494C201.064 59.5429 201.118 59.5578 201.16 59.591C201.869 60.1158 202.681 60.4858 203.542 60.677C204.404 60.8682 205.295 60.8764 206.16 60.701C207.171 60.4665 208.117 60.0102 208.93 59.3651C209.743 58.72 210.402 57.9022 210.86 56.971C210.872 56.9471 210.888 56.9258 210.908 56.9086C210.928 56.8914 210.952 56.8787 210.977 56.8711C211.003 56.8636 211.03 56.8614 211.056 56.8649C211.082 56.8683 211.107 56.8772 211.13 56.891C211.154 56.9027 211.175 56.919 211.192 56.9389C211.21 56.9588 211.223 56.9821 211.231 57.0072C211.24 57.0323 211.243 57.0588 211.241 57.0852C211.239 57.1116 211.232 57.1374 211.22 57.161C210.73 58.1457 210.027 59.0091 209.162 59.6888C208.298 60.3685 207.293 60.8474 206.22 61.091C205.789 61.1832 205.35 61.2302 204.91 61.231Z" fill="#0F2032"/>
<path d="M234.2 53.8413C233.76 59.3013 229.66 63.6013 225.51 63.7113C221.36 63.8213 218.29 60.2913 218.73 54.8313C219.17 49.3713 222.81 45.7713 226.96 45.6613C231.11 45.5513 234.63 48.3813 234.2 53.8413Z" fill="#FFB3C9"/>
<path d="M226.29 59.3508C226.076 59.3502 225.861 59.3301 225.65 59.2908C225.597 59.2802 225.551 59.2489 225.521 59.2039C225.491 59.1589 225.48 59.1038 225.49 59.0507C225.501 58.9977 225.532 58.9511 225.577 58.921C225.622 58.891 225.677 58.8802 225.73 58.8908C228.05 59.3508 229.95 56.8308 230.5 54.9808C230.678 54.4423 230.743 53.8728 230.689 53.3083C230.636 52.7437 230.466 52.1963 230.19 51.7008C229.989 51.3889 229.722 51.1251 229.407 50.9281C229.093 50.7311 228.739 50.6057 228.37 50.5608C228.344 50.5571 228.319 50.5482 228.296 50.5346C228.273 50.521 228.253 50.503 228.237 50.4815C228.221 50.4601 228.21 50.4357 228.203 50.4098C228.197 50.3839 228.196 50.3571 228.2 50.3308C228.204 50.3044 228.213 50.279 228.226 50.2561C228.24 50.2332 228.258 50.2132 228.28 50.1974C228.301 50.1815 228.325 50.1701 228.351 50.1638C228.377 50.1576 228.404 50.1565 228.43 50.1608C228.855 50.2145 229.264 50.3604 229.626 50.5885C229.989 50.8165 230.298 51.121 230.53 51.4808C230.839 52.024 231.03 52.6263 231.091 53.2484C231.151 53.8705 231.079 54.4983 230.88 55.0908C230.35 56.9208 228.57 59.3508 226.29 59.3508Z" fill="#0F2032"/>
<path d="M185.39 41.0011L186.96 50.9211L188.18 41.0511C187.68 40.5511 186.94 41.3711 186.43 40.8711L185.39 41.0011Z" fill="#0F58CE"/>
<path d="M229.68 39.331V31.231L218.09 21.041L198.48 22.041L189.29 28.041C189.29 28.041 185.89 35.041 185.87 35.411C185.56 43.341 187.87 43.331 187.87 43.331C187.87 43.331 188.87 37.951 189.33 36.641L190.09 37.641C191.256 39.1409 192.751 40.3522 194.46 41.181C195.54 41.6477 196.671 41.9834 197.83 42.181C198.998 42.3692 200.186 42.3928 201.36 42.251C201.36 42.251 201.12 41.841 201.1 41.801C200.94 41.5472 200.803 41.2795 200.69 41.001C199.519 38.1903 199.085 35.1266 199.43 32.101C199.43 32.101 199.89 33.771 200.08 34.311C200.408 35.2078 200.813 36.0743 201.29 36.901C202.66 39.231 205.57 42.021 208.49 41.771C207.7 40.2511 207.125 38.629 206.78 36.951C206.471 35.3374 206.284 33.7028 206.22 32.061C207.026 34.7497 208.423 37.2236 210.31 39.301C211.259 40.334 212.404 41.1683 213.677 41.7554C214.951 42.3425 216.329 42.6707 217.73 42.721C217.273 41.0508 216.958 39.3446 216.79 37.621C217.91 39.271 220.31 42.701 223.79 44.431C225.56 43.611 227.97 40.181 229.68 39.331Z" fill="#0F58CE"/>
<path d="M228.21 37.7012C226.548 38.4197 224.815 38.9627 223.04 39.3212L224.27 50.3212L228.27 45.3812L228.21 37.7012Z" fill="#0F58CE"/>
<path d="M201.39 42.5011C195.22 42.5011 191.92 40.1111 190.23 38.1211C189.139 36.8734 188.383 35.3701 188.03 33.7511C188.024 33.6984 188.038 33.6454 188.069 33.6027C188.101 33.56 188.147 33.5309 188.2 33.5211C188.226 33.5169 188.253 33.5179 188.279 33.5242C188.305 33.5305 188.329 33.5419 188.35 33.5577C188.372 33.5736 188.39 33.5935 188.403 33.6164C188.417 33.6393 188.426 33.6647 188.43 33.6911C188.784 35.2418 189.516 36.6811 190.56 37.8811C192.18 39.7911 195.39 42.0711 201.39 42.0911C201.445 42.0911 201.499 42.1132 201.538 42.1526C201.578 42.192 201.6 42.2454 201.6 42.3011C201.6 42.3282 201.594 42.3551 201.584 42.38C201.573 42.405 201.557 42.4275 201.538 42.4462C201.518 42.4649 201.495 42.4794 201.469 42.4889C201.444 42.4983 201.417 42.5025 201.39 42.5011Z" fill="#0F2032"/>
<path d="M211.29 40.4212C211.248 40.4331 211.203 40.4331 211.16 40.4212C206.44 36.6312 205.16 29.4212 205.16 29.3512C205.151 29.2995 205.163 29.2465 205.193 29.2035C205.223 29.1605 205.269 29.1309 205.32 29.1212C205.373 29.1121 205.427 29.1237 205.472 29.1534C205.516 29.1832 205.548 29.2289 205.56 29.2812C205.56 29.3512 206.83 36.4112 211.43 40.1112C211.467 40.1485 211.487 40.1988 211.487 40.2512C211.487 40.3035 211.467 40.3538 211.43 40.3912C211.388 40.4173 211.339 40.4279 211.29 40.4212Z" fill="#0F2032"/>
<path d="M223.86 44.6613H223.77C220.656 43.2569 218.131 40.8093 216.63 37.7413C216.624 37.715 216.623 37.6878 216.628 37.6614C216.633 37.6349 216.644 37.6097 216.659 37.5873C216.674 37.5649 216.693 37.5457 216.715 37.5309C216.738 37.5161 216.763 37.5061 216.79 37.5013C216.84 37.4812 216.897 37.4813 216.947 37.5018C216.997 37.5224 217.038 37.5616 217.06 37.6113C218.521 40.5883 220.975 42.9616 224 44.3213C224.024 44.3319 224.047 44.3476 224.065 44.3673C224.083 44.3871 224.097 44.4105 224.106 44.4361C224.114 44.4616 224.117 44.4886 224.114 44.5154C224.112 44.5422 224.103 44.5681 224.09 44.5913C224.065 44.6277 224.029 44.6546 223.987 44.6673C223.945 44.6801 223.9 44.678 223.86 44.6613Z" fill="#0F2032"/>
<path d="M243.56 153.041C243.533 153.041 243.506 153.035 243.481 153.024C243.457 153.014 243.434 152.998 243.415 152.978C243.397 152.959 243.382 152.936 243.373 152.91C243.363 152.885 243.359 152.858 243.36 152.831C243.43 150.371 243.36 146.581 243.36 142.561C243.36 136.431 243.25 129.491 243.58 126.301C244.11 121.121 247.58 111.751 247.64 111.661C247.649 111.635 247.663 111.612 247.681 111.593C247.699 111.573 247.721 111.557 247.745 111.546C247.769 111.535 247.796 111.528 247.822 111.527C247.849 111.527 247.875 111.531 247.9 111.541C247.926 111.549 247.949 111.563 247.968 111.581C247.988 111.599 248.004 111.621 248.015 111.645C248.026 111.669 248.033 111.696 248.033 111.722C248.034 111.749 248.03 111.776 248.02 111.801C248.02 111.891 244.51 121.211 244.02 126.341C243.69 129.511 243.75 136.441 243.81 142.561C243.81 146.561 243.88 150.371 243.81 152.841C243.811 152.872 243.805 152.902 243.792 152.931C243.779 152.959 243.76 152.984 243.735 153.003C243.711 153.023 243.683 153.036 243.652 153.042C243.622 153.049 243.59 153.048 243.56 153.041Z" fill="#0F2032"/>
<path d="M174.48 151.381C174.427 151.381 174.377 151.362 174.338 151.327C174.299 151.292 174.275 151.243 174.27 151.191C173.736 141.312 172.608 131.474 170.89 121.731C170.881 121.678 170.892 121.624 170.922 121.579C170.952 121.535 170.997 121.503 171.05 121.491C171.102 121.484 171.156 121.497 171.2 121.526C171.244 121.556 171.276 121.6 171.29 121.651C173.014 131.414 174.146 141.272 174.68 151.171C174.681 151.197 174.677 151.224 174.668 151.248C174.66 151.273 174.646 151.296 174.628 151.315C174.611 151.335 174.589 151.351 174.566 151.362C174.542 151.373 174.516 151.38 174.49 151.381H174.48Z" fill="#0F2032"/>
<path d="M230.31 167.102H230.26C206.21 161.162 186.66 140.802 186.46 140.602C186.423 140.562 186.402 140.511 186.402 140.457C186.402 140.403 186.423 140.351 186.46 140.312C186.478 140.292 186.5 140.277 186.524 140.266C186.548 140.255 186.574 140.25 186.6 140.25C186.627 140.25 186.653 140.255 186.677 140.266C186.701 140.277 186.723 140.292 186.74 140.312C186.94 140.512 206.42 160.782 230.35 166.702C230.4 166.716 230.443 166.749 230.469 166.793C230.495 166.838 230.503 166.891 230.49 166.942C230.484 166.985 230.462 167.025 230.429 167.054C230.396 167.083 230.354 167.1 230.31 167.102Z" fill="#0F2032"/>
<path d="M196.71 183.001C193.909 182.499 191.236 181.441 188.85 179.891C188.3 179.571 187.76 179.271 187.21 178.971L185.92 178.301C184.611 177.672 183.351 176.947 182.15 176.131C182.113 176.094 182.093 176.044 182.093 175.991C182.093 175.939 182.113 175.889 182.15 175.851C182.165 175.829 182.184 175.811 182.206 175.797C182.229 175.782 182.253 175.772 182.28 175.768C182.306 175.763 182.332 175.764 182.358 175.769C182.384 175.775 182.408 175.786 182.43 175.801C183.611 176.608 184.851 177.323 186.14 177.941L187.44 178.611L189.09 179.531C191.431 181.055 194.052 182.099 196.8 182.601C196.854 182.609 196.903 182.637 196.936 182.68C196.97 182.723 196.986 182.777 196.98 182.831C196.977 182.862 196.968 182.892 196.951 182.918C196.935 182.945 196.913 182.967 196.887 182.983C196.861 183 196.831 183.01 196.801 183.013C196.77 183.016 196.739 183.012 196.71 183.001Z" fill="#0F2032"/>
<path d="M205.92 73.5907C203.668 73.6035 201.433 73.1966 199.33 72.3908C191.33 69.2608 187.7 60.6208 187.01 53.5708C186.89 52.4108 186.82 51.1907 186.78 49.9307C186.78 49.8777 186.801 49.8268 186.839 49.7893C186.876 49.7518 186.927 49.7307 186.98 49.7307C187.007 49.7293 187.034 49.7335 187.058 49.743C187.083 49.7526 187.106 49.7673 187.125 49.7861C187.144 49.805 187.158 49.8276 187.168 49.8525C187.178 49.8775 187.182 49.9041 187.18 49.9307C187.18 51.1707 187.29 52.3807 187.4 53.5407C188.08 60.4607 191.61 68.9507 199.46 72.0207C204.08 73.7036 209.17 73.5497 213.68 71.5907C213.704 71.5792 213.729 71.5727 213.755 71.5716C213.782 71.5704 213.808 71.5746 213.832 71.584C213.856 71.5934 213.879 71.6078 213.897 71.6261C213.916 71.6445 213.931 71.6665 213.94 71.6908C213.952 71.715 213.959 71.7413 213.96 71.7681C213.961 71.795 213.957 71.8218 213.948 71.847C213.938 71.8722 213.924 71.8953 213.906 71.9148C213.887 71.9344 213.865 71.95 213.84 71.9607C211.337 73.0331 208.643 73.5876 205.92 73.5907Z" fill="#0F2032"/>
<path d="M195.62 101.951C195.54 101.961 195.459 101.961 195.38 101.951C194.08 101.651 193.57 99.0913 193.51 98.8013C192.45 93.0913 192.37 88.3213 193.28 84.6513C193.286 84.6257 193.298 84.6017 193.314 84.5805C193.33 84.5594 193.349 84.5415 193.372 84.5281C193.395 84.5146 193.42 84.5057 193.446 84.502C193.472 84.4983 193.499 84.4998 193.525 84.5063C193.55 84.5129 193.574 84.5244 193.596 84.5403C193.617 84.5561 193.634 84.576 193.648 84.5988C193.661 84.6215 193.67 84.6467 193.674 84.6729C193.678 84.6991 193.676 84.7257 193.67 84.7513C192.78 88.3713 192.86 93.0713 193.91 98.7513C194.15 100.031 194.76 101.411 195.47 101.571C195.85 101.661 196.28 101.391 196.74 100.771C197.06 100.341 197.43 99.7713 197.84 99.2513C198.913 97.6401 200.103 96.1093 201.4 94.6713C201.623 94.4225 201.896 94.2228 202.201 94.0851C202.505 93.9474 202.835 93.8746 203.17 93.8713C203.639 93.9487 204.086 94.123 204.484 94.383C204.881 94.6429 205.221 94.983 205.48 95.3813C205.516 95.4187 205.537 95.469 205.537 95.5213C205.537 95.5737 205.516 95.6239 205.48 95.6613C205.442 95.698 205.392 95.7185 205.34 95.7185C205.287 95.7185 205.237 95.698 205.2 95.6613C204.975 95.3103 204.683 95.0081 204.339 94.7727C203.996 94.5373 203.608 94.3736 203.2 94.2913C202.922 94.2985 202.648 94.3636 202.397 94.4824C202.146 94.6012 201.922 94.7711 201.74 94.9813C200.461 96.4 199.287 97.9107 198.23 99.5013C197.82 100.071 197.45 100.601 197.13 101.031C196.969 101.293 196.748 101.513 196.486 101.673C196.223 101.833 195.926 101.929 195.62 101.951Z" fill="#0F2032"/>
<path d="M221.56 101.921C221.309 101.896 221.065 101.819 220.845 101.695C220.625 101.571 220.433 101.403 220.28 101.201C219.61 100.481 218.99 99.7114 218.39 98.9614C217.582 97.9033 216.704 96.901 215.76 95.9614L215.34 95.5213C214.836 94.8577 214.137 94.3682 213.34 94.1214C212.68 94.0514 212.03 94.4714 211.34 95.4414C211.326 95.4639 211.308 95.4834 211.286 95.4987C211.264 95.514 211.239 95.5248 211.213 95.5304C211.187 95.536 211.16 95.5363 211.134 95.5313C211.108 95.5263 211.083 95.5161 211.06 95.5014C211.017 95.4709 210.986 95.4251 210.975 95.3732C210.964 95.3212 210.973 95.267 211 95.2214C211.74 94.1114 212.52 93.6214 213.34 93.7214C214.225 93.9749 215.004 94.5082 215.56 95.2414L215.98 95.6714C216.927 96.6163 217.816 97.6182 218.64 98.6714C219.23 99.4114 219.85 100.181 220.5 100.891C220.91 101.331 221.28 101.521 221.6 101.471C222.3 101.351 222.85 100.081 223.11 99.4714C223.66 98.0208 223.997 96.4984 224.11 94.9514L224.23 93.9514C224.555 91.1031 224.712 88.2381 224.7 85.3714V84.5614C224.7 84.5355 224.706 84.51 224.716 84.4863C224.726 84.4625 224.741 84.4411 224.76 84.4234C224.778 84.4056 224.8 84.3918 224.825 84.3829C224.849 84.3739 224.875 84.37 224.9 84.3714C224.954 84.3714 225.004 84.3924 225.042 84.43C225.079 84.4675 225.1 84.5183 225.1 84.5714V85.3714C225.117 88.2548 224.96 91.1367 224.63 94.0014L224.51 95.0014C224.402 96.5848 224.065 98.1442 223.51 99.6314C223.08 100.631 222.51 101.721 221.7 101.871L221.56 101.921Z" fill="#0F2032"/>
<path d="M210.91 109.771C210.857 109.771 210.806 109.75 210.769 109.712C210.731 109.675 210.71 109.624 210.71 109.571C210.71 106.921 210.71 105.161 210.71 102.451C210.75 100.982 210.519 99.5172 210.03 98.131C209.422 96.7246 208.672 95.3842 207.79 94.131C206.79 92.571 205.67 91.021 204.52 89.521C204.483 89.4819 204.462 89.43 204.462 89.376C204.462 89.322 204.483 89.2701 204.52 89.231C204.557 89.1944 204.608 89.1738 204.66 89.1738C204.712 89.1738 204.763 89.1944 204.8 89.231C205.95 90.741 207.06 92.301 208.09 93.871C208.98 95.1241 209.741 96.4643 210.36 97.871C210.87 99.3046 211.11 100.82 211.07 102.341C211.14 105.061 211.14 106.821 211.13 109.471C211.151 109.505 211.162 109.545 211.161 109.585C211.159 109.625 211.146 109.663 211.122 109.696C211.098 109.728 211.065 109.753 211.028 109.766C210.99 109.779 210.949 109.781 210.91 109.771Z" fill="#0F2032"/>
<path d="M207.79 102.111C207.513 102.111 207.242 102.028 207.012 101.875C206.782 101.721 206.602 101.502 206.496 101.246C206.39 100.99 206.363 100.709 206.417 100.437C206.471 100.166 206.604 99.9164 206.8 99.7206C206.995 99.5248 207.245 99.3915 207.517 99.3375C207.788 99.2834 208.07 99.3111 208.325 99.4171C208.581 99.5231 208.8 99.7025 208.954 99.9327C209.108 100.163 209.19 100.434 209.19 100.711C209.187 101.081 209.039 101.436 208.777 101.698C208.515 101.96 208.16 102.108 207.79 102.111ZM207.79 99.7105C207.592 99.7105 207.399 99.7692 207.234 99.8791C207.07 99.989 206.941 100.145 206.866 100.328C206.79 100.511 206.77 100.712 206.809 100.906C206.847 101.1 206.943 101.278 207.083 101.418C207.222 101.558 207.401 101.653 207.595 101.691C207.789 101.73 207.99 101.71 208.172 101.634C208.355 101.559 208.511 101.431 208.621 101.266C208.731 101.102 208.79 100.908 208.79 100.711C208.79 100.445 208.684 100.191 208.497 100.003C208.309 99.8159 208.055 99.7105 207.79 99.7105Z" fill="#0F2032"/>
<path d="M207.79 108.701C207.51 108.703 207.236 108.622 207.003 108.467C206.77 108.313 206.587 108.093 206.479 107.835C206.371 107.577 206.343 107.293 206.397 107.018C206.451 106.744 206.585 106.492 206.783 106.294C206.981 106.096 207.233 105.962 207.507 105.907C207.782 105.853 208.066 105.882 208.324 105.99C208.582 106.098 208.802 106.28 208.957 106.514C209.111 106.747 209.192 107.021 209.19 107.301C209.187 107.671 209.039 108.026 208.777 108.288C208.515 108.55 208.161 108.698 207.79 108.701ZM207.79 106.301C207.525 106.301 207.271 106.406 207.083 106.594C206.895 106.781 206.79 107.036 206.79 107.301C206.79 107.566 206.895 107.82 207.083 108.008C207.271 108.195 207.525 108.301 207.79 108.301C208.055 108.301 208.31 108.195 208.497 108.008C208.685 107.82 208.79 107.566 208.79 107.301C208.79 107.036 208.685 106.781 208.497 106.594C208.31 106.406 208.055 106.301 207.79 106.301Z" fill="#0F2032"/>
<path d="M237.57 182.142C237.517 182.148 237.463 182.133 237.421 182.101C237.379 182.068 237.351 182.02 237.345 181.966C237.338 181.913 237.353 181.86 237.386 181.818C237.418 181.776 237.467 181.748 237.52 181.741C239 181.321 240.79 180.271 241.01 178.661C241.01 178.431 241.09 178.071 241.16 177.591C241.78 173.451 243.64 160.841 243.27 149.741C243.27 149.711 243.278 149.68 243.292 149.653C243.306 149.625 243.325 149.601 243.35 149.581C247.348 146.236 251.895 143.607 256.79 141.811C258.564 141.31 260.407 141.091 262.25 141.161C264.059 141.225 265.868 141.005 267.61 140.511C268.09 140.341 268.67 140.191 269.28 140.031C270.77 139.651 272.46 139.221 273.28 138.201C273.408 138.044 273.512 137.869 273.59 137.681C274.34 135.921 272.45 133.681 271.06 132.001C270.73 131.611 270.42 131.231 270.18 130.911L269.74 130.321C267.846 127.911 266.147 125.352 264.66 122.671C264.15 121.671 263.66 120.671 263.19 119.721C262.38 118.081 261.55 116.381 260.61 114.721C259.82 113.371 259.04 112.101 258.29 110.871C256.087 107.405 254.083 103.816 252.29 100.121C250.309 95.6006 246.902 91.853 242.59 89.4515C241.441 88.8165 240.248 88.2651 239.02 87.8015C237.785 87.3441 236.527 86.9535 235.25 86.6315C233.9 86.2815 232.46 85.9715 230.71 85.6315C229.17 85.3515 227.6 85.1015 226.04 84.8915H225.87C225.553 84.8625 225.238 84.809 224.93 84.7315C224.83 84.7315 224.78 84.6215 224.72 84.5115L224.25 83.8215L223.66 82.9815C223.22 82.3715 222.82 81.8615 222.42 81.4015C221.882 80.7744 221.293 80.1925 220.66 79.6615L220.43 79.4915C219.79 79.0215 219.79 79.0215 219.84 78.8715C219.849 78.8463 219.863 78.8232 219.881 78.8035C219.898 78.7838 219.92 78.7679 219.944 78.7567C219.969 78.7455 219.995 78.7393 220.022 78.7384C220.048 78.7375 220.075 78.7419 220.1 78.7515C220.132 78.7624 220.16 78.7834 220.18 78.8115L220.67 79.1715L220.91 79.3515C221.563 79.8955 222.171 80.4908 222.73 81.1315C223.13 81.6015 223.54 82.1315 223.99 82.7415L224.59 83.6015L225.03 84.2515V84.3115V84.3615C225.3 84.421 225.574 84.4644 225.85 84.4915H226.03C227.59 84.7015 229.17 84.9515 230.71 85.2315C232.47 85.5515 233.92 85.8615 235.28 86.2315C236.572 86.5586 237.844 86.9593 239.09 87.4315C240.339 87.8945 241.552 88.4493 242.72 89.0915C247.104 91.5383 250.566 95.3524 252.58 99.9515C254.358 103.63 256.341 107.205 258.52 110.661C259.28 111.891 260.06 113.171 260.85 114.521C261.8 116.141 262.63 117.851 263.44 119.521C263.91 120.521 264.44 121.521 264.91 122.451C266.376 125.111 268.047 127.652 269.91 130.051L270.35 130.641C270.59 130.951 270.9 131.321 271.22 131.711C272.67 133.451 274.66 135.821 273.81 137.811C273.719 138.031 273.598 138.236 273.45 138.421C272.55 139.551 270.8 140.001 269.24 140.421C268.64 140.581 268.07 140.722 267.61 140.891C265.827 141.405 263.974 141.631 262.12 141.561C260.321 141.497 258.524 141.71 256.79 142.191C251.985 143.965 247.521 146.549 243.59 149.831C243.94 160.941 242.08 173.511 241.47 177.651C241.4 178.131 241.35 178.491 241.32 178.711C241.08 180.511 239.13 181.711 237.54 182.131L237.57 182.142Z" fill="#0F2032"/>
<path d="M178.88 180.391C178.832 180.391 178.785 180.373 178.75 180.341C174.59 176.661 173.63 175.191 174.22 159.341C174.33 156.531 174.35 153.851 174.28 151.341C174.28 151.288 174.301 151.237 174.339 151.199C174.376 151.162 174.427 151.141 174.48 151.141C174.532 151.14 174.583 151.16 174.622 151.195C174.661 151.23 174.685 151.278 174.69 151.331C174.76 153.811 174.69 156.491 174.63 159.331C174.02 175.581 175.17 176.611 179.01 180.011C179.029 180.028 179.045 180.05 179.056 180.074C179.066 180.098 179.072 180.124 179.072 180.151C179.072 180.177 179.066 180.203 179.056 180.227C179.045 180.251 179.029 180.273 179.01 180.291C178.998 180.316 178.98 180.339 178.957 180.356C178.934 180.374 178.908 180.385 178.88 180.391Z" fill="#0F2032"/>
<path d="M173.96 143.601C173.931 143.61 173.899 143.61 173.87 143.601L150.22 132.201C150.088 132.135 149.97 132.042 149.876 131.928C149.781 131.815 149.711 131.683 149.67 131.541C149.623 131.403 149.606 131.256 149.622 131.111C149.637 130.966 149.685 130.826 149.76 130.701C151.7 127.381 158.56 115.431 165.76 100.641C170.22 91.4408 176.61 87.6408 181.18 86.0308C184.06 84.9904 187.125 84.5613 190.18 84.7708C191.261 84.6187 192.349 84.5285 193.44 84.5008C194.06 83.5008 197.44 79.5008 199.73 78.8208C199.783 78.8086 199.839 78.8174 199.885 78.8453C199.932 78.8733 199.966 78.9183 199.98 78.9708C199.987 78.9958 199.99 79.022 199.987 79.0479C199.984 79.0737 199.975 79.0987 199.962 79.1212C199.949 79.1437 199.931 79.1633 199.91 79.1787C199.889 79.1941 199.865 79.205 199.84 79.2108C197.66 79.8108 194.21 83.9108 193.74 84.7908C193.722 84.8234 193.696 84.8507 193.665 84.87C193.633 84.8894 193.597 84.9 193.56 84.9008C192.429 84.9281 191.3 85.0216 190.18 85.1808C189.98 85.1808 174.57 83.4708 166.18 100.821C159.01 115.621 152.18 127.581 150.18 130.901C150.091 131.063 150.069 131.253 150.12 131.431C150.147 131.518 150.193 131.599 150.253 131.668C150.313 131.736 150.387 131.792 150.47 131.831L174.12 143.241C174.161 143.261 174.194 143.294 174.213 143.335C174.233 143.376 174.238 143.423 174.227 143.467C174.217 143.511 174.192 143.551 174.156 143.579C174.12 143.607 174.075 143.621 174.03 143.621L173.96 143.601Z" fill="#0F2032"/>
<path d="M111.67 165.131C117.37 164.935 122.954 163.473 128.02 160.851C132.62 158.481 132.02 153.401 129.55 149.631C126.55 145.071 121.37 142.891 116.11 142.081C114.014 141.673 111.991 140.951 110.11 139.941C108.439 138.969 106.826 137.901 105.28 136.741C103.83 135.821 101.94 135.121 100.28 135.741C99.8329 135.923 99.4266 136.192 99.084 136.531C98.7415 136.871 98.4694 137.275 98.2836 137.72C98.0977 138.165 98.0017 138.643 98.001 139.125C98.0003 139.608 98.095 140.085 98.2796 140.531C99.5596 144.061 103.76 145.961 106.5 148.191L110.44 155.601L111.67 165.131Z" fill="#FFB3C9"/>
<path d="M146.02 171.661L170.09 155.861C171.26 155.131 171.31 153.161 170.17 152.671L143.26 141.251L146.02 171.661Z" fill="#8DB3FF"/>
<path d="M89.79 98.6511L87.94 144.811C87.9173 145.196 88.0063 145.579 88.1961 145.914C88.3859 146.249 88.6685 146.523 89.01 146.701L144.7 171.641C145.011 171.752 145.345 171.785 145.672 171.736C145.999 171.686 146.308 171.557 146.572 171.359C146.837 171.161 147.048 170.9 147.187 170.6C147.327 170.301 147.389 169.971 147.37 169.641L149.66 123.951C149.76 122.878 149.526 121.8 148.988 120.865C148.451 119.93 147.638 119.185 146.66 118.731L93.89 96.8512C91.95 96.0512 89.89 96.2811 89.79 98.6511Z" fill="#C2D5FF"/>
<path d="M146.12 170.911C146.066 170.905 146.017 170.88 145.981 170.839C145.946 170.798 145.928 170.745 145.93 170.691L147.5 143.391L148.24 125.711C148.341 124.433 148.049 123.154 147.404 122.046C146.759 120.939 145.791 120.054 144.63 119.511L93.6304 98.2905C93.5814 98.2706 93.5423 98.232 93.5217 98.1832C93.501 98.1345 93.5006 98.0796 93.5204 98.0305C93.5302 98.005 93.5451 97.9818 93.5642 97.9623C93.5834 97.9428 93.6063 97.9274 93.6316 97.9171C93.6569 97.9068 93.684 97.9018 93.7113 97.9024C93.7386 97.903 93.7655 97.9092 93.7904 97.9205L144.79 119.141C146.03 119.713 147.065 120.651 147.755 121.829C148.445 123.008 148.758 124.369 148.65 125.731L147.91 143.411L146.35 170.721C146.348 170.748 146.34 170.775 146.327 170.8C146.314 170.824 146.296 170.846 146.275 170.863C146.254 170.881 146.229 170.894 146.202 170.902C146.176 170.911 146.148 170.913 146.12 170.911Z" fill="#2E2E2E"/>
<path d="M117.48 135.971C117.487 135.503 117.672 135.056 117.997 134.72C118.322 134.384 118.763 134.184 119.23 134.161C118.995 133.293 118.55 132.496 117.934 131.841C117.319 131.185 116.552 130.691 115.7 130.401C113.36 129.721 111.52 131.321 111.25 133.871C111.071 135.087 111.318 136.328 111.948 137.383C112.579 138.438 113.554 139.243 114.71 139.661C115.391 139.877 116.122 139.881 116.805 139.674C117.489 139.467 118.094 139.058 118.54 138.501C118.175 138.194 117.889 137.804 117.704 137.364C117.52 136.924 117.443 136.447 117.48 135.971Z" fill="white"/>
<path d="M118.15 129.501C117.829 129.667 117.476 129.762 117.115 129.78C116.755 129.797 116.395 129.736 116.06 129.601C116.196 128.827 116.59 128.122 117.18 127.601C117.5 127.435 117.853 127.34 118.214 127.323C118.574 127.306 118.935 127.367 119.27 127.501C119.138 128.277 118.743 128.984 118.15 129.501Z" fill="white"/>
<path d="M100.1 158.711C99.9243 158.817 99.7363 158.901 99.5404 158.961C99.0733 159.099 98.583 159.14 98.0998 159.08C97.6165 159.021 97.1505 158.863 96.7306 158.617C96.3107 158.37 95.9458 158.04 95.6585 157.647C95.3712 157.254 95.1676 156.806 95.0604 156.331C94.6948 154.556 94.9975 152.708 95.9104 151.141C97.1104 148.791 98.4604 147.051 100.18 146.781C100.982 146.675 101.795 146.87 102.462 147.328C103.129 147.786 103.602 148.475 103.79 149.261C102.72 152.501 100.95 155.561 100.1 158.711Z" fill="#FFB3C9"/>
<path d="M101.1 162.78C99.8696 161.5 99.9196 159.37 100.35 157.62C100.73 156.185 101.211 154.778 101.79 153.41C102.339 151.856 103.17 150.415 104.24 149.16L104.32 149.06C104.903 148.536 105.656 148.242 106.44 148.23C109.66 148.53 109.6 152.47 109.6 152.47C110.057 151.798 110.716 151.289 111.482 151.018C112.248 150.746 113.081 150.726 113.86 150.96C115.86 151.35 116.45 154.05 115.96 155.96C114.77 160.71 114.41 165.06 111.68 165.14C108.95 165.22 107.68 162.46 107.68 162.46C107.302 162.963 106.818 163.376 106.263 163.67C105.708 163.965 105.095 164.134 104.467 164.165C103.839 164.197 103.212 164.09 102.63 163.852C102.048 163.615 101.526 163.252 101.1 162.79V162.78Z" fill="#FFB3C9"/>
<path d="M116.79 159.261L107.64 162.441C107.57 164.261 109.56 166.341 111.2 166.711C112.652 166.973 114.149 166.784 115.49 166.171C117.4 165.401 119.04 164.451 120.93 163.701C119.682 162.103 118.297 160.617 116.79 159.261Z" fill="#FFB3C9"/>
<path d="M107.72 162.251C107.67 162.249 107.621 162.229 107.585 162.194C107.548 162.159 107.525 162.112 107.52 162.061C107.374 159.797 107.666 157.525 108.38 155.371V155.231C108.93 153.401 109.61 151.121 111.73 150.561C112.227 150.445 112.743 150.436 113.243 150.536C113.744 150.636 114.217 150.842 114.63 151.141C115.072 151.487 115.433 151.924 115.689 152.423C115.944 152.922 116.088 153.471 116.11 154.031C116.14 155.267 115.94 156.498 115.52 157.661C115.178 158.627 114.976 159.638 114.92 160.661C114.922 160.689 114.917 160.716 114.907 160.742C114.897 160.768 114.882 160.791 114.862 160.81C114.842 160.829 114.818 160.843 114.792 160.852C114.765 160.861 114.738 160.864 114.71 160.861C114.683 160.861 114.656 160.856 114.631 160.845C114.606 160.835 114.584 160.819 114.565 160.799C114.546 160.78 114.532 160.756 114.522 160.731C114.513 160.706 114.509 160.678 114.51 160.651C114.561 159.577 114.77 158.515 115.13 157.501C115.541 156.385 115.734 155.2 115.7 154.011C115.679 153.527 115.554 153.052 115.335 152.62C115.116 152.187 114.808 151.806 114.43 151.501C114.067 151.237 113.652 151.053 113.212 150.964C112.772 150.874 112.318 150.88 111.88 150.981C109.97 151.491 109.33 153.641 108.81 155.381V155.511C108.115 157.621 107.826 159.844 107.96 162.061C107.963 162.088 107.96 162.114 107.953 162.14C107.945 162.165 107.933 162.188 107.916 162.209C107.899 162.229 107.879 162.246 107.855 162.259C107.832 162.271 107.807 162.279 107.78 162.281L107.72 162.251Z" fill="#2E2E2E"/>
<path d="M100.22 158.851C100.194 158.848 100.169 158.839 100.146 158.825C100.123 158.812 100.103 158.794 100.087 158.772C100.071 158.751 100.06 158.726 100.053 158.701C100.047 158.675 100.046 158.648 100.05 158.621C100.562 155.575 101.663 152.657 103.29 150.031C104.39 148.431 105.99 147.761 107.44 148.271C108.89 148.781 109.98 150.611 109.83 152.701C109.823 152.754 109.797 152.803 109.756 152.838C109.716 152.873 109.664 152.892 109.61 152.891C109.556 152.886 109.507 152.861 109.471 152.82C109.436 152.779 109.418 152.726 109.42 152.671C109.58 150.471 108.47 149.061 107.3 148.671C106.13 148.281 104.63 148.821 103.62 150.281C102.03 152.857 100.953 155.716 100.45 158.701C100.438 158.751 100.408 158.794 100.365 158.822C100.322 158.85 100.271 158.861 100.22 158.851Z" fill="#2E2E2E"/>
<path d="M283 67.8809C283 67.8809 280.22 62.8309 275.89 61.8809C271.56 60.9309 267.13 62.4109 267.89 66.8809C268.65 71.3509 283 67.8809 283 67.8809Z" fill="#FF92AC"/>
<path d="M293.436 64.7296L293.533 65.9759C293.553 66.2403 293.468 66.5021 293.296 66.7035C293.123 66.905 292.878 67.0297 292.613 67.0502L248.316 70.482L248.064 67.2317L292.351 63.8007C292.616 63.7802 292.878 63.8656 293.079 64.0381C293.281 64.2106 293.405 64.456 293.426 64.7204L293.436 64.7296Z" fill="#0F58CE"/>
<path d="M248.05 67.2305L245.05 68.4705C244.906 68.5257 244.784 68.6264 244.702 68.7573C244.621 68.8881 244.584 69.042 244.597 69.1957C244.611 69.3494 244.674 69.4945 244.778 69.609C244.881 69.7235 245.019 69.8012 245.17 69.8304L248.29 70.4805L250.38 68.3105L248.05 67.2305Z" fill="#0F58CE"/>
<path d="M248.66 70.3109H248.59C248.565 70.3011 248.542 70.2862 248.522 70.2671C248.503 70.2479 248.487 70.225 248.477 70.1997C248.467 70.1744 248.462 70.1473 248.462 70.12C248.463 70.0927 248.469 70.0658 248.48 70.0409C248.688 69.6808 248.779 69.2648 248.74 68.8507C248.7 68.4367 248.533 68.0453 248.26 67.7309C248.223 67.6919 248.202 67.6399 248.202 67.5859C248.202 67.5319 248.223 67.48 248.26 67.4409C248.299 67.4036 248.351 67.3828 248.405 67.3828C248.459 67.3828 248.511 67.4036 248.55 67.4409C248.887 67.8111 249.099 68.2775 249.156 68.7744C249.213 69.2714 249.114 69.7738 248.87 70.2109C248.849 70.2464 248.818 70.2748 248.78 70.2926C248.743 70.3104 248.701 70.3168 248.66 70.3109Z" fill="#0F2032"/>
<path d="M276.4 155.971L276.55 155.631C279.93 147.871 281.17 138.631 282.36 130.291C283.83 119.961 284.54 109.541 285.43 99.1415C286.03 92.1415 287.59 85.1415 287.95 78.0615C288.39 69.5315 284.24 68.4115 280.08 66.9015C277.29 65.9015 274.08 65.7415 271.17 65.5115C267.382 65.3333 263.59 65.7689 259.94 66.8015C258.15 67.2415 255.94 68.3815 255.86 70.2515C255.69 73.1515 258.76 73.9715 261.72 73.8215C263.704 73.6904 265.663 73.3073 267.55 72.6815C266.333 72.9232 265.209 73.5058 264.31 74.3615C263.817 74.873 263.496 75.5258 263.392 76.2286C263.288 76.9314 263.407 77.6491 263.73 78.2815C264.275 79.262 265.124 80.038 266.15 80.4915C265.96 80.3815 265.08 81.6015 264.99 81.7415C264.551 82.3154 264.287 83.0047 264.232 83.7254C264.177 84.4462 264.333 85.1675 264.68 85.8015C265.135 86.5486 265.776 87.1653 266.54 87.5915C266.64 87.6515 268.33 88.4415 268.33 88.4315C268.627 90.9822 269.921 93.3118 271.93 94.9115C271.93 94.9115 263.54 122.751 260.93 132.621C259.93 136.401 259.03 140.201 258.22 144.021C257.46 147.581 256.51 151.301 256.78 154.961C257.05 158.621 258.78 162.961 262.33 164.521C268.61 167.251 274.05 161.071 276.4 155.971Z" fill="#FFB3C9"/>
<path d="M264.71 74.2512C264.669 74.2481 264.629 74.2327 264.596 74.207C264.563 74.1812 264.539 74.1462 264.526 74.1065C264.513 74.0668 264.512 74.0242 264.524 73.984C264.535 73.9439 264.558 73.9081 264.59 73.8812C268.92 70.6912 278.78 73.5512 279.2 73.6712C279.252 73.6894 279.295 73.7261 279.32 73.7742C279.346 73.8222 279.353 73.8782 279.34 73.9312C279.32 73.9807 279.283 74.0213 279.235 74.0452C279.187 74.0692 279.132 74.0748 279.08 74.0612C278.98 74.0612 269 71.1312 264.83 74.2112C264.795 74.2365 264.753 74.2505 264.71 74.2512Z" fill="#0F2032"/>
<path d="M265.2 81.411C265.164 81.4213 265.126 81.4213 265.09 81.411C265.046 81.3789 265.015 81.3304 265.006 81.2762C264.997 81.222 265.009 81.1662 265.04 81.121C265.13 80.991 267.35 77.921 275.44 80.601C275.491 80.6171 275.532 80.6524 275.557 80.6992C275.581 80.746 275.586 80.8006 275.57 80.851C275.562 80.8771 275.549 80.9012 275.532 80.922C275.514 80.9428 275.493 80.9598 275.468 80.972C275.444 80.9842 275.417 80.9912 275.39 80.9928C275.363 80.9943 275.336 80.9903 275.31 80.981C267.54 78.411 265.39 81.331 265.37 81.351C265.349 81.3736 265.322 81.3908 265.292 81.4012C265.263 81.4117 265.231 81.415 265.2 81.411Z" fill="#0F2032"/>
<path d="M269.99 89.3909C268.948 89.1208 267.942 88.7316 266.99 88.2309C266.966 88.2192 266.945 88.2029 266.927 88.183C266.91 88.163 266.897 88.1398 266.888 88.1147C266.88 88.0896 266.877 88.0631 266.878 88.0367C266.88 88.0103 266.888 87.9845 266.9 87.9609C266.925 87.9122 266.969 87.8755 267.021 87.8587C267.074 87.8419 267.13 87.8463 267.18 87.8709C268.085 88.3489 269.041 88.7245 270.03 88.9909C270.083 88.9909 270.134 89.012 270.171 89.0495C270.209 89.087 270.23 89.1379 270.23 89.1909C270.23 89.244 270.209 89.2948 270.171 89.3323C270.134 89.3698 270.083 89.3909 270.03 89.3909H269.99Z" fill="#0F2032"/>
<path d="M289.05 67.0407C288.999 67.0386 288.951 67.0181 288.914 66.9832C288.877 66.9483 288.855 66.9012 288.85 66.8507L288.59 62.6807L276.17 63.4907C276.301 63.6232 276.462 63.7226 276.64 63.7807C276.889 63.8392 277.148 63.8472 277.4 63.8043C277.653 63.7613 277.894 63.6683 278.11 63.5307C278.133 63.5187 278.159 63.5116 278.186 63.5096C278.212 63.5077 278.238 63.5109 278.264 63.5193C278.289 63.5277 278.312 63.541 278.332 63.5584C278.352 63.5758 278.368 63.597 278.38 63.6207C278.405 63.6672 278.41 63.7216 278.395 63.7722C278.38 63.8228 278.346 63.8654 278.3 63.8907C278.034 64.057 277.738 64.1667 277.428 64.2131C277.118 64.2596 276.802 64.2418 276.5 64.1607C276.115 64.0293 275.794 63.758 275.6 63.4007C275.575 63.3399 275.575 63.2716 275.6 63.2107C275.616 63.1822 275.639 63.1581 275.667 63.1407C275.695 63.1232 275.727 63.1129 275.76 63.1107L288.76 62.2607C288.81 62.2669 288.857 62.2839 288.9 62.3107C288.94 62.3466 288.965 62.3968 288.97 62.4507L289.25 66.8207C289.25 66.8742 289.231 66.9261 289.196 66.9666C289.161 67.0071 289.113 67.0334 289.06 67.0407H289.05Z" fill="#0F2032"/>
<path d="M243.72 69.5015C243.669 69.4993 243.621 69.4789 243.584 69.4439C243.547 69.409 243.524 69.362 243.52 69.3115C243.517 69.2844 243.52 69.2571 243.528 69.2311C243.536 69.2052 243.549 69.1812 243.567 69.1606C243.585 69.14 243.607 69.1232 243.631 69.1114C243.656 69.0995 243.682 69.0927 243.71 69.0915L244.71 69.0215C244.763 69.0215 244.813 69.0426 244.851 69.0801C244.889 69.1176 244.91 69.1685 244.91 69.2215C244.91 69.2745 244.889 69.3254 244.851 69.3629C244.813 69.4004 244.763 69.4215 244.71 69.4215L243.71 69.5015H243.72Z" fill="#0F2032"/>
<path d="M256.99 150.801C256.963 150.799 256.938 150.791 256.914 150.779C256.891 150.766 256.871 150.749 256.854 150.729C256.837 150.708 256.825 150.685 256.817 150.66C256.809 150.634 256.807 150.608 256.81 150.581C257.31 145.741 259.7 136.171 259.72 136.071C259.74 136.027 259.776 135.992 259.82 135.971C259.864 135.95 259.914 135.945 259.961 135.956C260.008 135.968 260.05 135.996 260.079 136.035C260.108 136.075 260.122 136.123 260.12 136.171C258.906 140.936 257.935 145.759 257.21 150.621C257.207 150.648 257.199 150.673 257.187 150.697C257.175 150.72 257.158 150.741 257.137 150.757C257.117 150.774 257.093 150.787 257.068 150.794C257.043 150.802 257.016 150.804 256.99 150.801Z" fill="#0F2032"/>
<path d="M42.95 44H9V80.52H42.95V44Z" fill="#C2D5FF"/>
<path d="M31.4802 52.19H14.9002C14.8472 52.19 14.7963 52.169 14.7588 52.1315C14.7213 52.0939 14.7002 52.0431 14.7002 51.99C14.7002 51.937 14.7213 51.8861 14.7588 51.8486C14.7963 51.8111 14.8472 51.79 14.9002 51.79H31.4802C31.5332 51.79 31.5841 51.8111 31.6216 51.8486C31.6591 51.8861 31.6802 51.937 31.6802 51.99C31.6802 52.0163 31.675 52.0423 31.665 52.0666C31.6549 52.0908 31.6402 52.1129 31.6216 52.1315C31.603 52.15 31.581 52.1648 31.5567 52.1748C31.5325 52.1849 31.5065 52.19 31.4802 52.19Z" fill="#0F2032"/>
<path d="M14.9002 55.8401C14.8472 55.8401 14.7963 55.8191 14.7588 55.7816C14.7213 55.7441 14.7002 55.6932 14.7002 55.6401C14.7002 55.5871 14.7213 55.5362 14.7588 55.4987C14.7963 55.4612 14.8472 55.4401 14.9002 55.4401L24.7702 55.3801C24.7973 55.3788 24.8244 55.3829 24.8498 55.3924C24.8752 55.4018 24.8985 55.4164 24.9181 55.4351C24.9378 55.4538 24.9534 55.4763 24.9641 55.5012C24.9747 55.5262 24.9802 55.553 24.9802 55.5801C24.9802 55.6332 24.9591 55.6841 24.9216 55.7216C24.8841 55.7591 24.8332 55.7801 24.7802 55.7801L14.9102 55.8401H14.9002Z" fill="#0F2032"/>
<path d="M24.7702 63.1405H14.9002C14.8472 63.1405 14.7963 63.1194 14.7588 63.0819C14.7213 63.0444 14.7002 62.9935 14.7002 62.9405C14.7002 62.8874 14.7213 62.8366 14.7588 62.7991C14.7963 62.7616 14.8472 62.7405 14.9002 62.7405H24.7702C24.7973 62.7391 24.8244 62.7433 24.8498 62.7527C24.8752 62.7622 24.8985 62.7767 24.9181 62.7954C24.9378 62.8141 24.9534 62.8366 24.9641 62.8616C24.9747 62.8865 24.9802 62.9134 24.9802 62.9405C24.9802 62.9676 24.9747 62.9945 24.9641 63.0194C24.9534 63.0443 24.9378 63.0669 24.9181 63.0856C24.8985 63.1043 24.8752 63.1188 24.8498 63.1282C24.8244 63.1377 24.7973 63.1419 24.7702 63.1405Z" fill="#0F2032"/>
<path d="M14.9002 59.4897C14.8472 59.4897 14.7963 59.4687 14.7588 59.4312C14.7213 59.3936 14.7002 59.3428 14.7002 59.2897C14.7002 59.2367 14.7213 59.1858 14.7588 59.1483C14.7963 59.1108 14.8472 59.0897 14.9002 59.0897L31.4802 58.9697C31.5332 58.9697 31.5841 58.9908 31.6216 59.0283C31.6591 59.0658 31.6802 59.1167 31.6802 59.1697C31.6802 59.2228 31.6591 59.2736 31.6216 59.3112C31.5841 59.3487 31.5332 59.3697 31.4802 59.3697L14.9102 59.4897H14.9002Z" fill="#0F2032"/>
<path d="M70.1502 62.2598H36.2002V98.7798H64.2802L70.1502 92.9098V62.2598Z" fill="#FFB3C9"/>
<path d="M70.1503 92.9102L64.2803 98.7802V92.9102H70.1503Z" fill="#FF92AC"/>
<path d="M58.2494 71.11H44.0594C44.0063 71.11 43.9555 71.0889 43.918 71.0514C43.8804 71.0139 43.8594 70.963 43.8594 70.91C43.8594 70.8569 43.8804 70.806 43.918 70.7685C43.9555 70.731 44.0063 70.71 44.0594 70.71H58.2494C58.3024 70.71 58.3533 70.731 58.3908 70.7685C58.4283 70.806 58.4494 70.8569 58.4494 70.91C58.4494 70.963 58.4283 71.0139 58.3908 71.0514C58.3533 71.0889 58.3024 71.11 58.2494 71.11Z" fill="#0F2032"/>
<path d="M61.6194 74.7704H44.0594C44.0054 74.7678 43.9546 74.7445 43.9173 74.7054C43.8801 74.6663 43.8593 74.6144 43.8594 74.5604C43.8594 74.5073 43.8804 74.4564 43.918 74.4189C43.9555 74.3814 44.0063 74.3604 44.0594 74.3604H61.6194C61.6724 74.3604 61.7233 74.3814 61.7608 74.4189C61.7983 74.4564 61.8194 74.5073 61.8194 74.5604C61.8194 74.6144 61.7987 74.6663 61.7614 74.7054C61.7242 74.7445 61.6733 74.7678 61.6194 74.7704Z" fill="#0F2032"/>
<path d="M52.8394 78.4295H44.0594C44.0063 78.4295 43.9555 78.4085 43.918 78.371C43.8804 78.3334 43.8594 78.2826 43.8594 78.2295C43.8593 78.1755 43.8801 78.1236 43.9173 78.0845C43.9546 78.0454 44.0054 78.0221 44.0594 78.0195H52.8394C52.8933 78.0221 52.9442 78.0454 52.9814 78.0845C53.0187 78.1236 53.0394 78.1755 53.0394 78.2295C53.0394 78.2826 53.0183 78.3334 52.9808 78.371C52.9433 78.4085 52.8924 78.4295 52.8394 78.4295Z" fill="#0F2032"/>
<path d="M42.1596 71.11H41.2596C41.2065 71.11 41.1557 71.0889 41.1181 71.0514C41.0806 71.0139 41.0596 70.963 41.0596 70.91C41.0596 70.8569 41.0806 70.806 41.1181 70.7685C41.1557 70.731 41.2065 70.71 41.2596 70.71H42.1596C42.2126 70.71 42.2635 70.731 42.301 70.7685C42.3385 70.806 42.3596 70.8569 42.3596 70.91C42.3596 70.963 42.3385 71.0139 42.301 71.0514C42.2635 71.0889 42.2126 71.11 42.1596 71.11Z" fill="#0F2032"/>
<path d="M42.1596 74.7704H41.2596C41.2056 74.7678 41.1547 74.7445 41.1175 74.7054C41.0803 74.6663 41.0595 74.6144 41.0596 74.5604C41.0596 74.5341 41.0647 74.5081 41.0748 74.4838C41.0848 74.4596 41.0996 74.4375 41.1181 74.4189C41.1367 74.4004 41.1588 74.3856 41.183 74.3756C41.2073 74.3655 41.2333 74.3604 41.2596 74.3604H42.1596C42.1858 74.3604 42.2118 74.3655 42.2361 74.3756C42.2604 74.3856 42.2824 74.4004 42.301 74.4189C42.3196 74.4375 42.3343 74.4596 42.3443 74.4838C42.3544 74.5081 42.3596 74.5341 42.3596 74.5604C42.3596 74.6144 42.3389 74.6663 42.3016 74.7054C42.2644 74.7445 42.2135 74.7678 42.1596 74.7704Z" fill="#0F2032"/>
<path d="M42.1596 78.4295H41.2596C41.2333 78.4295 41.2073 78.4244 41.183 78.4143C41.1588 78.4043 41.1367 78.3895 41.1181 78.371C41.0996 78.3524 41.0848 78.3303 41.0748 78.3061C41.0647 78.2818 41.0596 78.2558 41.0596 78.2295C41.0595 78.1755 41.0803 78.1236 41.1175 78.0845C41.1547 78.0454 41.2056 78.0221 41.2596 78.0195H42.1596C42.2135 78.0221 42.2644 78.0454 42.3016 78.0845C42.3389 78.1236 42.3596 78.1755 42.3596 78.2295C42.3596 78.2558 42.3544 78.2818 42.3443 78.3061C42.3343 78.3303 42.3196 78.3524 42.301 78.371C42.2824 78.3895 42.2604 78.4043 42.2361 78.4143C42.2118 78.4244 42.1858 78.4295 42.1596 78.4295Z" fill="#0F2032"/>
<path d="M57.2926 199.22C66.7422 199.22 74.4026 191.56 74.4026 182.11C74.4026 172.66 66.7422 165 57.2926 165C47.843 165 40.1826 172.66 40.1826 182.11C40.1826 191.56 47.843 199.22 57.2926 199.22Z" fill="#C2D6FF"/>
<path d="M57.2935 199.41C55.0208 199.412 52.77 198.966 50.6697 198.098C48.5695 197.23 46.661 195.956 45.0535 194.35C41.817 191.098 40 186.697 40 182.11C40 177.522 41.817 173.121 45.0535 169.87C45.0925 169.832 45.1445 169.812 45.1985 169.812C45.2525 169.812 45.3044 169.832 45.3435 169.87C45.3629 169.887 45.3783 169.909 45.3889 169.933C45.3995 169.957 45.405 169.983 45.405 170.01C45.405 170.036 45.3995 170.062 45.3889 170.086C45.3783 170.11 45.3629 170.132 45.3435 170.15C42.1784 173.323 40.4011 177.622 40.4011 182.105C40.4011 186.587 42.1784 190.886 45.3435 194.06C48.5171 197.225 52.8163 199.002 57.2985 199.002C61.7806 199.002 66.0798 197.225 69.2535 194.06C69.2713 194.04 69.2929 194.025 69.317 194.014C69.3411 194.004 69.3671 193.998 69.3935 193.998C69.4198 193.998 69.4458 194.004 69.4699 194.014C69.494 194.025 69.5157 194.04 69.5335 194.06C69.5707 194.099 69.5916 194.151 69.5916 194.205C69.5916 194.259 69.5707 194.311 69.5335 194.35C67.9272 195.958 66.019 197.233 63.9184 198.101C61.8179 198.97 59.5664 199.414 57.2935 199.41Z" fill="#0F2032"/>
<path d="M65.1929 188.97C65.1398 188.97 65.089 188.949 65.0515 188.911C65.014 188.874 64.9929 188.823 64.9929 188.77V174.41H50.6629C50.6098 174.41 50.559 174.389 50.5215 174.351C50.484 174.314 50.4629 174.263 50.4629 174.21C50.4629 174.157 50.484 174.106 50.5215 174.068C50.559 174.031 50.6098 174.01 50.6629 174.01H65.1929C65.2459 174.01 65.2968 174.031 65.3343 174.068C65.3718 174.106 65.3929 174.157 65.3929 174.21V188.77C65.3929 188.823 65.3718 188.874 65.3343 188.911C65.2968 188.949 65.2459 188.97 65.1929 188.97Z" fill="#0F2032"/>
<path d="M49.4026 190.2C49.3488 190.199 49.2965 190.182 49.2526 190.15C49.2193 190.109 49.2012 190.058 49.2012 190.005C49.2012 189.953 49.2193 189.901 49.2526 189.86L65.0526 174.07C65.0704 174.051 65.0921 174.035 65.1162 174.025C65.1403 174.014 65.1663 174.009 65.1926 174.009C65.219 174.009 65.245 174.014 65.2691 174.025C65.2932 174.035 65.3148 174.051 65.3326 174.07C65.352 174.088 65.3675 174.11 65.3781 174.134C65.3887 174.158 65.3942 174.184 65.3942 174.21C65.3942 174.237 65.3887 174.263 65.3781 174.287C65.3675 174.311 65.352 174.333 65.3326 174.35L49.5426 190.15C49.5024 190.181 49.4534 190.199 49.4026 190.2Z" fill="#0F2032"/>
<path d="M301.504 194.659C302.218 194.044 303.098 193.654 304.034 193.539C306.384 193.299 308.034 195.539 308.524 197.469C308.75 198.283 308.788 199.138 308.634 199.969C308.583 200.312 308.492 200.647 308.364 200.969C310.954 194.659 315.104 187.879 318.964 190.629C321.884 192.719 321.624 197.909 320.814 200.999C319.644 205.449 316.924 209.639 313.904 213.439C314.404 213.179 315.104 212.889 315.474 212.739C317.164 212.039 319.524 211.119 321.274 211.839C323.274 212.659 323.354 215.239 322.554 216.989C321.886 218.312 320.929 219.467 319.754 220.369C314.564 224.712 307.945 226.968 301.184 226.699C299.177 226.627 297.192 226.257 295.294 225.599C294.465 225.287 293.697 224.834 293.024 224.259C290.834 222.349 290.384 219.759 290.724 216.929C291.434 210.839 294.634 205.069 297.724 199.759C298.68 197.854 299.959 196.128 301.504 194.659Z" fill="#C2D6FF"/>
<path d="M281.205 229.2C281.164 229.199 281.124 229.186 281.09 229.163C281.056 229.14 281.03 229.107 281.015 229.07C280.995 229.02 280.995 228.966 281.016 228.917C281.036 228.868 281.076 228.83 281.125 228.81C298.205 222.2 311.235 204.43 311.365 204.25C311.402 204.213 311.452 204.192 311.505 204.192C311.557 204.192 311.607 204.213 311.645 204.25C311.666 204.265 311.685 204.284 311.699 204.306C311.714 204.328 311.723 204.353 311.728 204.379C311.733 204.405 311.732 204.432 311.726 204.458C311.721 204.483 311.71 204.508 311.694 204.53C311.564 204.71 298.465 222.53 281.275 229.23L281.205 229.2Z" fill="#2E2E2E"/>
<path d="M297.595 219.149C297.542 219.149 297.491 219.128 297.453 219.091C297.416 219.053 297.395 219.003 297.395 218.949C297.394 218.895 297.415 218.843 297.452 218.804C297.49 218.765 297.541 218.742 297.595 218.739L311.875 218.689C311.928 218.689 311.978 218.711 312.016 218.748C312.053 218.786 312.075 218.836 312.075 218.889C312.075 218.943 312.053 218.993 312.016 219.031C311.978 219.068 311.928 219.089 311.875 219.089L297.595 219.149Z" fill="#2E2E2E"/>
<path d="M296.274 220.229H296.204C296.179 220.22 296.156 220.206 296.136 220.188C296.117 220.17 296.101 220.149 296.09 220.124C296.078 220.1 296.072 220.074 296.071 220.047C296.071 220.021 296.075 219.994 296.084 219.969L302.524 201.809C302.533 201.784 302.547 201.761 302.565 201.741C302.583 201.721 302.605 201.705 302.629 201.694C302.653 201.683 302.68 201.677 302.706 201.676C302.733 201.675 302.76 201.679 302.785 201.689C302.81 201.698 302.833 201.712 302.852 201.73C302.872 201.748 302.888 201.769 302.899 201.794C302.91 201.818 302.917 201.844 302.918 201.871C302.918 201.897 302.914 201.924 302.905 201.949L296.464 220.099C296.451 220.138 296.426 220.173 296.391 220.196C296.357 220.22 296.316 220.231 296.274 220.229Z" fill="#2E2E2E"/>
</svg>
