<svg viewBox="0 0 793 201" fill="none" xmlns="http://www.w3.org/2000/svg">
<g filter="url(#filter0_d_74_4755)">
<rect width="793" height="201" rx="25.069" fill="#3178FF"/>
<path d="M609.232 90.532H595.569C594.154 90.532 593 89.4342 593 88.0885V82.6347C593 81.2889 594.154 80.1911 595.569 80.1911H609.232C610.647 80.1911 611.801 81.2889 611.801 82.6347V88.0531C611.838 89.4342 610.684 90.532 609.232 90.532Z" fill="url(#paint0_linear_74_4755)" fill-opacity="0.8"/>
<path opacity="0.8" d="M671.566 48.3718L662 53.8669L671.539 59.3741L671.566 48.3718Z" stroke="white" stroke-width="3.82959" stroke-miterlimit="10" stroke-linecap="round" stroke-linejoin="round"/>
<path opacity="0.8" d="M697.953 155.787L687 157.101L693.624 165.901L697.953 155.787Z" stroke="white" stroke-width="3.82959" stroke-miterlimit="10" stroke-linecap="round" stroke-linejoin="round"/>
<path opacity="0.85" d="M186.092 102.221C188.904 102.221 191.184 99.9415 191.184 97.1292C191.184 94.3169 188.904 92.037 186.092 92.037C183.28 92.037 181 94.3169 181 97.1292C181 99.9415 183.28 102.221 186.092 102.221Z" fill="white" stroke="white" stroke-width="4.31307" stroke-miterlimit="10"/>
<g opacity="0.6">
<path d="M83.7342 83.7383L76.5619 71.7353L49.3288 81.0182L49.9104 95.2672C49.9227 95.5229 50.0648 95.7439 50.2992 95.8739C50.5337 96.0039 50.8389 96.0181 51.1226 95.9214L83.089 85.0231C83.3793 84.9253 83.6155 84.7225 83.7361 84.4774C83.8694 84.2242 83.8692 83.9549 83.7342 83.7383ZM60.59 80.4984L74.9321 75.6096C75.2289 75.5106 75.5286 75.6289 75.6066 75.8786C75.6781 76.1295 75.5008 76.4134 75.2045 76.5181L60.8624 81.4069C60.5656 81.5059 60.2659 81.3876 60.1879 81.1379C60.1094 80.8825 60.2932 80.5974 60.59 80.4984ZM61.6239 84.0048L76.701 78.864C76.9978 78.765 77.2975 78.8833 77.3755 79.133C77.447 79.3839 77.2697 79.6679 76.9734 79.7725L61.9028 84.9121C61.606 85.0111 61.3063 84.8928 61.2282 84.6431C61.1502 84.3934 61.3271 84.1038 61.6239 84.0048ZM59.6156 89.5518L53.4571 91.6516C53.1603 91.7506 52.8606 91.6323 52.7825 91.3826C52.711 91.1317 52.8883 90.8478 53.1847 90.7431L59.3432 88.6433C59.64 88.5443 59.9397 88.6626 60.0178 88.9123C60.0958 89.162 59.912 89.4472 59.6156 89.5518ZM58.5818 86.0454L53.1648 87.8921C52.868 87.9911 52.5683 87.8728 52.4903 87.6231C52.4188 87.3722 52.596 87.0883 52.8924 86.9836L58.3094 85.1369C58.6062 85.0379 58.9059 85.1563 58.9839 85.406C59.0554 85.6568 58.8781 85.9408 58.5818 86.0454ZM57.541 82.5346L52.8526 84.1305C52.5558 84.2294 52.2561 84.1111 52.178 83.8614C52.1065 83.6106 52.2838 83.3266 52.5802 83.222L57.262 81.6272C57.5588 81.5282 57.8586 81.6466 57.9366 81.8963C58.0216 82.1505 57.8443 82.4344 57.541 82.5346ZM78.7492 83.0314L62.9371 88.4241C62.6402 88.5231 62.3405 88.4048 62.2625 88.1551C62.191 87.9042 62.3683 87.6203 62.6646 87.5157L78.4768 82.1229C78.7736 82.0239 79.0733 82.1422 79.1514 82.3919C79.2229 82.6428 79.0456 82.9268 78.7492 83.0314Z" fill="url(#paint1_linear_74_4755)"/>
<path d="M71.0651 54.9825C70.7781 54.8666 70.4396 54.8639 70.1097 54.9753L45.4477 63.4244C45.1177 63.5358 44.8485 63.7518 44.6699 64.0266C44.4978 64.3003 44.4473 64.6041 44.5276 64.8843L48.3969 78.0322L75.5102 68.7432L71.6475 55.5942C71.5606 55.3151 71.3588 55.0972 71.0651 54.9825ZM48.3892 66.2578L54.3913 64.2009C54.689 64.1011 54.9896 64.2204 55.0679 64.4721C55.1396 64.725 54.9618 65.0112 54.6646 65.1167L48.6624 67.1736C48.3647 67.2734 48.0642 67.1541 47.9859 66.9024C47.9141 66.6495 48.0915 66.3576 48.3892 66.2578ZM60.5636 65.9732L49.4262 69.7922C49.1285 69.8921 48.8279 69.7728 48.7496 69.5211C48.6779 69.2682 48.8557 68.982 49.153 68.8765L60.2843 65.0644C60.5819 64.9645 60.8825 65.0838 60.9608 65.3355C61.0391 65.5872 60.8613 65.8734 60.5636 65.9732ZM69.769 64.1892C69.7058 64.6801 69.3452 65.1842 68.8123 65.5112C68.7297 65.5608 68.6468 65.6046 68.5638 65.6484L68.7151 66.1701C68.7868 66.423 68.609 66.7092 68.3117 66.8147C68.0141 66.9145 67.7135 66.7953 67.6352 66.5436L67.4765 66.0117C67.018 66.0884 66.5278 66.0958 66.0378 66.0164C65.7427 65.9713 65.5842 65.7109 65.6774 65.4457C65.7701 65.1748 66.0885 64.9961 66.377 65.0424C66.7864 65.1074 67.5725 65.1566 68.2574 64.7328C68.4732 64.6016 68.6303 64.3942 68.6512 64.2286C68.6758 64.022 68.4792 63.9649 68.3986 63.9505C68.2909 63.9294 68.1714 63.9278 68.0135 63.9447C67.829 63.9606 67.6527 63.9981 67.4695 64.0311C67.267 64.0733 67.0576 64.111 66.8535 64.1304C66.2153 64.199 65.6949 64.0673 65.3743 63.7668C64.9179 63.3347 64.9147 62.5726 65.3767 62.0041C65.5653 61.7737 65.8226 61.5771 66.1161 61.4203L65.9644 60.8929C65.8927 60.64 66.0705 60.3538 66.3677 60.2483C66.6654 60.1484 66.966 60.2677 67.0443 60.5194L67.2042 61.0684C67.7356 60.9901 68.268 61.0156 68.7294 61.1579C69.0075 61.2408 69.121 61.5208 68.9812 61.7828C68.8414 62.0449 68.5135 62.1848 68.2351 62.0963C67.8617 61.9786 67.4173 61.9777 66.9813 62.0908C66.6627 62.177 66.395 62.3235 66.2489 62.5C66.1089 62.6696 66.1 62.9081 66.2288 63.0352C66.3358 63.1373 66.5707 63.1759 66.8669 63.1457C67.0314 63.1276 67.2011 63.0913 67.3713 63.0607C67.5868 63.0161 67.8159 62.9749 68.0527 62.9496C68.3162 62.9253 68.5491 62.9354 68.7574 62.973C69.4422 63.0866 69.8435 63.5806 69.769 64.1892Z" fill="url(#paint2_linear_74_4755)"/>
</g>
<g opacity="0.7">
<path d="M144.396 155.28L155.293 166.248" stroke="white" stroke-width="4.54203" stroke-miterlimit="10" stroke-linecap="round" stroke-linejoin="round"/>
<path d="M144.396 166.248L155.293 155.28" stroke="white" stroke-width="4.54203" stroke-miterlimit="10" stroke-linecap="round" stroke-linejoin="round"/>
</g>
<g opacity="0.7">
<path d="M33 156.847L43.8978 167.815" stroke="white" stroke-width="4.54203" stroke-miterlimit="10" stroke-linecap="round" stroke-linejoin="round"/>
<path d="M33 167.815L43.8978 156.847" stroke="white" stroke-width="4.54203" stroke-miterlimit="10" stroke-linecap="round" stroke-linejoin="round"/>
</g>
<path d="M732.379 66.3647C732.314 64.6408 732.276 62.8639 732.21 61.1401C732.188 60.8459 732.205 60.6458 732.183 60.3517C732.178 59.8574 732.56 59.4621 733.146 59.6841C735.039 60.4321 736.959 61.1271 738.852 61.8751C739.145 61.9861 739.372 62.0561 739.665 62.1671C740.838 62.6111 740.572 64.1299 739.465 63.7269C737.573 62.9789 735.652 62.284 733.76 61.536C733.467 61.425 733.24 61.355 732.946 61.244C733.245 61.0078 733.611 60.8126 733.91 60.5764C733.975 62.3003 734.013 64.0772 734.079 65.8011C734.101 66.0952 734.084 66.2953 734.106 66.5895C734.139 67.0307 733.879 67.3609 733.369 67.327C732.982 67.228 732.412 66.8059 732.379 66.3647Z" fill="#0058C5"/>
<path d="M785.079 130.178C787.661 125.274 787.501 118.955 784.693 112.934C782.156 107.344 777.547 102.536 771.959 99.1142C767.501 96.3845 762.927 93.7164 758.565 90.648C750.728 85.1879 743.687 78.6922 737.559 71.5648C734.999 68.5415 732.376 65.4798 729.817 62.4565C729.033 61.5796 730.429 60.9784 731.212 61.8554C733.736 64.7902 736.17 67.7366 738.693 70.6714C744.434 77.4295 751.063 83.6061 758.433 88.847C762.958 92.0808 767.783 94.9027 772.492 97.7862C778.143 101.246 782.768 105.866 785.662 111.409C789.217 118.219 789.574 125.584 786.649 131.139C786.228 131.94 784.658 130.978 785.079 130.178Z" fill="#0058C5"/>
</g>
<defs>
<filter id="filter0_d_74_4755" x="0.248923" y="0.165949" width="816.502" height="224.502" filterUnits="userSpaceOnUse" color-interpolation-filters="sRGB">
<feFlood flood-opacity="0" result="BackgroundImageFix"/>
<feColorMatrix in="SourceAlpha" type="matrix" values="0 0 0 0 0 0 0 0 0 0 0 0 0 0 0 0 0 0 127 0" result="hardAlpha"/>
<feOffset dy="3.91703"/>
<feGaussianBlur stdDeviation="5.87554"/>
<feComposite in2="hardAlpha" operator="out"/>
<feColorMatrix type="matrix" values="0 0 0 0 0 0 0 0 0 0 0 0 0 0 0 0 0 0 0.25 0"/>
<feBlend mode="normal" in2="BackgroundImageFix" result="effect1_dropShadow_74_4755"/>
<feBlend mode="normal" in="SourceGraphic" in2="effect1_dropShadow_74_4755" result="shape"/>
</filter>
<linearGradient id="paint0_linear_74_4755" x1="596.858" y1="81.0491" x2="613.001" y2="94.8766" gradientUnits="userSpaceOnUse">
<stop stop-color="white"/>
<stop offset="1" stop-color="white" stop-opacity="0"/>
</linearGradient>
<linearGradient id="paint1_linear_74_4755" x1="44.6906" y1="83.522" x2="109.858" y2="95.2166" gradientUnits="userSpaceOnUse">
<stop stop-color="white"/>
<stop offset="1" stop-color="white" stop-opacity="0.5"/>
</linearGradient>
<linearGradient id="paint2_linear_74_4755" x1="46.6351" y1="66.2349" x2="112.016" y2="77.9072" gradientUnits="userSpaceOnUse">
<stop stop-color="white"/>
<stop offset="1" stop-color="white" stop-opacity="0.5"/>
</linearGradient>
</defs>
</svg>
