<svg viewBox="0 0 817 213" fill="none" xmlns="http://www.w3.org/2000/svg">
<g filter="url(#filter0_d_113_4949)">
<rect x="12" width="793" height="201" rx="25.069" fill="#3178FF"/>
<path d="M606.004 90.5324H592.417C591.01 90.5324 589.863 89.4345 589.863 88.0888V82.635C589.863 81.2892 591.01 80.1914 592.417 80.1914H606.004C607.41 80.1914 608.558 81.2892 608.558 82.635V88.0534C608.595 89.4345 607.447 90.5324 606.004 90.5324Z" fill="url(#paint0_linear_113_4949)" fill-opacity="0.8"/>
<path opacity="0.8" d="M667.988 48.3718L658.476 53.867L667.961 59.3742L667.988 48.3718Z" stroke="white" stroke-width="3.82959" stroke-miterlimit="10" stroke-linecap="round" stroke-linejoin="round"/>
<path opacity="0.8" d="M694.228 155.787L683.336 157.101L689.923 165.902L694.228 155.787Z" stroke="white" stroke-width="3.82959" stroke-miterlimit="10" stroke-linecap="round" stroke-linejoin="round"/>
<path opacity="0.85" d="M185.234 102.221C188.031 102.221 190.298 99.9416 190.298 97.1292C190.298 94.3169 188.031 92.0371 185.234 92.0371C182.438 92.0371 180.171 94.3169 180.171 97.1292C180.171 99.9416 182.438 102.221 185.234 102.221Z" fill="white" stroke="white" stroke-width="4.31307" stroke-miterlimit="10"/>
<g opacity="0.6">
<path d="M83.4499 83.7381L76.3178 71.735L49.2373 81.018L49.8156 95.2669C49.8279 95.5227 49.9691 95.7437 50.2022 95.8737C50.4354 96.0037 50.7389 96.0178 51.021 95.9212L82.8083 85.0229C83.097 84.9251 83.3318 84.7223 83.4518 84.4771C83.5843 84.224 83.5842 83.9546 83.4499 83.7381ZM60.4354 80.4982L74.6971 75.6093C74.9922 75.5104 75.2902 75.6287 75.3678 75.8784C75.4389 76.1292 75.2627 76.4132 74.9679 76.5178L60.7063 81.4067C60.4111 81.5057 60.1131 81.3873 60.0355 81.1376C59.9575 80.8823 60.1402 80.5972 60.4354 80.4982ZM61.4634 84.0045L76.4561 78.8638C76.7512 78.7648 77.0492 78.8831 77.1268 79.1328C77.1979 79.3837 77.0217 79.6676 76.7269 79.7723L61.7408 84.9119C61.4457 85.0109 61.1476 84.8925 61.07 84.6428C60.9924 84.3931 61.1683 84.1035 61.4634 84.0045ZM59.4664 89.5516L53.3424 91.6514C53.0473 91.7503 52.7492 91.632 52.6716 91.3823C52.6005 91.1315 52.7768 90.8475 53.0715 90.7429L59.1956 88.6431C59.4907 88.5441 59.7887 88.6624 59.8663 88.9121C59.9439 89.1618 59.7612 89.4469 59.4664 89.5516ZM58.4384 86.0452L53.0518 87.8919C52.7566 87.9908 52.4586 87.8725 52.381 87.6228C52.3099 87.372 52.4862 87.088 52.7809 86.9834L58.1675 85.1367C58.4626 85.0377 58.7607 85.156 58.8383 85.4057C58.9094 85.6566 58.7331 85.9405 58.4384 86.0452ZM57.4034 82.5343L52.7413 84.1302C52.4461 84.2292 52.1481 84.1109 52.0705 83.8612C51.9994 83.6103 52.1757 83.3264 52.4704 83.2217L57.1261 81.627C57.4212 81.528 57.7192 81.6463 57.7968 81.896C57.8813 82.1502 57.7051 82.4342 57.4034 82.5343ZM78.4928 83.0312L62.7693 88.4239C62.4741 88.5229 62.1761 88.4046 62.0985 88.1549C62.0274 87.904 62.2037 87.6201 62.4984 87.5154L78.222 82.1227C78.5171 82.0237 78.8151 82.142 78.8927 82.3917C78.9638 82.6426 78.7876 82.9265 78.4928 83.0312Z" fill="url(#paint1_linear_113_4949)"/>
<path d="M70.8519 54.9825C70.5664 54.8666 70.2299 54.8639 69.9017 54.9753L45.3779 63.4244C45.0498 63.5358 44.7821 63.7518 44.6045 64.0266C44.4333 64.3003 44.3831 64.6041 44.463 64.8843L48.3106 78.0322L75.272 68.7432L71.4309 55.5942C71.3445 55.3151 71.1438 55.0972 70.8519 54.9825ZM48.303 66.2578L54.2715 64.2009C54.5675 64.1011 54.8664 64.2204 54.9442 64.4721C55.0156 64.725 54.8388 65.0112 54.5432 65.1167L48.5747 67.1736C48.2786 67.2734 47.9797 67.1541 47.9019 66.9024C47.8306 66.6495 48.007 66.3576 48.303 66.2578ZM60.4092 65.9732L49.3341 69.7922C49.0381 69.8921 48.7392 69.7728 48.6614 69.5211C48.59 69.2682 48.7669 68.982 49.0624 68.8765L60.1314 65.0644C60.4274 64.9645 60.7263 65.0838 60.8041 65.3355C60.882 65.5872 60.7052 65.8734 60.4092 65.9732ZM69.563 64.1892C69.5002 64.6801 69.1415 65.1842 68.6116 65.5112C68.5295 65.5608 68.447 65.6046 68.3645 65.6484L68.515 66.1701C68.5863 66.423 68.4095 66.7092 68.1139 66.8147C67.8179 66.9145 67.519 66.7953 67.4411 66.5436L67.2834 66.0117C66.8274 66.0884 66.3399 66.0958 65.8527 66.0164C65.5592 65.9713 65.4016 65.7109 65.4943 65.4457C65.5865 65.1748 65.9031 64.9961 66.19 65.0424C66.5971 65.1074 67.3788 65.1566 68.0599 64.7328C68.2744 64.6016 68.4307 64.3942 68.4515 64.2286C68.4759 64.022 68.2804 63.9649 68.2002 63.9505C68.0932 63.9294 67.9744 63.9278 67.8173 63.9447C67.6339 63.9606 67.4586 63.9981 67.2763 64.0311C67.075 64.0733 66.8668 64.111 66.6638 64.1304C66.0292 64.199 65.5117 64.0673 65.1929 63.7668C64.7391 63.3347 64.7359 62.5726 65.1953 62.0041C65.3828 61.7737 65.6387 61.5771 65.9305 61.4203L65.7797 60.8929C65.7084 60.64 65.8852 60.3538 66.1808 60.2483C66.4768 60.1484 66.7757 60.2677 66.8535 60.5194L67.0126 61.0684C67.5409 60.9901 68.0704 61.0156 68.5292 61.1579C68.8057 61.2408 68.9186 61.5208 68.7796 61.7828C68.6406 62.0449 68.3145 62.1848 68.0377 62.0963C67.6663 61.9786 67.2244 61.9777 66.7909 62.0908C66.4741 62.177 66.2079 62.3235 66.0626 62.5C65.9234 62.6696 65.9145 62.9081 66.0426 63.0352C66.149 63.1373 66.3826 63.1759 66.6772 63.1457C66.8407 63.1276 67.0095 63.0913 67.1787 63.0607C67.393 63.0161 67.6208 62.9749 67.8563 62.9496C68.1183 62.9253 68.3499 62.9354 68.5571 62.973C69.238 63.0866 69.637 63.5806 69.563 64.1892Z" fill="url(#paint2_linear_113_4949)"/>
</g>
<g opacity="0.7">
<path d="M143.771 155.28L154.608 166.248" stroke="white" stroke-width="4.54203" stroke-miterlimit="10" stroke-linecap="round" stroke-linejoin="round"/>
<path d="M143.771 166.248L154.608 155.28" stroke="white" stroke-width="4.54203" stroke-miterlimit="10" stroke-linecap="round" stroke-linejoin="round"/>
</g>
<g opacity="0.7">
<path d="M33 156.847L43.8368 167.814" stroke="white" stroke-width="4.54203" stroke-miterlimit="10" stroke-linecap="round" stroke-linejoin="round"/>
<path d="M33 167.814L43.8368 156.847" stroke="white" stroke-width="4.54203" stroke-miterlimit="10" stroke-linecap="round" stroke-linejoin="round"/>
</g>
<path d="M703.995 77.9752C703.93 76.2513 703.892 74.4744 703.827 72.7505C703.805 72.4564 703.822 72.2563 703.8 71.9621C703.794 71.4679 704.174 71.0726 704.758 71.2946C706.64 72.0426 708.549 72.7376 710.431 73.4856C710.723 73.5966 710.948 73.6666 711.24 73.7776C712.407 74.2216 712.142 75.7404 711.041 75.3374C709.159 74.5894 707.25 73.8944 705.368 73.1464C705.076 73.0354 704.85 72.9654 704.559 72.8544C704.856 72.6183 705.219 72.4231 705.517 72.1869C705.582 73.9108 705.62 75.6877 705.685 77.4115C705.707 77.7057 705.69 77.9058 705.712 78.1999C705.745 78.6412 705.486 78.9714 704.979 78.9375C704.594 78.8385 704.028 78.4164 703.995 77.9752Z" fill="#0058C5"/>
<path d="M758.989 140.652C761.556 135.748 761.397 129.429 758.604 123.408C756.082 117.818 751.498 113.01 745.942 109.589C741.509 106.859 736.961 104.191 732.623 101.122C724.83 95.6623 717.828 89.1666 711.734 82.0392C709.189 79.0159 706.581 75.9542 704.036 72.9309C703.256 72.0539 704.644 71.4528 705.424 72.3297C707.933 75.2645 710.353 78.2109 712.863 81.1457C718.572 87.9039 725.163 94.0804 732.492 99.3214C736.991 102.555 741.789 105.377 746.472 108.261C752.091 111.721 756.691 116.34 759.568 121.884C763.103 128.693 763.458 136.059 760.55 141.613C760.131 142.414 758.57 141.453 758.989 140.652Z" fill="#0058C5"/>
</g>
<defs>
<filter id="filter0_d_113_4949" x="0.248923" y="0.165949" width="816.502" height="224.502" filterUnits="userSpaceOnUse" color-interpolation-filters="sRGB">
<feFlood flood-opacity="0" result="BackgroundImageFix"/>
<feColorMatrix in="SourceAlpha" type="matrix" values="0 0 0 0 0 0 0 0 0 0 0 0 0 0 0 0 0 0 127 0" result="hardAlpha"/>
<feOffset dy="3.91703"/>
<feGaussianBlur stdDeviation="5.87554"/>
<feComposite in2="hardAlpha" operator="out"/>
<feColorMatrix type="matrix" values="0 0 0 0 0 0 0 0 0 0 0 0 0 0 0 0 0 0 0.25 0"/>
<feBlend mode="normal" in2="BackgroundImageFix" result="effect1_dropShadow_113_4949"/>
<feBlend mode="normal" in="SourceGraphic" in2="effect1_dropShadow_113_4949" result="shape"/>
</filter>
<linearGradient id="paint0_linear_113_4949" x1="593.699" y1="81.0494" x2="609.828" y2="94.7873" gradientUnits="userSpaceOnUse">
<stop stop-color="white"/>
<stop offset="1" stop-color="white" stop-opacity="0"/>
</linearGradient>
<linearGradient id="paint1_linear_113_4949" x1="44.6251" y1="83.5218" x2="109.45" y2="95.0897" gradientUnits="userSpaceOnUse">
<stop stop-color="white"/>
<stop offset="1" stop-color="white" stop-opacity="0.5"/>
</linearGradient>
<linearGradient id="paint2_linear_113_4949" x1="46.5587" y1="66.2349" x2="111.596" y2="77.7808" gradientUnits="userSpaceOnUse">
<stop stop-color="white"/>
<stop offset="1" stop-color="white" stop-opacity="0.5"/>
</linearGradient>
</defs>
</svg>
