<svg viewBox="0 0 1886 272" fill="none" xmlns="http://www.w3.org/2000/svg">
<g filter="url(#filter0_d_60_9996)">
<rect x="15" width="1856" height="257" rx="32" fill="#3178FF"/>
<path d="M1724.17 85.1071C1724.38 82.8201 1724.64 80.4577 1724.86 78.1707C1724.88 77.7823 1724.93 77.5127 1724.96 77.1243C1725.04 76.4663 1725.58 75.8751 1726.27 76.0724C1728.49 76.7515 1730.75 77.3551 1732.97 78.0341C1733.32 78.1328 1733.59 78.188 1733.93 78.2866C1735.31 78.6813 1734.72 80.7508 1733.41 80.3997C1731.19 79.7206 1728.93 79.117 1726.71 78.438C1726.37 78.3393 1726.1 78.2841 1725.75 78.1855C1726.16 77.8203 1726.65 77.4987 1727.06 77.1336C1726.85 79.4207 1726.59 81.7831 1726.37 84.0701C1726.35 84.4585 1726.29 84.7281 1726.27 85.1165C1726.24 85.6992 1725.86 86.1831 1725.23 86.2235C1724.77 86.1567 1724.13 85.6898 1724.17 85.1071Z" fill="#0058C5"/>
<path d="M1786.6 165.959C1790.86 158.574 1791.78 149.664 1789.19 141.633C1786.87 134.166 1781.69 128.164 1774.99 124.292C1769.64 121.203 1764.12 118.221 1758.96 114.636C1749.67 108.271 1741.61 100.302 1734.87 91.2823C1732.06 87.4493 1729.17 83.5727 1726.36 79.7397C1725.49 78.635 1727.43 77.5428 1728.3 78.6475C1731.07 82.3617 1733.73 86.1077 1736.51 89.8219C1742.82 98.3868 1750.4 105.975 1759.11 112.112C1764.46 115.902 1770.27 119.058 1775.92 122.321C1782.7 126.236 1787.93 131.969 1790.73 139.309C1794.16 148.325 1793.31 158.682 1788.48 167.047C1787.78 168.252 1785.9 167.165 1786.6 165.959Z" fill="#0058C5"/>
<path d="M1542.72 115.35H1525.28C1523.47 115.35 1522 113.949 1522 112.231V105.27C1522 103.552 1523.47 102.15 1525.28 102.15H1542.72C1544.53 102.15 1546 103.552 1546 105.27V112.186C1546.05 113.949 1544.57 115.35 1542.72 115.35Z" fill="url(#paint0_linear_60_9996)" fill-opacity="0.8"/>
<path d="M1319.36 96.6991C1319.36 91.9804 1319.36 87.171 1319.36 82.4524C1319.36 79.5486 1319.81 76.8263 1321.63 74.3762C1323.9 71.3817 1327.34 70.0205 1330.97 70.0205C1333.61 70.0205 1336.33 70.0205 1338.96 70.0205C1340.41 70.0205 1340.41 67.752 1338.96 67.752C1336.42 67.752 1333.88 67.752 1331.34 67.752C1327.62 67.752 1324.08 68.7501 1321.26 71.3817C1318.45 74.0132 1317 77.643 1317 81.4542C1317 84.0858 1317 86.7173 1317 89.2581C1317 91.7082 1317 94.249 1317 96.6991C1317.09 98.151 1319.36 98.151 1319.36 96.6991Z" fill="#0058C5"/>
<path d="M1334.97 75.3742C1337.23 73.4686 1339.5 71.563 1341.77 69.6574C1342.23 69.2944 1342.23 68.387 1341.77 68.024C1339.5 66.1184 1337.23 64.2128 1334.97 62.3072C1334.51 61.9442 1333.79 61.8535 1333.33 62.3072C1332.97 62.6702 1332.88 63.4869 1333.33 63.9406C1335.6 65.8462 1337.87 67.7518 1340.14 69.6574C1340.14 69.1129 1340.14 68.5685 1340.14 68.024C1337.87 69.9296 1335.6 71.8352 1333.33 73.7409C1332.88 74.1038 1332.97 74.9205 1333.33 75.3742C1333.88 75.828 1334.51 75.7372 1334.97 75.3742Z" fill="#0058C5"/>
<path opacity="0.8" d="M630.21 61.5337L618 68.5482L630.176 75.5779L630.21 61.5337Z" stroke="white" stroke-width="4.88839" stroke-miterlimit="10" stroke-linecap="round" stroke-linejoin="round"/>
<path opacity="0.8" d="M1666.98 198.647L1653 200.324L1661.45 211.558L1666.98 198.647Z" stroke="white" stroke-width="4.88839" stroke-miterlimit="10" stroke-linecap="round" stroke-linejoin="round"/>
<path opacity="0.9" d="M502.295 222.591C506.325 222.591 509.591 219.325 509.591 215.295C509.591 211.266 506.325 208 502.295 208C498.266 208 495 211.266 495 215.295C495 219.325 498.266 222.591 502.295 222.591Z" stroke="white" stroke-width="5.21247" stroke-miterlimit="10"/>
<path opacity="0.9" d="M1823.3 68.5908C1827.32 68.5908 1830.59 65.3246 1830.59 61.2954C1830.59 57.2663 1827.32 54 1823.3 54C1819.27 54 1816 57.2663 1816 61.2954C1816 65.3246 1819.27 68.5908 1823.3 68.5908Z" stroke="white" stroke-width="5.21247" stroke-miterlimit="10"/>
<path opacity="0.85" d="M328.5 130.271C332.09 130.271 335 127.361 335 123.771C335 120.182 332.09 117.271 328.5 117.271C324.91 117.271 322 120.182 322 123.771C322 127.361 324.91 130.271 328.5 130.271Z" fill="white" stroke="white" stroke-width="5.50554" stroke-miterlimit="10"/>
<g opacity="0.6">
<path d="M106.122 108.63L96.2798 90.8272L62.9411 101L64.7146 121.264C64.7488 121.628 64.9425 121.957 65.2449 122.167C65.5474 122.377 65.9297 122.431 66.277 122.325L105.41 110.381C105.765 110.274 106.046 110.013 106.178 109.678C106.326 109.334 106.306 108.952 106.122 108.63ZM76.9709 101.498L94.5283 96.1409C94.8918 96.0331 95.2749 96.2337 95.3908 96.5963C95.4985 96.9598 95.2979 97.3429 94.9354 97.4587L77.3779 102.816C77.0144 102.924 76.6313 102.723 76.5155 102.361C76.3987 101.99 76.6074 101.606 76.9709 101.498ZM78.52 106.583L96.9772 100.949C97.3407 100.841 97.7238 101.042 97.8397 101.404C97.9474 101.768 97.7468 102.151 97.3843 102.267L78.9351 107.9C78.5716 108.007 78.1885 107.807 78.0727 107.444C77.9569 107.082 78.1565 106.691 78.52 106.583ZM76.4188 114.226L68.8796 116.528C68.5161 116.635 68.133 116.435 68.0172 116.072C67.9094 115.709 68.11 115.326 68.4726 115.21L76.0118 112.909C76.3753 112.801 76.7584 113.001 76.8742 113.364C76.9901 113.727 76.7814 114.111 76.4188 114.226ZM74.8697 109.142L68.2383 111.166C67.8748 111.274 67.4917 111.073 67.3758 110.71C67.2681 110.347 67.4687 109.964 67.8312 109.848L74.4626 107.824C74.8261 107.716 75.2092 107.917 75.325 108.28C75.4328 108.643 75.2322 109.026 74.8697 109.142ZM73.3115 104.051L67.5718 105.799C67.2083 105.907 66.8252 105.706 66.7093 105.343C66.6016 104.98 66.8022 104.597 67.1647 104.481L72.8964 102.734C73.2599 102.626 73.643 102.827 73.7588 103.189C73.8837 103.559 73.6831 103.942 73.3115 104.051ZM99.8422 107.081L80.4852 112.992C80.1217 113.1 79.7386 112.899 79.6228 112.537C79.515 112.173 79.7156 111.79 80.0782 111.674L99.4352 105.764C99.7987 105.656 100.182 105.856 100.298 106.219C100.405 106.582 100.205 106.966 99.8422 107.081Z" fill="url(#paint1_linear_60_9996)"/>
<path d="M89.2231 69.7076C88.857 69.5132 88.4353 69.4724 88.0325 69.593L57.9302 78.7755C57.5273 78.896 57.2078 79.1703 57.0053 79.5373C56.8109 79.9033 56.7701 80.325 56.8906 80.7279L62.668 99.6426L95.7623 89.5472L89.993 70.6316C89.8644 70.2297 89.5972 69.9011 89.2231 69.7076ZM61.8005 83.0824L69.1266 80.8468C69.4901 80.739 69.8732 80.9396 69.9891 81.3022C70.0968 81.6657 69.8962 82.0488 69.5337 82.1646L62.2076 84.4002C61.844 84.508 61.4609 84.3074 61.3451 83.9448C61.2373 83.5813 61.437 83.1902 61.8005 83.0824ZM76.9437 84.0151L63.3497 88.1667C62.9862 88.2745 62.6031 88.0739 62.4872 87.7113C62.3795 87.3478 62.5801 86.9647 62.9426 86.8489L76.5295 82.7063C76.893 82.5985 77.2761 82.7991 77.3919 83.1617C77.5078 83.5242 77.3072 83.9073 76.9437 84.0151ZM88.2796 82.5139C88.2366 83.1975 87.8241 83.8669 87.1842 84.2685C87.085 84.3291 86.9848 84.3816 86.8847 84.4342L87.1111 85.1844C87.2189 85.548 87.0183 85.931 86.6557 86.0469C86.2922 86.1547 85.9091 85.9541 85.7933 85.5915L85.5569 84.826C84.9914 84.8838 84.3813 84.8404 83.7653 84.6752C83.3944 84.5794 83.178 84.1959 83.2747 83.8331C83.3704 83.4622 83.754 83.2458 84.1168 83.3425C84.6314 83.4787 85.6142 83.6339 86.4364 83.113C86.6956 82.952 86.8761 82.6775 86.8901 82.4469C86.9056 82.159 86.6567 82.0572 86.5552 82.0282C86.4195 81.9867 86.2706 81.9714 86.0751 81.9778C85.8465 81.98 85.6296 82.0134 85.4038 82.0397C85.1547 82.077 84.8966 82.107 84.6437 82.112C83.8538 82.1387 83.1961 81.8965 82.7749 81.4387C82.175 80.781 82.1154 79.7088 82.6494 78.9599C82.8675 78.6565 83.1737 78.4082 83.5278 78.2198L83.3005 77.4615C83.1927 77.098 83.3933 76.7149 83.7559 76.599C84.1194 76.4913 84.5025 76.6919 84.6183 77.0544L84.8575 77.8441C85.5137 77.7921 86.1787 77.8863 86.7638 78.1369C87.1161 78.2839 87.2779 78.6901 87.1229 79.0434C86.9679 79.3967 86.5697 79.5575 86.2164 79.4025C85.7427 79.1961 85.1891 79.1462 84.6544 79.2576C84.2639 79.344 83.9411 79.5206 83.7719 79.7528C83.6099 79.9761 83.6162 80.3106 83.7859 80.5033C83.9266 80.6586 84.222 80.7386 84.5888 80.7286C84.7923 80.7212 85.0011 80.6887 85.2108 80.6643C85.476 80.6252 85.7583 80.5923 86.0515 80.5826C86.3779 80.5773 86.6686 80.617 86.9309 80.6927C87.7922 80.9275 88.3279 81.6662 88.2796 82.5139Z" fill="url(#paint2_linear_60_9996)"/>
</g>
<g opacity="0.7">
<path d="M184 198L197.911 212" stroke="white" stroke-width="5.7978" stroke-miterlimit="10" stroke-linecap="round" stroke-linejoin="round"/>
<path d="M184 212L197.911 198" stroke="white" stroke-width="5.7978" stroke-miterlimit="10" stroke-linecap="round" stroke-linejoin="round"/>
</g>
<g opacity="0.7">
<path d="M1377 200L1390.91 214" stroke="white" stroke-width="5.7978" stroke-miterlimit="10" stroke-linecap="round" stroke-linejoin="round"/>
<path d="M1377 214L1390.91 200" stroke="white" stroke-width="5.7978" stroke-miterlimit="10" stroke-linecap="round" stroke-linejoin="round"/>
</g>
</g>
<defs>
<filter id="filter0_d_60_9996" x="0" y="0" width="1886" height="287" filterUnits="userSpaceOnUse" color-interpolation-filters="sRGB">
<feFlood flood-opacity="0" result="BackgroundImageFix"/>
<feColorMatrix in="SourceAlpha" type="matrix" values="0 0 0 0 0 0 0 0 0 0 0 0 0 0 0 0 0 0 127 0" result="hardAlpha"/>
<feOffset dy="5"/>
<feGaussianBlur stdDeviation="7.5"/>
<feComposite in2="hardAlpha" operator="out"/>
<feColorMatrix type="matrix" values="0 0 0 0 0 0 0 0 0 0 0 0 0 0 0 0 0 0 0.25 0"/>
<feBlend mode="normal" in2="BackgroundImageFix" result="effect1_dropShadow_60_9996"/>
<feBlend mode="normal" in="SourceGraphic" in2="effect1_dropShadow_60_9996" result="shape"/>
</filter>
<linearGradient id="paint0_linear_60_9996" x1="1526.93" y1="103.246" x2="1547.53" y2="120.896" gradientUnits="userSpaceOnUse">
<stop stop-color="white"/>
<stop offset="1" stop-color="white" stop-opacity="0"/>
</linearGradient>
<linearGradient id="paint1_linear_60_9996" x1="57.3308" y1="104.041" x2="141.183" y2="113.08" gradientUnits="userSpaceOnUse">
<stop stop-color="white"/>
<stop offset="1" stop-color="white" stop-opacity="0.5"/>
</linearGradient>
<linearGradient id="paint2_linear_60_9996" x1="59.614" y1="82.8582" x2="143.467" y2="91.8975" gradientUnits="userSpaceOnUse">
<stop stop-color="white"/>
<stop offset="1" stop-color="white" stop-opacity="0.5"/>
</linearGradient>
</defs>
</svg>
