<svg viewBox="0 0 320 132" fill="none" xmlns="http://www.w3.org/2000/svg">
<rect width="320" height="132" fill="#3178FF"/>
<g opacity="0.6">
<path d="M27.8048 79.9179L22.7379 70.7521L5.57371 75.9895L6.48677 86.4225C6.50439 86.6098 6.60411 86.7792 6.75982 86.8873C6.91553 86.9954 7.11235 87.023 7.2912 86.9685L27.4385 80.8193C27.6215 80.7643 27.7657 80.6296 27.8341 80.4575C27.9102 80.2803 27.8999 80.0836 27.8048 79.9179ZM12.7968 76.2461L21.8362 73.4878C22.0233 73.4323 22.2205 73.5356 22.2802 73.7223C22.3357 73.9094 22.2324 74.1067 22.0457 74.1663L13.0064 76.9246C12.8192 76.9801 12.622 76.8768 12.5624 76.6902C12.5022 76.4993 12.6097 76.3016 12.7968 76.2461ZM13.5944 78.8638L23.097 75.9631C23.2841 75.9076 23.4813 76.0109 23.541 76.1975C23.5965 76.3847 23.4932 76.5819 23.3065 76.6416L13.8081 79.5418C13.621 79.5972 13.4237 79.494 13.3641 79.3073C13.3045 79.1206 13.4073 78.9193 13.5944 78.8638ZM12.5126 82.799L8.63111 83.9838C8.44396 84.0393 8.24673 83.936 8.18709 83.7494C8.1316 83.5622 8.23488 83.365 8.42154 83.3054L12.303 82.1205C12.4902 82.0651 12.6874 82.1683 12.7471 82.355C12.8067 82.5417 12.6993 82.7394 12.5126 82.799ZM11.715 80.1814L8.30092 81.2233C8.11377 81.2788 7.91653 81.1755 7.8569 80.9889C7.80141 80.8017 7.90469 80.6045 8.09135 80.5448L11.5055 79.5029C11.6926 79.4474 11.8899 79.5507 11.9495 79.7374C12.005 79.9245 11.9017 80.1217 11.715 80.1814ZM10.9128 77.5601L7.95778 78.4601C7.77064 78.5156 7.5734 78.4123 7.51376 78.2257C7.45827 78.0385 7.56155 77.8413 7.74822 77.7816L10.6991 76.8821C10.8863 76.8266 11.0835 76.9299 11.1431 77.1165C11.2074 77.3069 11.1041 77.5041 10.9128 77.5601ZM24.572 79.1205L14.6062 82.1635C14.419 82.219 14.2218 82.1158 14.1622 81.9291C14.1067 81.7419 14.21 81.5447 14.3966 81.4851L24.3624 78.442C24.5495 78.3865 24.7468 78.4898 24.8064 78.6764C24.8619 78.8636 24.7586 79.0608 24.572 79.1205Z" fill="url(#paint0_linear_1_3498)"/>
<path d="M19.1047 59.8791C18.9162 59.779 18.6991 59.758 18.4917 59.82L2.99377 64.5476C2.78634 64.6097 2.62182 64.7509 2.51757 64.9398C2.41747 65.1283 2.39648 65.3454 2.45854 65.5528L5.43298 75.2909L22.4713 70.0934L19.501 60.3548C19.4348 60.1478 19.2973 59.9787 19.1047 59.8791ZM4.98635 66.765L8.75815 65.614C8.9453 65.5585 9.14253 65.6618 9.20217 65.8485C9.25766 66.0356 9.15438 66.2328 8.96771 66.2925L5.19591 67.4435C5.00876 67.4989 4.81153 67.3957 4.75189 67.209C4.6964 67.0219 4.7992 66.8205 4.98635 66.765ZM12.7827 67.2452L5.78392 69.3826C5.59678 69.4381 5.39954 69.3348 5.3399 69.1482C5.28441 68.961 5.38769 68.7638 5.57436 68.7041L12.5695 66.5713C12.7566 66.5159 12.9538 66.6191 13.0135 66.8058C13.0731 66.9925 12.9698 67.1897 12.7827 67.2452ZM18.6189 66.4723C18.5968 66.8242 18.3844 67.1689 18.055 67.3756C18.0039 67.4068 17.9523 67.4339 17.9008 67.4609L18.0173 67.8472C18.0728 68.0344 17.9695 68.2316 17.7829 68.2912C17.5957 68.3467 17.3985 68.2434 17.3389 68.0568L17.2172 67.6627C16.926 67.6924 16.6119 67.6701 16.2947 67.585C16.1038 67.5357 15.9924 67.3382 16.0422 67.1515C16.0915 66.9605 16.2889 66.8491 16.4757 66.8989C16.7406 66.969 17.2466 67.0489 17.6699 66.7807C17.8034 66.6978 17.8963 66.5565 17.9036 66.4378C17.9115 66.2896 17.7834 66.2372 17.7311 66.2222C17.6613 66.2009 17.5846 66.193 17.484 66.1963C17.3662 66.1974 17.2546 66.2146 17.1383 66.2282C17.0101 66.2473 16.8772 66.2628 16.747 66.2654C16.3403 66.2791 16.0017 66.1544 15.7848 65.9187C15.476 65.5801 15.4453 65.0281 15.7203 64.6425C15.8325 64.4863 15.9902 64.3585 16.1725 64.2615L16.0554 63.8711C16 63.6839 16.1032 63.4867 16.2899 63.4271C16.4771 63.3716 16.6743 63.4749 16.7339 63.6615L16.8571 64.0681C17.1949 64.0413 17.5373 64.0898 17.8385 64.2188C18.0199 64.2945 18.1032 64.5037 18.0234 64.6855C17.9436 64.8674 17.7386 64.9502 17.5567 64.8704C17.3128 64.7642 17.0278 64.7384 16.7525 64.7958C16.5514 64.8403 16.3853 64.9312 16.2982 65.0508C16.2148 65.1657 16.218 65.3379 16.3053 65.4372C16.3778 65.5171 16.5299 65.5583 16.7187 65.5531C16.8235 65.5493 16.931 65.5326 17.0389 65.52C17.1755 65.4999 17.3208 65.483 17.4718 65.478C17.6398 65.4752 17.7895 65.4957 17.9245 65.5346C18.368 65.6555 18.6438 66.0359 18.6189 66.4723Z" fill="url(#paint1_linear_1_3498)"/>
</g>
<path opacity="0.8" d="M49.7121 31.3107L48.1567 38.6778L55.5415 36.0418L49.7121 31.3107Z" stroke="white" stroke-width="2" stroke-miterlimit="10" stroke-linecap="round" stroke-linejoin="round"/>
<path opacity="0.8" d="M271.404 57.2908L267 63.398L274.82 63.9765L271.404 57.2908Z" stroke="white" stroke-width="2" stroke-miterlimit="10" stroke-linecap="round" stroke-linejoin="round"/>
<path d="M77.5034 65L85.4971 65C86.3248 65 87 65.637 87 66.4178L87 69.5822C87 70.363 86.3248 71 85.4971 71L77.5034 71C76.6757 71 76.0005 70.363 76.0005 69.5822L76.0005 66.4384C75.9787 65.637 76.6539 65 77.5034 65Z" fill="url(#paint2_linear_1_3498)" fill-opacity="0.8"/>
<path d="M308.503 52L316.497 52C317.325 52 318 52.637 318 53.4178L318 56.5822C318 57.363 317.325 58 316.497 58L308.503 58C307.676 58 307.001 57.363 307.001 56.5822L307.001 53.4384C306.979 52.637 307.654 52 308.503 52Z" fill="url(#paint3_linear_1_3498)" fill-opacity="0.8"/>
<g opacity="0.7">
<path d="M251 17L255.968 22" stroke="white" stroke-width="2" stroke-miterlimit="10" stroke-linecap="round" stroke-linejoin="round"/>
<path d="M251 22L255.968 17" stroke="white" stroke-width="2" stroke-miterlimit="10" stroke-linecap="round" stroke-linejoin="round"/>
</g>
<path d="M301.873 105.521C301.873 107.776 301.873 110.074 301.873 112.329C301.873 113.716 301.656 115.017 300.788 116.188C299.704 117.619 298.057 118.269 296.322 118.269C295.065 118.269 293.764 118.269 292.506 118.269C291.812 118.269 291.812 119.354 292.506 119.354C293.72 119.354 294.935 119.354 296.149 119.354C297.927 119.354 299.618 118.877 300.962 117.619C302.306 116.361 303 114.627 303 112.806C303 111.548 303 110.291 303 109.077C303 107.906 303 106.692 303 105.521C302.957 104.827 301.873 104.827 301.873 105.521Z" fill="#0058C5"/>
<path d="M294.415 115.711C293.331 116.622 292.247 117.532 291.163 118.443C290.946 118.616 290.946 119.05 291.163 119.223C292.247 120.134 293.331 121.045 294.415 121.955C294.632 122.129 294.979 122.172 295.195 121.955C295.369 121.782 295.412 121.392 295.195 121.175C294.111 120.264 293.027 119.353 291.943 118.443C291.943 118.703 291.943 118.963 291.943 119.223C293.027 118.313 294.111 117.402 295.195 116.492C295.412 116.318 295.369 115.928 295.195 115.711C294.935 115.494 294.632 115.538 294.415 115.711Z" fill="#0058C5"/>
<defs>
<linearGradient id="paint0_linear_1_3498" x1="2.6853" y1="77.5551" x2="45.8562" y2="82.2089" gradientUnits="userSpaceOnUse">
<stop stop-color="white"/>
<stop offset="1" stop-color="white" stop-opacity="0.5"/>
</linearGradient>
<linearGradient id="paint1_linear_1_3498" x1="3.86066" y1="66.6495" x2="47.0316" y2="71.3034" gradientUnits="userSpaceOnUse">
<stop stop-color="white"/>
<stop offset="1" stop-color="white" stop-opacity="0.5"/>
</linearGradient>
<linearGradient id="paint2_linear_1_3498" x1="84.7427" y1="70.5022" x2="75.3648" y2="62.4023" gradientUnits="userSpaceOnUse">
<stop stop-color="white"/>
<stop offset="1" stop-color="white" stop-opacity="0"/>
</linearGradient>
<linearGradient id="paint3_linear_1_3498" x1="315.743" y1="57.5022" x2="306.365" y2="49.4023" gradientUnits="userSpaceOnUse">
<stop stop-color="white"/>
<stop offset="1" stop-color="white" stop-opacity="0"/>
</linearGradient>
</defs>
</svg>
